M48
; DRILL file {KiCad 6.0.10+dfsg-2} date Tue 31 Jan 2023 07:59:58 PM EST
; FORMAT={-:-/ absolute / metric / decimal}
; #@! TF.CreationDate,2023-01-31T19:59:58-05:00
; #@! TF.GenerationSoftware,Kicad,Pcbnew,6.0.10+dfsg-2
; #@! TF.FileFunction,Plated,1,2,PTH
FMAT,2
METRIC
; #@! TA.AperFunction,Plated,PTH,ViaDrill
T1C0.400
; #@! TA.AperFunction,Plated,PTH,ComponentDrill
T2C0.600
; #@! TA.AperFunction,Plated,PTH,ComponentDrill
T3C1.000
; #@! TA.AperFunction,Plated,PTH,ComponentDrill
T4C1.300
; #@! TA.AperFunction,Plated,PTH,ComponentDrill
T5C1.400
; #@! TA.AperFunction,Plated,PTH,ComponentDrill
T6C1.500
; #@! TA.AperFunction,Plated,PTH,ComponentDrill
T7C4.300
%
G90
G05
T1
X100.962Y-131.5
X100.962Y-136.5
X100.962Y-139.0
X100.962Y-144.0
X101.0Y-67.5
X101.0Y-72.5
X101.0Y-75.0
X101.0Y-80.0
X101.0Y-83.5
X101.0Y-88.5
X101.0Y-91.0
X101.0Y-96.0
X101.0Y-99.387
X101.0Y-104.387
X101.0Y-106.887
X101.0Y-111.887
X101.0Y-115.5
X101.0Y-120.5
X101.0Y-123.0
X101.0Y-128.0
X102.212Y-139.0
X102.212Y-144.0
X102.25Y-75.0
X102.25Y-80.0
X102.25Y-91.0
X102.25Y-96.0
X102.25Y-106.887
X102.25Y-111.887
X102.25Y-123.0
X102.25Y-128.0
X102.462Y-131.5
X102.462Y-136.5
X102.5Y-67.5
X102.5Y-72.5
X102.5Y-83.5
X102.5Y-88.5
X102.5Y-99.387
X102.5Y-104.387
X102.5Y-115.5
X102.5Y-120.5
X103.462Y-139.0
X103.462Y-144.0
X103.5Y-75.0
X103.5Y-80.0
X103.5Y-91.0
X103.5Y-96.0
X103.5Y-106.887
X103.5Y-111.887
X103.5Y-123.0
X103.5Y-128.0
X103.962Y-131.5
X103.962Y-136.5
X104.0Y-67.5
X104.0Y-72.5
X104.0Y-83.5
X104.0Y-88.5
X104.0Y-99.387
X104.0Y-104.387
X104.0Y-115.5
X104.0Y-120.5
X104.25Y-69.0
X104.25Y-71.0
X104.25Y-76.5
X104.25Y-78.5
X104.25Y-85.0
X104.25Y-87.0
X104.25Y-92.5
X104.25Y-94.5
X104.25Y-100.887
X104.25Y-102.887
X104.25Y-108.387
X104.25Y-110.387
X104.25Y-117.0
X104.25Y-119.0
X104.25Y-124.5
X104.25Y-126.5
X104.25Y-133.0
X104.25Y-135.0
X104.25Y-140.5
X104.25Y-142.5
X104.962Y-139.0
X104.962Y-144.0
X105.0Y-75.0
X105.0Y-80.0
X105.0Y-91.0
X105.0Y-96.0
X105.0Y-106.887
X105.0Y-111.887
X105.0Y-123.0
X105.0Y-128.0
X105.462Y-131.5
X105.462Y-136.5
X105.5Y-67.5
X105.5Y-72.5
X105.5Y-83.5
X105.5Y-88.5
X105.5Y-99.387
X105.5Y-104.387
X105.5Y-115.5
X105.5Y-120.5
X106.462Y-139.0
X106.462Y-144.0
X106.5Y-75.0
X106.5Y-80.0
X106.5Y-91.0
X106.5Y-96.0
X106.5Y-106.887
X106.5Y-111.887
X106.5Y-123.0
X106.5Y-128.0
X106.962Y-131.5
X106.962Y-136.5
X107.0Y-67.5
X107.0Y-72.5
X107.0Y-83.5
X107.0Y-88.5
X107.0Y-99.387
X107.0Y-104.387
X107.0Y-115.5
X107.0Y-120.5
X107.962Y-139.0
X107.962Y-144.0
X108.0Y-75.0
X108.0Y-80.0
X108.0Y-91.0
X108.0Y-96.0
X108.0Y-106.887
X108.0Y-111.887
X108.0Y-123.0
X108.0Y-128.0
X108.462Y-131.5
X108.462Y-136.5
X108.5Y-67.5
X108.5Y-72.5
X108.5Y-83.5
X108.5Y-88.5
X108.5Y-99.387
X108.5Y-104.387
X108.5Y-115.5
X108.5Y-120.5
X109.212Y-133.0
X109.212Y-135.0
X109.462Y-139.0
X109.462Y-140.5
X109.462Y-142.5
X109.462Y-144.0
X109.5Y-75.0
X109.5Y-76.5
X109.5Y-78.5
X109.5Y-80.0
X109.5Y-91.0
X109.5Y-92.5
X109.5Y-94.5
X109.5Y-96.0
X109.5Y-106.887
X109.5Y-108.387
X109.5Y-110.387
X109.5Y-111.887
X109.5Y-123.0
X109.5Y-124.5
X109.5Y-126.5
X109.5Y-128.0
X110.0Y-67.5
X110.0Y-69.0
X110.0Y-71.0
X110.0Y-72.5
X110.0Y-83.5
X110.0Y-85.0
X110.0Y-87.0
X110.0Y-88.5
X110.0Y-99.387
X110.0Y-100.887
X110.0Y-102.9
X110.0Y-104.387
X110.0Y-115.5
X110.0Y-117.0
X110.0Y-118.75
X110.0Y-120.5
X110.5Y-131.5
X110.5Y-133.0
X110.5Y-135.0
X110.5Y-136.5
X111.0Y-75.0
X111.0Y-76.5
X111.0Y-78.5
X111.0Y-80.0
X111.0Y-91.0
X111.0Y-92.5
X111.0Y-94.5
X111.0Y-96.0
X111.0Y-106.887
X111.0Y-108.387
X111.0Y-110.387
X111.0Y-111.887
X111.0Y-123.0
X111.0Y-124.5
X111.0Y-126.5
X111.0Y-128.0
X111.0Y-139.0
X111.0Y-140.5
X111.0Y-142.5
X111.0Y-144.0
X111.6Y-67.5
X111.6Y-69.0
X111.6Y-71.0
X111.6Y-72.5
X111.7Y-83.5
X111.7Y-85.0
X111.7Y-87.0
X111.7Y-88.5
X111.7Y-99.4
X111.7Y-100.9
X111.7Y-102.912
X111.7Y-104.4
X111.75Y-115.5
X111.75Y-117.0
X111.75Y-118.75
X111.75Y-120.5
X112.0Y-131.5
X112.0Y-133.0
X112.0Y-135.0
X112.0Y-136.5
X112.7Y-91.0
X112.7Y-92.5
X112.7Y-94.5
X112.7Y-96.0
X112.75Y-123.0
X112.75Y-124.5
X112.75Y-126.5
X112.75Y-128.0
X112.75Y-139.0
X112.75Y-140.5
X112.75Y-142.5
X112.75Y-144.0
X112.8Y-75.0
X112.8Y-76.5
X112.8Y-78.5
X112.8Y-80.0
X112.8Y-106.9
X112.8Y-108.4
X112.8Y-110.4
X112.8Y-111.9
X113.2Y-67.5
X113.2Y-69.0
X113.2Y-71.0
X113.2Y-72.5
X113.25Y-115.5
X113.25Y-117.0
X113.25Y-118.75
X113.25Y-120.5
X113.3Y-83.5
X113.3Y-85.0
X113.3Y-87.0
X113.3Y-88.5
X113.3Y-99.4
X113.3Y-100.9
X113.3Y-102.912
X113.3Y-104.4
X113.5Y-131.5
X113.5Y-133.0
X113.5Y-135.0
X113.5Y-136.5
X114.25Y-123.0
X114.25Y-124.5
X114.25Y-126.5
X114.25Y-128.0
X114.3Y-91.0
X114.3Y-92.5
X114.3Y-94.5
X114.3Y-96.0
X114.4Y-75.0
X114.4Y-76.5
X114.4Y-78.5
X114.4Y-80.0
X114.4Y-106.9
X114.4Y-108.4
X114.4Y-110.4
X114.4Y-111.9
X114.5Y-139.0
X114.5Y-140.5
X114.5Y-142.5
X114.5Y-144.0
X114.962Y-131.5
X114.962Y-136.5
X115.0Y-67.5
X115.0Y-72.5
X115.0Y-83.5
X115.0Y-88.5
X115.0Y-99.387
X115.0Y-104.387
X115.0Y-115.5
X115.0Y-120.5
X115.962Y-139.0
X115.962Y-140.5
X115.962Y-142.5
X115.962Y-144.0
X116.0Y-75.0
X116.0Y-76.5
X116.0Y-78.5
X116.0Y-80.0
X116.0Y-91.0
X116.0Y-92.5
X116.0Y-94.5
X116.0Y-96.0
X116.0Y-106.887
X116.0Y-108.387
X116.0Y-110.387
X116.0Y-111.887
X116.0Y-123.0
X116.0Y-124.5
X116.0Y-126.5
X116.0Y-128.0
X116.462Y-131.5
X116.462Y-136.5
X116.5Y-67.5
X116.5Y-72.5
X116.5Y-83.5
X116.5Y-88.5
X116.5Y-99.387
X116.5Y-104.387
X116.5Y-115.5
X116.5Y-120.5
X117.462Y-139.0
X117.462Y-144.0
X117.5Y-75.0
X117.5Y-80.0
X117.5Y-91.0
X117.5Y-96.0
X117.5Y-106.887
X117.5Y-111.887
X117.5Y-123.0
X117.5Y-128.0
X117.962Y-131.5
X117.962Y-133.0
X117.962Y-135.0
X117.962Y-136.5
X118.0Y-67.5
X118.0Y-69.0
X118.0Y-71.0
X118.0Y-72.5
X118.0Y-83.5
X118.0Y-85.0
X118.0Y-87.0
X118.0Y-88.5
X118.0Y-99.387
X118.0Y-100.887
X118.0Y-102.887
X118.0Y-104.387
X118.0Y-115.5
X118.0Y-117.0
X118.0Y-119.0
X118.0Y-120.5
X118.8Y-60.787
X118.962Y-139.0
X118.962Y-144.0
X119.0Y-75.0
X119.0Y-80.0
X119.0Y-91.0
X119.0Y-96.0
X119.0Y-106.887
X119.0Y-111.887
X119.0Y-123.0
X119.0Y-128.0
X120.462Y-139.0
X120.462Y-144.0
X120.5Y-75.0
X120.5Y-80.0
X120.5Y-91.0
X120.5Y-96.0
X120.5Y-106.887
X120.5Y-111.887
X120.5Y-123.0
X120.5Y-128.0
X121.962Y-139.0
X121.962Y-140.5
X121.962Y-142.5
X121.962Y-144.0
X122.0Y-75.0
X122.0Y-76.5
X122.0Y-78.5
X122.0Y-80.0
X122.0Y-91.0
X122.0Y-92.5
X122.0Y-94.5
X122.0Y-96.0
X122.0Y-106.887
X122.0Y-108.387
X122.0Y-110.387
X122.0Y-111.887
X122.0Y-123.0
X122.0Y-124.5
X122.0Y-126.5
X122.0Y-128.0
X122.55Y-60.787
X126.3Y-60.737
X130.05Y-60.787
X131.25Y-59.9
X131.25Y-62.05
X133.25Y-64.5
X133.75Y-63.5
X133.8Y-60.787
X134.0Y-65.25
X134.75Y-62.6
X134.75Y-66.25
X137.55Y-60.8
X141.25Y-63.5
X141.3Y-60.787
X142.856Y-152.0
X143.062Y-63.938
X144.5Y-72.5
X144.5Y-81.5
X144.5Y-89.5
X144.5Y-97.5
X144.5Y-105.5
X144.5Y-113.0
X144.5Y-120.5
X144.5Y-128.0
X144.5Y-135.5
X144.5Y-143.0
X144.5Y-150.5
X145.05Y-60.837
X146.0Y-65.5
X148.3Y-64.9
X148.8Y-60.837
X152.55Y-60.837
X154.4Y-63.95
X155.25Y-67.25
X156.2Y-60.837
X156.3Y-64.8
T2
X101.775Y-55.0
X101.775Y-150.0
X102.72Y-52.72
X102.72Y-57.28
X102.72Y-147.72
X102.72Y-152.28
X105.0Y-51.775
X105.0Y-58.225
X105.0Y-146.775
X105.0Y-153.225
X107.28Y-52.72
X107.28Y-57.28
X107.28Y-147.72
X107.28Y-152.28
X108.225Y-55.0
X108.225Y-150.0
X171.775Y-55.0
X171.775Y-150.0
X172.72Y-52.72
X172.72Y-57.28
X172.72Y-147.72
X172.72Y-152.28
X175.0Y-51.775
X175.0Y-58.225
X175.0Y-146.775
X175.0Y-153.225
X177.28Y-52.72
X177.28Y-57.28
X177.28Y-147.72
X177.28Y-152.28
X178.225Y-55.0
X178.225Y-150.0
T3
X123.48Y-55.0
X126.02Y-55.0
X128.56Y-55.0
X131.1Y-55.0
X133.64Y-55.0
X136.18Y-55.0
X138.72Y-55.0
X141.26Y-55.0
X143.8Y-55.0
X146.34Y-55.0
X148.88Y-55.0
X151.42Y-55.0
X153.96Y-55.0
X156.5Y-55.0
T4
X149.0Y-72.38
X149.0Y-80.0
X149.0Y-85.38
X149.0Y-93.0
X149.0Y-98.75
X149.0Y-106.37
X149.0Y-112.0
X149.0Y-119.62
X149.0Y-125.0
X149.0Y-132.62
X149.0Y-138.0
X149.0Y-145.62
X159.16Y-80.0
X159.16Y-93.0
X159.16Y-106.37
X159.16Y-119.62
X159.16Y-132.62
X159.16Y-145.62
X166.78Y-80.0
X166.78Y-93.0
X166.78Y-106.37
X166.78Y-119.62
X166.78Y-132.62
X166.78Y-145.62
T5
X174.482Y-104.08
X174.482Y-108.04
X174.482Y-112.0
X174.482Y-115.96
X174.482Y-119.92
X174.482Y-123.88
X174.482Y-127.84
X174.482Y-131.8
X174.482Y-135.76
T6
X101.912Y-134.0
X101.912Y-141.5
X101.95Y-70.0
X101.95Y-77.5
X101.95Y-86.0
X101.95Y-93.5
X101.95Y-102.0
X101.95Y-109.5
X101.95Y-118.0
X101.95Y-125.5
X107.012Y-134.0
X107.012Y-141.5
X107.05Y-70.0
X107.05Y-77.5
X107.05Y-86.0
X107.05Y-93.5
X107.05Y-102.0
X107.05Y-109.5
X107.05Y-118.0
X107.05Y-125.5
X115.5Y-134.0
X115.537Y-70.0
X115.537Y-86.0
X115.537Y-101.887
X115.537Y-118.0
X119.0Y-141.5
X119.037Y-77.5
X119.037Y-93.5
X119.037Y-109.387
X119.037Y-125.5
X122.5Y-134.0
X122.537Y-70.0
X122.537Y-86.0
X122.537Y-101.887
X122.537Y-118.0
X139.0Y-134.0
X139.0Y-141.5
X139.037Y-70.0
X139.037Y-77.5
X139.037Y-86.0
X139.037Y-93.5
X139.037Y-101.887
X139.037Y-109.387
X139.037Y-118.0
X139.037Y-125.5
X172.45Y-80.0
X172.45Y-86.5
X172.45Y-93.0
X177.55Y-80.0
X177.55Y-86.5
X177.55Y-93.0
T7
X105.0Y-55.0
X105.0Y-150.0
X175.0Y-55.0
X175.0Y-150.0
T0
M30
