%TF.GenerationSoftware,KiCad,Pcbnew,6.0.10+dfsg-2*%
%TF.CreationDate,2023-01-31T19:59:59-05:00*%
%TF.ProjectId,StoveRelays,53746f76-6552-4656-9c61-79732e6b6963,rev?*%
%TF.SameCoordinates,Original*%
%TF.FileFunction,Drillmap*%
%TF.FilePolarity,Positive*%
%FSLAX45Y45*%
G04 Gerber Fmt 4.5, Leading zero omitted, Abs format (unit mm)*
G04 Created by KiCad (PCBNEW 6.0.10+dfsg-2) date 2023-01-31 19:59:59*
%MOMM*%
%LPD*%
G01*
G04 APERTURE LIST*
%ADD10C,0.100000*%
%ADD11C,0.200000*%
%ADD12C,0.040000*%
%ADD13C,0.060000*%
%ADD14C,0.130000*%
%ADD15C,0.140000*%
%ADD16C,0.150000*%
%ADD17C,0.430000*%
G04 APERTURE END LIST*
D10*
X18000000Y-15500000D02*
X18000000Y-5000000D01*
X18000000Y-5000000D02*
X10000000Y-5000000D01*
X10000000Y-15500000D02*
X10000000Y-5000000D01*
X18000000Y-15500000D02*
X10000000Y-15500000D01*
D11*
D12*
X10076250Y-13130000D02*
X10116250Y-13170000D01*
X10116250Y-13130000D02*
X10076250Y-13170000D01*
X10076250Y-13630000D02*
X10116250Y-13670000D01*
X10116250Y-13630000D02*
X10076250Y-13670000D01*
X10076250Y-13880000D02*
X10116250Y-13920000D01*
X10116250Y-13880000D02*
X10076250Y-13920000D01*
X10076250Y-14380000D02*
X10116250Y-14420000D01*
X10116250Y-14380000D02*
X10076250Y-14420000D01*
X10080000Y-6730000D02*
X10120000Y-6770000D01*
X10120000Y-6730000D02*
X10080000Y-6770000D01*
X10080000Y-7230000D02*
X10120000Y-7270000D01*
X10120000Y-7230000D02*
X10080000Y-7270000D01*
X10080000Y-7480000D02*
X10120000Y-7520000D01*
X10120000Y-7480000D02*
X10080000Y-7520000D01*
X10080000Y-7980000D02*
X10120000Y-8020000D01*
X10120000Y-7980000D02*
X10080000Y-8020000D01*
X10080000Y-8330000D02*
X10120000Y-8370000D01*
X10120000Y-8330000D02*
X10080000Y-8370000D01*
X10080000Y-8830000D02*
X10120000Y-8870000D01*
X10120000Y-8830000D02*
X10080000Y-8870000D01*
X10080000Y-9080000D02*
X10120000Y-9120000D01*
X10120000Y-9080000D02*
X10080000Y-9120000D01*
X10080000Y-9580000D02*
X10120000Y-9620000D01*
X10120000Y-9580000D02*
X10080000Y-9620000D01*
X10080000Y-9918750D02*
X10120000Y-9958750D01*
X10120000Y-9918750D02*
X10080000Y-9958750D01*
X10080000Y-10418750D02*
X10120000Y-10458750D01*
X10120000Y-10418750D02*
X10080000Y-10458750D01*
X10080000Y-10668750D02*
X10120000Y-10708750D01*
X10120000Y-10668750D02*
X10080000Y-10708750D01*
X10080000Y-11168750D02*
X10120000Y-11208750D01*
X10120000Y-11168750D02*
X10080000Y-11208750D01*
X10080000Y-11530000D02*
X10120000Y-11570000D01*
X10120000Y-11530000D02*
X10080000Y-11570000D01*
X10080000Y-12030000D02*
X10120000Y-12070000D01*
X10120000Y-12030000D02*
X10080000Y-12070000D01*
X10080000Y-12280000D02*
X10120000Y-12320000D01*
X10120000Y-12280000D02*
X10080000Y-12320000D01*
X10080000Y-12780000D02*
X10120000Y-12820000D01*
X10120000Y-12780000D02*
X10080000Y-12820000D01*
X10201250Y-13880000D02*
X10241250Y-13920000D01*
X10241250Y-13880000D02*
X10201250Y-13920000D01*
X10201250Y-14380000D02*
X10241250Y-14420000D01*
X10241250Y-14380000D02*
X10201250Y-14420000D01*
X10205000Y-7480000D02*
X10245000Y-7520000D01*
X10245000Y-7480000D02*
X10205000Y-7520000D01*
X10205000Y-7980000D02*
X10245000Y-8020000D01*
X10245000Y-7980000D02*
X10205000Y-8020000D01*
X10205000Y-9080000D02*
X10245000Y-9120000D01*
X10245000Y-9080000D02*
X10205000Y-9120000D01*
X10205000Y-9580000D02*
X10245000Y-9620000D01*
X10245000Y-9580000D02*
X10205000Y-9620000D01*
X10205000Y-10668750D02*
X10245000Y-10708750D01*
X10245000Y-10668750D02*
X10205000Y-10708750D01*
X10205000Y-11168750D02*
X10245000Y-11208750D01*
X10245000Y-11168750D02*
X10205000Y-11208750D01*
X10205000Y-12280000D02*
X10245000Y-12320000D01*
X10245000Y-12280000D02*
X10205000Y-12320000D01*
X10205000Y-12780000D02*
X10245000Y-12820000D01*
X10245000Y-12780000D02*
X10205000Y-12820000D01*
X10226250Y-13130000D02*
X10266250Y-13170000D01*
X10266250Y-13130000D02*
X10226250Y-13170000D01*
X10226250Y-13630000D02*
X10266250Y-13670000D01*
X10266250Y-13630000D02*
X10226250Y-13670000D01*
X10230000Y-6730000D02*
X10270000Y-6770000D01*
X10270000Y-6730000D02*
X10230000Y-6770000D01*
X10230000Y-7230000D02*
X10270000Y-7270000D01*
X10270000Y-7230000D02*
X10230000Y-7270000D01*
X10230000Y-8330000D02*
X10270000Y-8370000D01*
X10270000Y-8330000D02*
X10230000Y-8370000D01*
X10230000Y-8830000D02*
X10270000Y-8870000D01*
X10270000Y-8830000D02*
X10230000Y-8870000D01*
X10230000Y-9918750D02*
X10270000Y-9958750D01*
X10270000Y-9918750D02*
X10230000Y-9958750D01*
X10230000Y-10418750D02*
X10270000Y-10458750D01*
X10270000Y-10418750D02*
X10230000Y-10458750D01*
X10230000Y-11530000D02*
X10270000Y-11570000D01*
X10270000Y-11530000D02*
X10230000Y-11570000D01*
X10230000Y-12030000D02*
X10270000Y-12070000D01*
X10270000Y-12030000D02*
X10230000Y-12070000D01*
X10326250Y-13880000D02*
X10366250Y-13920000D01*
X10366250Y-13880000D02*
X10326250Y-13920000D01*
X10326250Y-14380000D02*
X10366250Y-14420000D01*
X10366250Y-14380000D02*
X10326250Y-14420000D01*
X10330000Y-7480000D02*
X10370000Y-7520000D01*
X10370000Y-7480000D02*
X10330000Y-7520000D01*
X10330000Y-7980000D02*
X10370000Y-8020000D01*
X10370000Y-7980000D02*
X10330000Y-8020000D01*
X10330000Y-9080000D02*
X10370000Y-9120000D01*
X10370000Y-9080000D02*
X10330000Y-9120000D01*
X10330000Y-9580000D02*
X10370000Y-9620000D01*
X10370000Y-9580000D02*
X10330000Y-9620000D01*
X10330000Y-10668750D02*
X10370000Y-10708750D01*
X10370000Y-10668750D02*
X10330000Y-10708750D01*
X10330000Y-11168750D02*
X10370000Y-11208750D01*
X10370000Y-11168750D02*
X10330000Y-11208750D01*
X10330000Y-12280000D02*
X10370000Y-12320000D01*
X10370000Y-12280000D02*
X10330000Y-12320000D01*
X10330000Y-12780000D02*
X10370000Y-12820000D01*
X10370000Y-12780000D02*
X10330000Y-12820000D01*
X10376250Y-13130000D02*
X10416250Y-13170000D01*
X10416250Y-13130000D02*
X10376250Y-13170000D01*
X10376250Y-13630000D02*
X10416250Y-13670000D01*
X10416250Y-13630000D02*
X10376250Y-13670000D01*
X10380000Y-6730000D02*
X10420000Y-6770000D01*
X10420000Y-6730000D02*
X10380000Y-6770000D01*
X10380000Y-7230000D02*
X10420000Y-7270000D01*
X10420000Y-7230000D02*
X10380000Y-7270000D01*
X10380000Y-8330000D02*
X10420000Y-8370000D01*
X10420000Y-8330000D02*
X10380000Y-8370000D01*
X10380000Y-8830000D02*
X10420000Y-8870000D01*
X10420000Y-8830000D02*
X10380000Y-8870000D01*
X10380000Y-9918750D02*
X10420000Y-9958750D01*
X10420000Y-9918750D02*
X10380000Y-9958750D01*
X10380000Y-10418750D02*
X10420000Y-10458750D01*
X10420000Y-10418750D02*
X10380000Y-10458750D01*
X10380000Y-11530000D02*
X10420000Y-11570000D01*
X10420000Y-11530000D02*
X10380000Y-11570000D01*
X10380000Y-12030000D02*
X10420000Y-12070000D01*
X10420000Y-12030000D02*
X10380000Y-12070000D01*
X10405000Y-6880000D02*
X10445000Y-6920000D01*
X10445000Y-6880000D02*
X10405000Y-6920000D01*
X10405000Y-7080000D02*
X10445000Y-7120000D01*
X10445000Y-7080000D02*
X10405000Y-7120000D01*
X10405000Y-7630000D02*
X10445000Y-7670000D01*
X10445000Y-7630000D02*
X10405000Y-7670000D01*
X10405000Y-7830000D02*
X10445000Y-7870000D01*
X10445000Y-7830000D02*
X10405000Y-7870000D01*
X10405000Y-8480000D02*
X10445000Y-8520000D01*
X10445000Y-8480000D02*
X10405000Y-8520000D01*
X10405000Y-8680000D02*
X10445000Y-8720000D01*
X10445000Y-8680000D02*
X10405000Y-8720000D01*
X10405000Y-9230000D02*
X10445000Y-9270000D01*
X10445000Y-9230000D02*
X10405000Y-9270000D01*
X10405000Y-9430000D02*
X10445000Y-9470000D01*
X10445000Y-9430000D02*
X10405000Y-9470000D01*
X10405000Y-10068750D02*
X10445000Y-10108750D01*
X10445000Y-10068750D02*
X10405000Y-10108750D01*
X10405000Y-10268750D02*
X10445000Y-10308750D01*
X10445000Y-10268750D02*
X10405000Y-10308750D01*
X10405000Y-10818750D02*
X10445000Y-10858750D01*
X10445000Y-10818750D02*
X10405000Y-10858750D01*
X10405000Y-11018750D02*
X10445000Y-11058750D01*
X10445000Y-11018750D02*
X10405000Y-11058750D01*
X10405000Y-11680000D02*
X10445000Y-11720000D01*
X10445000Y-11680000D02*
X10405000Y-11720000D01*
X10405000Y-11880000D02*
X10445000Y-11920000D01*
X10445000Y-11880000D02*
X10405000Y-11920000D01*
X10405000Y-12430000D02*
X10445000Y-12470000D01*
X10445000Y-12430000D02*
X10405000Y-12470000D01*
X10405000Y-12630000D02*
X10445000Y-12670000D01*
X10445000Y-12630000D02*
X10405000Y-12670000D01*
X10405000Y-13280000D02*
X10445000Y-13320000D01*
X10445000Y-13280000D02*
X10405000Y-13320000D01*
X10405000Y-13480000D02*
X10445000Y-13520000D01*
X10445000Y-13480000D02*
X10405000Y-13520000D01*
X10405000Y-14030000D02*
X10445000Y-14070000D01*
X10445000Y-14030000D02*
X10405000Y-14070000D01*
X10405000Y-14230000D02*
X10445000Y-14270000D01*
X10445000Y-14230000D02*
X10405000Y-14270000D01*
X10476250Y-13880000D02*
X10516250Y-13920000D01*
X10516250Y-13880000D02*
X10476250Y-13920000D01*
X10476250Y-14380000D02*
X10516250Y-14420000D01*
X10516250Y-14380000D02*
X10476250Y-14420000D01*
X10480000Y-7480000D02*
X10520000Y-7520000D01*
X10520000Y-7480000D02*
X10480000Y-7520000D01*
X10480000Y-7980000D02*
X10520000Y-8020000D01*
X10520000Y-7980000D02*
X10480000Y-8020000D01*
X10480000Y-9080000D02*
X10520000Y-9120000D01*
X10520000Y-9080000D02*
X10480000Y-9120000D01*
X10480000Y-9580000D02*
X10520000Y-9620000D01*
X10520000Y-9580000D02*
X10480000Y-9620000D01*
X10480000Y-10668750D02*
X10520000Y-10708750D01*
X10520000Y-10668750D02*
X10480000Y-10708750D01*
X10480000Y-11168750D02*
X10520000Y-11208750D01*
X10520000Y-11168750D02*
X10480000Y-11208750D01*
X10480000Y-12280000D02*
X10520000Y-12320000D01*
X10520000Y-12280000D02*
X10480000Y-12320000D01*
X10480000Y-12780000D02*
X10520000Y-12820000D01*
X10520000Y-12780000D02*
X10480000Y-12820000D01*
X10526250Y-13130000D02*
X10566250Y-13170000D01*
X10566250Y-13130000D02*
X10526250Y-13170000D01*
X10526250Y-13630000D02*
X10566250Y-13670000D01*
X10566250Y-13630000D02*
X10526250Y-13670000D01*
X10530000Y-6730000D02*
X10570000Y-6770000D01*
X10570000Y-6730000D02*
X10530000Y-6770000D01*
X10530000Y-7230000D02*
X10570000Y-7270000D01*
X10570000Y-7230000D02*
X10530000Y-7270000D01*
X10530000Y-8330000D02*
X10570000Y-8370000D01*
X10570000Y-8330000D02*
X10530000Y-8370000D01*
X10530000Y-8830000D02*
X10570000Y-8870000D01*
X10570000Y-8830000D02*
X10530000Y-8870000D01*
X10530000Y-9918750D02*
X10570000Y-9958750D01*
X10570000Y-9918750D02*
X10530000Y-9958750D01*
X10530000Y-10418750D02*
X10570000Y-10458750D01*
X10570000Y-10418750D02*
X10530000Y-10458750D01*
X10530000Y-11530000D02*
X10570000Y-11570000D01*
X10570000Y-11530000D02*
X10530000Y-11570000D01*
X10530000Y-12030000D02*
X10570000Y-12070000D01*
X10570000Y-12030000D02*
X10530000Y-12070000D01*
X10626250Y-13880000D02*
X10666250Y-13920000D01*
X10666250Y-13880000D02*
X10626250Y-13920000D01*
X10626250Y-14380000D02*
X10666250Y-14420000D01*
X10666250Y-14380000D02*
X10626250Y-14420000D01*
X10630000Y-7480000D02*
X10670000Y-7520000D01*
X10670000Y-7480000D02*
X10630000Y-7520000D01*
X10630000Y-7980000D02*
X10670000Y-8020000D01*
X10670000Y-7980000D02*
X10630000Y-8020000D01*
X10630000Y-9080000D02*
X10670000Y-9120000D01*
X10670000Y-9080000D02*
X10630000Y-9120000D01*
X10630000Y-9580000D02*
X10670000Y-9620000D01*
X10670000Y-9580000D02*
X10630000Y-9620000D01*
X10630000Y-10668750D02*
X10670000Y-10708750D01*
X10670000Y-10668750D02*
X10630000Y-10708750D01*
X10630000Y-11168750D02*
X10670000Y-11208750D01*
X10670000Y-11168750D02*
X10630000Y-11208750D01*
X10630000Y-12280000D02*
X10670000Y-12320000D01*
X10670000Y-12280000D02*
X10630000Y-12320000D01*
X10630000Y-12780000D02*
X10670000Y-12820000D01*
X10670000Y-12780000D02*
X10630000Y-12820000D01*
X10676250Y-13130000D02*
X10716250Y-13170000D01*
X10716250Y-13130000D02*
X10676250Y-13170000D01*
X10676250Y-13630000D02*
X10716250Y-13670000D01*
X10716250Y-13630000D02*
X10676250Y-13670000D01*
X10680000Y-6730000D02*
X10720000Y-6770000D01*
X10720000Y-6730000D02*
X10680000Y-6770000D01*
X10680000Y-7230000D02*
X10720000Y-7270000D01*
X10720000Y-7230000D02*
X10680000Y-7270000D01*
X10680000Y-8330000D02*
X10720000Y-8370000D01*
X10720000Y-8330000D02*
X10680000Y-8370000D01*
X10680000Y-8830000D02*
X10720000Y-8870000D01*
X10720000Y-8830000D02*
X10680000Y-8870000D01*
X10680000Y-9918750D02*
X10720000Y-9958750D01*
X10720000Y-9918750D02*
X10680000Y-9958750D01*
X10680000Y-10418750D02*
X10720000Y-10458750D01*
X10720000Y-10418750D02*
X10680000Y-10458750D01*
X10680000Y-11530000D02*
X10720000Y-11570000D01*
X10720000Y-11530000D02*
X10680000Y-11570000D01*
X10680000Y-12030000D02*
X10720000Y-12070000D01*
X10720000Y-12030000D02*
X10680000Y-12070000D01*
X10776250Y-13880000D02*
X10816250Y-13920000D01*
X10816250Y-13880000D02*
X10776250Y-13920000D01*
X10776250Y-14380000D02*
X10816250Y-14420000D01*
X10816250Y-14380000D02*
X10776250Y-14420000D01*
X10780000Y-7480000D02*
X10820000Y-7520000D01*
X10820000Y-7480000D02*
X10780000Y-7520000D01*
X10780000Y-7980000D02*
X10820000Y-8020000D01*
X10820000Y-7980000D02*
X10780000Y-8020000D01*
X10780000Y-9080000D02*
X10820000Y-9120000D01*
X10820000Y-9080000D02*
X10780000Y-9120000D01*
X10780000Y-9580000D02*
X10820000Y-9620000D01*
X10820000Y-9580000D02*
X10780000Y-9620000D01*
X10780000Y-10668750D02*
X10820000Y-10708750D01*
X10820000Y-10668750D02*
X10780000Y-10708750D01*
X10780000Y-11168750D02*
X10820000Y-11208750D01*
X10820000Y-11168750D02*
X10780000Y-11208750D01*
X10780000Y-12280000D02*
X10820000Y-12320000D01*
X10820000Y-12280000D02*
X10780000Y-12320000D01*
X10780000Y-12780000D02*
X10820000Y-12820000D01*
X10820000Y-12780000D02*
X10780000Y-12820000D01*
X10826250Y-13130000D02*
X10866250Y-13170000D01*
X10866250Y-13130000D02*
X10826250Y-13170000D01*
X10826250Y-13630000D02*
X10866250Y-13670000D01*
X10866250Y-13630000D02*
X10826250Y-13670000D01*
X10830000Y-6730000D02*
X10870000Y-6770000D01*
X10870000Y-6730000D02*
X10830000Y-6770000D01*
X10830000Y-7230000D02*
X10870000Y-7270000D01*
X10870000Y-7230000D02*
X10830000Y-7270000D01*
X10830000Y-8330000D02*
X10870000Y-8370000D01*
X10870000Y-8330000D02*
X10830000Y-8370000D01*
X10830000Y-8830000D02*
X10870000Y-8870000D01*
X10870000Y-8830000D02*
X10830000Y-8870000D01*
X10830000Y-9918750D02*
X10870000Y-9958750D01*
X10870000Y-9918750D02*
X10830000Y-9958750D01*
X10830000Y-10418750D02*
X10870000Y-10458750D01*
X10870000Y-10418750D02*
X10830000Y-10458750D01*
X10830000Y-11530000D02*
X10870000Y-11570000D01*
X10870000Y-11530000D02*
X10830000Y-11570000D01*
X10830000Y-12030000D02*
X10870000Y-12070000D01*
X10870000Y-12030000D02*
X10830000Y-12070000D01*
X10901250Y-13280000D02*
X10941250Y-13320000D01*
X10941250Y-13280000D02*
X10901250Y-13320000D01*
X10901250Y-13480000D02*
X10941250Y-13520000D01*
X10941250Y-13480000D02*
X10901250Y-13520000D01*
X10926250Y-13880000D02*
X10966250Y-13920000D01*
X10966250Y-13880000D02*
X10926250Y-13920000D01*
X10926250Y-14030000D02*
X10966250Y-14070000D01*
X10966250Y-14030000D02*
X10926250Y-14070000D01*
X10926250Y-14230000D02*
X10966250Y-14270000D01*
X10966250Y-14230000D02*
X10926250Y-14270000D01*
X10926250Y-14380000D02*
X10966250Y-14420000D01*
X10966250Y-14380000D02*
X10926250Y-14420000D01*
X10930000Y-7480000D02*
X10970000Y-7520000D01*
X10970000Y-7480000D02*
X10930000Y-7520000D01*
X10930000Y-7630000D02*
X10970000Y-7670000D01*
X10970000Y-7630000D02*
X10930000Y-7670000D01*
X10930000Y-7830000D02*
X10970000Y-7870000D01*
X10970000Y-7830000D02*
X10930000Y-7870000D01*
X10930000Y-7980000D02*
X10970000Y-8020000D01*
X10970000Y-7980000D02*
X10930000Y-8020000D01*
X10930000Y-9080000D02*
X10970000Y-9120000D01*
X10970000Y-9080000D02*
X10930000Y-9120000D01*
X10930000Y-9230000D02*
X10970000Y-9270000D01*
X10970000Y-9230000D02*
X10930000Y-9270000D01*
X10930000Y-9430000D02*
X10970000Y-9470000D01*
X10970000Y-9430000D02*
X10930000Y-9470000D01*
X10930000Y-9580000D02*
X10970000Y-9620000D01*
X10970000Y-9580000D02*
X10930000Y-9620000D01*
X10930000Y-10668750D02*
X10970000Y-10708750D01*
X10970000Y-10668750D02*
X10930000Y-10708750D01*
X10930000Y-10818750D02*
X10970000Y-10858750D01*
X10970000Y-10818750D02*
X10930000Y-10858750D01*
X10930000Y-11018750D02*
X10970000Y-11058750D01*
X10970000Y-11018750D02*
X10930000Y-11058750D01*
X10930000Y-11168750D02*
X10970000Y-11208750D01*
X10970000Y-11168750D02*
X10930000Y-11208750D01*
X10930000Y-12280000D02*
X10970000Y-12320000D01*
X10970000Y-12280000D02*
X10930000Y-12320000D01*
X10930000Y-12430000D02*
X10970000Y-12470000D01*
X10970000Y-12430000D02*
X10930000Y-12470000D01*
X10930000Y-12630000D02*
X10970000Y-12670000D01*
X10970000Y-12630000D02*
X10930000Y-12670000D01*
X10930000Y-12780000D02*
X10970000Y-12820000D01*
X10970000Y-12780000D02*
X10930000Y-12820000D01*
X10980000Y-6730000D02*
X11020000Y-6770000D01*
X11020000Y-6730000D02*
X10980000Y-6770000D01*
X10980000Y-6880000D02*
X11020000Y-6920000D01*
X11020000Y-6880000D02*
X10980000Y-6920000D01*
X10980000Y-7080000D02*
X11020000Y-7120000D01*
X11020000Y-7080000D02*
X10980000Y-7120000D01*
X10980000Y-7230000D02*
X11020000Y-7270000D01*
X11020000Y-7230000D02*
X10980000Y-7270000D01*
X10980000Y-8330000D02*
X11020000Y-8370000D01*
X11020000Y-8330000D02*
X10980000Y-8370000D01*
X10980000Y-8480000D02*
X11020000Y-8520000D01*
X11020000Y-8480000D02*
X10980000Y-8520000D01*
X10980000Y-8680000D02*
X11020000Y-8720000D01*
X11020000Y-8680000D02*
X10980000Y-8720000D01*
X10980000Y-8830000D02*
X11020000Y-8870000D01*
X11020000Y-8830000D02*
X10980000Y-8870000D01*
X10980000Y-9918750D02*
X11020000Y-9958750D01*
X11020000Y-9918750D02*
X10980000Y-9958750D01*
X10980000Y-10068750D02*
X11020000Y-10108750D01*
X11020000Y-10068750D02*
X10980000Y-10108750D01*
X10980000Y-10270000D02*
X11020000Y-10310000D01*
X11020000Y-10270000D02*
X10980000Y-10310000D01*
X10980000Y-10418750D02*
X11020000Y-10458750D01*
X11020000Y-10418750D02*
X10980000Y-10458750D01*
X10980000Y-11530000D02*
X11020000Y-11570000D01*
X11020000Y-11530000D02*
X10980000Y-11570000D01*
X10980000Y-11680000D02*
X11020000Y-11720000D01*
X11020000Y-11680000D02*
X10980000Y-11720000D01*
X10980000Y-11855000D02*
X11020000Y-11895000D01*
X11020000Y-11855000D02*
X10980000Y-11895000D01*
X10980000Y-12030000D02*
X11020000Y-12070000D01*
X11020000Y-12030000D02*
X10980000Y-12070000D01*
X11030000Y-13130000D02*
X11070000Y-13170000D01*
X11070000Y-13130000D02*
X11030000Y-13170000D01*
X11030000Y-13280000D02*
X11070000Y-13320000D01*
X11070000Y-13280000D02*
X11030000Y-13320000D01*
X11030000Y-13480000D02*
X11070000Y-13520000D01*
X11070000Y-13480000D02*
X11030000Y-13520000D01*
X11030000Y-13630000D02*
X11070000Y-13670000D01*
X11070000Y-13630000D02*
X11030000Y-13670000D01*
X11080000Y-7480000D02*
X11120000Y-7520000D01*
X11120000Y-7480000D02*
X11080000Y-7520000D01*
X11080000Y-7630000D02*
X11120000Y-7670000D01*
X11120000Y-7630000D02*
X11080000Y-7670000D01*
X11080000Y-7830000D02*
X11120000Y-7870000D01*
X11120000Y-7830000D02*
X11080000Y-7870000D01*
X11080000Y-7980000D02*
X11120000Y-8020000D01*
X11120000Y-7980000D02*
X11080000Y-8020000D01*
X11080000Y-9080000D02*
X11120000Y-9120000D01*
X11120000Y-9080000D02*
X11080000Y-9120000D01*
X11080000Y-9230000D02*
X11120000Y-9270000D01*
X11120000Y-9230000D02*
X11080000Y-9270000D01*
X11080000Y-9430000D02*
X11120000Y-9470000D01*
X11120000Y-9430000D02*
X11080000Y-9470000D01*
X11080000Y-9580000D02*
X11120000Y-9620000D01*
X11120000Y-9580000D02*
X11080000Y-9620000D01*
X11080000Y-10668750D02*
X11120000Y-10708750D01*
X11120000Y-10668750D02*
X11080000Y-10708750D01*
X11080000Y-10818750D02*
X11120000Y-10858750D01*
X11120000Y-10818750D02*
X11080000Y-10858750D01*
X11080000Y-11018750D02*
X11120000Y-11058750D01*
X11120000Y-11018750D02*
X11080000Y-11058750D01*
X11080000Y-11168750D02*
X11120000Y-11208750D01*
X11120000Y-11168750D02*
X11080000Y-11208750D01*
X11080000Y-12280000D02*
X11120000Y-12320000D01*
X11120000Y-12280000D02*
X11080000Y-12320000D01*
X11080000Y-12430000D02*
X11120000Y-12470000D01*
X11120000Y-12430000D02*
X11080000Y-12470000D01*
X11080000Y-12630000D02*
X11120000Y-12670000D01*
X11120000Y-12630000D02*
X11080000Y-12670000D01*
X11080000Y-12780000D02*
X11120000Y-12820000D01*
X11120000Y-12780000D02*
X11080000Y-12820000D01*
X11080000Y-13880000D02*
X11120000Y-13920000D01*
X11120000Y-13880000D02*
X11080000Y-13920000D01*
X11080000Y-14030000D02*
X11120000Y-14070000D01*
X11120000Y-14030000D02*
X11080000Y-14070000D01*
X11080000Y-14230000D02*
X11120000Y-14270000D01*
X11120000Y-14230000D02*
X11080000Y-14270000D01*
X11080000Y-14380000D02*
X11120000Y-14420000D01*
X11120000Y-14380000D02*
X11080000Y-14420000D01*
X11140000Y-6730000D02*
X11180000Y-6770000D01*
X11180000Y-6730000D02*
X11140000Y-6770000D01*
X11140000Y-6880000D02*
X11180000Y-6920000D01*
X11180000Y-6880000D02*
X11140000Y-6920000D01*
X11140000Y-7080000D02*
X11180000Y-7120000D01*
X11180000Y-7080000D02*
X11140000Y-7120000D01*
X11140000Y-7230000D02*
X11180000Y-7270000D01*
X11180000Y-7230000D02*
X11140000Y-7270000D01*
X11150000Y-8330000D02*
X11190000Y-8370000D01*
X11190000Y-8330000D02*
X11150000Y-8370000D01*
X11150000Y-8480000D02*
X11190000Y-8520000D01*
X11190000Y-8480000D02*
X11150000Y-8520000D01*
X11150000Y-8680000D02*
X11190000Y-8720000D01*
X11190000Y-8680000D02*
X11150000Y-8720000D01*
X11150000Y-8830000D02*
X11190000Y-8870000D01*
X11190000Y-8830000D02*
X11150000Y-8870000D01*
X11150000Y-9920000D02*
X11190000Y-9960000D01*
X11190000Y-9920000D02*
X11150000Y-9960000D01*
X11150000Y-10070000D02*
X11190000Y-10110000D01*
X11190000Y-10070000D02*
X11150000Y-10110000D01*
X11150000Y-10271250D02*
X11190000Y-10311250D01*
X11190000Y-10271250D02*
X11150000Y-10311250D01*
X11150000Y-10420000D02*
X11190000Y-10460000D01*
X11190000Y-10420000D02*
X11150000Y-10460000D01*
X11155000Y-11530000D02*
X11195000Y-11570000D01*
X11195000Y-11530000D02*
X11155000Y-11570000D01*
X11155000Y-11680000D02*
X11195000Y-11720000D01*
X11195000Y-11680000D02*
X11155000Y-11720000D01*
X11155000Y-11855000D02*
X11195000Y-11895000D01*
X11195000Y-11855000D02*
X11155000Y-11895000D01*
X11155000Y-12030000D02*
X11195000Y-12070000D01*
X11195000Y-12030000D02*
X11155000Y-12070000D01*
X11180000Y-13130000D02*
X11220000Y-13170000D01*
X11220000Y-13130000D02*
X11180000Y-13170000D01*
X11180000Y-13280000D02*
X11220000Y-13320000D01*
X11220000Y-13280000D02*
X11180000Y-13320000D01*
X11180000Y-13480000D02*
X11220000Y-13520000D01*
X11220000Y-13480000D02*
X11180000Y-13520000D01*
X11180000Y-13630000D02*
X11220000Y-13670000D01*
X11220000Y-13630000D02*
X11180000Y-13670000D01*
X11250000Y-9080000D02*
X11290000Y-9120000D01*
X11290000Y-9080000D02*
X11250000Y-9120000D01*
X11250000Y-9230000D02*
X11290000Y-9270000D01*
X11290000Y-9230000D02*
X11250000Y-9270000D01*
X11250000Y-9430000D02*
X11290000Y-9470000D01*
X11290000Y-9430000D02*
X11250000Y-9470000D01*
X11250000Y-9580000D02*
X11290000Y-9620000D01*
X11290000Y-9580000D02*
X11250000Y-9620000D01*
X11255000Y-12280000D02*
X11295000Y-12320000D01*
X11295000Y-12280000D02*
X11255000Y-12320000D01*
X11255000Y-12430000D02*
X11295000Y-12470000D01*
X11295000Y-12430000D02*
X11255000Y-12470000D01*
X11255000Y-12630000D02*
X11295000Y-12670000D01*
X11295000Y-12630000D02*
X11255000Y-12670000D01*
X11255000Y-12780000D02*
X11295000Y-12820000D01*
X11295000Y-12780000D02*
X11255000Y-12820000D01*
X11255000Y-13880000D02*
X11295000Y-13920000D01*
X11295000Y-13880000D02*
X11255000Y-13920000D01*
X11255000Y-14030000D02*
X11295000Y-14070000D01*
X11295000Y-14030000D02*
X11255000Y-14070000D01*
X11255000Y-14230000D02*
X11295000Y-14270000D01*
X11295000Y-14230000D02*
X11255000Y-14270000D01*
X11255000Y-14380000D02*
X11295000Y-14420000D01*
X11295000Y-14380000D02*
X11255000Y-14420000D01*
X11260000Y-7480000D02*
X11300000Y-7520000D01*
X11300000Y-7480000D02*
X11260000Y-7520000D01*
X11260000Y-7630000D02*
X11300000Y-7670000D01*
X11300000Y-7630000D02*
X11260000Y-7670000D01*
X11260000Y-7830000D02*
X11300000Y-7870000D01*
X11300000Y-7830000D02*
X11260000Y-7870000D01*
X11260000Y-7980000D02*
X11300000Y-8020000D01*
X11300000Y-7980000D02*
X11260000Y-8020000D01*
X11260000Y-10670000D02*
X11300000Y-10710000D01*
X11300000Y-10670000D02*
X11260000Y-10710000D01*
X11260000Y-10820000D02*
X11300000Y-10860000D01*
X11300000Y-10820000D02*
X11260000Y-10860000D01*
X11260000Y-11020000D02*
X11300000Y-11060000D01*
X11300000Y-11020000D02*
X11260000Y-11060000D01*
X11260000Y-11170000D02*
X11300000Y-11210000D01*
X11300000Y-11170000D02*
X11260000Y-11210000D01*
X11300000Y-6730000D02*
X11340000Y-6770000D01*
X11340000Y-6730000D02*
X11300000Y-6770000D01*
X11300000Y-6880000D02*
X11340000Y-6920000D01*
X11340000Y-6880000D02*
X11300000Y-6920000D01*
X11300000Y-7080000D02*
X11340000Y-7120000D01*
X11340000Y-7080000D02*
X11300000Y-7120000D01*
X11300000Y-7230000D02*
X11340000Y-7270000D01*
X11340000Y-7230000D02*
X11300000Y-7270000D01*
X11305000Y-11530000D02*
X11345000Y-11570000D01*
X11345000Y-11530000D02*
X11305000Y-11570000D01*
X11305000Y-11680000D02*
X11345000Y-11720000D01*
X11345000Y-11680000D02*
X11305000Y-11720000D01*
X11305000Y-11855000D02*
X11345000Y-11895000D01*
X11345000Y-11855000D02*
X11305000Y-11895000D01*
X11305000Y-12030000D02*
X11345000Y-12070000D01*
X11345000Y-12030000D02*
X11305000Y-12070000D01*
X11310000Y-8330000D02*
X11350000Y-8370000D01*
X11350000Y-8330000D02*
X11310000Y-8370000D01*
X11310000Y-8480000D02*
X11350000Y-8520000D01*
X11350000Y-8480000D02*
X11310000Y-8520000D01*
X11310000Y-8680000D02*
X11350000Y-8720000D01*
X11350000Y-8680000D02*
X11310000Y-8720000D01*
X11310000Y-8830000D02*
X11350000Y-8870000D01*
X11350000Y-8830000D02*
X11310000Y-8870000D01*
X11310000Y-9920000D02*
X11350000Y-9960000D01*
X11350000Y-9920000D02*
X11310000Y-9960000D01*
X11310000Y-10070000D02*
X11350000Y-10110000D01*
X11350000Y-10070000D02*
X11310000Y-10110000D01*
X11310000Y-10271250D02*
X11350000Y-10311250D01*
X11350000Y-10271250D02*
X11310000Y-10311250D01*
X11310000Y-10420000D02*
X11350000Y-10460000D01*
X11350000Y-10420000D02*
X11310000Y-10460000D01*
X11330000Y-13130000D02*
X11370000Y-13170000D01*
X11370000Y-13130000D02*
X11330000Y-13170000D01*
X11330000Y-13280000D02*
X11370000Y-13320000D01*
X11370000Y-13280000D02*
X11330000Y-13320000D01*
X11330000Y-13480000D02*
X11370000Y-13520000D01*
X11370000Y-13480000D02*
X11330000Y-13520000D01*
X11330000Y-13630000D02*
X11370000Y-13670000D01*
X11370000Y-13630000D02*
X11330000Y-13670000D01*
X11405000Y-12280000D02*
X11445000Y-12320000D01*
X11445000Y-12280000D02*
X11405000Y-12320000D01*
X11405000Y-12430000D02*
X11445000Y-12470000D01*
X11445000Y-12430000D02*
X11405000Y-12470000D01*
X11405000Y-12630000D02*
X11445000Y-12670000D01*
X11445000Y-12630000D02*
X11405000Y-12670000D01*
X11405000Y-12780000D02*
X11445000Y-12820000D01*
X11445000Y-12780000D02*
X11405000Y-12820000D01*
X11410000Y-9080000D02*
X11450000Y-9120000D01*
X11450000Y-9080000D02*
X11410000Y-9120000D01*
X11410000Y-9230000D02*
X11450000Y-9270000D01*
X11450000Y-9230000D02*
X11410000Y-9270000D01*
X11410000Y-9430000D02*
X11450000Y-9470000D01*
X11450000Y-9430000D02*
X11410000Y-9470000D01*
X11410000Y-9580000D02*
X11450000Y-9620000D01*
X11450000Y-9580000D02*
X11410000Y-9620000D01*
X11420000Y-7480000D02*
X11460000Y-7520000D01*
X11460000Y-7480000D02*
X11420000Y-7520000D01*
X11420000Y-7630000D02*
X11460000Y-7670000D01*
X11460000Y-7630000D02*
X11420000Y-7670000D01*
X11420000Y-7830000D02*
X11460000Y-7870000D01*
X11460000Y-7830000D02*
X11420000Y-7870000D01*
X11420000Y-7980000D02*
X11460000Y-8020000D01*
X11460000Y-7980000D02*
X11420000Y-8020000D01*
X11420000Y-10670000D02*
X11460000Y-10710000D01*
X11460000Y-10670000D02*
X11420000Y-10710000D01*
X11420000Y-10820000D02*
X11460000Y-10860000D01*
X11460000Y-10820000D02*
X11420000Y-10860000D01*
X11420000Y-11020000D02*
X11460000Y-11060000D01*
X11460000Y-11020000D02*
X11420000Y-11060000D01*
X11420000Y-11170000D02*
X11460000Y-11210000D01*
X11460000Y-11170000D02*
X11420000Y-11210000D01*
X11430000Y-13880000D02*
X11470000Y-13920000D01*
X11470000Y-13880000D02*
X11430000Y-13920000D01*
X11430000Y-14030000D02*
X11470000Y-14070000D01*
X11470000Y-14030000D02*
X11430000Y-14070000D01*
X11430000Y-14230000D02*
X11470000Y-14270000D01*
X11470000Y-14230000D02*
X11430000Y-14270000D01*
X11430000Y-14380000D02*
X11470000Y-14420000D01*
X11470000Y-14380000D02*
X11430000Y-14420000D01*
X11476250Y-13130000D02*
X11516250Y-13170000D01*
X11516250Y-13130000D02*
X11476250Y-13170000D01*
X11476250Y-13630000D02*
X11516250Y-13670000D01*
X11516250Y-13630000D02*
X11476250Y-13670000D01*
X11480000Y-6730000D02*
X11520000Y-6770000D01*
X11520000Y-6730000D02*
X11480000Y-6770000D01*
X11480000Y-7230000D02*
X11520000Y-7270000D01*
X11520000Y-7230000D02*
X11480000Y-7270000D01*
X11480000Y-8330000D02*
X11520000Y-8370000D01*
X11520000Y-8330000D02*
X11480000Y-8370000D01*
X11480000Y-8830000D02*
X11520000Y-8870000D01*
X11520000Y-8830000D02*
X11480000Y-8870000D01*
X11480000Y-9918750D02*
X11520000Y-9958750D01*
X11520000Y-9918750D02*
X11480000Y-9958750D01*
X11480000Y-10418750D02*
X11520000Y-10458750D01*
X11520000Y-10418750D02*
X11480000Y-10458750D01*
X11480000Y-11530000D02*
X11520000Y-11570000D01*
X11520000Y-11530000D02*
X11480000Y-11570000D01*
X11480000Y-12030000D02*
X11520000Y-12070000D01*
X11520000Y-12030000D02*
X11480000Y-12070000D01*
X11576250Y-13880000D02*
X11616250Y-13920000D01*
X11616250Y-13880000D02*
X11576250Y-13920000D01*
X11576250Y-14030000D02*
X11616250Y-14070000D01*
X11616250Y-14030000D02*
X11576250Y-14070000D01*
X11576250Y-14230000D02*
X11616250Y-14270000D01*
X11616250Y-14230000D02*
X11576250Y-14270000D01*
X11576250Y-14380000D02*
X11616250Y-14420000D01*
X11616250Y-14380000D02*
X11576250Y-14420000D01*
X11580000Y-7480000D02*
X11620000Y-7520000D01*
X11620000Y-7480000D02*
X11580000Y-7520000D01*
X11580000Y-7630000D02*
X11620000Y-7670000D01*
X11620000Y-7630000D02*
X11580000Y-7670000D01*
X11580000Y-7830000D02*
X11620000Y-7870000D01*
X11620000Y-7830000D02*
X11580000Y-7870000D01*
X11580000Y-7980000D02*
X11620000Y-8020000D01*
X11620000Y-7980000D02*
X11580000Y-8020000D01*
X11580000Y-9080000D02*
X11620000Y-9120000D01*
X11620000Y-9080000D02*
X11580000Y-9120000D01*
X11580000Y-9230000D02*
X11620000Y-9270000D01*
X11620000Y-9230000D02*
X11580000Y-9270000D01*
X11580000Y-9430000D02*
X11620000Y-9470000D01*
X11620000Y-9430000D02*
X11580000Y-9470000D01*
X11580000Y-9580000D02*
X11620000Y-9620000D01*
X11620000Y-9580000D02*
X11580000Y-9620000D01*
X11580000Y-10668750D02*
X11620000Y-10708750D01*
X11620000Y-10668750D02*
X11580000Y-10708750D01*
X11580000Y-10818750D02*
X11620000Y-10858750D01*
X11620000Y-10818750D02*
X11580000Y-10858750D01*
X11580000Y-11018750D02*
X11620000Y-11058750D01*
X11620000Y-11018750D02*
X11580000Y-11058750D01*
X11580000Y-11168750D02*
X11620000Y-11208750D01*
X11620000Y-11168750D02*
X11580000Y-11208750D01*
X11580000Y-12280000D02*
X11620000Y-12320000D01*
X11620000Y-12280000D02*
X11580000Y-12320000D01*
X11580000Y-12430000D02*
X11620000Y-12470000D01*
X11620000Y-12430000D02*
X11580000Y-12470000D01*
X11580000Y-12630000D02*
X11620000Y-12670000D01*
X11620000Y-12630000D02*
X11580000Y-12670000D01*
X11580000Y-12780000D02*
X11620000Y-12820000D01*
X11620000Y-12780000D02*
X11580000Y-12820000D01*
X11626250Y-13130000D02*
X11666250Y-13170000D01*
X11666250Y-13130000D02*
X11626250Y-13170000D01*
X11626250Y-13630000D02*
X11666250Y-13670000D01*
X11666250Y-13630000D02*
X11626250Y-13670000D01*
X11630000Y-6730000D02*
X11670000Y-6770000D01*
X11670000Y-6730000D02*
X11630000Y-6770000D01*
X11630000Y-7230000D02*
X11670000Y-7270000D01*
X11670000Y-7230000D02*
X11630000Y-7270000D01*
X11630000Y-8330000D02*
X11670000Y-8370000D01*
X11670000Y-8330000D02*
X11630000Y-8370000D01*
X11630000Y-8830000D02*
X11670000Y-8870000D01*
X11670000Y-8830000D02*
X11630000Y-8870000D01*
X11630000Y-9918750D02*
X11670000Y-9958750D01*
X11670000Y-9918750D02*
X11630000Y-9958750D01*
X11630000Y-10418750D02*
X11670000Y-10458750D01*
X11670000Y-10418750D02*
X11630000Y-10458750D01*
X11630000Y-11530000D02*
X11670000Y-11570000D01*
X11670000Y-11530000D02*
X11630000Y-11570000D01*
X11630000Y-12030000D02*
X11670000Y-12070000D01*
X11670000Y-12030000D02*
X11630000Y-12070000D01*
X11726250Y-13880000D02*
X11766250Y-13920000D01*
X11766250Y-13880000D02*
X11726250Y-13920000D01*
X11726250Y-14380000D02*
X11766250Y-14420000D01*
X11766250Y-14380000D02*
X11726250Y-14420000D01*
X11730000Y-7480000D02*
X11770000Y-7520000D01*
X11770000Y-7480000D02*
X11730000Y-7520000D01*
X11730000Y-7980000D02*
X11770000Y-8020000D01*
X11770000Y-7980000D02*
X11730000Y-8020000D01*
X11730000Y-9080000D02*
X11770000Y-9120000D01*
X11770000Y-9080000D02*
X11730000Y-9120000D01*
X11730000Y-9580000D02*
X11770000Y-9620000D01*
X11770000Y-9580000D02*
X11730000Y-9620000D01*
X11730000Y-10668750D02*
X11770000Y-10708750D01*
X11770000Y-10668750D02*
X11730000Y-10708750D01*
X11730000Y-11168750D02*
X11770000Y-11208750D01*
X11770000Y-11168750D02*
X11730000Y-11208750D01*
X11730000Y-12280000D02*
X11770000Y-12320000D01*
X11770000Y-12280000D02*
X11730000Y-12320000D01*
X11730000Y-12780000D02*
X11770000Y-12820000D01*
X11770000Y-12780000D02*
X11730000Y-12820000D01*
X11776250Y-13130000D02*
X11816250Y-13170000D01*
X11816250Y-13130000D02*
X11776250Y-13170000D01*
X11776250Y-13280000D02*
X11816250Y-13320000D01*
X11816250Y-13280000D02*
X11776250Y-13320000D01*
X11776250Y-13480000D02*
X11816250Y-13520000D01*
X11816250Y-13480000D02*
X11776250Y-13520000D01*
X11776250Y-13630000D02*
X11816250Y-13670000D01*
X11816250Y-13630000D02*
X11776250Y-13670000D01*
X11780000Y-6730000D02*
X11820000Y-6770000D01*
X11820000Y-6730000D02*
X11780000Y-6770000D01*
X11780000Y-6880000D02*
X11820000Y-6920000D01*
X11820000Y-6880000D02*
X11780000Y-6920000D01*
X11780000Y-7080000D02*
X11820000Y-7120000D01*
X11820000Y-7080000D02*
X11780000Y-7120000D01*
X11780000Y-7230000D02*
X11820000Y-7270000D01*
X11820000Y-7230000D02*
X11780000Y-7270000D01*
X11780000Y-8330000D02*
X11820000Y-8370000D01*
X11820000Y-8330000D02*
X11780000Y-8370000D01*
X11780000Y-8480000D02*
X11820000Y-8520000D01*
X11820000Y-8480000D02*
X11780000Y-8520000D01*
X11780000Y-8680000D02*
X11820000Y-8720000D01*
X11820000Y-8680000D02*
X11780000Y-8720000D01*
X11780000Y-8830000D02*
X11820000Y-8870000D01*
X11820000Y-8830000D02*
X11780000Y-8870000D01*
X11780000Y-9918750D02*
X11820000Y-9958750D01*
X11820000Y-9918750D02*
X11780000Y-9958750D01*
X11780000Y-10068750D02*
X11820000Y-10108750D01*
X11820000Y-10068750D02*
X11780000Y-10108750D01*
X11780000Y-10268750D02*
X11820000Y-10308750D01*
X11820000Y-10268750D02*
X11780000Y-10308750D01*
X11780000Y-10418750D02*
X11820000Y-10458750D01*
X11820000Y-10418750D02*
X11780000Y-10458750D01*
X11780000Y-11530000D02*
X11820000Y-11570000D01*
X11820000Y-11530000D02*
X11780000Y-11570000D01*
X11780000Y-11680000D02*
X11820000Y-11720000D01*
X11820000Y-11680000D02*
X11780000Y-11720000D01*
X11780000Y-11880000D02*
X11820000Y-11920000D01*
X11820000Y-11880000D02*
X11780000Y-11920000D01*
X11780000Y-12030000D02*
X11820000Y-12070000D01*
X11820000Y-12030000D02*
X11780000Y-12070000D01*
X11860000Y-6058750D02*
X11900000Y-6098750D01*
X11900000Y-6058750D02*
X11860000Y-6098750D01*
X11876250Y-13880000D02*
X11916250Y-13920000D01*
X11916250Y-13880000D02*
X11876250Y-13920000D01*
X11876250Y-14380000D02*
X11916250Y-14420000D01*
X11916250Y-14380000D02*
X11876250Y-14420000D01*
X11880000Y-7480000D02*
X11920000Y-7520000D01*
X11920000Y-7480000D02*
X11880000Y-7520000D01*
X11880000Y-7980000D02*
X11920000Y-8020000D01*
X11920000Y-7980000D02*
X11880000Y-8020000D01*
X11880000Y-9080000D02*
X11920000Y-9120000D01*
X11920000Y-9080000D02*
X11880000Y-9120000D01*
X11880000Y-9580000D02*
X11920000Y-9620000D01*
X11920000Y-9580000D02*
X11880000Y-9620000D01*
X11880000Y-10668750D02*
X11920000Y-10708750D01*
X11920000Y-10668750D02*
X11880000Y-10708750D01*
X11880000Y-11168750D02*
X11920000Y-11208750D01*
X11920000Y-11168750D02*
X11880000Y-11208750D01*
X11880000Y-12280000D02*
X11920000Y-12320000D01*
X11920000Y-12280000D02*
X11880000Y-12320000D01*
X11880000Y-12780000D02*
X11920000Y-12820000D01*
X11920000Y-12780000D02*
X11880000Y-12820000D01*
X12026250Y-13880000D02*
X12066250Y-13920000D01*
X12066250Y-13880000D02*
X12026250Y-13920000D01*
X12026250Y-14380000D02*
X12066250Y-14420000D01*
X12066250Y-14380000D02*
X12026250Y-14420000D01*
X12030000Y-7480000D02*
X12070000Y-7520000D01*
X12070000Y-7480000D02*
X12030000Y-7520000D01*
X12030000Y-7980000D02*
X12070000Y-8020000D01*
X12070000Y-7980000D02*
X12030000Y-8020000D01*
X12030000Y-9080000D02*
X12070000Y-9120000D01*
X12070000Y-9080000D02*
X12030000Y-9120000D01*
X12030000Y-9580000D02*
X12070000Y-9620000D01*
X12070000Y-9580000D02*
X12030000Y-9620000D01*
X12030000Y-10668750D02*
X12070000Y-10708750D01*
X12070000Y-10668750D02*
X12030000Y-10708750D01*
X12030000Y-11168750D02*
X12070000Y-11208750D01*
X12070000Y-11168750D02*
X12030000Y-11208750D01*
X12030000Y-12280000D02*
X12070000Y-12320000D01*
X12070000Y-12280000D02*
X12030000Y-12320000D01*
X12030000Y-12780000D02*
X12070000Y-12820000D01*
X12070000Y-12780000D02*
X12030000Y-12820000D01*
X12176250Y-13880000D02*
X12216250Y-13920000D01*
X12216250Y-13880000D02*
X12176250Y-13920000D01*
X12176250Y-14030000D02*
X12216250Y-14070000D01*
X12216250Y-14030000D02*
X12176250Y-14070000D01*
X12176250Y-14230000D02*
X12216250Y-14270000D01*
X12216250Y-14230000D02*
X12176250Y-14270000D01*
X12176250Y-14380000D02*
X12216250Y-14420000D01*
X12216250Y-14380000D02*
X12176250Y-14420000D01*
X12180000Y-7480000D02*
X12220000Y-7520000D01*
X12220000Y-7480000D02*
X12180000Y-7520000D01*
X12180000Y-7630000D02*
X12220000Y-7670000D01*
X12220000Y-7630000D02*
X12180000Y-7670000D01*
X12180000Y-7830000D02*
X12220000Y-7870000D01*
X12220000Y-7830000D02*
X12180000Y-7870000D01*
X12180000Y-7980000D02*
X12220000Y-8020000D01*
X12220000Y-7980000D02*
X12180000Y-8020000D01*
X12180000Y-9080000D02*
X12220000Y-9120000D01*
X12220000Y-9080000D02*
X12180000Y-9120000D01*
X12180000Y-9230000D02*
X12220000Y-9270000D01*
X12220000Y-9230000D02*
X12180000Y-9270000D01*
X12180000Y-9430000D02*
X12220000Y-9470000D01*
X12220000Y-9430000D02*
X12180000Y-9470000D01*
X12180000Y-9580000D02*
X12220000Y-9620000D01*
X12220000Y-9580000D02*
X12180000Y-9620000D01*
X12180000Y-10668750D02*
X12220000Y-10708750D01*
X12220000Y-10668750D02*
X12180000Y-10708750D01*
X12180000Y-10818750D02*
X12220000Y-10858750D01*
X12220000Y-10818750D02*
X12180000Y-10858750D01*
X12180000Y-11018750D02*
X12220000Y-11058750D01*
X12220000Y-11018750D02*
X12180000Y-11058750D01*
X12180000Y-11168750D02*
X12220000Y-11208750D01*
X12220000Y-11168750D02*
X12180000Y-11208750D01*
X12180000Y-12280000D02*
X12220000Y-12320000D01*
X12220000Y-12280000D02*
X12180000Y-12320000D01*
X12180000Y-12430000D02*
X12220000Y-12470000D01*
X12220000Y-12430000D02*
X12180000Y-12470000D01*
X12180000Y-12630000D02*
X12220000Y-12670000D01*
X12220000Y-12630000D02*
X12180000Y-12670000D01*
X12180000Y-12780000D02*
X12220000Y-12820000D01*
X12220000Y-12780000D02*
X12180000Y-12820000D01*
X12235000Y-6058750D02*
X12275000Y-6098750D01*
X12275000Y-6058750D02*
X12235000Y-6098750D01*
X12610000Y-6053750D02*
X12650000Y-6093750D01*
X12650000Y-6053750D02*
X12610000Y-6093750D01*
X12985000Y-6058750D02*
X13025000Y-6098750D01*
X13025000Y-6058750D02*
X12985000Y-6098750D01*
X13105000Y-5970000D02*
X13145000Y-6010000D01*
X13145000Y-5970000D02*
X13105000Y-6010000D01*
X13105000Y-6185000D02*
X13145000Y-6225000D01*
X13145000Y-6185000D02*
X13105000Y-6225000D01*
X13305000Y-6430000D02*
X13345000Y-6470000D01*
X13345000Y-6430000D02*
X13305000Y-6470000D01*
X13355000Y-6330000D02*
X13395000Y-6370000D01*
X13395000Y-6330000D02*
X13355000Y-6370000D01*
X13360000Y-6058750D02*
X13400000Y-6098750D01*
X13400000Y-6058750D02*
X13360000Y-6098750D01*
X13380000Y-6505000D02*
X13420000Y-6545000D01*
X13420000Y-6505000D02*
X13380000Y-6545000D01*
X13455000Y-6240000D02*
X13495000Y-6280000D01*
X13495000Y-6240000D02*
X13455000Y-6280000D01*
X13455000Y-6605000D02*
X13495000Y-6645000D01*
X13495000Y-6605000D02*
X13455000Y-6645000D01*
X13735000Y-6060000D02*
X13775000Y-6100000D01*
X13775000Y-6060000D02*
X13735000Y-6100000D01*
X14105000Y-6330000D02*
X14145000Y-6370000D01*
X14145000Y-6330000D02*
X14105000Y-6370000D01*
X14110000Y-6058750D02*
X14150000Y-6098750D01*
X14150000Y-6058750D02*
X14110000Y-6098750D01*
X14265600Y-15180000D02*
X14305600Y-15220000D01*
X14305600Y-15180000D02*
X14265600Y-15220000D01*
X14286250Y-6373750D02*
X14326250Y-6413750D01*
X14326250Y-6373750D02*
X14286250Y-6413750D01*
X14430000Y-7230000D02*
X14470000Y-7270000D01*
X14470000Y-7230000D02*
X14430000Y-7270000D01*
X14430000Y-8130000D02*
X14470000Y-8170000D01*
X14470000Y-8130000D02*
X14430000Y-8170000D01*
X14430000Y-8930000D02*
X14470000Y-8970000D01*
X14470000Y-8930000D02*
X14430000Y-8970000D01*
X14430000Y-9730000D02*
X14470000Y-9770000D01*
X14470000Y-9730000D02*
X14430000Y-9770000D01*
X14430000Y-10530000D02*
X14470000Y-10570000D01*
X14470000Y-10530000D02*
X14430000Y-10570000D01*
X14430000Y-11280000D02*
X14470000Y-11320000D01*
X14470000Y-11280000D02*
X14430000Y-11320000D01*
X14430000Y-12030000D02*
X14470000Y-12070000D01*
X14470000Y-12030000D02*
X14430000Y-12070000D01*
X14430000Y-12780000D02*
X14470000Y-12820000D01*
X14470000Y-12780000D02*
X14430000Y-12820000D01*
X14430000Y-13530000D02*
X14470000Y-13570000D01*
X14470000Y-13530000D02*
X14430000Y-13570000D01*
X14430000Y-14280000D02*
X14470000Y-14320000D01*
X14470000Y-14280000D02*
X14430000Y-14320000D01*
X14430000Y-15030000D02*
X14470000Y-15070000D01*
X14470000Y-15030000D02*
X14430000Y-15070000D01*
X14485000Y-6063750D02*
X14525000Y-6103750D01*
X14525000Y-6063750D02*
X14485000Y-6103750D01*
X14580000Y-6530000D02*
X14620000Y-6570000D01*
X14620000Y-6530000D02*
X14580000Y-6570000D01*
X14810000Y-6470000D02*
X14850000Y-6510000D01*
X14850000Y-6470000D02*
X14810000Y-6510000D01*
X14860000Y-6063750D02*
X14900000Y-6103750D01*
X14900000Y-6063750D02*
X14860000Y-6103750D01*
X15235000Y-6063750D02*
X15275000Y-6103750D01*
X15275000Y-6063750D02*
X15235000Y-6103750D01*
X15420000Y-6375000D02*
X15460000Y-6415000D01*
X15460000Y-6375000D02*
X15420000Y-6415000D01*
X15505000Y-6705000D02*
X15545000Y-6745000D01*
X15545000Y-6705000D02*
X15505000Y-6745000D01*
X15600000Y-6063750D02*
X15640000Y-6103750D01*
X15640000Y-6063750D02*
X15600000Y-6103750D01*
X15610000Y-6460000D02*
X15650000Y-6500000D01*
X15650000Y-6460000D02*
X15610000Y-6500000D01*
D13*
X10207500Y-5500000D02*
G75*
G03*
X10207500Y-5500000I-30000J0D01*
G01*
X10207500Y-15000000D02*
G75*
G03*
X10207500Y-15000000I-30000J0D01*
G01*
X10301958Y-5271958D02*
G75*
G03*
X10301958Y-5271958I-30000J0D01*
G01*
X10301958Y-5728042D02*
G75*
G03*
X10301958Y-5728042I-30000J0D01*
G01*
X10301958Y-14771958D02*
G75*
G03*
X10301958Y-14771958I-30000J0D01*
G01*
X10301958Y-15228042D02*
G75*
G03*
X10301958Y-15228042I-30000J0D01*
G01*
X10530000Y-5177500D02*
G75*
G03*
X10530000Y-5177500I-30000J0D01*
G01*
X10530000Y-5822500D02*
G75*
G03*
X10530000Y-5822500I-30000J0D01*
G01*
X10530000Y-14677500D02*
G75*
G03*
X10530000Y-14677500I-30000J0D01*
G01*
X10530000Y-15322500D02*
G75*
G03*
X10530000Y-15322500I-30000J0D01*
G01*
X10758042Y-5271958D02*
G75*
G03*
X10758042Y-5271958I-30000J0D01*
G01*
X10758042Y-5728042D02*
G75*
G03*
X10758042Y-5728042I-30000J0D01*
G01*
X10758042Y-14771958D02*
G75*
G03*
X10758042Y-14771958I-30000J0D01*
G01*
X10758042Y-15228042D02*
G75*
G03*
X10758042Y-15228042I-30000J0D01*
G01*
X10852500Y-5500000D02*
G75*
G03*
X10852500Y-5500000I-30000J0D01*
G01*
X10852500Y-15000000D02*
G75*
G03*
X10852500Y-15000000I-30000J0D01*
G01*
X17207500Y-5500000D02*
G75*
G03*
X17207500Y-5500000I-30000J0D01*
G01*
X17207500Y-15000000D02*
G75*
G03*
X17207500Y-15000000I-30000J0D01*
G01*
X17301958Y-5271958D02*
G75*
G03*
X17301958Y-5271958I-30000J0D01*
G01*
X17301958Y-5728042D02*
G75*
G03*
X17301958Y-5728042I-30000J0D01*
G01*
X17301958Y-14771958D02*
G75*
G03*
X17301958Y-14771958I-30000J0D01*
G01*
X17301958Y-15228042D02*
G75*
G03*
X17301958Y-15228042I-30000J0D01*
G01*
X17530000Y-5177500D02*
G75*
G03*
X17530000Y-5177500I-30000J0D01*
G01*
X17530000Y-5822500D02*
G75*
G03*
X17530000Y-5822500I-30000J0D01*
G01*
X17530000Y-14677500D02*
G75*
G03*
X17530000Y-14677500I-30000J0D01*
G01*
X17530000Y-15322500D02*
G75*
G03*
X17530000Y-15322500I-30000J0D01*
G01*
X17758042Y-5271958D02*
G75*
G03*
X17758042Y-5271958I-30000J0D01*
G01*
X17758042Y-5728042D02*
G75*
G03*
X17758042Y-5728042I-30000J0D01*
G01*
X17758042Y-14771958D02*
G75*
G03*
X17758042Y-14771958I-30000J0D01*
G01*
X17758042Y-15228042D02*
G75*
G03*
X17758042Y-15228042I-30000J0D01*
G01*
X17852500Y-5500000D02*
G75*
G03*
X17852500Y-5500000I-30000J0D01*
G01*
X17852500Y-15000000D02*
G75*
G03*
X17852500Y-15000000I-30000J0D01*
G01*
D10*
X12348000Y-5450000D02*
X12348000Y-5550000D01*
X12298000Y-5500000D02*
X12398000Y-5500000D01*
X12602000Y-5450000D02*
X12602000Y-5550000D01*
X12552000Y-5500000D02*
X12652000Y-5500000D01*
X12856000Y-5450000D02*
X12856000Y-5550000D01*
X12806000Y-5500000D02*
X12906000Y-5500000D01*
X13110000Y-5450000D02*
X13110000Y-5550000D01*
X13060000Y-5500000D02*
X13160000Y-5500000D01*
X13364000Y-5450000D02*
X13364000Y-5550000D01*
X13314000Y-5500000D02*
X13414000Y-5500000D01*
X13618000Y-5450000D02*
X13618000Y-5550000D01*
X13568000Y-5500000D02*
X13668000Y-5500000D01*
X13872000Y-5450000D02*
X13872000Y-5550000D01*
X13822000Y-5500000D02*
X13922000Y-5500000D01*
X14126000Y-5450000D02*
X14126000Y-5550000D01*
X14076000Y-5500000D02*
X14176000Y-5500000D01*
X14380000Y-5450000D02*
X14380000Y-5550000D01*
X14330000Y-5500000D02*
X14430000Y-5500000D01*
X14634000Y-5450000D02*
X14634000Y-5550000D01*
X14584000Y-5500000D02*
X14684000Y-5500000D01*
X14888000Y-5450000D02*
X14888000Y-5550000D01*
X14838000Y-5500000D02*
X14938000Y-5500000D01*
X15142000Y-5450000D02*
X15142000Y-5550000D01*
X15092000Y-5500000D02*
X15192000Y-5500000D01*
X15396000Y-5450000D02*
X15396000Y-5550000D01*
X15346000Y-5500000D02*
X15446000Y-5500000D01*
X15650000Y-5450000D02*
X15650000Y-5550000D01*
X15600000Y-5500000D02*
X15700000Y-5500000D01*
D14*
X14945962Y-7283962D02*
X14945962Y-7192038D01*
X14854038Y-7192038D01*
X14854038Y-7283962D01*
X14945962Y-7283962D01*
X14945962Y-8045962D02*
X14945962Y-7954038D01*
X14854038Y-7954038D01*
X14854038Y-8045962D01*
X14945962Y-8045962D01*
X14945962Y-8583962D02*
X14945962Y-8492038D01*
X14854038Y-8492038D01*
X14854038Y-8583962D01*
X14945962Y-8583962D01*
X14945962Y-9345962D02*
X14945962Y-9254038D01*
X14854038Y-9254038D01*
X14854038Y-9345962D01*
X14945962Y-9345962D01*
X14945962Y-9920962D02*
X14945962Y-9829038D01*
X14854038Y-9829038D01*
X14854038Y-9920962D01*
X14945962Y-9920962D01*
X14945962Y-10682962D02*
X14945962Y-10591038D01*
X14854038Y-10591038D01*
X14854038Y-10682962D01*
X14945962Y-10682962D01*
X14945962Y-11245962D02*
X14945962Y-11154038D01*
X14854038Y-11154038D01*
X14854038Y-11245962D01*
X14945962Y-11245962D01*
X14945962Y-12007962D02*
X14945962Y-11916038D01*
X14854038Y-11916038D01*
X14854038Y-12007962D01*
X14945962Y-12007962D01*
X14945962Y-12545962D02*
X14945962Y-12454038D01*
X14854038Y-12454038D01*
X14854038Y-12545962D01*
X14945962Y-12545962D01*
X14945962Y-13307962D02*
X14945962Y-13216038D01*
X14854038Y-13216038D01*
X14854038Y-13307962D01*
X14945962Y-13307962D01*
X14945962Y-13845962D02*
X14945962Y-13754038D01*
X14854038Y-13754038D01*
X14854038Y-13845962D01*
X14945962Y-13845962D01*
X14945962Y-14607962D02*
X14945962Y-14516038D01*
X14854038Y-14516038D01*
X14854038Y-14607962D01*
X14945962Y-14607962D01*
X15961962Y-8045962D02*
X15961962Y-7954038D01*
X15870038Y-7954038D01*
X15870038Y-8045962D01*
X15961962Y-8045962D01*
X15961962Y-9345962D02*
X15961962Y-9254038D01*
X15870038Y-9254038D01*
X15870038Y-9345962D01*
X15961962Y-9345962D01*
X15961962Y-10682962D02*
X15961962Y-10591038D01*
X15870038Y-10591038D01*
X15870038Y-10682962D01*
X15961962Y-10682962D01*
X15961962Y-12007962D02*
X15961962Y-11916038D01*
X15870038Y-11916038D01*
X15870038Y-12007962D01*
X15961962Y-12007962D01*
X15961962Y-13307962D02*
X15961962Y-13216038D01*
X15870038Y-13216038D01*
X15870038Y-13307962D01*
X15961962Y-13307962D01*
X15961962Y-14607962D02*
X15961962Y-14516038D01*
X15870038Y-14516038D01*
X15870038Y-14607962D01*
X15961962Y-14607962D01*
X16723962Y-8045962D02*
X16723962Y-7954038D01*
X16632038Y-7954038D01*
X16632038Y-8045962D01*
X16723962Y-8045962D01*
X16723962Y-9345962D02*
X16723962Y-9254038D01*
X16632038Y-9254038D01*
X16632038Y-9345962D01*
X16723962Y-9345962D01*
X16723962Y-10682962D02*
X16723962Y-10591038D01*
X16632038Y-10591038D01*
X16632038Y-10682962D01*
X16723962Y-10682962D01*
X16723962Y-12007962D02*
X16723962Y-11916038D01*
X16632038Y-11916038D01*
X16632038Y-12007962D01*
X16723962Y-12007962D01*
X16723962Y-13307962D02*
X16723962Y-13216038D01*
X16632038Y-13216038D01*
X16632038Y-13307962D01*
X16723962Y-13307962D01*
X16723962Y-14607962D02*
X16723962Y-14516038D01*
X16632038Y-14516038D01*
X16632038Y-14607962D01*
X16723962Y-14607962D01*
D15*
X17448250Y-10478000D02*
X17518250Y-10408000D01*
X17448250Y-10338000D01*
X17378250Y-10408000D01*
X17448250Y-10478000D01*
X17448250Y-10874000D02*
X17518250Y-10804000D01*
X17448250Y-10734000D01*
X17378250Y-10804000D01*
X17448250Y-10874000D01*
X17448250Y-11270000D02*
X17518250Y-11200000D01*
X17448250Y-11130000D01*
X17378250Y-11200000D01*
X17448250Y-11270000D01*
X17448250Y-11666000D02*
X17518250Y-11596000D01*
X17448250Y-11526000D01*
X17378250Y-11596000D01*
X17448250Y-11666000D01*
X17448250Y-12062000D02*
X17518250Y-11992000D01*
X17448250Y-11922000D01*
X17378250Y-11992000D01*
X17448250Y-12062000D01*
X17448250Y-12458000D02*
X17518250Y-12388000D01*
X17448250Y-12318000D01*
X17378250Y-12388000D01*
X17448250Y-12458000D01*
X17448250Y-12854000D02*
X17518250Y-12784000D01*
X17448250Y-12714000D01*
X17378250Y-12784000D01*
X17448250Y-12854000D01*
X17448250Y-13250000D02*
X17518250Y-13180000D01*
X17448250Y-13110000D01*
X17378250Y-13180000D01*
X17448250Y-13250000D01*
X17448250Y-13646000D02*
X17518250Y-13576000D01*
X17448250Y-13506000D01*
X17378250Y-13576000D01*
X17448250Y-13646000D01*
D16*
X10116250Y-13325000D02*
X10266250Y-13475000D01*
X10266250Y-13325000D02*
X10116250Y-13475000D01*
X10266250Y-13400000D02*
G75*
G03*
X10266250Y-13400000I-75000J0D01*
G01*
X10116250Y-14075000D02*
X10266250Y-14225000D01*
X10266250Y-14075000D02*
X10116250Y-14225000D01*
X10266250Y-14150000D02*
G75*
G03*
X10266250Y-14150000I-75000J0D01*
G01*
X10120000Y-6925000D02*
X10270000Y-7075000D01*
X10270000Y-6925000D02*
X10120000Y-7075000D01*
X10270000Y-7000000D02*
G75*
G03*
X10270000Y-7000000I-75000J0D01*
G01*
X10120000Y-7675000D02*
X10270000Y-7825000D01*
X10270000Y-7675000D02*
X10120000Y-7825000D01*
X10270000Y-7750000D02*
G75*
G03*
X10270000Y-7750000I-75000J0D01*
G01*
X10120000Y-8525000D02*
X10270000Y-8675000D01*
X10270000Y-8525000D02*
X10120000Y-8675000D01*
X10270000Y-8600000D02*
G75*
G03*
X10270000Y-8600000I-75000J0D01*
G01*
X10120000Y-9275000D02*
X10270000Y-9425000D01*
X10270000Y-9275000D02*
X10120000Y-9425000D01*
X10270000Y-9350000D02*
G75*
G03*
X10270000Y-9350000I-75000J0D01*
G01*
X10120000Y-10125000D02*
X10270000Y-10275000D01*
X10270000Y-10125000D02*
X10120000Y-10275000D01*
X10270000Y-10200000D02*
G75*
G03*
X10270000Y-10200000I-75000J0D01*
G01*
X10120000Y-10875000D02*
X10270000Y-11025000D01*
X10270000Y-10875000D02*
X10120000Y-11025000D01*
X10270000Y-10950000D02*
G75*
G03*
X10270000Y-10950000I-75000J0D01*
G01*
X10120000Y-11725000D02*
X10270000Y-11875000D01*
X10270000Y-11725000D02*
X10120000Y-11875000D01*
X10270000Y-11800000D02*
G75*
G03*
X10270000Y-11800000I-75000J0D01*
G01*
X10120000Y-12475000D02*
X10270000Y-12625000D01*
X10270000Y-12475000D02*
X10120000Y-12625000D01*
X10270000Y-12550000D02*
G75*
G03*
X10270000Y-12550000I-75000J0D01*
G01*
X10626250Y-13325000D02*
X10776250Y-13475000D01*
X10776250Y-13325000D02*
X10626250Y-13475000D01*
X10776250Y-13400000D02*
G75*
G03*
X10776250Y-13400000I-75000J0D01*
G01*
X10626250Y-14075000D02*
X10776250Y-14225000D01*
X10776250Y-14075000D02*
X10626250Y-14225000D01*
X10776250Y-14150000D02*
G75*
G03*
X10776250Y-14150000I-75000J0D01*
G01*
X10630000Y-6925000D02*
X10780000Y-7075000D01*
X10780000Y-6925000D02*
X10630000Y-7075000D01*
X10780000Y-7000000D02*
G75*
G03*
X10780000Y-7000000I-75000J0D01*
G01*
X10630000Y-7675000D02*
X10780000Y-7825000D01*
X10780000Y-7675000D02*
X10630000Y-7825000D01*
X10780000Y-7750000D02*
G75*
G03*
X10780000Y-7750000I-75000J0D01*
G01*
X10630000Y-8525000D02*
X10780000Y-8675000D01*
X10780000Y-8525000D02*
X10630000Y-8675000D01*
X10780000Y-8600000D02*
G75*
G03*
X10780000Y-8600000I-75000J0D01*
G01*
X10630000Y-9275000D02*
X10780000Y-9425000D01*
X10780000Y-9275000D02*
X10630000Y-9425000D01*
X10780000Y-9350000D02*
G75*
G03*
X10780000Y-9350000I-75000J0D01*
G01*
X10630000Y-10125000D02*
X10780000Y-10275000D01*
X10780000Y-10125000D02*
X10630000Y-10275000D01*
X10780000Y-10200000D02*
G75*
G03*
X10780000Y-10200000I-75000J0D01*
G01*
X10630000Y-10875000D02*
X10780000Y-11025000D01*
X10780000Y-10875000D02*
X10630000Y-11025000D01*
X10780000Y-10950000D02*
G75*
G03*
X10780000Y-10950000I-75000J0D01*
G01*
X10630000Y-11725000D02*
X10780000Y-11875000D01*
X10780000Y-11725000D02*
X10630000Y-11875000D01*
X10780000Y-11800000D02*
G75*
G03*
X10780000Y-11800000I-75000J0D01*
G01*
X10630000Y-12475000D02*
X10780000Y-12625000D01*
X10780000Y-12475000D02*
X10630000Y-12625000D01*
X10780000Y-12550000D02*
G75*
G03*
X10780000Y-12550000I-75000J0D01*
G01*
X11475000Y-13325000D02*
X11625000Y-13475000D01*
X11625000Y-13325000D02*
X11475000Y-13475000D01*
X11625000Y-13400000D02*
G75*
G03*
X11625000Y-13400000I-75000J0D01*
G01*
X11478750Y-6925000D02*
X11628750Y-7075000D01*
X11628750Y-6925000D02*
X11478750Y-7075000D01*
X11628750Y-7000000D02*
G75*
G03*
X11628750Y-7000000I-75000J0D01*
G01*
X11478750Y-8525000D02*
X11628750Y-8675000D01*
X11628750Y-8525000D02*
X11478750Y-8675000D01*
X11628750Y-8600000D02*
G75*
G03*
X11628750Y-8600000I-75000J0D01*
G01*
X11478750Y-10113750D02*
X11628750Y-10263750D01*
X11628750Y-10113750D02*
X11478750Y-10263750D01*
X11628750Y-10188750D02*
G75*
G03*
X11628750Y-10188750I-75000J0D01*
G01*
X11478750Y-11725000D02*
X11628750Y-11875000D01*
X11628750Y-11725000D02*
X11478750Y-11875000D01*
X11628750Y-11800000D02*
G75*
G03*
X11628750Y-11800000I-75000J0D01*
G01*
X11825000Y-14075000D02*
X11975000Y-14225000D01*
X11975000Y-14075000D02*
X11825000Y-14225000D01*
X11975000Y-14150000D02*
G75*
G03*
X11975000Y-14150000I-75000J0D01*
G01*
X11828750Y-7675000D02*
X11978750Y-7825000D01*
X11978750Y-7675000D02*
X11828750Y-7825000D01*
X11978750Y-7750000D02*
G75*
G03*
X11978750Y-7750000I-75000J0D01*
G01*
X11828750Y-9275000D02*
X11978750Y-9425000D01*
X11978750Y-9275000D02*
X11828750Y-9425000D01*
X11978750Y-9350000D02*
G75*
G03*
X11978750Y-9350000I-75000J0D01*
G01*
X11828750Y-10863750D02*
X11978750Y-11013750D01*
X11978750Y-10863750D02*
X11828750Y-11013750D01*
X11978750Y-10938750D02*
G75*
G03*
X11978750Y-10938750I-75000J0D01*
G01*
X11828750Y-12475000D02*
X11978750Y-12625000D01*
X11978750Y-12475000D02*
X11828750Y-12625000D01*
X11978750Y-12550000D02*
G75*
G03*
X11978750Y-12550000I-75000J0D01*
G01*
X12175000Y-13325000D02*
X12325000Y-13475000D01*
X12325000Y-13325000D02*
X12175000Y-13475000D01*
X12325000Y-13400000D02*
G75*
G03*
X12325000Y-13400000I-75000J0D01*
G01*
X12178750Y-6925000D02*
X12328750Y-7075000D01*
X12328750Y-6925000D02*
X12178750Y-7075000D01*
X12328750Y-7000000D02*
G75*
G03*
X12328750Y-7000000I-75000J0D01*
G01*
X12178750Y-8525000D02*
X12328750Y-8675000D01*
X12328750Y-8525000D02*
X12178750Y-8675000D01*
X12328750Y-8600000D02*
G75*
G03*
X12328750Y-8600000I-75000J0D01*
G01*
X12178750Y-10113750D02*
X12328750Y-10263750D01*
X12328750Y-10113750D02*
X12178750Y-10263750D01*
X12328750Y-10188750D02*
G75*
G03*
X12328750Y-10188750I-75000J0D01*
G01*
X12178750Y-11725000D02*
X12328750Y-11875000D01*
X12328750Y-11725000D02*
X12178750Y-11875000D01*
X12328750Y-11800000D02*
G75*
G03*
X12328750Y-11800000I-75000J0D01*
G01*
X13825000Y-13325000D02*
X13975000Y-13475000D01*
X13975000Y-13325000D02*
X13825000Y-13475000D01*
X13975000Y-13400000D02*
G75*
G03*
X13975000Y-13400000I-75000J0D01*
G01*
X13825000Y-14075000D02*
X13975000Y-14225000D01*
X13975000Y-14075000D02*
X13825000Y-14225000D01*
X13975000Y-14150000D02*
G75*
G03*
X13975000Y-14150000I-75000J0D01*
G01*
X13828750Y-6925000D02*
X13978750Y-7075000D01*
X13978750Y-6925000D02*
X13828750Y-7075000D01*
X13978750Y-7000000D02*
G75*
G03*
X13978750Y-7000000I-75000J0D01*
G01*
X13828750Y-7675000D02*
X13978750Y-7825000D01*
X13978750Y-7675000D02*
X13828750Y-7825000D01*
X13978750Y-7750000D02*
G75*
G03*
X13978750Y-7750000I-75000J0D01*
G01*
X13828750Y-8525000D02*
X13978750Y-8675000D01*
X13978750Y-8525000D02*
X13828750Y-8675000D01*
X13978750Y-8600000D02*
G75*
G03*
X13978750Y-8600000I-75000J0D01*
G01*
X13828750Y-9275000D02*
X13978750Y-9425000D01*
X13978750Y-9275000D02*
X13828750Y-9425000D01*
X13978750Y-9350000D02*
G75*
G03*
X13978750Y-9350000I-75000J0D01*
G01*
X13828750Y-10113750D02*
X13978750Y-10263750D01*
X13978750Y-10113750D02*
X13828750Y-10263750D01*
X13978750Y-10188750D02*
G75*
G03*
X13978750Y-10188750I-75000J0D01*
G01*
X13828750Y-10863750D02*
X13978750Y-11013750D01*
X13978750Y-10863750D02*
X13828750Y-11013750D01*
X13978750Y-10938750D02*
G75*
G03*
X13978750Y-10938750I-75000J0D01*
G01*
X13828750Y-11725000D02*
X13978750Y-11875000D01*
X13978750Y-11725000D02*
X13828750Y-11875000D01*
X13978750Y-11800000D02*
G75*
G03*
X13978750Y-11800000I-75000J0D01*
G01*
X13828750Y-12475000D02*
X13978750Y-12625000D01*
X13978750Y-12475000D02*
X13828750Y-12625000D01*
X13978750Y-12550000D02*
G75*
G03*
X13978750Y-12550000I-75000J0D01*
G01*
X17170000Y-7925000D02*
X17320000Y-8075000D01*
X17320000Y-7925000D02*
X17170000Y-8075000D01*
X17320000Y-8000000D02*
G75*
G03*
X17320000Y-8000000I-75000J0D01*
G01*
X17170000Y-8575000D02*
X17320000Y-8725000D01*
X17320000Y-8575000D02*
X17170000Y-8725000D01*
X17320000Y-8650000D02*
G75*
G03*
X17320000Y-8650000I-75000J0D01*
G01*
X17170000Y-9225000D02*
X17320000Y-9375000D01*
X17320000Y-9225000D02*
X17170000Y-9375000D01*
X17320000Y-9300000D02*
G75*
G03*
X17320000Y-9300000I-75000J0D01*
G01*
X17680000Y-7925000D02*
X17830000Y-8075000D01*
X17830000Y-7925000D02*
X17680000Y-8075000D01*
X17830000Y-8000000D02*
G75*
G03*
X17830000Y-8000000I-75000J0D01*
G01*
X17680000Y-8575000D02*
X17830000Y-8725000D01*
X17830000Y-8575000D02*
X17680000Y-8725000D01*
X17830000Y-8650000D02*
G75*
G03*
X17830000Y-8650000I-75000J0D01*
G01*
X17680000Y-9225000D02*
X17830000Y-9375000D01*
X17830000Y-9225000D02*
X17680000Y-9375000D01*
X17830000Y-9300000D02*
G75*
G03*
X17830000Y-9300000I-75000J0D01*
G01*
D17*
X10285000Y-5285000D02*
X10715000Y-5715000D01*
X10715000Y-5285000D02*
X10285000Y-5715000D01*
X10500000Y-5285000D02*
X10500000Y-5715000D01*
X10285000Y-5500000D02*
X10715000Y-5500000D01*
X10285000Y-14785000D02*
X10715000Y-15215000D01*
X10715000Y-14785000D02*
X10285000Y-15215000D01*
X10500000Y-14785000D02*
X10500000Y-15215000D01*
X10285000Y-15000000D02*
X10715000Y-15000000D01*
X17285000Y-5285000D02*
X17715000Y-5715000D01*
X17715000Y-5285000D02*
X17285000Y-5715000D01*
X17500000Y-5285000D02*
X17500000Y-5715000D01*
X17285000Y-5500000D02*
X17715000Y-5500000D01*
X17285000Y-14785000D02*
X17715000Y-15215000D01*
X17715000Y-14785000D02*
X17285000Y-15215000D01*
X17500000Y-14785000D02*
X17500000Y-15215000D01*
X17285000Y-15000000D02*
X17715000Y-15000000D01*
D11*
X10252619Y-15815476D02*
X10252619Y-15615476D01*
X10300238Y-15615476D01*
X10328810Y-15625000D01*
X10347857Y-15644048D01*
X10357381Y-15663095D01*
X10366905Y-15701190D01*
X10366905Y-15729762D01*
X10357381Y-15767857D01*
X10347857Y-15786905D01*
X10328810Y-15805952D01*
X10300238Y-15815476D01*
X10252619Y-15815476D01*
X10452619Y-15815476D02*
X10452619Y-15682143D01*
X10452619Y-15720238D02*
X10462143Y-15701190D01*
X10471667Y-15691667D01*
X10490714Y-15682143D01*
X10509762Y-15682143D01*
X10576429Y-15815476D02*
X10576429Y-15682143D01*
X10576429Y-15615476D02*
X10566905Y-15625000D01*
X10576429Y-15634524D01*
X10585952Y-15625000D01*
X10576429Y-15615476D01*
X10576429Y-15634524D01*
X10700238Y-15815476D02*
X10681190Y-15805952D01*
X10671667Y-15786905D01*
X10671667Y-15615476D01*
X10805000Y-15815476D02*
X10785952Y-15805952D01*
X10776429Y-15786905D01*
X10776429Y-15615476D01*
X11033571Y-15815476D02*
X11033571Y-15615476D01*
X11100238Y-15758333D01*
X11166905Y-15615476D01*
X11166905Y-15815476D01*
X11347857Y-15815476D02*
X11347857Y-15710714D01*
X11338333Y-15691667D01*
X11319286Y-15682143D01*
X11281190Y-15682143D01*
X11262143Y-15691667D01*
X11347857Y-15805952D02*
X11328809Y-15815476D01*
X11281190Y-15815476D01*
X11262143Y-15805952D01*
X11252619Y-15786905D01*
X11252619Y-15767857D01*
X11262143Y-15748809D01*
X11281190Y-15739286D01*
X11328809Y-15739286D01*
X11347857Y-15729762D01*
X11443095Y-15682143D02*
X11443095Y-15882143D01*
X11443095Y-15691667D02*
X11462143Y-15682143D01*
X11500238Y-15682143D01*
X11519286Y-15691667D01*
X11528809Y-15701190D01*
X11538333Y-15720238D01*
X11538333Y-15777381D01*
X11528809Y-15796428D01*
X11519286Y-15805952D01*
X11500238Y-15815476D01*
X11462143Y-15815476D01*
X11443095Y-15805952D01*
X11624048Y-15796428D02*
X11633571Y-15805952D01*
X11624048Y-15815476D01*
X11614524Y-15805952D01*
X11624048Y-15796428D01*
X11624048Y-15815476D01*
X11624048Y-15691667D02*
X11633571Y-15701190D01*
X11624048Y-15710714D01*
X11614524Y-15701190D01*
X11624048Y-15691667D01*
X11624048Y-15710714D01*
D12*
X9955000Y-16125000D02*
X9995000Y-16165000D01*
X9995000Y-16125000D02*
X9955000Y-16165000D01*
D11*
X10290714Y-16035476D02*
X10309762Y-16035476D01*
X10328810Y-16045000D01*
X10338333Y-16054524D01*
X10347857Y-16073571D01*
X10357381Y-16111667D01*
X10357381Y-16159286D01*
X10347857Y-16197381D01*
X10338333Y-16216428D01*
X10328810Y-16225952D01*
X10309762Y-16235476D01*
X10290714Y-16235476D01*
X10271667Y-16225952D01*
X10262143Y-16216428D01*
X10252619Y-16197381D01*
X10243095Y-16159286D01*
X10243095Y-16111667D01*
X10252619Y-16073571D01*
X10262143Y-16054524D01*
X10271667Y-16045000D01*
X10290714Y-16035476D01*
X10443095Y-16216428D02*
X10452619Y-16225952D01*
X10443095Y-16235476D01*
X10433571Y-16225952D01*
X10443095Y-16216428D01*
X10443095Y-16235476D01*
X10624048Y-16102143D02*
X10624048Y-16235476D01*
X10576429Y-16025952D02*
X10528810Y-16168809D01*
X10652619Y-16168809D01*
X10766905Y-16035476D02*
X10785952Y-16035476D01*
X10805000Y-16045000D01*
X10814524Y-16054524D01*
X10824048Y-16073571D01*
X10833571Y-16111667D01*
X10833571Y-16159286D01*
X10824048Y-16197381D01*
X10814524Y-16216428D01*
X10805000Y-16225952D01*
X10785952Y-16235476D01*
X10766905Y-16235476D01*
X10747857Y-16225952D01*
X10738333Y-16216428D01*
X10728810Y-16197381D01*
X10719286Y-16159286D01*
X10719286Y-16111667D01*
X10728810Y-16073571D01*
X10738333Y-16054524D01*
X10747857Y-16045000D01*
X10766905Y-16035476D01*
X10957381Y-16035476D02*
X10976429Y-16035476D01*
X10995476Y-16045000D01*
X11005000Y-16054524D01*
X11014524Y-16073571D01*
X11024048Y-16111667D01*
X11024048Y-16159286D01*
X11014524Y-16197381D01*
X11005000Y-16216428D01*
X10995476Y-16225952D01*
X10976429Y-16235476D01*
X10957381Y-16235476D01*
X10938333Y-16225952D01*
X10928810Y-16216428D01*
X10919286Y-16197381D01*
X10909762Y-16159286D01*
X10909762Y-16111667D01*
X10919286Y-16073571D01*
X10928810Y-16054524D01*
X10938333Y-16045000D01*
X10957381Y-16035476D01*
X11109762Y-16235476D02*
X11109762Y-16102143D01*
X11109762Y-16121190D02*
X11119286Y-16111667D01*
X11138333Y-16102143D01*
X11166905Y-16102143D01*
X11185952Y-16111667D01*
X11195476Y-16130714D01*
X11195476Y-16235476D01*
X11195476Y-16130714D02*
X11205000Y-16111667D01*
X11224048Y-16102143D01*
X11252619Y-16102143D01*
X11271667Y-16111667D01*
X11281190Y-16130714D01*
X11281190Y-16235476D01*
X11376428Y-16235476D02*
X11376428Y-16102143D01*
X11376428Y-16121190D02*
X11385952Y-16111667D01*
X11405000Y-16102143D01*
X11433571Y-16102143D01*
X11452619Y-16111667D01*
X11462143Y-16130714D01*
X11462143Y-16235476D01*
X11462143Y-16130714D02*
X11471667Y-16111667D01*
X11490714Y-16102143D01*
X11519286Y-16102143D01*
X11538333Y-16111667D01*
X11547857Y-16130714D01*
X11547857Y-16235476D01*
X11938333Y-16025952D02*
X11766905Y-16283095D01*
X12195476Y-16035476D02*
X12214524Y-16035476D01*
X12233571Y-16045000D01*
X12243095Y-16054524D01*
X12252619Y-16073571D01*
X12262143Y-16111667D01*
X12262143Y-16159286D01*
X12252619Y-16197381D01*
X12243095Y-16216428D01*
X12233571Y-16225952D01*
X12214524Y-16235476D01*
X12195476Y-16235476D01*
X12176428Y-16225952D01*
X12166905Y-16216428D01*
X12157381Y-16197381D01*
X12147857Y-16159286D01*
X12147857Y-16111667D01*
X12157381Y-16073571D01*
X12166905Y-16054524D01*
X12176428Y-16045000D01*
X12195476Y-16035476D01*
X12347857Y-16216428D02*
X12357381Y-16225952D01*
X12347857Y-16235476D01*
X12338333Y-16225952D01*
X12347857Y-16216428D01*
X12347857Y-16235476D01*
X12481190Y-16035476D02*
X12500238Y-16035476D01*
X12519286Y-16045000D01*
X12528809Y-16054524D01*
X12538333Y-16073571D01*
X12547857Y-16111667D01*
X12547857Y-16159286D01*
X12538333Y-16197381D01*
X12528809Y-16216428D01*
X12519286Y-16225952D01*
X12500238Y-16235476D01*
X12481190Y-16235476D01*
X12462143Y-16225952D01*
X12452619Y-16216428D01*
X12443095Y-16197381D01*
X12433571Y-16159286D01*
X12433571Y-16111667D01*
X12443095Y-16073571D01*
X12452619Y-16054524D01*
X12462143Y-16045000D01*
X12481190Y-16035476D01*
X12738333Y-16235476D02*
X12624048Y-16235476D01*
X12681190Y-16235476D02*
X12681190Y-16035476D01*
X12662143Y-16064048D01*
X12643095Y-16083095D01*
X12624048Y-16092619D01*
X12919286Y-16035476D02*
X12824048Y-16035476D01*
X12814524Y-16130714D01*
X12824048Y-16121190D01*
X12843095Y-16111667D01*
X12890714Y-16111667D01*
X12909762Y-16121190D01*
X12919286Y-16130714D01*
X12928809Y-16149762D01*
X12928809Y-16197381D01*
X12919286Y-16216428D01*
X12909762Y-16225952D01*
X12890714Y-16235476D01*
X12843095Y-16235476D01*
X12824048Y-16225952D01*
X12814524Y-16216428D01*
X12995476Y-16035476D02*
X13128809Y-16035476D01*
X13043095Y-16235476D01*
X13195476Y-16035476D02*
X13195476Y-16073571D01*
X13271667Y-16035476D02*
X13271667Y-16073571D01*
X13566905Y-16311667D02*
X13557381Y-16302143D01*
X13538333Y-16273571D01*
X13528809Y-16254524D01*
X13519286Y-16225952D01*
X13509762Y-16178333D01*
X13509762Y-16140238D01*
X13519286Y-16092619D01*
X13528809Y-16064048D01*
X13538333Y-16045000D01*
X13557381Y-16016428D01*
X13566905Y-16006905D01*
X13728809Y-16102143D02*
X13728809Y-16235476D01*
X13681190Y-16025952D02*
X13633571Y-16168809D01*
X13757381Y-16168809D01*
X13824048Y-16054524D02*
X13833571Y-16045000D01*
X13852619Y-16035476D01*
X13900238Y-16035476D01*
X13919286Y-16045000D01*
X13928809Y-16054524D01*
X13938333Y-16073571D01*
X13938333Y-16092619D01*
X13928809Y-16121190D01*
X13814524Y-16235476D01*
X13938333Y-16235476D01*
X14033571Y-16235476D02*
X14071667Y-16235476D01*
X14090714Y-16225952D01*
X14100238Y-16216428D01*
X14119286Y-16187857D01*
X14128809Y-16149762D01*
X14128809Y-16073571D01*
X14119286Y-16054524D01*
X14109762Y-16045000D01*
X14090714Y-16035476D01*
X14052619Y-16035476D01*
X14033571Y-16045000D01*
X14024048Y-16054524D01*
X14014524Y-16073571D01*
X14014524Y-16121190D01*
X14024048Y-16140238D01*
X14033571Y-16149762D01*
X14052619Y-16159286D01*
X14090714Y-16159286D01*
X14109762Y-16149762D01*
X14119286Y-16140238D01*
X14128809Y-16121190D01*
X14366905Y-16235476D02*
X14366905Y-16035476D01*
X14452619Y-16235476D02*
X14452619Y-16130714D01*
X14443095Y-16111667D01*
X14424048Y-16102143D01*
X14395476Y-16102143D01*
X14376428Y-16111667D01*
X14366905Y-16121190D01*
X14576428Y-16235476D02*
X14557381Y-16225952D01*
X14547857Y-16216428D01*
X14538333Y-16197381D01*
X14538333Y-16140238D01*
X14547857Y-16121190D01*
X14557381Y-16111667D01*
X14576428Y-16102143D01*
X14605000Y-16102143D01*
X14624048Y-16111667D01*
X14633571Y-16121190D01*
X14643095Y-16140238D01*
X14643095Y-16197381D01*
X14633571Y-16216428D01*
X14624048Y-16225952D01*
X14605000Y-16235476D01*
X14576428Y-16235476D01*
X14757381Y-16235476D02*
X14738333Y-16225952D01*
X14728809Y-16206905D01*
X14728809Y-16035476D01*
X14909762Y-16225952D02*
X14890714Y-16235476D01*
X14852619Y-16235476D01*
X14833571Y-16225952D01*
X14824048Y-16206905D01*
X14824048Y-16130714D01*
X14833571Y-16111667D01*
X14852619Y-16102143D01*
X14890714Y-16102143D01*
X14909762Y-16111667D01*
X14919286Y-16130714D01*
X14919286Y-16149762D01*
X14824048Y-16168809D01*
X14995476Y-16225952D02*
X15014524Y-16235476D01*
X15052619Y-16235476D01*
X15071667Y-16225952D01*
X15081190Y-16206905D01*
X15081190Y-16197381D01*
X15071667Y-16178333D01*
X15052619Y-16168809D01*
X15024048Y-16168809D01*
X15005000Y-16159286D01*
X14995476Y-16140238D01*
X14995476Y-16130714D01*
X15005000Y-16111667D01*
X15024048Y-16102143D01*
X15052619Y-16102143D01*
X15071667Y-16111667D01*
X15147857Y-16311667D02*
X15157381Y-16302143D01*
X15176428Y-16273571D01*
X15185952Y-16254524D01*
X15195476Y-16225952D01*
X15205000Y-16178333D01*
X15205000Y-16140238D01*
X15195476Y-16092619D01*
X15185952Y-16064048D01*
X15176428Y-16045000D01*
X15157381Y-16016428D01*
X15147857Y-16006905D01*
D13*
X9995000Y-16409000D02*
G75*
G03*
X9995000Y-16409000I-30000J0D01*
G01*
D11*
X10290714Y-16299476D02*
X10309762Y-16299476D01*
X10328810Y-16309000D01*
X10338333Y-16318524D01*
X10347857Y-16337571D01*
X10357381Y-16375667D01*
X10357381Y-16423286D01*
X10347857Y-16461381D01*
X10338333Y-16480428D01*
X10328810Y-16489952D01*
X10309762Y-16499476D01*
X10290714Y-16499476D01*
X10271667Y-16489952D01*
X10262143Y-16480428D01*
X10252619Y-16461381D01*
X10243095Y-16423286D01*
X10243095Y-16375667D01*
X10252619Y-16337571D01*
X10262143Y-16318524D01*
X10271667Y-16309000D01*
X10290714Y-16299476D01*
X10443095Y-16480428D02*
X10452619Y-16489952D01*
X10443095Y-16499476D01*
X10433571Y-16489952D01*
X10443095Y-16480428D01*
X10443095Y-16499476D01*
X10624048Y-16299476D02*
X10585952Y-16299476D01*
X10566905Y-16309000D01*
X10557381Y-16318524D01*
X10538333Y-16347095D01*
X10528810Y-16385190D01*
X10528810Y-16461381D01*
X10538333Y-16480428D01*
X10547857Y-16489952D01*
X10566905Y-16499476D01*
X10605000Y-16499476D01*
X10624048Y-16489952D01*
X10633571Y-16480428D01*
X10643095Y-16461381D01*
X10643095Y-16413762D01*
X10633571Y-16394714D01*
X10624048Y-16385190D01*
X10605000Y-16375667D01*
X10566905Y-16375667D01*
X10547857Y-16385190D01*
X10538333Y-16394714D01*
X10528810Y-16413762D01*
X10766905Y-16299476D02*
X10785952Y-16299476D01*
X10805000Y-16309000D01*
X10814524Y-16318524D01*
X10824048Y-16337571D01*
X10833571Y-16375667D01*
X10833571Y-16423286D01*
X10824048Y-16461381D01*
X10814524Y-16480428D01*
X10805000Y-16489952D01*
X10785952Y-16499476D01*
X10766905Y-16499476D01*
X10747857Y-16489952D01*
X10738333Y-16480428D01*
X10728810Y-16461381D01*
X10719286Y-16423286D01*
X10719286Y-16375667D01*
X10728810Y-16337571D01*
X10738333Y-16318524D01*
X10747857Y-16309000D01*
X10766905Y-16299476D01*
X10957381Y-16299476D02*
X10976429Y-16299476D01*
X10995476Y-16309000D01*
X11005000Y-16318524D01*
X11014524Y-16337571D01*
X11024048Y-16375667D01*
X11024048Y-16423286D01*
X11014524Y-16461381D01*
X11005000Y-16480428D01*
X10995476Y-16489952D01*
X10976429Y-16499476D01*
X10957381Y-16499476D01*
X10938333Y-16489952D01*
X10928810Y-16480428D01*
X10919286Y-16461381D01*
X10909762Y-16423286D01*
X10909762Y-16375667D01*
X10919286Y-16337571D01*
X10928810Y-16318524D01*
X10938333Y-16309000D01*
X10957381Y-16299476D01*
X11109762Y-16499476D02*
X11109762Y-16366143D01*
X11109762Y-16385190D02*
X11119286Y-16375667D01*
X11138333Y-16366143D01*
X11166905Y-16366143D01*
X11185952Y-16375667D01*
X11195476Y-16394714D01*
X11195476Y-16499476D01*
X11195476Y-16394714D02*
X11205000Y-16375667D01*
X11224048Y-16366143D01*
X11252619Y-16366143D01*
X11271667Y-16375667D01*
X11281190Y-16394714D01*
X11281190Y-16499476D01*
X11376428Y-16499476D02*
X11376428Y-16366143D01*
X11376428Y-16385190D02*
X11385952Y-16375667D01*
X11405000Y-16366143D01*
X11433571Y-16366143D01*
X11452619Y-16375667D01*
X11462143Y-16394714D01*
X11462143Y-16499476D01*
X11462143Y-16394714D02*
X11471667Y-16375667D01*
X11490714Y-16366143D01*
X11519286Y-16366143D01*
X11538333Y-16375667D01*
X11547857Y-16394714D01*
X11547857Y-16499476D01*
X11938333Y-16289952D02*
X11766905Y-16547095D01*
X12195476Y-16299476D02*
X12214524Y-16299476D01*
X12233571Y-16309000D01*
X12243095Y-16318524D01*
X12252619Y-16337571D01*
X12262143Y-16375667D01*
X12262143Y-16423286D01*
X12252619Y-16461381D01*
X12243095Y-16480428D01*
X12233571Y-16489952D01*
X12214524Y-16499476D01*
X12195476Y-16499476D01*
X12176428Y-16489952D01*
X12166905Y-16480428D01*
X12157381Y-16461381D01*
X12147857Y-16423286D01*
X12147857Y-16375667D01*
X12157381Y-16337571D01*
X12166905Y-16318524D01*
X12176428Y-16309000D01*
X12195476Y-16299476D01*
X12347857Y-16480428D02*
X12357381Y-16489952D01*
X12347857Y-16499476D01*
X12338333Y-16489952D01*
X12347857Y-16480428D01*
X12347857Y-16499476D01*
X12481190Y-16299476D02*
X12500238Y-16299476D01*
X12519286Y-16309000D01*
X12528809Y-16318524D01*
X12538333Y-16337571D01*
X12547857Y-16375667D01*
X12547857Y-16423286D01*
X12538333Y-16461381D01*
X12528809Y-16480428D01*
X12519286Y-16489952D01*
X12500238Y-16499476D01*
X12481190Y-16499476D01*
X12462143Y-16489952D01*
X12452619Y-16480428D01*
X12443095Y-16461381D01*
X12433571Y-16423286D01*
X12433571Y-16375667D01*
X12443095Y-16337571D01*
X12452619Y-16318524D01*
X12462143Y-16309000D01*
X12481190Y-16299476D01*
X12624048Y-16318524D02*
X12633571Y-16309000D01*
X12652619Y-16299476D01*
X12700238Y-16299476D01*
X12719286Y-16309000D01*
X12728809Y-16318524D01*
X12738333Y-16337571D01*
X12738333Y-16356619D01*
X12728809Y-16385190D01*
X12614524Y-16499476D01*
X12738333Y-16499476D01*
X12805000Y-16299476D02*
X12928809Y-16299476D01*
X12862143Y-16375667D01*
X12890714Y-16375667D01*
X12909762Y-16385190D01*
X12919286Y-16394714D01*
X12928809Y-16413762D01*
X12928809Y-16461381D01*
X12919286Y-16480428D01*
X12909762Y-16489952D01*
X12890714Y-16499476D01*
X12833571Y-16499476D01*
X12814524Y-16489952D01*
X12805000Y-16480428D01*
X13100238Y-16299476D02*
X13062143Y-16299476D01*
X13043095Y-16309000D01*
X13033571Y-16318524D01*
X13014524Y-16347095D01*
X13005000Y-16385190D01*
X13005000Y-16461381D01*
X13014524Y-16480428D01*
X13024048Y-16489952D01*
X13043095Y-16499476D01*
X13081190Y-16499476D01*
X13100238Y-16489952D01*
X13109762Y-16480428D01*
X13119286Y-16461381D01*
X13119286Y-16413762D01*
X13109762Y-16394714D01*
X13100238Y-16385190D01*
X13081190Y-16375667D01*
X13043095Y-16375667D01*
X13024048Y-16385190D01*
X13014524Y-16394714D01*
X13005000Y-16413762D01*
X13195476Y-16299476D02*
X13195476Y-16337571D01*
X13271667Y-16299476D02*
X13271667Y-16337571D01*
X13566905Y-16575667D02*
X13557381Y-16566143D01*
X13538333Y-16537571D01*
X13528809Y-16518524D01*
X13519286Y-16489952D01*
X13509762Y-16442333D01*
X13509762Y-16404238D01*
X13519286Y-16356619D01*
X13528809Y-16328048D01*
X13538333Y-16309000D01*
X13557381Y-16280428D01*
X13566905Y-16270905D01*
X13624048Y-16299476D02*
X13747857Y-16299476D01*
X13681190Y-16375667D01*
X13709762Y-16375667D01*
X13728809Y-16385190D01*
X13738333Y-16394714D01*
X13747857Y-16413762D01*
X13747857Y-16461381D01*
X13738333Y-16480428D01*
X13728809Y-16489952D01*
X13709762Y-16499476D01*
X13652619Y-16499476D01*
X13633571Y-16489952D01*
X13624048Y-16480428D01*
X13824048Y-16318524D02*
X13833571Y-16309000D01*
X13852619Y-16299476D01*
X13900238Y-16299476D01*
X13919286Y-16309000D01*
X13928809Y-16318524D01*
X13938333Y-16337571D01*
X13938333Y-16356619D01*
X13928809Y-16385190D01*
X13814524Y-16499476D01*
X13938333Y-16499476D01*
X14176428Y-16499476D02*
X14176428Y-16299476D01*
X14262143Y-16499476D02*
X14262143Y-16394714D01*
X14252619Y-16375667D01*
X14233571Y-16366143D01*
X14205000Y-16366143D01*
X14185952Y-16375667D01*
X14176428Y-16385190D01*
X14385952Y-16499476D02*
X14366905Y-16489952D01*
X14357381Y-16480428D01*
X14347857Y-16461381D01*
X14347857Y-16404238D01*
X14357381Y-16385190D01*
X14366905Y-16375667D01*
X14385952Y-16366143D01*
X14414524Y-16366143D01*
X14433571Y-16375667D01*
X14443095Y-16385190D01*
X14452619Y-16404238D01*
X14452619Y-16461381D01*
X14443095Y-16480428D01*
X14433571Y-16489952D01*
X14414524Y-16499476D01*
X14385952Y-16499476D01*
X14566905Y-16499476D02*
X14547857Y-16489952D01*
X14538333Y-16470905D01*
X14538333Y-16299476D01*
X14719286Y-16489952D02*
X14700238Y-16499476D01*
X14662143Y-16499476D01*
X14643095Y-16489952D01*
X14633571Y-16470905D01*
X14633571Y-16394714D01*
X14643095Y-16375667D01*
X14662143Y-16366143D01*
X14700238Y-16366143D01*
X14719286Y-16375667D01*
X14728809Y-16394714D01*
X14728809Y-16413762D01*
X14633571Y-16432809D01*
X14805000Y-16489952D02*
X14824048Y-16499476D01*
X14862143Y-16499476D01*
X14881190Y-16489952D01*
X14890714Y-16470905D01*
X14890714Y-16461381D01*
X14881190Y-16442333D01*
X14862143Y-16432809D01*
X14833571Y-16432809D01*
X14814524Y-16423286D01*
X14805000Y-16404238D01*
X14805000Y-16394714D01*
X14814524Y-16375667D01*
X14833571Y-16366143D01*
X14862143Y-16366143D01*
X14881190Y-16375667D01*
X14957381Y-16575667D02*
X14966905Y-16566143D01*
X14985952Y-16537571D01*
X14995476Y-16518524D01*
X15005000Y-16489952D01*
X15014524Y-16442333D01*
X15014524Y-16404238D01*
X15005000Y-16356619D01*
X14995476Y-16328048D01*
X14985952Y-16309000D01*
X14966905Y-16280428D01*
X14957381Y-16270905D01*
D10*
X9945000Y-16623000D02*
X9945000Y-16723000D01*
X9895000Y-16673000D02*
X9995000Y-16673000D01*
D11*
X10357381Y-16763476D02*
X10243095Y-16763476D01*
X10300238Y-16763476D02*
X10300238Y-16563476D01*
X10281190Y-16592048D01*
X10262143Y-16611095D01*
X10243095Y-16620619D01*
X10443095Y-16744428D02*
X10452619Y-16753952D01*
X10443095Y-16763476D01*
X10433571Y-16753952D01*
X10443095Y-16744428D01*
X10443095Y-16763476D01*
X10576429Y-16563476D02*
X10595476Y-16563476D01*
X10614524Y-16573000D01*
X10624048Y-16582524D01*
X10633571Y-16601571D01*
X10643095Y-16639667D01*
X10643095Y-16687286D01*
X10633571Y-16725381D01*
X10624048Y-16744428D01*
X10614524Y-16753952D01*
X10595476Y-16763476D01*
X10576429Y-16763476D01*
X10557381Y-16753952D01*
X10547857Y-16744428D01*
X10538333Y-16725381D01*
X10528810Y-16687286D01*
X10528810Y-16639667D01*
X10538333Y-16601571D01*
X10547857Y-16582524D01*
X10557381Y-16573000D01*
X10576429Y-16563476D01*
X10766905Y-16563476D02*
X10785952Y-16563476D01*
X10805000Y-16573000D01*
X10814524Y-16582524D01*
X10824048Y-16601571D01*
X10833571Y-16639667D01*
X10833571Y-16687286D01*
X10824048Y-16725381D01*
X10814524Y-16744428D01*
X10805000Y-16753952D01*
X10785952Y-16763476D01*
X10766905Y-16763476D01*
X10747857Y-16753952D01*
X10738333Y-16744428D01*
X10728810Y-16725381D01*
X10719286Y-16687286D01*
X10719286Y-16639667D01*
X10728810Y-16601571D01*
X10738333Y-16582524D01*
X10747857Y-16573000D01*
X10766905Y-16563476D01*
X10957381Y-16563476D02*
X10976429Y-16563476D01*
X10995476Y-16573000D01*
X11005000Y-16582524D01*
X11014524Y-16601571D01*
X11024048Y-16639667D01*
X11024048Y-16687286D01*
X11014524Y-16725381D01*
X11005000Y-16744428D01*
X10995476Y-16753952D01*
X10976429Y-16763476D01*
X10957381Y-16763476D01*
X10938333Y-16753952D01*
X10928810Y-16744428D01*
X10919286Y-16725381D01*
X10909762Y-16687286D01*
X10909762Y-16639667D01*
X10919286Y-16601571D01*
X10928810Y-16582524D01*
X10938333Y-16573000D01*
X10957381Y-16563476D01*
X11109762Y-16763476D02*
X11109762Y-16630143D01*
X11109762Y-16649190D02*
X11119286Y-16639667D01*
X11138333Y-16630143D01*
X11166905Y-16630143D01*
X11185952Y-16639667D01*
X11195476Y-16658714D01*
X11195476Y-16763476D01*
X11195476Y-16658714D02*
X11205000Y-16639667D01*
X11224048Y-16630143D01*
X11252619Y-16630143D01*
X11271667Y-16639667D01*
X11281190Y-16658714D01*
X11281190Y-16763476D01*
X11376428Y-16763476D02*
X11376428Y-16630143D01*
X11376428Y-16649190D02*
X11385952Y-16639667D01*
X11405000Y-16630143D01*
X11433571Y-16630143D01*
X11452619Y-16639667D01*
X11462143Y-16658714D01*
X11462143Y-16763476D01*
X11462143Y-16658714D02*
X11471667Y-16639667D01*
X11490714Y-16630143D01*
X11519286Y-16630143D01*
X11538333Y-16639667D01*
X11547857Y-16658714D01*
X11547857Y-16763476D01*
X11938333Y-16553952D02*
X11766905Y-16811095D01*
X12195476Y-16563476D02*
X12214524Y-16563476D01*
X12233571Y-16573000D01*
X12243095Y-16582524D01*
X12252619Y-16601571D01*
X12262143Y-16639667D01*
X12262143Y-16687286D01*
X12252619Y-16725381D01*
X12243095Y-16744428D01*
X12233571Y-16753952D01*
X12214524Y-16763476D01*
X12195476Y-16763476D01*
X12176428Y-16753952D01*
X12166905Y-16744428D01*
X12157381Y-16725381D01*
X12147857Y-16687286D01*
X12147857Y-16639667D01*
X12157381Y-16601571D01*
X12166905Y-16582524D01*
X12176428Y-16573000D01*
X12195476Y-16563476D01*
X12347857Y-16744428D02*
X12357381Y-16753952D01*
X12347857Y-16763476D01*
X12338333Y-16753952D01*
X12347857Y-16744428D01*
X12347857Y-16763476D01*
X12481190Y-16563476D02*
X12500238Y-16563476D01*
X12519286Y-16573000D01*
X12528809Y-16582524D01*
X12538333Y-16601571D01*
X12547857Y-16639667D01*
X12547857Y-16687286D01*
X12538333Y-16725381D01*
X12528809Y-16744428D01*
X12519286Y-16753952D01*
X12500238Y-16763476D01*
X12481190Y-16763476D01*
X12462143Y-16753952D01*
X12452619Y-16744428D01*
X12443095Y-16725381D01*
X12433571Y-16687286D01*
X12433571Y-16639667D01*
X12443095Y-16601571D01*
X12452619Y-16582524D01*
X12462143Y-16573000D01*
X12481190Y-16563476D01*
X12614524Y-16563476D02*
X12738333Y-16563476D01*
X12671667Y-16639667D01*
X12700238Y-16639667D01*
X12719286Y-16649190D01*
X12728809Y-16658714D01*
X12738333Y-16677762D01*
X12738333Y-16725381D01*
X12728809Y-16744428D01*
X12719286Y-16753952D01*
X12700238Y-16763476D01*
X12643095Y-16763476D01*
X12624048Y-16753952D01*
X12614524Y-16744428D01*
X12833571Y-16763476D02*
X12871667Y-16763476D01*
X12890714Y-16753952D01*
X12900238Y-16744428D01*
X12919286Y-16715857D01*
X12928809Y-16677762D01*
X12928809Y-16601571D01*
X12919286Y-16582524D01*
X12909762Y-16573000D01*
X12890714Y-16563476D01*
X12852619Y-16563476D01*
X12833571Y-16573000D01*
X12824048Y-16582524D01*
X12814524Y-16601571D01*
X12814524Y-16649190D01*
X12824048Y-16668238D01*
X12833571Y-16677762D01*
X12852619Y-16687286D01*
X12890714Y-16687286D01*
X12909762Y-16677762D01*
X12919286Y-16668238D01*
X12928809Y-16649190D01*
X13100238Y-16630143D02*
X13100238Y-16763476D01*
X13052619Y-16553952D02*
X13005000Y-16696809D01*
X13128809Y-16696809D01*
X13195476Y-16563476D02*
X13195476Y-16601571D01*
X13271667Y-16563476D02*
X13271667Y-16601571D01*
X13566905Y-16839667D02*
X13557381Y-16830143D01*
X13538333Y-16801571D01*
X13528809Y-16782524D01*
X13519286Y-16753952D01*
X13509762Y-16706333D01*
X13509762Y-16668238D01*
X13519286Y-16620619D01*
X13528809Y-16592048D01*
X13538333Y-16573000D01*
X13557381Y-16544428D01*
X13566905Y-16534905D01*
X13747857Y-16763476D02*
X13633571Y-16763476D01*
X13690714Y-16763476D02*
X13690714Y-16563476D01*
X13671667Y-16592048D01*
X13652619Y-16611095D01*
X13633571Y-16620619D01*
X13919286Y-16630143D02*
X13919286Y-16763476D01*
X13871667Y-16553952D02*
X13824048Y-16696809D01*
X13947857Y-16696809D01*
X14176428Y-16763476D02*
X14176428Y-16563476D01*
X14262143Y-16763476D02*
X14262143Y-16658714D01*
X14252619Y-16639667D01*
X14233571Y-16630143D01*
X14205000Y-16630143D01*
X14185952Y-16639667D01*
X14176428Y-16649190D01*
X14385952Y-16763476D02*
X14366905Y-16753952D01*
X14357381Y-16744428D01*
X14347857Y-16725381D01*
X14347857Y-16668238D01*
X14357381Y-16649190D01*
X14366905Y-16639667D01*
X14385952Y-16630143D01*
X14414524Y-16630143D01*
X14433571Y-16639667D01*
X14443095Y-16649190D01*
X14452619Y-16668238D01*
X14452619Y-16725381D01*
X14443095Y-16744428D01*
X14433571Y-16753952D01*
X14414524Y-16763476D01*
X14385952Y-16763476D01*
X14566905Y-16763476D02*
X14547857Y-16753952D01*
X14538333Y-16734905D01*
X14538333Y-16563476D01*
X14719286Y-16753952D02*
X14700238Y-16763476D01*
X14662143Y-16763476D01*
X14643095Y-16753952D01*
X14633571Y-16734905D01*
X14633571Y-16658714D01*
X14643095Y-16639667D01*
X14662143Y-16630143D01*
X14700238Y-16630143D01*
X14719286Y-16639667D01*
X14728809Y-16658714D01*
X14728809Y-16677762D01*
X14633571Y-16696809D01*
X14805000Y-16753952D02*
X14824048Y-16763476D01*
X14862143Y-16763476D01*
X14881190Y-16753952D01*
X14890714Y-16734905D01*
X14890714Y-16725381D01*
X14881190Y-16706333D01*
X14862143Y-16696809D01*
X14833571Y-16696809D01*
X14814524Y-16687286D01*
X14805000Y-16668238D01*
X14805000Y-16658714D01*
X14814524Y-16639667D01*
X14833571Y-16630143D01*
X14862143Y-16630143D01*
X14881190Y-16639667D01*
X14957381Y-16839667D02*
X14966905Y-16830143D01*
X14985952Y-16801571D01*
X14995476Y-16782524D01*
X15005000Y-16753952D01*
X15014524Y-16706333D01*
X15014524Y-16668238D01*
X15005000Y-16620619D01*
X14995476Y-16592048D01*
X14985952Y-16573000D01*
X14966905Y-16544428D01*
X14957381Y-16534905D01*
D14*
X9975962Y-16982962D02*
X9975962Y-16891038D01*
X9884038Y-16891038D01*
X9884038Y-16982962D01*
X9975962Y-16982962D01*
D11*
X10357381Y-17027476D02*
X10243095Y-17027476D01*
X10300238Y-17027476D02*
X10300238Y-16827476D01*
X10281190Y-16856048D01*
X10262143Y-16875095D01*
X10243095Y-16884619D01*
X10443095Y-17008429D02*
X10452619Y-17017952D01*
X10443095Y-17027476D01*
X10433571Y-17017952D01*
X10443095Y-17008429D01*
X10443095Y-17027476D01*
X10519286Y-16827476D02*
X10643095Y-16827476D01*
X10576429Y-16903667D01*
X10605000Y-16903667D01*
X10624048Y-16913190D01*
X10633571Y-16922714D01*
X10643095Y-16941762D01*
X10643095Y-16989381D01*
X10633571Y-17008429D01*
X10624048Y-17017952D01*
X10605000Y-17027476D01*
X10547857Y-17027476D01*
X10528810Y-17017952D01*
X10519286Y-17008429D01*
X10766905Y-16827476D02*
X10785952Y-16827476D01*
X10805000Y-16837000D01*
X10814524Y-16846524D01*
X10824048Y-16865571D01*
X10833571Y-16903667D01*
X10833571Y-16951286D01*
X10824048Y-16989381D01*
X10814524Y-17008429D01*
X10805000Y-17017952D01*
X10785952Y-17027476D01*
X10766905Y-17027476D01*
X10747857Y-17017952D01*
X10738333Y-17008429D01*
X10728810Y-16989381D01*
X10719286Y-16951286D01*
X10719286Y-16903667D01*
X10728810Y-16865571D01*
X10738333Y-16846524D01*
X10747857Y-16837000D01*
X10766905Y-16827476D01*
X10957381Y-16827476D02*
X10976429Y-16827476D01*
X10995476Y-16837000D01*
X11005000Y-16846524D01*
X11014524Y-16865571D01*
X11024048Y-16903667D01*
X11024048Y-16951286D01*
X11014524Y-16989381D01*
X11005000Y-17008429D01*
X10995476Y-17017952D01*
X10976429Y-17027476D01*
X10957381Y-17027476D01*
X10938333Y-17017952D01*
X10928810Y-17008429D01*
X10919286Y-16989381D01*
X10909762Y-16951286D01*
X10909762Y-16903667D01*
X10919286Y-16865571D01*
X10928810Y-16846524D01*
X10938333Y-16837000D01*
X10957381Y-16827476D01*
X11109762Y-17027476D02*
X11109762Y-16894143D01*
X11109762Y-16913190D02*
X11119286Y-16903667D01*
X11138333Y-16894143D01*
X11166905Y-16894143D01*
X11185952Y-16903667D01*
X11195476Y-16922714D01*
X11195476Y-17027476D01*
X11195476Y-16922714D02*
X11205000Y-16903667D01*
X11224048Y-16894143D01*
X11252619Y-16894143D01*
X11271667Y-16903667D01*
X11281190Y-16922714D01*
X11281190Y-17027476D01*
X11376428Y-17027476D02*
X11376428Y-16894143D01*
X11376428Y-16913190D02*
X11385952Y-16903667D01*
X11405000Y-16894143D01*
X11433571Y-16894143D01*
X11452619Y-16903667D01*
X11462143Y-16922714D01*
X11462143Y-17027476D01*
X11462143Y-16922714D02*
X11471667Y-16903667D01*
X11490714Y-16894143D01*
X11519286Y-16894143D01*
X11538333Y-16903667D01*
X11547857Y-16922714D01*
X11547857Y-17027476D01*
X11938333Y-16817952D02*
X11766905Y-17075095D01*
X12195476Y-16827476D02*
X12214524Y-16827476D01*
X12233571Y-16837000D01*
X12243095Y-16846524D01*
X12252619Y-16865571D01*
X12262143Y-16903667D01*
X12262143Y-16951286D01*
X12252619Y-16989381D01*
X12243095Y-17008429D01*
X12233571Y-17017952D01*
X12214524Y-17027476D01*
X12195476Y-17027476D01*
X12176428Y-17017952D01*
X12166905Y-17008429D01*
X12157381Y-16989381D01*
X12147857Y-16951286D01*
X12147857Y-16903667D01*
X12157381Y-16865571D01*
X12166905Y-16846524D01*
X12176428Y-16837000D01*
X12195476Y-16827476D01*
X12347857Y-17008429D02*
X12357381Y-17017952D01*
X12347857Y-17027476D01*
X12338333Y-17017952D01*
X12347857Y-17008429D01*
X12347857Y-17027476D01*
X12481190Y-16827476D02*
X12500238Y-16827476D01*
X12519286Y-16837000D01*
X12528809Y-16846524D01*
X12538333Y-16865571D01*
X12547857Y-16903667D01*
X12547857Y-16951286D01*
X12538333Y-16989381D01*
X12528809Y-17008429D01*
X12519286Y-17017952D01*
X12500238Y-17027476D01*
X12481190Y-17027476D01*
X12462143Y-17017952D01*
X12452619Y-17008429D01*
X12443095Y-16989381D01*
X12433571Y-16951286D01*
X12433571Y-16903667D01*
X12443095Y-16865571D01*
X12452619Y-16846524D01*
X12462143Y-16837000D01*
X12481190Y-16827476D01*
X12728809Y-16827476D02*
X12633571Y-16827476D01*
X12624048Y-16922714D01*
X12633571Y-16913190D01*
X12652619Y-16903667D01*
X12700238Y-16903667D01*
X12719286Y-16913190D01*
X12728809Y-16922714D01*
X12738333Y-16941762D01*
X12738333Y-16989381D01*
X12728809Y-17008429D01*
X12719286Y-17017952D01*
X12700238Y-17027476D01*
X12652619Y-17027476D01*
X12633571Y-17017952D01*
X12624048Y-17008429D01*
X12928809Y-17027476D02*
X12814524Y-17027476D01*
X12871667Y-17027476D02*
X12871667Y-16827476D01*
X12852619Y-16856048D01*
X12833571Y-16875095D01*
X12814524Y-16884619D01*
X13005000Y-16846524D02*
X13014524Y-16837000D01*
X13033571Y-16827476D01*
X13081190Y-16827476D01*
X13100238Y-16837000D01*
X13109762Y-16846524D01*
X13119286Y-16865571D01*
X13119286Y-16884619D01*
X13109762Y-16913190D01*
X12995476Y-17027476D01*
X13119286Y-17027476D01*
X13195476Y-16827476D02*
X13195476Y-16865571D01*
X13271667Y-16827476D02*
X13271667Y-16865571D01*
X13566905Y-17103667D02*
X13557381Y-17094143D01*
X13538333Y-17065571D01*
X13528809Y-17046524D01*
X13519286Y-17017952D01*
X13509762Y-16970333D01*
X13509762Y-16932238D01*
X13519286Y-16884619D01*
X13528809Y-16856048D01*
X13538333Y-16837000D01*
X13557381Y-16808429D01*
X13566905Y-16798905D01*
X13633571Y-16846524D02*
X13643095Y-16837000D01*
X13662143Y-16827476D01*
X13709762Y-16827476D01*
X13728809Y-16837000D01*
X13738333Y-16846524D01*
X13747857Y-16865571D01*
X13747857Y-16884619D01*
X13738333Y-16913190D01*
X13624048Y-17027476D01*
X13747857Y-17027476D01*
X13919286Y-16894143D02*
X13919286Y-17027476D01*
X13871667Y-16817952D02*
X13824048Y-16960810D01*
X13947857Y-16960810D01*
X14176428Y-17027476D02*
X14176428Y-16827476D01*
X14262143Y-17027476D02*
X14262143Y-16922714D01*
X14252619Y-16903667D01*
X14233571Y-16894143D01*
X14205000Y-16894143D01*
X14185952Y-16903667D01*
X14176428Y-16913190D01*
X14385952Y-17027476D02*
X14366905Y-17017952D01*
X14357381Y-17008429D01*
X14347857Y-16989381D01*
X14347857Y-16932238D01*
X14357381Y-16913190D01*
X14366905Y-16903667D01*
X14385952Y-16894143D01*
X14414524Y-16894143D01*
X14433571Y-16903667D01*
X14443095Y-16913190D01*
X14452619Y-16932238D01*
X14452619Y-16989381D01*
X14443095Y-17008429D01*
X14433571Y-17017952D01*
X14414524Y-17027476D01*
X14385952Y-17027476D01*
X14566905Y-17027476D02*
X14547857Y-17017952D01*
X14538333Y-16998905D01*
X14538333Y-16827476D01*
X14719286Y-17017952D02*
X14700238Y-17027476D01*
X14662143Y-17027476D01*
X14643095Y-17017952D01*
X14633571Y-16998905D01*
X14633571Y-16922714D01*
X14643095Y-16903667D01*
X14662143Y-16894143D01*
X14700238Y-16894143D01*
X14719286Y-16903667D01*
X14728809Y-16922714D01*
X14728809Y-16941762D01*
X14633571Y-16960810D01*
X14805000Y-17017952D02*
X14824048Y-17027476D01*
X14862143Y-17027476D01*
X14881190Y-17017952D01*
X14890714Y-16998905D01*
X14890714Y-16989381D01*
X14881190Y-16970333D01*
X14862143Y-16960810D01*
X14833571Y-16960810D01*
X14814524Y-16951286D01*
X14805000Y-16932238D01*
X14805000Y-16922714D01*
X14814524Y-16903667D01*
X14833571Y-16894143D01*
X14862143Y-16894143D01*
X14881190Y-16903667D01*
X14957381Y-17103667D02*
X14966905Y-17094143D01*
X14985952Y-17065571D01*
X14995476Y-17046524D01*
X15005000Y-17017952D01*
X15014524Y-16970333D01*
X15014524Y-16932238D01*
X15005000Y-16884619D01*
X14995476Y-16856048D01*
X14985952Y-16837000D01*
X14966905Y-16808429D01*
X14957381Y-16798905D01*
D15*
X9925000Y-17271000D02*
X9995000Y-17201000D01*
X9925000Y-17131000D01*
X9855000Y-17201000D01*
X9925000Y-17271000D01*
D11*
X10357381Y-17291476D02*
X10243095Y-17291476D01*
X10300238Y-17291476D02*
X10300238Y-17091476D01*
X10281190Y-17120048D01*
X10262143Y-17139095D01*
X10243095Y-17148619D01*
X10443095Y-17272429D02*
X10452619Y-17281952D01*
X10443095Y-17291476D01*
X10433571Y-17281952D01*
X10443095Y-17272429D01*
X10443095Y-17291476D01*
X10624048Y-17158143D02*
X10624048Y-17291476D01*
X10576429Y-17081952D02*
X10528810Y-17224810D01*
X10652619Y-17224810D01*
X10766905Y-17091476D02*
X10785952Y-17091476D01*
X10805000Y-17101000D01*
X10814524Y-17110524D01*
X10824048Y-17129571D01*
X10833571Y-17167667D01*
X10833571Y-17215286D01*
X10824048Y-17253381D01*
X10814524Y-17272429D01*
X10805000Y-17281952D01*
X10785952Y-17291476D01*
X10766905Y-17291476D01*
X10747857Y-17281952D01*
X10738333Y-17272429D01*
X10728810Y-17253381D01*
X10719286Y-17215286D01*
X10719286Y-17167667D01*
X10728810Y-17129571D01*
X10738333Y-17110524D01*
X10747857Y-17101000D01*
X10766905Y-17091476D01*
X10957381Y-17091476D02*
X10976429Y-17091476D01*
X10995476Y-17101000D01*
X11005000Y-17110524D01*
X11014524Y-17129571D01*
X11024048Y-17167667D01*
X11024048Y-17215286D01*
X11014524Y-17253381D01*
X11005000Y-17272429D01*
X10995476Y-17281952D01*
X10976429Y-17291476D01*
X10957381Y-17291476D01*
X10938333Y-17281952D01*
X10928810Y-17272429D01*
X10919286Y-17253381D01*
X10909762Y-17215286D01*
X10909762Y-17167667D01*
X10919286Y-17129571D01*
X10928810Y-17110524D01*
X10938333Y-17101000D01*
X10957381Y-17091476D01*
X11109762Y-17291476D02*
X11109762Y-17158143D01*
X11109762Y-17177190D02*
X11119286Y-17167667D01*
X11138333Y-17158143D01*
X11166905Y-17158143D01*
X11185952Y-17167667D01*
X11195476Y-17186714D01*
X11195476Y-17291476D01*
X11195476Y-17186714D02*
X11205000Y-17167667D01*
X11224048Y-17158143D01*
X11252619Y-17158143D01*
X11271667Y-17167667D01*
X11281190Y-17186714D01*
X11281190Y-17291476D01*
X11376428Y-17291476D02*
X11376428Y-17158143D01*
X11376428Y-17177190D02*
X11385952Y-17167667D01*
X11405000Y-17158143D01*
X11433571Y-17158143D01*
X11452619Y-17167667D01*
X11462143Y-17186714D01*
X11462143Y-17291476D01*
X11462143Y-17186714D02*
X11471667Y-17167667D01*
X11490714Y-17158143D01*
X11519286Y-17158143D01*
X11538333Y-17167667D01*
X11547857Y-17186714D01*
X11547857Y-17291476D01*
X11938333Y-17081952D02*
X11766905Y-17339095D01*
X12195476Y-17091476D02*
X12214524Y-17091476D01*
X12233571Y-17101000D01*
X12243095Y-17110524D01*
X12252619Y-17129571D01*
X12262143Y-17167667D01*
X12262143Y-17215286D01*
X12252619Y-17253381D01*
X12243095Y-17272429D01*
X12233571Y-17281952D01*
X12214524Y-17291476D01*
X12195476Y-17291476D01*
X12176428Y-17281952D01*
X12166905Y-17272429D01*
X12157381Y-17253381D01*
X12147857Y-17215286D01*
X12147857Y-17167667D01*
X12157381Y-17129571D01*
X12166905Y-17110524D01*
X12176428Y-17101000D01*
X12195476Y-17091476D01*
X12347857Y-17272429D02*
X12357381Y-17281952D01*
X12347857Y-17291476D01*
X12338333Y-17281952D01*
X12347857Y-17272429D01*
X12347857Y-17291476D01*
X12481190Y-17091476D02*
X12500238Y-17091476D01*
X12519286Y-17101000D01*
X12528809Y-17110524D01*
X12538333Y-17129571D01*
X12547857Y-17167667D01*
X12547857Y-17215286D01*
X12538333Y-17253381D01*
X12528809Y-17272429D01*
X12519286Y-17281952D01*
X12500238Y-17291476D01*
X12481190Y-17291476D01*
X12462143Y-17281952D01*
X12452619Y-17272429D01*
X12443095Y-17253381D01*
X12433571Y-17215286D01*
X12433571Y-17167667D01*
X12443095Y-17129571D01*
X12452619Y-17110524D01*
X12462143Y-17101000D01*
X12481190Y-17091476D01*
X12728809Y-17091476D02*
X12633571Y-17091476D01*
X12624048Y-17186714D01*
X12633571Y-17177190D01*
X12652619Y-17167667D01*
X12700238Y-17167667D01*
X12719286Y-17177190D01*
X12728809Y-17186714D01*
X12738333Y-17205762D01*
X12738333Y-17253381D01*
X12728809Y-17272429D01*
X12719286Y-17281952D01*
X12700238Y-17291476D01*
X12652619Y-17291476D01*
X12633571Y-17281952D01*
X12624048Y-17272429D01*
X12919286Y-17091476D02*
X12824048Y-17091476D01*
X12814524Y-17186714D01*
X12824048Y-17177190D01*
X12843095Y-17167667D01*
X12890714Y-17167667D01*
X12909762Y-17177190D01*
X12919286Y-17186714D01*
X12928809Y-17205762D01*
X12928809Y-17253381D01*
X12919286Y-17272429D01*
X12909762Y-17281952D01*
X12890714Y-17291476D01*
X12843095Y-17291476D01*
X12824048Y-17281952D01*
X12814524Y-17272429D01*
X13119286Y-17291476D02*
X13005000Y-17291476D01*
X13062143Y-17291476D02*
X13062143Y-17091476D01*
X13043095Y-17120048D01*
X13024048Y-17139095D01*
X13005000Y-17148619D01*
X13195476Y-17091476D02*
X13195476Y-17129571D01*
X13271667Y-17091476D02*
X13271667Y-17129571D01*
X13566905Y-17367667D02*
X13557381Y-17358143D01*
X13538333Y-17329571D01*
X13528809Y-17310524D01*
X13519286Y-17281952D01*
X13509762Y-17234333D01*
X13509762Y-17196238D01*
X13519286Y-17148619D01*
X13528809Y-17120048D01*
X13538333Y-17101000D01*
X13557381Y-17072429D01*
X13566905Y-17062905D01*
X13652619Y-17291476D02*
X13690714Y-17291476D01*
X13709762Y-17281952D01*
X13719286Y-17272429D01*
X13738333Y-17243857D01*
X13747857Y-17205762D01*
X13747857Y-17129571D01*
X13738333Y-17110524D01*
X13728809Y-17101000D01*
X13709762Y-17091476D01*
X13671667Y-17091476D01*
X13652619Y-17101000D01*
X13643095Y-17110524D01*
X13633571Y-17129571D01*
X13633571Y-17177190D01*
X13643095Y-17196238D01*
X13652619Y-17205762D01*
X13671667Y-17215286D01*
X13709762Y-17215286D01*
X13728809Y-17205762D01*
X13738333Y-17196238D01*
X13747857Y-17177190D01*
X13985952Y-17291476D02*
X13985952Y-17091476D01*
X14071667Y-17291476D02*
X14071667Y-17186714D01*
X14062143Y-17167667D01*
X14043095Y-17158143D01*
X14014524Y-17158143D01*
X13995476Y-17167667D01*
X13985952Y-17177190D01*
X14195476Y-17291476D02*
X14176428Y-17281952D01*
X14166905Y-17272429D01*
X14157381Y-17253381D01*
X14157381Y-17196238D01*
X14166905Y-17177190D01*
X14176428Y-17167667D01*
X14195476Y-17158143D01*
X14224048Y-17158143D01*
X14243095Y-17167667D01*
X14252619Y-17177190D01*
X14262143Y-17196238D01*
X14262143Y-17253381D01*
X14252619Y-17272429D01*
X14243095Y-17281952D01*
X14224048Y-17291476D01*
X14195476Y-17291476D01*
X14376428Y-17291476D02*
X14357381Y-17281952D01*
X14347857Y-17262905D01*
X14347857Y-17091476D01*
X14528809Y-17281952D02*
X14509762Y-17291476D01*
X14471667Y-17291476D01*
X14452619Y-17281952D01*
X14443095Y-17262905D01*
X14443095Y-17186714D01*
X14452619Y-17167667D01*
X14471667Y-17158143D01*
X14509762Y-17158143D01*
X14528809Y-17167667D01*
X14538333Y-17186714D01*
X14538333Y-17205762D01*
X14443095Y-17224810D01*
X14614524Y-17281952D02*
X14633571Y-17291476D01*
X14671667Y-17291476D01*
X14690714Y-17281952D01*
X14700238Y-17262905D01*
X14700238Y-17253381D01*
X14690714Y-17234333D01*
X14671667Y-17224810D01*
X14643095Y-17224810D01*
X14624048Y-17215286D01*
X14614524Y-17196238D01*
X14614524Y-17186714D01*
X14624048Y-17167667D01*
X14643095Y-17158143D01*
X14671667Y-17158143D01*
X14690714Y-17167667D01*
X14766905Y-17367667D02*
X14776428Y-17358143D01*
X14795476Y-17329571D01*
X14805000Y-17310524D01*
X14814524Y-17281952D01*
X14824048Y-17234333D01*
X14824048Y-17196238D01*
X14814524Y-17148619D01*
X14805000Y-17120048D01*
X14795476Y-17101000D01*
X14776428Y-17072429D01*
X14766905Y-17062905D01*
D16*
X9845000Y-17390000D02*
X9995000Y-17540000D01*
X9995000Y-17390000D02*
X9845000Y-17540000D01*
X9995000Y-17465000D02*
G75*
G03*
X9995000Y-17465000I-75000J0D01*
G01*
D11*
X10357381Y-17555476D02*
X10243095Y-17555476D01*
X10300238Y-17555476D02*
X10300238Y-17355476D01*
X10281190Y-17384048D01*
X10262143Y-17403095D01*
X10243095Y-17412619D01*
X10443095Y-17536429D02*
X10452619Y-17545952D01*
X10443095Y-17555476D01*
X10433571Y-17545952D01*
X10443095Y-17536429D01*
X10443095Y-17555476D01*
X10633571Y-17355476D02*
X10538333Y-17355476D01*
X10528810Y-17450714D01*
X10538333Y-17441190D01*
X10557381Y-17431667D01*
X10605000Y-17431667D01*
X10624048Y-17441190D01*
X10633571Y-17450714D01*
X10643095Y-17469762D01*
X10643095Y-17517381D01*
X10633571Y-17536429D01*
X10624048Y-17545952D01*
X10605000Y-17555476D01*
X10557381Y-17555476D01*
X10538333Y-17545952D01*
X10528810Y-17536429D01*
X10766905Y-17355476D02*
X10785952Y-17355476D01*
X10805000Y-17365000D01*
X10814524Y-17374524D01*
X10824048Y-17393571D01*
X10833571Y-17431667D01*
X10833571Y-17479286D01*
X10824048Y-17517381D01*
X10814524Y-17536429D01*
X10805000Y-17545952D01*
X10785952Y-17555476D01*
X10766905Y-17555476D01*
X10747857Y-17545952D01*
X10738333Y-17536429D01*
X10728810Y-17517381D01*
X10719286Y-17479286D01*
X10719286Y-17431667D01*
X10728810Y-17393571D01*
X10738333Y-17374524D01*
X10747857Y-17365000D01*
X10766905Y-17355476D01*
X10957381Y-17355476D02*
X10976429Y-17355476D01*
X10995476Y-17365000D01*
X11005000Y-17374524D01*
X11014524Y-17393571D01*
X11024048Y-17431667D01*
X11024048Y-17479286D01*
X11014524Y-17517381D01*
X11005000Y-17536429D01*
X10995476Y-17545952D01*
X10976429Y-17555476D01*
X10957381Y-17555476D01*
X10938333Y-17545952D01*
X10928810Y-17536429D01*
X10919286Y-17517381D01*
X10909762Y-17479286D01*
X10909762Y-17431667D01*
X10919286Y-17393571D01*
X10928810Y-17374524D01*
X10938333Y-17365000D01*
X10957381Y-17355476D01*
X11109762Y-17555476D02*
X11109762Y-17422143D01*
X11109762Y-17441190D02*
X11119286Y-17431667D01*
X11138333Y-17422143D01*
X11166905Y-17422143D01*
X11185952Y-17431667D01*
X11195476Y-17450714D01*
X11195476Y-17555476D01*
X11195476Y-17450714D02*
X11205000Y-17431667D01*
X11224048Y-17422143D01*
X11252619Y-17422143D01*
X11271667Y-17431667D01*
X11281190Y-17450714D01*
X11281190Y-17555476D01*
X11376428Y-17555476D02*
X11376428Y-17422143D01*
X11376428Y-17441190D02*
X11385952Y-17431667D01*
X11405000Y-17422143D01*
X11433571Y-17422143D01*
X11452619Y-17431667D01*
X11462143Y-17450714D01*
X11462143Y-17555476D01*
X11462143Y-17450714D02*
X11471667Y-17431667D01*
X11490714Y-17422143D01*
X11519286Y-17422143D01*
X11538333Y-17431667D01*
X11547857Y-17450714D01*
X11547857Y-17555476D01*
X11938333Y-17345952D02*
X11766905Y-17603095D01*
X12195476Y-17355476D02*
X12214524Y-17355476D01*
X12233571Y-17365000D01*
X12243095Y-17374524D01*
X12252619Y-17393571D01*
X12262143Y-17431667D01*
X12262143Y-17479286D01*
X12252619Y-17517381D01*
X12243095Y-17536429D01*
X12233571Y-17545952D01*
X12214524Y-17555476D01*
X12195476Y-17555476D01*
X12176428Y-17545952D01*
X12166905Y-17536429D01*
X12157381Y-17517381D01*
X12147857Y-17479286D01*
X12147857Y-17431667D01*
X12157381Y-17393571D01*
X12166905Y-17374524D01*
X12176428Y-17365000D01*
X12195476Y-17355476D01*
X12347857Y-17536429D02*
X12357381Y-17545952D01*
X12347857Y-17555476D01*
X12338333Y-17545952D01*
X12347857Y-17536429D01*
X12347857Y-17555476D01*
X12481190Y-17355476D02*
X12500238Y-17355476D01*
X12519286Y-17365000D01*
X12528809Y-17374524D01*
X12538333Y-17393571D01*
X12547857Y-17431667D01*
X12547857Y-17479286D01*
X12538333Y-17517381D01*
X12528809Y-17536429D01*
X12519286Y-17545952D01*
X12500238Y-17555476D01*
X12481190Y-17555476D01*
X12462143Y-17545952D01*
X12452619Y-17536429D01*
X12443095Y-17517381D01*
X12433571Y-17479286D01*
X12433571Y-17431667D01*
X12443095Y-17393571D01*
X12452619Y-17374524D01*
X12462143Y-17365000D01*
X12481190Y-17355476D01*
X12728809Y-17355476D02*
X12633571Y-17355476D01*
X12624048Y-17450714D01*
X12633571Y-17441190D01*
X12652619Y-17431667D01*
X12700238Y-17431667D01*
X12719286Y-17441190D01*
X12728809Y-17450714D01*
X12738333Y-17469762D01*
X12738333Y-17517381D01*
X12728809Y-17536429D01*
X12719286Y-17545952D01*
X12700238Y-17555476D01*
X12652619Y-17555476D01*
X12633571Y-17545952D01*
X12624048Y-17536429D01*
X12833571Y-17555476D02*
X12871667Y-17555476D01*
X12890714Y-17545952D01*
X12900238Y-17536429D01*
X12919286Y-17507857D01*
X12928809Y-17469762D01*
X12928809Y-17393571D01*
X12919286Y-17374524D01*
X12909762Y-17365000D01*
X12890714Y-17355476D01*
X12852619Y-17355476D01*
X12833571Y-17365000D01*
X12824048Y-17374524D01*
X12814524Y-17393571D01*
X12814524Y-17441190D01*
X12824048Y-17460238D01*
X12833571Y-17469762D01*
X12852619Y-17479286D01*
X12890714Y-17479286D01*
X12909762Y-17469762D01*
X12919286Y-17460238D01*
X12928809Y-17441190D01*
X13119286Y-17555476D02*
X13005000Y-17555476D01*
X13062143Y-17555476D02*
X13062143Y-17355476D01*
X13043095Y-17384048D01*
X13024048Y-17403095D01*
X13005000Y-17412619D01*
X13195476Y-17355476D02*
X13195476Y-17393571D01*
X13271667Y-17355476D02*
X13271667Y-17393571D01*
X13566905Y-17631667D02*
X13557381Y-17622143D01*
X13538333Y-17593571D01*
X13528809Y-17574524D01*
X13519286Y-17545952D01*
X13509762Y-17498333D01*
X13509762Y-17460238D01*
X13519286Y-17412619D01*
X13528809Y-17384048D01*
X13538333Y-17365000D01*
X13557381Y-17336429D01*
X13566905Y-17326905D01*
X13738333Y-17355476D02*
X13643095Y-17355476D01*
X13633571Y-17450714D01*
X13643095Y-17441190D01*
X13662143Y-17431667D01*
X13709762Y-17431667D01*
X13728809Y-17441190D01*
X13738333Y-17450714D01*
X13747857Y-17469762D01*
X13747857Y-17517381D01*
X13738333Y-17536429D01*
X13728809Y-17545952D01*
X13709762Y-17555476D01*
X13662143Y-17555476D01*
X13643095Y-17545952D01*
X13633571Y-17536429D01*
X13938333Y-17555476D02*
X13824048Y-17555476D01*
X13881190Y-17555476D02*
X13881190Y-17355476D01*
X13862143Y-17384048D01*
X13843095Y-17403095D01*
X13824048Y-17412619D01*
X14176428Y-17555476D02*
X14176428Y-17355476D01*
X14262143Y-17555476D02*
X14262143Y-17450714D01*
X14252619Y-17431667D01*
X14233571Y-17422143D01*
X14205000Y-17422143D01*
X14185952Y-17431667D01*
X14176428Y-17441190D01*
X14385952Y-17555476D02*
X14366905Y-17545952D01*
X14357381Y-17536429D01*
X14347857Y-17517381D01*
X14347857Y-17460238D01*
X14357381Y-17441190D01*
X14366905Y-17431667D01*
X14385952Y-17422143D01*
X14414524Y-17422143D01*
X14433571Y-17431667D01*
X14443095Y-17441190D01*
X14452619Y-17460238D01*
X14452619Y-17517381D01*
X14443095Y-17536429D01*
X14433571Y-17545952D01*
X14414524Y-17555476D01*
X14385952Y-17555476D01*
X14566905Y-17555476D02*
X14547857Y-17545952D01*
X14538333Y-17526905D01*
X14538333Y-17355476D01*
X14719286Y-17545952D02*
X14700238Y-17555476D01*
X14662143Y-17555476D01*
X14643095Y-17545952D01*
X14633571Y-17526905D01*
X14633571Y-17450714D01*
X14643095Y-17431667D01*
X14662143Y-17422143D01*
X14700238Y-17422143D01*
X14719286Y-17431667D01*
X14728809Y-17450714D01*
X14728809Y-17469762D01*
X14633571Y-17488810D01*
X14805000Y-17545952D02*
X14824048Y-17555476D01*
X14862143Y-17555476D01*
X14881190Y-17545952D01*
X14890714Y-17526905D01*
X14890714Y-17517381D01*
X14881190Y-17498333D01*
X14862143Y-17488810D01*
X14833571Y-17488810D01*
X14814524Y-17479286D01*
X14805000Y-17460238D01*
X14805000Y-17450714D01*
X14814524Y-17431667D01*
X14833571Y-17422143D01*
X14862143Y-17422143D01*
X14881190Y-17431667D01*
X14957381Y-17631667D02*
X14966905Y-17622143D01*
X14985952Y-17593571D01*
X14995476Y-17574524D01*
X15005000Y-17545952D01*
X15014524Y-17498333D01*
X15014524Y-17460238D01*
X15005000Y-17412619D01*
X14995476Y-17384048D01*
X14985952Y-17365000D01*
X14966905Y-17336429D01*
X14957381Y-17326905D01*
X9795000Y-17635000D02*
X9995000Y-17835000D01*
X9995000Y-17635000D02*
X9795000Y-17835000D01*
X9895000Y-17635000D02*
X9895000Y-17835000D01*
X9795000Y-17735000D02*
X9995000Y-17735000D01*
X10338333Y-17692143D02*
X10338333Y-17825476D01*
X10290714Y-17615952D02*
X10243095Y-17758810D01*
X10366905Y-17758810D01*
X10443095Y-17806429D02*
X10452619Y-17815952D01*
X10443095Y-17825476D01*
X10433571Y-17815952D01*
X10443095Y-17806429D01*
X10443095Y-17825476D01*
X10519286Y-17625476D02*
X10643095Y-17625476D01*
X10576429Y-17701667D01*
X10605000Y-17701667D01*
X10624048Y-17711190D01*
X10633571Y-17720714D01*
X10643095Y-17739762D01*
X10643095Y-17787381D01*
X10633571Y-17806429D01*
X10624048Y-17815952D01*
X10605000Y-17825476D01*
X10547857Y-17825476D01*
X10528810Y-17815952D01*
X10519286Y-17806429D01*
X10766905Y-17625476D02*
X10785952Y-17625476D01*
X10805000Y-17635000D01*
X10814524Y-17644524D01*
X10824048Y-17663571D01*
X10833571Y-17701667D01*
X10833571Y-17749286D01*
X10824048Y-17787381D01*
X10814524Y-17806429D01*
X10805000Y-17815952D01*
X10785952Y-17825476D01*
X10766905Y-17825476D01*
X10747857Y-17815952D01*
X10738333Y-17806429D01*
X10728810Y-17787381D01*
X10719286Y-17749286D01*
X10719286Y-17701667D01*
X10728810Y-17663571D01*
X10738333Y-17644524D01*
X10747857Y-17635000D01*
X10766905Y-17625476D01*
X10957381Y-17625476D02*
X10976429Y-17625476D01*
X10995476Y-17635000D01*
X11005000Y-17644524D01*
X11014524Y-17663571D01*
X11024048Y-17701667D01*
X11024048Y-17749286D01*
X11014524Y-17787381D01*
X11005000Y-17806429D01*
X10995476Y-17815952D01*
X10976429Y-17825476D01*
X10957381Y-17825476D01*
X10938333Y-17815952D01*
X10928810Y-17806429D01*
X10919286Y-17787381D01*
X10909762Y-17749286D01*
X10909762Y-17701667D01*
X10919286Y-17663571D01*
X10928810Y-17644524D01*
X10938333Y-17635000D01*
X10957381Y-17625476D01*
X11109762Y-17825476D02*
X11109762Y-17692143D01*
X11109762Y-17711190D02*
X11119286Y-17701667D01*
X11138333Y-17692143D01*
X11166905Y-17692143D01*
X11185952Y-17701667D01*
X11195476Y-17720714D01*
X11195476Y-17825476D01*
X11195476Y-17720714D02*
X11205000Y-17701667D01*
X11224048Y-17692143D01*
X11252619Y-17692143D01*
X11271667Y-17701667D01*
X11281190Y-17720714D01*
X11281190Y-17825476D01*
X11376428Y-17825476D02*
X11376428Y-17692143D01*
X11376428Y-17711190D02*
X11385952Y-17701667D01*
X11405000Y-17692143D01*
X11433571Y-17692143D01*
X11452619Y-17701667D01*
X11462143Y-17720714D01*
X11462143Y-17825476D01*
X11462143Y-17720714D02*
X11471667Y-17701667D01*
X11490714Y-17692143D01*
X11519286Y-17692143D01*
X11538333Y-17701667D01*
X11547857Y-17720714D01*
X11547857Y-17825476D01*
X11938333Y-17615952D02*
X11766905Y-17873095D01*
X12195476Y-17625476D02*
X12214524Y-17625476D01*
X12233571Y-17635000D01*
X12243095Y-17644524D01*
X12252619Y-17663571D01*
X12262143Y-17701667D01*
X12262143Y-17749286D01*
X12252619Y-17787381D01*
X12243095Y-17806429D01*
X12233571Y-17815952D01*
X12214524Y-17825476D01*
X12195476Y-17825476D01*
X12176428Y-17815952D01*
X12166905Y-17806429D01*
X12157381Y-17787381D01*
X12147857Y-17749286D01*
X12147857Y-17701667D01*
X12157381Y-17663571D01*
X12166905Y-17644524D01*
X12176428Y-17635000D01*
X12195476Y-17625476D01*
X12347857Y-17806429D02*
X12357381Y-17815952D01*
X12347857Y-17825476D01*
X12338333Y-17815952D01*
X12347857Y-17806429D01*
X12347857Y-17825476D01*
X12547857Y-17825476D02*
X12433571Y-17825476D01*
X12490714Y-17825476D02*
X12490714Y-17625476D01*
X12471667Y-17654048D01*
X12452619Y-17673095D01*
X12433571Y-17682619D01*
X12719286Y-17625476D02*
X12681190Y-17625476D01*
X12662143Y-17635000D01*
X12652619Y-17644524D01*
X12633571Y-17673095D01*
X12624048Y-17711190D01*
X12624048Y-17787381D01*
X12633571Y-17806429D01*
X12643095Y-17815952D01*
X12662143Y-17825476D01*
X12700238Y-17825476D01*
X12719286Y-17815952D01*
X12728809Y-17806429D01*
X12738333Y-17787381D01*
X12738333Y-17739762D01*
X12728809Y-17720714D01*
X12719286Y-17711190D01*
X12700238Y-17701667D01*
X12662143Y-17701667D01*
X12643095Y-17711190D01*
X12633571Y-17720714D01*
X12624048Y-17739762D01*
X12833571Y-17825476D02*
X12871667Y-17825476D01*
X12890714Y-17815952D01*
X12900238Y-17806429D01*
X12919286Y-17777857D01*
X12928809Y-17739762D01*
X12928809Y-17663571D01*
X12919286Y-17644524D01*
X12909762Y-17635000D01*
X12890714Y-17625476D01*
X12852619Y-17625476D01*
X12833571Y-17635000D01*
X12824048Y-17644524D01*
X12814524Y-17663571D01*
X12814524Y-17711190D01*
X12824048Y-17730238D01*
X12833571Y-17739762D01*
X12852619Y-17749286D01*
X12890714Y-17749286D01*
X12909762Y-17739762D01*
X12919286Y-17730238D01*
X12928809Y-17711190D01*
X12995476Y-17625476D02*
X13119286Y-17625476D01*
X13052619Y-17701667D01*
X13081190Y-17701667D01*
X13100238Y-17711190D01*
X13109762Y-17720714D01*
X13119286Y-17739762D01*
X13119286Y-17787381D01*
X13109762Y-17806429D01*
X13100238Y-17815952D01*
X13081190Y-17825476D01*
X13024048Y-17825476D01*
X13005000Y-17815952D01*
X12995476Y-17806429D01*
X13195476Y-17625476D02*
X13195476Y-17663571D01*
X13271667Y-17625476D02*
X13271667Y-17663571D01*
X13566905Y-17901667D02*
X13557381Y-17892143D01*
X13538333Y-17863571D01*
X13528809Y-17844524D01*
X13519286Y-17815952D01*
X13509762Y-17768333D01*
X13509762Y-17730238D01*
X13519286Y-17682619D01*
X13528809Y-17654048D01*
X13538333Y-17635000D01*
X13557381Y-17606429D01*
X13566905Y-17596905D01*
X13728809Y-17692143D02*
X13728809Y-17825476D01*
X13681190Y-17615952D02*
X13633571Y-17758810D01*
X13757381Y-17758810D01*
X13985952Y-17825476D02*
X13985952Y-17625476D01*
X14071667Y-17825476D02*
X14071667Y-17720714D01*
X14062143Y-17701667D01*
X14043095Y-17692143D01*
X14014524Y-17692143D01*
X13995476Y-17701667D01*
X13985952Y-17711190D01*
X14195476Y-17825476D02*
X14176428Y-17815952D01*
X14166905Y-17806429D01*
X14157381Y-17787381D01*
X14157381Y-17730238D01*
X14166905Y-17711190D01*
X14176428Y-17701667D01*
X14195476Y-17692143D01*
X14224048Y-17692143D01*
X14243095Y-17701667D01*
X14252619Y-17711190D01*
X14262143Y-17730238D01*
X14262143Y-17787381D01*
X14252619Y-17806429D01*
X14243095Y-17815952D01*
X14224048Y-17825476D01*
X14195476Y-17825476D01*
X14376428Y-17825476D02*
X14357381Y-17815952D01*
X14347857Y-17796905D01*
X14347857Y-17625476D01*
X14528809Y-17815952D02*
X14509762Y-17825476D01*
X14471667Y-17825476D01*
X14452619Y-17815952D01*
X14443095Y-17796905D01*
X14443095Y-17720714D01*
X14452619Y-17701667D01*
X14471667Y-17692143D01*
X14509762Y-17692143D01*
X14528809Y-17701667D01*
X14538333Y-17720714D01*
X14538333Y-17739762D01*
X14443095Y-17758810D01*
X14614524Y-17815952D02*
X14633571Y-17825476D01*
X14671667Y-17825476D01*
X14690714Y-17815952D01*
X14700238Y-17796905D01*
X14700238Y-17787381D01*
X14690714Y-17768333D01*
X14671667Y-17758810D01*
X14643095Y-17758810D01*
X14624048Y-17749286D01*
X14614524Y-17730238D01*
X14614524Y-17720714D01*
X14624048Y-17701667D01*
X14643095Y-17692143D01*
X14671667Y-17692143D01*
X14690714Y-17701667D01*
X14766905Y-17901667D02*
X14776428Y-17892143D01*
X14795476Y-17863571D01*
X14805000Y-17844524D01*
X14814524Y-17815952D01*
X14824048Y-17768333D01*
X14824048Y-17730238D01*
X14814524Y-17682619D01*
X14805000Y-17654048D01*
X14795476Y-17635000D01*
X14776428Y-17606429D01*
X14766905Y-17596905D01*
M02*
