%TF.GenerationSoftware,KiCad,Pcbnew,6.0.10+dfsg-2*%
%TF.CreationDate,2023-01-31T20:00:01-05:00*%
%TF.ProjectId,StoveRelays,53746f76-6552-4656-9c61-79732e6b6963,rev?*%
%TF.SameCoordinates,Original*%
%TF.FileFunction,Copper,L2,Bot*%
%TF.FilePolarity,Positive*%
%FSLAX46Y46*%
G04 Gerber Fmt 4.6, Leading zero omitted, Abs format (unit mm)*
G04 Created by KiCad (PCBNEW 6.0.10+dfsg-2) date 2023-01-31 20:00:01*
%MOMM*%
%LPD*%
G01*
G04 APERTURE LIST*
G04 Aperture macros list*
%AMRoundRect*
0 Rectangle with rounded corners*
0 $1 Rounding radius*
0 $2 $3 $4 $5 $6 $7 $8 $9 X,Y pos of 4 corners*
0 Add a 4 corners polygon primitive as box body*
4,1,4,$2,$3,$4,$5,$6,$7,$8,$9,$2,$3,0*
0 Add four circle primitives for the rounded corners*
1,1,$1+$1,$2,$3*
1,1,$1+$1,$4,$5*
1,1,$1+$1,$6,$7*
1,1,$1+$1,$8,$9*
0 Add four rect primitives between the rounded corners*
20,1,$1+$1,$2,$3,$4,$5,0*
20,1,$1+$1,$4,$5,$6,$7,0*
20,1,$1+$1,$6,$7,$8,$9,0*
20,1,$1+$1,$8,$9,$2,$3,0*%
G04 Aperture macros list end*
%TA.AperFunction,ComponentPad*%
%ADD10RoundRect,0.250001X0.949999X-0.949999X0.949999X0.949999X-0.949999X0.949999X-0.949999X-0.949999X0*%
%TD*%
%TA.AperFunction,ComponentPad*%
%ADD11C,2.400000*%
%TD*%
%TA.AperFunction,ComponentPad*%
%ADD12R,2.300000X2.300000*%
%TD*%
%TA.AperFunction,ComponentPad*%
%ADD13C,2.300000*%
%TD*%
%TA.AperFunction,ComponentPad*%
%ADD14C,0.900000*%
%TD*%
%TA.AperFunction,ComponentPad*%
%ADD15C,8.600000*%
%TD*%
%TA.AperFunction,ComponentPad*%
%ADD16O,2.500000X2.500000*%
%TD*%
%TA.AperFunction,ComponentPad*%
%ADD17R,2.500000X2.500000*%
%TD*%
%TA.AperFunction,ComponentPad*%
%ADD18C,2.500000*%
%TD*%
%TA.AperFunction,ComponentPad*%
%ADD19R,1.700000X1.700000*%
%TD*%
%TA.AperFunction,ComponentPad*%
%ADD20O,1.700000X1.700000*%
%TD*%
%TA.AperFunction,ViaPad*%
%ADD21C,0.800000*%
%TD*%
%TA.AperFunction,Conductor*%
%ADD22C,3.000000*%
%TD*%
%TA.AperFunction,Conductor*%
%ADD23C,0.500000*%
%TD*%
%TA.AperFunction,Conductor*%
%ADD24C,0.250000*%
%TD*%
%TA.AperFunction,Conductor*%
%ADD25C,3.500000*%
%TD*%
%TA.AperFunction,Conductor*%
%ADD26C,4.000000*%
%TD*%
G04 APERTURE END LIST*
D10*
%TO.P,J16,1,Pin_1*%
%TO.N,unconnected-(J16-Pad1)*%
X174482500Y-135760000D03*
D11*
%TO.P,J16,2,Pin_2*%
%TO.N,unconnected-(J16-Pad2)*%
X174482500Y-131800000D03*
%TO.P,J16,3,Pin_3*%
%TO.N,/Fan_High/COM*%
X174482500Y-127840000D03*
%TO.P,J16,4,Pin_4*%
%TO.N,/Fan_Low/COM*%
X174482500Y-123880000D03*
%TO.P,J16,5,Pin_5*%
%TO.N,unconnected-(J16-Pad5)*%
X174482500Y-119920000D03*
%TO.P,J16,6,Pin_6*%
%TO.N,/Oven_Light/COM*%
X174482500Y-115960000D03*
%TO.P,J16,7,Pin_7*%
%TO.N,/Cooling_Fan/COM*%
X174482500Y-112000000D03*
%TO.P,J16,8,Pin_8*%
%TO.N,unconnected-(J16-Pad8)*%
X174482500Y-108040000D03*
%TO.P,J16,9,Pin_9*%
%TO.N,AC*%
X174482500Y-104080000D03*
%TD*%
D12*
%TO.P,K8,1*%
%TO.N,+5V*%
X149000000Y-93000000D03*
D13*
%TO.P,K8,2*%
%TO.N,/DD_L1*%
X159160000Y-93000000D03*
%TO.P,K8,3*%
%TO.N,/DownDraft_High/NO*%
X166780000Y-93000000D03*
%TO.P,K8,5*%
%TO.N,Net-(D8-Pad1)*%
X149000000Y-85380000D03*
%TD*%
D12*
%TO.P,K10,1*%
%TO.N,+5V*%
X149000000Y-106370000D03*
D13*
%TO.P,K10,2*%
%TO.N,/Cooling_Fan/COM*%
X159160000Y-106370000D03*
%TO.P,K10,3*%
%TO.N,AC*%
X166780000Y-106370000D03*
%TO.P,K10,5*%
%TO.N,Net-(D10-Pad1)*%
X149000000Y-98750000D03*
%TD*%
D14*
%TO.P,H3,1,1*%
%TO.N,GND*%
X175000000Y-146775000D03*
X177280419Y-152280419D03*
X175000000Y-153225000D03*
X177280419Y-147719581D03*
X171775000Y-150000000D03*
X172719581Y-152280419D03*
X172719581Y-147719581D03*
X178225000Y-150000000D03*
D15*
X175000000Y-150000000D03*
%TD*%
D16*
%TO.P,K1,11*%
%TO.N,Net-(J2-Pad1)*%
X119000000Y-141500000D03*
%TO.P,K1,12*%
%TO.N,unconnected-(K1-Pad12)*%
X122500000Y-134000000D03*
%TO.P,K1,14*%
%TO.N,Net-(J3-Pad1)*%
X115500000Y-134000000D03*
D17*
%TO.P,K1,A1*%
%TO.N,+3V3*%
X139000000Y-134000000D03*
D16*
%TO.P,K1,A2*%
%TO.N,Net-(D1-Pad1)*%
X139000000Y-141500000D03*
%TD*%
D18*
%TO.P,J5,1,Pin_1*%
%TO.N,Net-(J5-Pad1)*%
X101950000Y-102000000D03*
X107050000Y-102000000D03*
%TD*%
%TO.P,J12,1,Pin_1*%
%TO.N,/DownDraft_Low/NO*%
X172450000Y-80000000D03*
X177550000Y-80000000D03*
%TD*%
%TO.P,J7,1,Pin_1*%
%TO.N,Net-(J7-Pad1)*%
X101950000Y-70000000D03*
X107050000Y-70000000D03*
%TD*%
D12*
%TO.P,K11,1*%
%TO.N,+5V*%
X149000000Y-119620000D03*
D13*
%TO.P,K11,2*%
%TO.N,/Oven_Light/COM*%
X159160000Y-119620000D03*
%TO.P,K11,3*%
%TO.N,AC*%
X166780000Y-119620000D03*
%TO.P,K11,5*%
%TO.N,Net-(D11-Pad1)*%
X149000000Y-112000000D03*
%TD*%
D18*
%TO.P,J8,1,Pin_1*%
%TO.N,Net-(J8-Pad1)*%
X107050000Y-93500000D03*
X101950000Y-93500000D03*
%TD*%
%TO.P,J13,1,Pin_1*%
%TO.N,/DD_L1*%
X172450000Y-86500000D03*
X177550000Y-86500000D03*
%TD*%
%TO.P,J10,1,Pin_1*%
%TO.N,Net-(J10-Pad1)*%
X107050000Y-125500000D03*
X101950000Y-125500000D03*
%TD*%
%TO.P,J11,1,Pin_1*%
%TO.N,Net-(J11-Pad1)*%
X101950000Y-118000000D03*
X107050000Y-118000000D03*
%TD*%
D16*
%TO.P,K5,11*%
%TO.N,Net-(J10-Pad1)*%
X119037500Y-125500000D03*
%TO.P,K5,12*%
%TO.N,unconnected-(K5-Pad12)*%
X122537500Y-118000000D03*
%TO.P,K5,14*%
%TO.N,Net-(J11-Pad1)*%
X115537500Y-118000000D03*
D17*
%TO.P,K5,A1*%
%TO.N,+3V3*%
X139037500Y-118000000D03*
D16*
%TO.P,K5,A2*%
%TO.N,Net-(D5-Pad1)*%
X139037500Y-125500000D03*
%TD*%
D18*
%TO.P,J2,1,Pin_1*%
%TO.N,Net-(J2-Pad1)*%
X107012500Y-141500000D03*
X101912500Y-141500000D03*
%TD*%
D12*
%TO.P,K6,1*%
%TO.N,+5V*%
X149000000Y-145620000D03*
D13*
%TO.P,K6,2*%
%TO.N,/Fan_High/COM*%
X159160000Y-145620000D03*
%TO.P,K6,3*%
%TO.N,AC*%
X166780000Y-145620000D03*
%TO.P,K6,5*%
%TO.N,Net-(D6-Pad1)*%
X149000000Y-138000000D03*
%TD*%
D18*
%TO.P,J9,1,Pin_1*%
%TO.N,Net-(J9-Pad1)*%
X101950000Y-86000000D03*
X107050000Y-86000000D03*
%TD*%
D12*
%TO.P,K9,1*%
%TO.N,+5V*%
X149000000Y-80000000D03*
D13*
%TO.P,K9,2*%
%TO.N,/DD_L1*%
X159160000Y-80000000D03*
%TO.P,K9,3*%
%TO.N,/DownDraft_Low/NO*%
X166780000Y-80000000D03*
%TO.P,K9,5*%
%TO.N,Net-(D9-Pad1)*%
X149000000Y-72380000D03*
%TD*%
D12*
%TO.P,K7,1*%
%TO.N,+5V*%
X149000000Y-132620000D03*
D13*
%TO.P,K7,2*%
%TO.N,/Fan_Low/COM*%
X159160000Y-132620000D03*
%TO.P,K7,3*%
%TO.N,AC*%
X166780000Y-132620000D03*
%TO.P,K7,5*%
%TO.N,Net-(D7-Pad1)*%
X149000000Y-125000000D03*
%TD*%
D18*
%TO.P,J4,1,Pin_1*%
%TO.N,Net-(J4-Pad1)*%
X107050000Y-109500000D03*
X101950000Y-109500000D03*
%TD*%
%TO.P,J3,1,Pin_1*%
%TO.N,Net-(J3-Pad1)*%
X101912500Y-134000000D03*
X107012500Y-134000000D03*
%TD*%
%TO.P,J6,1,Pin_1*%
%TO.N,Net-(J6-Pad1)*%
X101950000Y-77500000D03*
X107050000Y-77500000D03*
%TD*%
D15*
%TO.P,H2,1,1*%
%TO.N,GND*%
X175000000Y-55000000D03*
D14*
X177280419Y-57280419D03*
X178225000Y-55000000D03*
X172719581Y-57280419D03*
X171775000Y-55000000D03*
X172719581Y-52719581D03*
X175000000Y-51775000D03*
X175000000Y-58225000D03*
X177280419Y-52719581D03*
%TD*%
D16*
%TO.P,K2,11*%
%TO.N,Net-(J4-Pad1)*%
X119037500Y-109387500D03*
%TO.P,K2,12*%
%TO.N,unconnected-(K2-Pad12)*%
X122537500Y-101887500D03*
%TO.P,K2,14*%
%TO.N,Net-(J5-Pad1)*%
X115537500Y-101887500D03*
D17*
%TO.P,K2,A1*%
%TO.N,+3V3*%
X139037500Y-101887500D03*
D16*
%TO.P,K2,A2*%
%TO.N,Net-(D2-Pad1)*%
X139037500Y-109387500D03*
%TD*%
D14*
%TO.P,H1,1,1*%
%TO.N,GND*%
X102719581Y-52719581D03*
X107280419Y-57280419D03*
X101775000Y-55000000D03*
X105000000Y-51775000D03*
X108225000Y-55000000D03*
X105000000Y-58225000D03*
D15*
X105000000Y-55000000D03*
D14*
X102719581Y-57280419D03*
X107280419Y-52719581D03*
%TD*%
D15*
%TO.P,H4,1,1*%
%TO.N,GND*%
X105000000Y-150000000D03*
D14*
X105000000Y-146775000D03*
X107280419Y-152280419D03*
X105000000Y-153225000D03*
X102719581Y-147719581D03*
X108225000Y-150000000D03*
X101775000Y-150000000D03*
X102719581Y-152280419D03*
X107280419Y-147719581D03*
%TD*%
D16*
%TO.P,K4,11*%
%TO.N,Net-(J8-Pad1)*%
X119037500Y-93500000D03*
%TO.P,K4,12*%
%TO.N,unconnected-(K4-Pad12)*%
X122537500Y-86000000D03*
%TO.P,K4,14*%
%TO.N,Net-(J9-Pad1)*%
X115537500Y-86000000D03*
D17*
%TO.P,K4,A1*%
%TO.N,+3V3*%
X139037500Y-86000000D03*
D16*
%TO.P,K4,A2*%
%TO.N,Net-(D4-Pad1)*%
X139037500Y-93500000D03*
%TD*%
D19*
%TO.P,J1,1,Pin_1*%
%TO.N,+5V*%
X156500000Y-55000000D03*
D20*
%TO.P,J1,2,Pin_2*%
%TO.N,/Down_Draft_Low*%
X153960000Y-55000000D03*
%TO.P,J1,3,Pin_3*%
%TO.N,/Down_Draft_High*%
X151420000Y-55000000D03*
%TO.P,J1,4,Pin_4*%
%TO.N,/Cooling Fan*%
X148880000Y-55000000D03*
%TO.P,J1,5,Pin_5*%
%TO.N,/Light*%
X146340000Y-55000000D03*
%TO.P,J1,6,Pin_6*%
%TO.N,/Fan_Low*%
X143800000Y-55000000D03*
%TO.P,J1,7,Pin_7*%
%TO.N,/Fan_High*%
X141260000Y-55000000D03*
%TO.P,J1,8,Pin_8*%
%TO.N,/Bake_A*%
X138720000Y-55000000D03*
%TO.P,J1,9,Pin_9*%
%TO.N,/Bake_B*%
X136180000Y-55000000D03*
%TO.P,J1,10,Pin_10*%
%TO.N,/Broil_A*%
X133640000Y-55000000D03*
%TO.P,J1,11,Pin_11*%
%TO.N,/Broil_Convection_B*%
X131100000Y-55000000D03*
%TO.P,J1,12,Pin_12*%
%TO.N,/Convection_A*%
X128560000Y-55000000D03*
%TO.P,J1,13,Pin_13*%
%TO.N,+3V3*%
X126020000Y-55000000D03*
%TO.P,J1,14,Pin_14*%
%TO.N,GND*%
X123480000Y-55000000D03*
%TD*%
D16*
%TO.P,K3,11*%
%TO.N,Net-(J6-Pad1)*%
X119037500Y-77500000D03*
%TO.P,K3,12*%
%TO.N,unconnected-(K3-Pad12)*%
X122537500Y-70000000D03*
%TO.P,K3,14*%
%TO.N,Net-(J7-Pad1)*%
X115537500Y-70000000D03*
D17*
%TO.P,K3,A1*%
%TO.N,+3V3*%
X139037500Y-70000000D03*
D16*
%TO.P,K3,A2*%
%TO.N,Net-(D3-Pad1)*%
X139037500Y-77500000D03*
%TD*%
D18*
%TO.P,J14,1,Pin_1*%
%TO.N,/DownDraft_High/NO*%
X177550000Y-93000000D03*
X172450000Y-93000000D03*
%TD*%
D21*
%TO.N,GND*%
X156200000Y-60837500D03*
X145050000Y-60837500D03*
X122550000Y-60787500D03*
X118800000Y-60787500D03*
X126300000Y-60737500D03*
X133800000Y-60787500D03*
X137550000Y-60800000D03*
X144500000Y-120500000D03*
X130050000Y-60787500D03*
X141300000Y-60787500D03*
X144500000Y-150500000D03*
X144500000Y-105500000D03*
X144500000Y-81500000D03*
X142856000Y-152000000D03*
X144500000Y-143000000D03*
X148800000Y-60837500D03*
X144500000Y-113000000D03*
X144500000Y-72500000D03*
X144500000Y-128000000D03*
X152550000Y-60837500D03*
X144500000Y-135500000D03*
X144500000Y-89500000D03*
X144500000Y-97500000D03*
%TO.N,Net-(D1-Pad1)*%
X134750000Y-62600000D03*
%TO.N,Net-(D2-Pad1)*%
X133250000Y-64500000D03*
%TO.N,Net-(D3-Pad1)*%
X134750000Y-66250000D03*
%TO.N,Net-(D4-Pad1)*%
X134000000Y-65250000D03*
%TO.N,Net-(D5-Pad1)*%
X133750000Y-63500000D03*
%TO.N,Net-(D6-Pad1)*%
X141250000Y-63500000D03*
%TO.N,Net-(J2-Pad1)*%
X121962500Y-140500000D03*
X115962500Y-139000000D03*
X118962500Y-139000000D03*
X106462500Y-139000000D03*
X111000000Y-139000000D03*
X104250000Y-142500000D03*
X112750000Y-140500000D03*
X103462500Y-144000000D03*
X102212500Y-144000000D03*
X100962500Y-139000000D03*
X104962500Y-144000000D03*
X111000000Y-144000000D03*
X104250000Y-140500000D03*
X114500000Y-140500000D03*
X118962500Y-144000000D03*
X120462500Y-144000000D03*
X114500000Y-142500000D03*
X117462500Y-144000000D03*
X115962500Y-140500000D03*
X121962500Y-139000000D03*
X109462500Y-142500000D03*
X100962500Y-144000000D03*
X114500000Y-139000000D03*
X109462500Y-139000000D03*
X109462500Y-144000000D03*
X111000000Y-140500000D03*
X107962500Y-139000000D03*
X104962500Y-139000000D03*
X120462500Y-139000000D03*
X112750000Y-142500000D03*
X121962500Y-144000000D03*
X107962500Y-144000000D03*
X111000000Y-142500000D03*
X112750000Y-139000000D03*
X121962500Y-142500000D03*
X109462500Y-140500000D03*
X114500000Y-144000000D03*
X112750000Y-144000000D03*
X117462500Y-139000000D03*
X103462500Y-139000000D03*
X115962500Y-144000000D03*
X102212500Y-139000000D03*
X115962500Y-142500000D03*
X106462500Y-144000000D03*
%TO.N,Net-(J3-Pad1)*%
X110500000Y-133000000D03*
X105462500Y-136500000D03*
X113500000Y-135000000D03*
X110500000Y-135000000D03*
X100962500Y-136500000D03*
X113500000Y-133000000D03*
X114962500Y-136500000D03*
X109212500Y-133000000D03*
X105462500Y-131500000D03*
X104250000Y-135000000D03*
X112000000Y-135000000D03*
X112000000Y-133000000D03*
X108462500Y-131500000D03*
X104250000Y-133000000D03*
X113500000Y-131500000D03*
X112000000Y-131500000D03*
X117962500Y-133000000D03*
X117962500Y-136500000D03*
X110500000Y-131500000D03*
X116462500Y-136500000D03*
X103962500Y-131500000D03*
X103962500Y-136500000D03*
X113500000Y-136500000D03*
X112000000Y-136500000D03*
X106962500Y-131500000D03*
X102462500Y-136500000D03*
X109212500Y-135000000D03*
X100962500Y-131500000D03*
X117962500Y-131500000D03*
X110500000Y-136500000D03*
X102462500Y-131500000D03*
X114962500Y-131500000D03*
X108462500Y-136500000D03*
X117962500Y-135000000D03*
X116462500Y-131500000D03*
X106962500Y-136500000D03*
%TO.N,Net-(J4-Pad1)*%
X112800000Y-106900000D03*
X119000000Y-106887500D03*
X114400000Y-108400000D03*
X104250000Y-110387500D03*
X103500000Y-111887500D03*
X114400000Y-110400000D03*
X101000000Y-106887500D03*
X102250000Y-111887500D03*
X120500000Y-111887500D03*
X102250000Y-106887500D03*
X111000000Y-110387500D03*
X114400000Y-106900000D03*
X109500000Y-108387500D03*
X105000000Y-111887500D03*
X117500000Y-106887500D03*
X112800000Y-108400000D03*
X114400000Y-111900000D03*
X122000000Y-108387500D03*
X116000000Y-110387500D03*
X106500000Y-106887500D03*
X105000000Y-106887500D03*
X106500000Y-111887500D03*
X104250000Y-108387500D03*
X103500000Y-106887500D03*
X119000000Y-111887500D03*
X116000000Y-106887500D03*
X109500000Y-111887500D03*
X122000000Y-111887500D03*
X111000000Y-106887500D03*
X116000000Y-111887500D03*
X122000000Y-106887500D03*
X112800000Y-111900000D03*
X122000000Y-110387500D03*
X108000000Y-106887500D03*
X120500000Y-106887500D03*
X111000000Y-108387500D03*
X101000000Y-111887500D03*
X117500000Y-111887500D03*
X111000000Y-111887500D03*
X109500000Y-110387500D03*
X108000000Y-111887500D03*
X109500000Y-106887500D03*
X116000000Y-108387500D03*
X112800000Y-110400000D03*
%TO.N,Net-(J5-Pad1)*%
X116500000Y-99387500D03*
X111700000Y-104400000D03*
X115000000Y-99387500D03*
X101000000Y-104387500D03*
X107000000Y-99387500D03*
X102500000Y-104387500D03*
X113300000Y-99400000D03*
X108500000Y-99387500D03*
X113300000Y-104400000D03*
X113300000Y-100900000D03*
X113300000Y-102912500D03*
X104250000Y-100887500D03*
X105500000Y-99387500D03*
X118000000Y-102887500D03*
X105500000Y-104387500D03*
X107000000Y-104387500D03*
X110000000Y-100887500D03*
X110000000Y-104387500D03*
X104250000Y-102887500D03*
X110000000Y-102900000D03*
X118000000Y-104387500D03*
X118000000Y-100887500D03*
X111700000Y-99400000D03*
X110000000Y-99387500D03*
X111700000Y-100900000D03*
X102500000Y-99387500D03*
X115000000Y-104387500D03*
X108500000Y-104387500D03*
X116500000Y-104387500D03*
X118000000Y-99387500D03*
X104000000Y-99387500D03*
X104000000Y-104387500D03*
X101000000Y-99387500D03*
X111700000Y-102912500D03*
%TO.N,Net-(J6-Pad1)*%
X111000000Y-80000000D03*
X122000000Y-80000000D03*
X111000000Y-76500000D03*
X119000000Y-80000000D03*
X108000000Y-80000000D03*
X114400000Y-80000000D03*
X112800000Y-75000000D03*
X109500000Y-76500000D03*
X102250000Y-75000000D03*
X104250000Y-76500000D03*
X120500000Y-80000000D03*
X101000000Y-75000000D03*
X112800000Y-78500000D03*
X114400000Y-75000000D03*
X120500000Y-75000000D03*
X114400000Y-78500000D03*
X111000000Y-78500000D03*
X109500000Y-78500000D03*
X116000000Y-78500000D03*
X106500000Y-80000000D03*
X111000000Y-75000000D03*
X117500000Y-80000000D03*
X108000000Y-75000000D03*
X112800000Y-80000000D03*
X116000000Y-76500000D03*
X119000000Y-75000000D03*
X122000000Y-76500000D03*
X105000000Y-80000000D03*
X122000000Y-78500000D03*
X102250000Y-80000000D03*
X103500000Y-75000000D03*
X116000000Y-75000000D03*
X116000000Y-80000000D03*
X104250000Y-78500000D03*
X109500000Y-80000000D03*
X101000000Y-80000000D03*
X109500000Y-75000000D03*
X112800000Y-76500000D03*
X106500000Y-75000000D03*
X117500000Y-75000000D03*
X122000000Y-75000000D03*
X114400000Y-76500000D03*
X105000000Y-75000000D03*
X103500000Y-80000000D03*
%TO.N,Net-(J7-Pad1)*%
X118000000Y-71000000D03*
X110000000Y-72500000D03*
X118000000Y-69000000D03*
X104000000Y-72500000D03*
X110000000Y-69000000D03*
X111600000Y-69000000D03*
X118000000Y-72500000D03*
X111600000Y-71000000D03*
X113200000Y-72500000D03*
X102500000Y-67500000D03*
X115000000Y-67500000D03*
X113200000Y-67500000D03*
X111600000Y-72500000D03*
X101000000Y-72500000D03*
X116500000Y-72500000D03*
X105500000Y-67500000D03*
X101000000Y-67500000D03*
X102500000Y-72500000D03*
X107000000Y-72500000D03*
X118000000Y-67500000D03*
X111600000Y-67500000D03*
X110000000Y-67500000D03*
X113200000Y-71000000D03*
X115000000Y-72500000D03*
X108500000Y-67500000D03*
X104000000Y-67500000D03*
X105500000Y-72500000D03*
X108500000Y-72500000D03*
X104250000Y-69000000D03*
X116500000Y-67500000D03*
X113200000Y-69000000D03*
X107000000Y-67500000D03*
X110000000Y-71000000D03*
X104250000Y-71000000D03*
%TO.N,Net-(J8-Pad1)*%
X120500000Y-96000000D03*
X111000000Y-96000000D03*
X102250000Y-96000000D03*
X112700000Y-96000000D03*
X109500000Y-92500000D03*
X103500000Y-91000000D03*
X116000000Y-96000000D03*
X106500000Y-96000000D03*
X111000000Y-92500000D03*
X120500000Y-91000000D03*
X101000000Y-91000000D03*
X108000000Y-91000000D03*
X114300000Y-91000000D03*
X122000000Y-92500000D03*
X108000000Y-96000000D03*
X116000000Y-92500000D03*
X111000000Y-94500000D03*
X122000000Y-91000000D03*
X109500000Y-94500000D03*
X109500000Y-96000000D03*
X112700000Y-91000000D03*
X114300000Y-96000000D03*
X116000000Y-91000000D03*
X119000000Y-96000000D03*
X106500000Y-91000000D03*
X122000000Y-96000000D03*
X114300000Y-92500000D03*
X104250000Y-94500000D03*
X112700000Y-92500000D03*
X101000000Y-96000000D03*
X104250000Y-92500000D03*
X112700000Y-94500000D03*
X117500000Y-96000000D03*
X102250000Y-91000000D03*
X114300000Y-94500000D03*
X105000000Y-91000000D03*
X117500000Y-91000000D03*
X103500000Y-96000000D03*
X119000000Y-91000000D03*
X111000000Y-91000000D03*
X105000000Y-96000000D03*
X109500000Y-91000000D03*
X122000000Y-94500000D03*
X116000000Y-94500000D03*
%TO.N,Net-(J9-Pad1)*%
X111700000Y-83500000D03*
X113300000Y-88500000D03*
X115000000Y-88500000D03*
X111700000Y-87000000D03*
X110000000Y-85000000D03*
X104250000Y-85000000D03*
X107000000Y-83500000D03*
X102500000Y-88500000D03*
X105500000Y-88500000D03*
X111700000Y-85000000D03*
X118000000Y-87000000D03*
X108500000Y-88500000D03*
X104000000Y-88500000D03*
X110000000Y-83500000D03*
X115000000Y-83500000D03*
X108500000Y-83500000D03*
X101000000Y-88500000D03*
X118000000Y-88500000D03*
X102500000Y-83500000D03*
X101000000Y-83500000D03*
X113300000Y-87000000D03*
X111700000Y-88500000D03*
X116500000Y-88500000D03*
X107000000Y-88500000D03*
X110000000Y-88500000D03*
X105500000Y-83500000D03*
X113300000Y-85000000D03*
X104000000Y-83500000D03*
X104250000Y-87000000D03*
X118000000Y-83500000D03*
X116500000Y-83500000D03*
X118000000Y-85000000D03*
X113300000Y-83500000D03*
X110000000Y-87000000D03*
%TO.N,Net-(J10-Pad1)*%
X109500000Y-128000000D03*
X109500000Y-123000000D03*
X103500000Y-123000000D03*
X116000000Y-128000000D03*
X119000000Y-128000000D03*
X111000000Y-124500000D03*
X114250000Y-126500000D03*
X106500000Y-123000000D03*
X104250000Y-126500000D03*
X120500000Y-128000000D03*
X111000000Y-128000000D03*
X112750000Y-128000000D03*
X109500000Y-126500000D03*
X122000000Y-123000000D03*
X116000000Y-126500000D03*
X108000000Y-123000000D03*
X105000000Y-123000000D03*
X106500000Y-128000000D03*
X114250000Y-123000000D03*
X117500000Y-128000000D03*
X108000000Y-128000000D03*
X103500000Y-128000000D03*
X112750000Y-126500000D03*
X119000000Y-123000000D03*
X122000000Y-128000000D03*
X104250000Y-124500000D03*
X120500000Y-123000000D03*
X109500000Y-124500000D03*
X122000000Y-126500000D03*
X111000000Y-126500000D03*
X112750000Y-123000000D03*
X111000000Y-123000000D03*
X116000000Y-124500000D03*
X102250000Y-123000000D03*
X114250000Y-128000000D03*
X116000000Y-123000000D03*
X114250000Y-124500000D03*
X105000000Y-128000000D03*
X112750000Y-124500000D03*
X101000000Y-123000000D03*
X101000000Y-128000000D03*
X122000000Y-124500000D03*
X117500000Y-123000000D03*
X102250000Y-128000000D03*
%TO.N,Net-(J11-Pad1)*%
X104000000Y-120500000D03*
X102500000Y-120500000D03*
X113250000Y-118750000D03*
X104000000Y-115500000D03*
X116500000Y-115500000D03*
X113250000Y-120500000D03*
X102500000Y-115500000D03*
X110000000Y-120500000D03*
X113250000Y-115500000D03*
X110000000Y-115500000D03*
X108500000Y-115500000D03*
X118000000Y-117000000D03*
X118000000Y-120500000D03*
X107000000Y-120500000D03*
X110000000Y-117000000D03*
X115000000Y-115500000D03*
X111750000Y-115500000D03*
X108500000Y-120500000D03*
X111750000Y-120500000D03*
X118000000Y-115500000D03*
X105500000Y-120500000D03*
X107000000Y-115500000D03*
X105500000Y-115500000D03*
X111750000Y-117000000D03*
X104250000Y-117000000D03*
X104250000Y-119000000D03*
X115000000Y-120500000D03*
X113250000Y-117000000D03*
X118000000Y-119000000D03*
X101000000Y-120500000D03*
X101000000Y-115500000D03*
X110000000Y-118750000D03*
X116500000Y-120500000D03*
X111750000Y-118750000D03*
%TO.N,Net-(Q5-Pad1)*%
X131250000Y-62050000D03*
X131250000Y-59900000D03*
%TO.N,Net-(D7-Pad1)*%
X143062500Y-63937500D03*
%TO.N,Net-(D8-Pad1)*%
X154400000Y-63950000D03*
%TO.N,Net-(D9-Pad1)*%
X156300000Y-64800000D03*
%TO.N,Net-(D10-Pad1)*%
X148300000Y-64900000D03*
%TO.N,Net-(D11-Pad1)*%
X146000000Y-65500000D03*
%TO.N,+5V*%
X155250000Y-67250000D03*
%TD*%
D22*
%TO.N,GND*%
X105000000Y-55000000D02*
X122591000Y-55000000D01*
D23*
X137537500Y-60787500D02*
X137550000Y-60800000D01*
X138800000Y-60800000D02*
X140300000Y-60800000D01*
X161500000Y-52032000D02*
X161532000Y-52000000D01*
D22*
X108000000Y-52000000D02*
X105000000Y-55000000D01*
X125000000Y-52000000D02*
X108000000Y-52000000D01*
D23*
X140300000Y-63800000D02*
X140300000Y-60800000D01*
X144500000Y-72500000D02*
X144500000Y-150500000D01*
X130050000Y-60787500D02*
X123487500Y-60787500D01*
X144500000Y-72500000D02*
X144500000Y-68000000D01*
X142856000Y-152000000D02*
X144380000Y-152000000D01*
X144500000Y-68000000D02*
X140300000Y-63800000D01*
X140300000Y-60800000D02*
X156162500Y-60800000D01*
D22*
X161532000Y-52000000D02*
X158000000Y-52000000D01*
D23*
X159562500Y-60837500D02*
X161500000Y-58900000D01*
X161500000Y-58900000D02*
X161500000Y-52032000D01*
X156162500Y-60800000D02*
X156200000Y-60837500D01*
D22*
X161000000Y-55000000D02*
X158000000Y-52000000D01*
X125000000Y-52000000D02*
X123480000Y-53520000D01*
X172000000Y-52000000D02*
X161532000Y-52000000D01*
D23*
X118807500Y-60780000D02*
X118800000Y-60787500D01*
X122591000Y-55000000D02*
X123480000Y-55000000D01*
D22*
X175000000Y-55000000D02*
X172000000Y-52000000D01*
D23*
X123487500Y-60787500D02*
X123480000Y-60780000D01*
D22*
X175000000Y-55000000D02*
X161000000Y-55000000D01*
D23*
X123480000Y-55000000D02*
X123480000Y-60780000D01*
D22*
X160790000Y-152000000D02*
X107000000Y-152000000D01*
D23*
X156200000Y-60837500D02*
X159562500Y-60837500D01*
X144380000Y-152000000D02*
X160790000Y-152000000D01*
X123480000Y-60780000D02*
X118807500Y-60780000D01*
D22*
X158000000Y-52000000D02*
X125000000Y-52000000D01*
X175000000Y-150000000D02*
X173000000Y-152000000D01*
D23*
X123480000Y-55000000D02*
X123480000Y-53520000D01*
X137550000Y-60800000D02*
X138800000Y-60800000D01*
X133800000Y-60787500D02*
X137537500Y-60787500D01*
D22*
X173000000Y-152000000D02*
X160790000Y-152000000D01*
X107000000Y-152000000D02*
X105000000Y-150000000D01*
D24*
%TO.N,Net-(D1-Pad1)*%
X143000000Y-137500000D02*
X143000000Y-67450000D01*
X138150000Y-62600000D02*
X134750000Y-62600000D01*
X143000000Y-67450000D02*
X138150000Y-62600000D01*
X139000000Y-141500000D02*
X143000000Y-137500000D01*
%TO.N,Net-(D2-Pad1)*%
X138550000Y-64500000D02*
X133250000Y-64500000D01*
X142000000Y-106425000D02*
X142000000Y-67950000D01*
X139037500Y-109387500D02*
X142000000Y-106425000D01*
X142000000Y-67950000D02*
X138550000Y-64500000D01*
D23*
%TO.N,+3V3*%
X126020000Y-56520000D02*
X126020000Y-55000000D01*
X136250000Y-102000000D02*
X136250000Y-86000000D01*
X136250000Y-132000000D02*
X136250000Y-118000000D01*
X132250000Y-58750000D02*
X131000000Y-57500000D01*
X139037500Y-70000000D02*
X136250000Y-70000000D01*
X139037500Y-101887500D02*
X136362500Y-101887500D01*
X136250000Y-86000000D02*
X136250000Y-70000000D01*
X139000000Y-134000000D02*
X138250000Y-134000000D01*
X127000000Y-57500000D02*
X126020000Y-56520000D01*
X139037500Y-118000000D02*
X136250000Y-118000000D01*
X132250000Y-65250000D02*
X132250000Y-58750000D01*
X131000000Y-57500000D02*
X127000000Y-57500000D01*
X139037500Y-86000000D02*
X136250000Y-86000000D01*
X138250000Y-134000000D02*
X136250000Y-132000000D01*
X136250000Y-118000000D02*
X136250000Y-102000000D01*
X136250000Y-70000000D02*
X136250000Y-69250000D01*
X136362500Y-101887500D02*
X136250000Y-102000000D01*
X136250000Y-69250000D02*
X132250000Y-65250000D01*
D24*
%TO.N,Net-(D3-Pad1)*%
X141000000Y-75537500D02*
X141000000Y-68500000D01*
X141000000Y-68500000D02*
X138750000Y-66250000D01*
X139037500Y-77500000D02*
X141000000Y-75537500D01*
X138750000Y-66250000D02*
X134750000Y-66250000D01*
%TO.N,Net-(D4-Pad1)*%
X141500000Y-68250000D02*
X138500000Y-65250000D01*
X141500000Y-91037500D02*
X141500000Y-68250000D01*
X138500000Y-65250000D02*
X134000000Y-65250000D01*
X139037500Y-93500000D02*
X141500000Y-91037500D01*
%TO.N,Net-(D5-Pad1)*%
X138300000Y-63500000D02*
X133750000Y-63500000D01*
X142500000Y-122037500D02*
X142500000Y-67700000D01*
X142500000Y-67700000D02*
X138300000Y-63500000D01*
X139037500Y-125500000D02*
X142500000Y-122037500D01*
%TO.N,Net-(D6-Pad1)*%
X146600000Y-138000000D02*
X145400000Y-136800000D01*
X145400000Y-136800000D02*
X145400000Y-67650000D01*
X145400000Y-67650000D02*
X141250000Y-63500000D01*
X149000000Y-138000000D02*
X146600000Y-138000000D01*
%TO.N,Net-(Q5-Pad1)*%
X131250000Y-62050000D02*
X131250000Y-59900000D01*
%TO.N,Net-(D7-Pad1)*%
X145900000Y-66775000D02*
X143062500Y-63937500D01*
X145900000Y-121900000D02*
X149000000Y-125000000D01*
X145900000Y-68650000D02*
X145900000Y-66775000D01*
X145900000Y-68650000D02*
X145900000Y-121900000D01*
%TO.N,Net-(D8-Pad1)*%
X148800000Y-65600000D02*
X147400000Y-67000000D01*
X154400000Y-63950000D02*
X150450000Y-63950000D01*
X147400000Y-67000000D02*
X147400000Y-83780000D01*
X147400000Y-83780000D02*
X149000000Y-85380000D01*
X150450000Y-63950000D02*
X148800000Y-65600000D01*
%TO.N,Net-(D9-Pad1)*%
X149000000Y-66650000D02*
X149000000Y-72380000D01*
X150850000Y-64800000D02*
X149000000Y-66650000D01*
X156300000Y-64800000D02*
X150850000Y-64800000D01*
%TO.N,Net-(D10-Pad1)*%
X146900000Y-66300000D02*
X146900000Y-66900000D01*
X146900000Y-96650000D02*
X146900000Y-66900000D01*
X148300000Y-64900000D02*
X146900000Y-66300000D01*
X149000000Y-98750000D02*
X146900000Y-96650000D01*
%TO.N,Net-(D11-Pad1)*%
X146400000Y-65900000D02*
X146000000Y-65500000D01*
X149000000Y-112000000D02*
X148200000Y-112000000D01*
X148200000Y-112000000D02*
X146400000Y-110200000D01*
X146400000Y-110200000D02*
X146400000Y-65900000D01*
D23*
%TO.N,+5V*%
X151750000Y-132500000D02*
X151750000Y-142870000D01*
X151630000Y-132620000D02*
X151750000Y-132500000D01*
X151750000Y-119750000D02*
X151750000Y-132500000D01*
X151750000Y-106250000D02*
X151750000Y-119750000D01*
X151750000Y-69000000D02*
X151750000Y-79750000D01*
X151750000Y-93000000D02*
X151750000Y-106250000D01*
X153500000Y-67250000D02*
X151750000Y-69000000D01*
X149000000Y-80000000D02*
X151500000Y-80000000D01*
X151500000Y-80000000D02*
X151750000Y-79750000D01*
X149000000Y-93000000D02*
X151750000Y-93000000D01*
X155250000Y-67250000D02*
X153500000Y-67250000D01*
X151750000Y-142870000D02*
X149000000Y-145620000D01*
X149000000Y-119620000D02*
X151620000Y-119620000D01*
X149000000Y-132620000D02*
X151630000Y-132620000D01*
X151630000Y-106370000D02*
X151750000Y-106250000D01*
X149000000Y-106370000D02*
X151630000Y-106370000D01*
X151750000Y-79750000D02*
X151750000Y-93000000D01*
X151620000Y-119620000D02*
X151750000Y-119750000D01*
D22*
%TO.N,/Fan_High/COM*%
X162500000Y-139000000D02*
X167000000Y-139000000D01*
X167000000Y-139000000D02*
X170500000Y-135500000D01*
X170500000Y-135500000D02*
X170500000Y-129500000D01*
X159160000Y-142340000D02*
X162500000Y-139000000D01*
X172160000Y-127840000D02*
X174482500Y-127840000D01*
X159160000Y-145620000D02*
X159160000Y-142340000D01*
X170500000Y-129500000D02*
X172160000Y-127840000D01*
D25*
%TO.N,/DD_L1*%
X177550000Y-86500000D02*
X161500000Y-86500000D01*
D26*
X161500000Y-86500000D02*
X159160000Y-88840000D01*
X159160000Y-88840000D02*
X159160000Y-93000000D01*
X159160000Y-80000000D02*
X159160000Y-84160000D01*
X159160000Y-84160000D02*
X161500000Y-86500000D01*
D22*
%TO.N,/Fan_Low/COM*%
X174482500Y-123880000D02*
X164120000Y-123880000D01*
X164120000Y-123880000D02*
X159160000Y-128840000D01*
X159160000Y-128840000D02*
X159160000Y-132620000D01*
D25*
%TO.N,/DownDraft_Low/NO*%
X177550000Y-80000000D02*
X166780000Y-80000000D01*
D22*
%TO.N,/Cooling_Fan/COM*%
X174482500Y-112000000D02*
X161500000Y-112000000D01*
X161500000Y-112000000D02*
X159160000Y-109660000D01*
X159160000Y-109660000D02*
X159160000Y-106370000D01*
%TO.N,/Oven_Light/COM*%
X161540000Y-115960000D02*
X159160000Y-118340000D01*
X159160000Y-118340000D02*
X159160000Y-119620000D01*
X174482500Y-115960000D02*
X161540000Y-115960000D01*
D25*
%TO.N,/DownDraft_High/NO*%
X177550000Y-93000000D02*
X166780000Y-93000000D01*
%TD*%
%TA.AperFunction,Conductor*%
%TO.N,Net-(J6-Pad1)*%
G36*
X122442121Y-74520002D02*
G01*
X122488614Y-74573658D01*
X122500000Y-74626000D01*
X122500000Y-80374000D01*
X122479998Y-80442121D01*
X122426342Y-80488614D01*
X122374000Y-80500000D01*
X100634500Y-80500000D01*
X100566379Y-80479998D01*
X100519886Y-80426342D01*
X100508500Y-80374000D01*
X100508500Y-74626000D01*
X100528502Y-74557879D01*
X100582158Y-74511386D01*
X100634500Y-74500000D01*
X122374000Y-74500000D01*
X122442121Y-74520002D01*
G37*
%TD.AperFunction*%
%TD*%
%TA.AperFunction,Conductor*%
%TO.N,Net-(J2-Pad1)*%
G36*
X122404621Y-138520002D02*
G01*
X122451114Y-138573658D01*
X122462500Y-138626000D01*
X122462500Y-144374000D01*
X122442498Y-144442121D01*
X122388842Y-144488614D01*
X122336500Y-144500000D01*
X100634500Y-144500000D01*
X100566379Y-144479998D01*
X100519886Y-144426342D01*
X100508500Y-144374000D01*
X100508500Y-138626000D01*
X100528502Y-138557879D01*
X100582158Y-138511386D01*
X100634500Y-138500000D01*
X122336500Y-138500000D01*
X122404621Y-138520002D01*
G37*
%TD.AperFunction*%
%TD*%
%TA.AperFunction,Conductor*%
%TO.N,Net-(J3-Pad1)*%
G36*
X118404621Y-131020002D02*
G01*
X118451114Y-131073658D01*
X118462500Y-131126000D01*
X118462500Y-136874000D01*
X118442498Y-136942121D01*
X118388842Y-136988614D01*
X118336500Y-137000000D01*
X100634500Y-137000000D01*
X100566379Y-136979998D01*
X100519886Y-136926342D01*
X100508500Y-136874000D01*
X100508500Y-131126000D01*
X100528502Y-131057879D01*
X100582158Y-131011386D01*
X100634500Y-131000000D01*
X118336500Y-131000000D01*
X118404621Y-131020002D01*
G37*
%TD.AperFunction*%
%TD*%
%TA.AperFunction,Conductor*%
%TO.N,Net-(J11-Pad1)*%
G36*
X118442121Y-115020002D02*
G01*
X118488614Y-115073658D01*
X118500000Y-115126000D01*
X118500000Y-120874000D01*
X118479998Y-120942121D01*
X118426342Y-120988614D01*
X118374000Y-121000000D01*
X100634500Y-121000000D01*
X100566379Y-120979998D01*
X100519886Y-120926342D01*
X100508500Y-120874000D01*
X100508500Y-115126000D01*
X100528502Y-115057879D01*
X100582158Y-115011386D01*
X100634500Y-115000000D01*
X118374000Y-115000000D01*
X118442121Y-115020002D01*
G37*
%TD.AperFunction*%
%TD*%
%TA.AperFunction,Conductor*%
%TO.N,Net-(J10-Pad1)*%
G36*
X122442121Y-122520002D02*
G01*
X122488614Y-122573658D01*
X122500000Y-122626000D01*
X122500000Y-128374000D01*
X122479998Y-128442121D01*
X122426342Y-128488614D01*
X122374000Y-128500000D01*
X100634500Y-128500000D01*
X100566379Y-128479998D01*
X100519886Y-128426342D01*
X100508500Y-128374000D01*
X100508500Y-122626000D01*
X100528502Y-122557879D01*
X100582158Y-122511386D01*
X100634500Y-122500000D01*
X122374000Y-122500000D01*
X122442121Y-122520002D01*
G37*
%TD.AperFunction*%
%TD*%
%TA.AperFunction,Conductor*%
%TO.N,Net-(J4-Pad1)*%
G36*
X122442121Y-106407502D02*
G01*
X122488614Y-106461158D01*
X122500000Y-106513500D01*
X122500000Y-112261500D01*
X122479998Y-112329621D01*
X122426342Y-112376114D01*
X122374000Y-112387500D01*
X100634500Y-112387500D01*
X100566379Y-112367498D01*
X100519886Y-112313842D01*
X100508500Y-112261500D01*
X100508500Y-106513500D01*
X100528502Y-106445379D01*
X100582158Y-106398886D01*
X100634500Y-106387500D01*
X122374000Y-106387500D01*
X122442121Y-106407502D01*
G37*
%TD.AperFunction*%
%TD*%
%TA.AperFunction,Conductor*%
%TO.N,Net-(J5-Pad1)*%
G36*
X118442121Y-98907502D02*
G01*
X118488614Y-98961158D01*
X118500000Y-99013500D01*
X118500000Y-104761500D01*
X118479998Y-104829621D01*
X118426342Y-104876114D01*
X118374000Y-104887500D01*
X100634500Y-104887500D01*
X100566379Y-104867498D01*
X100519886Y-104813842D01*
X100508500Y-104761500D01*
X100508500Y-99013500D01*
X100528502Y-98945379D01*
X100582158Y-98898886D01*
X100634500Y-98887500D01*
X118374000Y-98887500D01*
X118442121Y-98907502D01*
G37*
%TD.AperFunction*%
%TD*%
%TA.AperFunction,Conductor*%
%TO.N,Net-(J8-Pad1)*%
G36*
X122442121Y-90520002D02*
G01*
X122488614Y-90573658D01*
X122500000Y-90626000D01*
X122500000Y-96374000D01*
X122479998Y-96442121D01*
X122426342Y-96488614D01*
X122374000Y-96500000D01*
X100634500Y-96500000D01*
X100566379Y-96479998D01*
X100519886Y-96426342D01*
X100508500Y-96374000D01*
X100508500Y-90626000D01*
X100528502Y-90557879D01*
X100582158Y-90511386D01*
X100634500Y-90500000D01*
X122374000Y-90500000D01*
X122442121Y-90520002D01*
G37*
%TD.AperFunction*%
%TD*%
%TA.AperFunction,Conductor*%
%TO.N,Net-(J7-Pad1)*%
G36*
X118442121Y-67020002D02*
G01*
X118488614Y-67073658D01*
X118500000Y-67126000D01*
X118500000Y-72874000D01*
X118479998Y-72942121D01*
X118426342Y-72988614D01*
X118374000Y-73000000D01*
X100634500Y-73000000D01*
X100566379Y-72979998D01*
X100519886Y-72926342D01*
X100508500Y-72874000D01*
X100508500Y-67126000D01*
X100528502Y-67057879D01*
X100582158Y-67011386D01*
X100634500Y-67000000D01*
X118374000Y-67000000D01*
X118442121Y-67020002D01*
G37*
%TD.AperFunction*%
%TD*%
%TA.AperFunction,Conductor*%
%TO.N,Net-(J9-Pad1)*%
G36*
X118442121Y-83020002D02*
G01*
X118488614Y-83073658D01*
X118500000Y-83126000D01*
X118500000Y-88874000D01*
X118479998Y-88942121D01*
X118426342Y-88988614D01*
X118374000Y-89000000D01*
X100634500Y-89000000D01*
X100566379Y-88979998D01*
X100519886Y-88926342D01*
X100508500Y-88874000D01*
X100508500Y-83126000D01*
X100528502Y-83057879D01*
X100582158Y-83011386D01*
X100634500Y-83000000D01*
X118374000Y-83000000D01*
X118442121Y-83020002D01*
G37*
%TD.AperFunction*%
%TD*%
M02*
