%TF.GenerationSoftware,KiCad,Pcbnew,6.0.10+dfsg-2*%
%TF.CreationDate,2023-01-31T20:00:01-05:00*%
%TF.ProjectId,StoveRelays,53746f76-6552-4656-9c61-79732e6b6963,rev?*%
%TF.SameCoordinates,Original*%
%TF.FileFunction,Soldermask,Top*%
%TF.FilePolarity,Negative*%
%FSLAX46Y46*%
G04 Gerber Fmt 4.6, Leading zero omitted, Abs format (unit mm)*
G04 Created by KiCad (PCBNEW 6.0.10+dfsg-2) date 2023-01-31 20:00:01*
%MOMM*%
%LPD*%
G01*
G04 APERTURE LIST*
G04 Aperture macros list*
%AMRoundRect*
0 Rectangle with rounded corners*
0 $1 Rounding radius*
0 $2 $3 $4 $5 $6 $7 $8 $9 X,Y pos of 4 corners*
0 Add a 4 corners polygon primitive as box body*
4,1,4,$2,$3,$4,$5,$6,$7,$8,$9,$2,$3,0*
0 Add four circle primitives for the rounded corners*
1,1,$1+$1,$2,$3*
1,1,$1+$1,$4,$5*
1,1,$1+$1,$6,$7*
1,1,$1+$1,$8,$9*
0 Add four rect primitives between the rounded corners*
20,1,$1+$1,$2,$3,$4,$5,0*
20,1,$1+$1,$4,$5,$6,$7,0*
20,1,$1+$1,$6,$7,$8,$9,0*
20,1,$1+$1,$8,$9,$2,$3,0*%
G04 Aperture macros list end*
%ADD10RoundRect,0.250001X0.949999X-0.949999X0.949999X0.949999X-0.949999X0.949999X-0.949999X-0.949999X0*%
%ADD11C,2.400000*%
%ADD12RoundRect,0.200000X-0.200000X-0.275000X0.200000X-0.275000X0.200000X0.275000X-0.200000X0.275000X0*%
%ADD13R,1.800000X2.500000*%
%ADD14RoundRect,0.150000X-0.150000X0.587500X-0.150000X-0.587500X0.150000X-0.587500X0.150000X0.587500X0*%
%ADD15R,2.300000X2.300000*%
%ADD16C,2.300000*%
%ADD17C,0.900000*%
%ADD18C,8.600000*%
%ADD19O,2.500000X2.500000*%
%ADD20R,2.500000X2.500000*%
%ADD21C,2.500000*%
%ADD22R,1.700000X1.700000*%
%ADD23O,1.700000X1.700000*%
G04 APERTURE END LIST*
D10*
%TO.C,J16*%
X174482500Y-135760000D03*
D11*
X174482500Y-131800000D03*
X174482500Y-127840000D03*
X174482500Y-123880000D03*
X174482500Y-119920000D03*
X174482500Y-115960000D03*
X174482500Y-112000000D03*
X174482500Y-108040000D03*
X174482500Y-104080000D03*
%TD*%
D12*
%TO.C,R2*%
X126425000Y-59500000D03*
X128075000Y-59500000D03*
%TD*%
D13*
%TO.C,D6*%
X144500000Y-139000000D03*
X144500000Y-143000000D03*
%TD*%
D14*
%TO.C,Q9*%
X158112500Y-62062500D03*
X156212500Y-62062500D03*
X157162500Y-63937500D03*
%TD*%
D15*
%TO.C,K8*%
X149000000Y-93000000D03*
D16*
X159160000Y-93000000D03*
X166780000Y-93000000D03*
X149000000Y-85380000D03*
%TD*%
D13*
%TO.C,D2*%
X144500000Y-109000000D03*
X144500000Y-113000000D03*
%TD*%
D14*
%TO.C,Q5*%
X131950000Y-62062500D03*
X130050000Y-62062500D03*
X131000000Y-63937500D03*
%TD*%
%TO.C,Q4*%
X124450000Y-62062500D03*
X122550000Y-62062500D03*
X123500000Y-63937500D03*
%TD*%
D15*
%TO.C,K10*%
X149000000Y-106370000D03*
D16*
X159160000Y-106370000D03*
X166780000Y-106370000D03*
X149000000Y-98750000D03*
%TD*%
D13*
%TO.C,D10*%
X144500000Y-101500000D03*
X144500000Y-105500000D03*
%TD*%
D12*
%TO.C,R6*%
X137675000Y-59500000D03*
X139325000Y-59500000D03*
%TD*%
D13*
%TO.C,D4*%
X144500000Y-93500000D03*
X144500000Y-97500000D03*
%TD*%
%TO.C,D11*%
X144500000Y-116500000D03*
X144500000Y-120500000D03*
%TD*%
D17*
%TO.C,H3*%
X175000000Y-146775000D03*
X177280419Y-152280419D03*
X175000000Y-153225000D03*
X177280419Y-147719581D03*
X171775000Y-150000000D03*
X172719581Y-152280419D03*
X172719581Y-147719581D03*
X178225000Y-150000000D03*
D18*
X175000000Y-150000000D03*
%TD*%
D19*
%TO.C,K1*%
X119000000Y-141500000D03*
X122500000Y-134000000D03*
X115500000Y-134000000D03*
D20*
X139000000Y-134000000D03*
D19*
X139000000Y-141500000D03*
%TD*%
D21*
%TO.C,J5*%
X101950000Y-102000000D03*
X107050000Y-102000000D03*
%TD*%
D14*
%TO.C,Q1*%
X135700000Y-62062500D03*
X133800000Y-62062500D03*
X134750000Y-63937500D03*
%TD*%
%TO.C,Q11*%
X146950000Y-62062500D03*
X145050000Y-62062500D03*
X146000000Y-63937500D03*
%TD*%
D21*
%TO.C,J12*%
X172450000Y-80000000D03*
X177550000Y-80000000D03*
%TD*%
%TO.C,J7*%
X101950000Y-70000000D03*
X107050000Y-70000000D03*
%TD*%
D12*
%TO.C,R11*%
X145175000Y-59500000D03*
X146825000Y-59500000D03*
%TD*%
D15*
%TO.C,K11*%
X149000000Y-119620000D03*
D16*
X159160000Y-119620000D03*
X166780000Y-119620000D03*
X149000000Y-112000000D03*
%TD*%
D13*
%TO.C,D3*%
X144500000Y-77500000D03*
X144500000Y-81500000D03*
%TD*%
D12*
%TO.C,R7*%
X141425000Y-59500000D03*
X143075000Y-59500000D03*
%TD*%
D21*
%TO.C,J8*%
X107050000Y-93500000D03*
X101950000Y-93500000D03*
%TD*%
%TO.C,J13*%
X172450000Y-86500000D03*
X177550000Y-86500000D03*
%TD*%
D14*
%TO.C,Q2*%
X128200000Y-62062500D03*
X126300000Y-62062500D03*
X127250000Y-63937500D03*
%TD*%
D12*
%TO.C,R5*%
X130175000Y-59500000D03*
X131825000Y-59500000D03*
%TD*%
%TO.C,R3*%
X118925000Y-59500000D03*
X120575000Y-59500000D03*
%TD*%
D21*
%TO.C,J10*%
X107050000Y-125500000D03*
X101950000Y-125500000D03*
%TD*%
D12*
%TO.C,R9*%
X156337500Y-59500000D03*
X157987500Y-59500000D03*
%TD*%
D13*
%TO.C,D1*%
X144500000Y-146500000D03*
X144500000Y-150500000D03*
%TD*%
D21*
%TO.C,J11*%
X101950000Y-118000000D03*
X107050000Y-118000000D03*
%TD*%
D19*
%TO.C,K5*%
X119037500Y-125500000D03*
X122537500Y-118000000D03*
X115537500Y-118000000D03*
D20*
X139037500Y-118000000D03*
D19*
X139037500Y-125500000D03*
%TD*%
D21*
%TO.C,J2*%
X107012500Y-141500000D03*
X101912500Y-141500000D03*
%TD*%
D12*
%TO.C,R10*%
X148925000Y-59500000D03*
X150575000Y-59500000D03*
%TD*%
D15*
%TO.C,K6*%
X149000000Y-145620000D03*
D16*
X159160000Y-145620000D03*
X166780000Y-145620000D03*
X149000000Y-138000000D03*
%TD*%
D12*
%TO.C,R4*%
X122675000Y-59500000D03*
X124325000Y-59500000D03*
%TD*%
D21*
%TO.C,J9*%
X101950000Y-86000000D03*
X107050000Y-86000000D03*
%TD*%
D12*
%TO.C,R1*%
X133925000Y-59500000D03*
X135575000Y-59500000D03*
%TD*%
%TO.C,R8*%
X152675000Y-59500000D03*
X154325000Y-59500000D03*
%TD*%
D15*
%TO.C,K9*%
X149000000Y-80000000D03*
D16*
X159160000Y-80000000D03*
X166780000Y-80000000D03*
X149000000Y-72380000D03*
%TD*%
D15*
%TO.C,K7*%
X149000000Y-132620000D03*
D16*
X159160000Y-132620000D03*
X166780000Y-132620000D03*
X149000000Y-125000000D03*
%TD*%
D14*
%TO.C,Q3*%
X120700000Y-62062500D03*
X118800000Y-62062500D03*
X119750000Y-63937500D03*
%TD*%
D21*
%TO.C,J4*%
X107050000Y-109500000D03*
X101950000Y-109500000D03*
%TD*%
%TO.C,J3*%
X101912500Y-134000000D03*
X107012500Y-134000000D03*
%TD*%
D13*
%TO.C,D8*%
X144500000Y-85500000D03*
X144500000Y-89500000D03*
%TD*%
D14*
%TO.C,Q8*%
X154450000Y-62062500D03*
X152550000Y-62062500D03*
X153500000Y-63937500D03*
%TD*%
D13*
%TO.C,D9*%
X144500000Y-68500000D03*
X144500000Y-72500000D03*
%TD*%
D21*
%TO.C,J6*%
X101950000Y-77500000D03*
X107050000Y-77500000D03*
%TD*%
D14*
%TO.C,Q7*%
X143200000Y-62062500D03*
X141300000Y-62062500D03*
X142250000Y-63937500D03*
%TD*%
D18*
%TO.C,H2*%
X175000000Y-55000000D03*
D17*
X177280419Y-57280419D03*
X178225000Y-55000000D03*
X172719581Y-57280419D03*
X171775000Y-55000000D03*
X172719581Y-52719581D03*
X175000000Y-51775000D03*
X175000000Y-58225000D03*
X177280419Y-52719581D03*
%TD*%
D19*
%TO.C,K2*%
X119037500Y-109387500D03*
X122537500Y-101887500D03*
X115537500Y-101887500D03*
D20*
X139037500Y-101887500D03*
D19*
X139037500Y-109387500D03*
%TD*%
D13*
%TO.C,D5*%
X144500000Y-131500000D03*
X144500000Y-135500000D03*
%TD*%
D14*
%TO.C,Q10*%
X150700000Y-62062500D03*
X148800000Y-62062500D03*
X149750000Y-63937500D03*
%TD*%
D13*
%TO.C,D7*%
X144500000Y-124000000D03*
X144500000Y-128000000D03*
%TD*%
D17*
%TO.C,H1*%
X102719581Y-52719581D03*
X107280419Y-57280419D03*
X101775000Y-55000000D03*
X105000000Y-51775000D03*
X108225000Y-55000000D03*
X105000000Y-58225000D03*
D18*
X105000000Y-55000000D03*
D17*
X102719581Y-57280419D03*
X107280419Y-52719581D03*
%TD*%
D18*
%TO.C,H4*%
X105000000Y-150000000D03*
D17*
X105000000Y-146775000D03*
X107280419Y-152280419D03*
X105000000Y-153225000D03*
X102719581Y-147719581D03*
X108225000Y-150000000D03*
X101775000Y-150000000D03*
X102719581Y-152280419D03*
X107280419Y-147719581D03*
%TD*%
D19*
%TO.C,K4*%
X119037500Y-93500000D03*
X122537500Y-86000000D03*
X115537500Y-86000000D03*
D20*
X139037500Y-86000000D03*
D19*
X139037500Y-93500000D03*
%TD*%
D22*
%TO.C,J1*%
X156500000Y-55000000D03*
D23*
X153960000Y-55000000D03*
X151420000Y-55000000D03*
X148880000Y-55000000D03*
X146340000Y-55000000D03*
X143800000Y-55000000D03*
X141260000Y-55000000D03*
X138720000Y-55000000D03*
X136180000Y-55000000D03*
X133640000Y-55000000D03*
X131100000Y-55000000D03*
X128560000Y-55000000D03*
X126020000Y-55000000D03*
X123480000Y-55000000D03*
%TD*%
D19*
%TO.C,K3*%
X119037500Y-77500000D03*
X122537500Y-70000000D03*
X115537500Y-70000000D03*
D20*
X139037500Y-70000000D03*
D19*
X139037500Y-77500000D03*
%TD*%
D14*
%TO.C,Q6*%
X139450000Y-62062500D03*
X137550000Y-62062500D03*
X138500000Y-63937500D03*
%TD*%
D21*
%TO.C,J14*%
X177550000Y-93000000D03*
X172450000Y-93000000D03*
%TD*%
M02*
