%TF.GenerationSoftware,KiCad,Pcbnew,6.0.10+dfsg-2*%
%TF.CreationDate,2023-01-31T20:00:01-05:00*%
%TF.ProjectId,StoveRelays,53746f76-6552-4656-9c61-79732e6b6963,rev?*%
%TF.SameCoordinates,Original*%
%TF.FileFunction,Legend,Bot*%
%TF.FilePolarity,Positive*%
%FSLAX46Y46*%
G04 Gerber Fmt 4.6, Leading zero omitted, Abs format (unit mm)*
G04 Created by KiCad (PCBNEW 6.0.10+dfsg-2) date 2023-01-31 20:00:01*
%MOMM*%
%LPD*%
G01*
G04 APERTURE LIST*
%ADD10C,0.150000*%
%ADD11C,0.400000*%
G04 APERTURE END LIST*
D10*
X146625714Y-52912380D02*
X146625714Y-51912380D01*
X146625714Y-52388571D02*
X146054285Y-52388571D01*
X146054285Y-52912380D02*
X146054285Y-51912380D01*
X154094904Y-52912380D02*
X154094904Y-51912380D01*
X153523476Y-52912380D02*
X153952047Y-52340952D01*
X153523476Y-51912380D02*
X154094904Y-52483809D01*
X151277142Y-51912380D02*
X151277142Y-52626666D01*
X151324761Y-52769523D01*
X151420000Y-52864761D01*
X151562857Y-52912380D01*
X151658095Y-52912380D01*
X178927142Y-127690571D02*
X179260476Y-127690571D01*
X179260476Y-128214380D02*
X179260476Y-127214380D01*
X178784285Y-127214380D01*
X131028571Y-52388571D02*
X130885714Y-52436190D01*
X130838095Y-52483809D01*
X130790476Y-52579047D01*
X130790476Y-52721904D01*
X130838095Y-52817142D01*
X130885714Y-52864761D01*
X130980952Y-52912380D01*
X131361904Y-52912380D01*
X131361904Y-51912380D01*
X131028571Y-51912380D01*
X130933333Y-51960000D01*
X130885714Y-52007619D01*
X130838095Y-52102857D01*
X130838095Y-52198095D01*
X130885714Y-52293333D01*
X130933333Y-52340952D01*
X131028571Y-52388571D01*
X131361904Y-52388571D01*
X179070000Y-112847380D02*
X179070000Y-111847380D01*
X179355714Y-116403380D02*
X179355714Y-115403380D01*
X179355714Y-115879571D02*
X178784285Y-115879571D01*
X178784285Y-116403380D02*
X178784285Y-115403380D01*
X115002142Y-65088619D02*
X114954523Y-65041000D01*
X114859285Y-64993380D01*
X114621190Y-64993380D01*
X114525952Y-65041000D01*
X114478333Y-65088619D01*
X114430714Y-65183857D01*
X114430714Y-65279095D01*
X114478333Y-65421952D01*
X115049761Y-65993380D01*
X114430714Y-65993380D01*
X113811666Y-64993380D02*
X113716428Y-64993380D01*
X113621190Y-65041000D01*
X113573571Y-65088619D01*
X113525952Y-65183857D01*
X113478333Y-65374333D01*
X113478333Y-65612428D01*
X113525952Y-65802904D01*
X113573571Y-65898142D01*
X113621190Y-65945761D01*
X113716428Y-65993380D01*
X113811666Y-65993380D01*
X113906904Y-65945761D01*
X113954523Y-65898142D01*
X114002142Y-65802904D01*
X114049761Y-65612428D01*
X114049761Y-65374333D01*
X114002142Y-65183857D01*
X113954523Y-65088619D01*
X113906904Y-65041000D01*
X113811666Y-64993380D01*
X113097380Y-65088619D02*
X113049761Y-65041000D01*
X112954523Y-64993380D01*
X112716428Y-64993380D01*
X112621190Y-65041000D01*
X112573571Y-65088619D01*
X112525952Y-65183857D01*
X112525952Y-65279095D01*
X112573571Y-65421952D01*
X113145000Y-65993380D01*
X112525952Y-65993380D01*
X112192619Y-64993380D02*
X111573571Y-64993380D01*
X111906904Y-65374333D01*
X111764047Y-65374333D01*
X111668809Y-65421952D01*
X111621190Y-65469571D01*
X111573571Y-65564809D01*
X111573571Y-65802904D01*
X111621190Y-65898142D01*
X111668809Y-65945761D01*
X111764047Y-65993380D01*
X112049761Y-65993380D01*
X112145000Y-65945761D01*
X112192619Y-65898142D01*
X111145000Y-65612428D02*
X110383095Y-65612428D01*
X109716428Y-64993380D02*
X109621190Y-64993380D01*
X109525952Y-65041000D01*
X109478333Y-65088619D01*
X109430714Y-65183857D01*
X109383095Y-65374333D01*
X109383095Y-65612428D01*
X109430714Y-65802904D01*
X109478333Y-65898142D01*
X109525952Y-65945761D01*
X109621190Y-65993380D01*
X109716428Y-65993380D01*
X109811666Y-65945761D01*
X109859285Y-65898142D01*
X109906904Y-65802904D01*
X109954523Y-65612428D01*
X109954523Y-65374333D01*
X109906904Y-65183857D01*
X109859285Y-65088619D01*
X109811666Y-65041000D01*
X109716428Y-64993380D01*
X108430714Y-65993380D02*
X109002142Y-65993380D01*
X108716428Y-65993380D02*
X108716428Y-64993380D01*
X108811666Y-65136238D01*
X108906904Y-65231476D01*
X109002142Y-65279095D01*
X108002142Y-65612428D02*
X107240238Y-65612428D01*
X106811666Y-65088619D02*
X106764047Y-65041000D01*
X106668809Y-64993380D01*
X106430714Y-64993380D01*
X106335476Y-65041000D01*
X106287857Y-65088619D01*
X106240238Y-65183857D01*
X106240238Y-65279095D01*
X106287857Y-65421952D01*
X106859285Y-65993380D01*
X106240238Y-65993380D01*
X105906904Y-64993380D02*
X105287857Y-64993380D01*
X105621190Y-65374333D01*
X105478333Y-65374333D01*
X105383095Y-65421952D01*
X105335476Y-65469571D01*
X105287857Y-65564809D01*
X105287857Y-65802904D01*
X105335476Y-65898142D01*
X105383095Y-65945761D01*
X105478333Y-65993380D01*
X105764047Y-65993380D01*
X105859285Y-65945761D01*
X105906904Y-65898142D01*
X123853000Y-52467857D02*
X123900619Y-52563095D01*
X123900619Y-52705952D01*
X123853000Y-52848809D01*
X123757761Y-52944047D01*
X123662523Y-52991666D01*
X123472047Y-53039285D01*
X123329190Y-53039285D01*
X123138714Y-52991666D01*
X123043476Y-52944047D01*
X122948238Y-52848809D01*
X122900619Y-52705952D01*
X122900619Y-52610714D01*
X122948238Y-52467857D01*
X122995857Y-52420238D01*
X123329190Y-52420238D01*
X123329190Y-52610714D01*
X123567285Y-51991666D02*
X122900619Y-51991666D01*
X123472047Y-51991666D02*
X123519666Y-51944047D01*
X123567285Y-51848809D01*
X123567285Y-51705952D01*
X123519666Y-51610714D01*
X123424428Y-51563095D01*
X122900619Y-51563095D01*
X122900619Y-50658333D02*
X123900619Y-50658333D01*
X122948238Y-50658333D02*
X122900619Y-50753571D01*
X122900619Y-50944047D01*
X122948238Y-51039285D01*
X122995857Y-51086904D01*
X123091095Y-51134523D01*
X123376809Y-51134523D01*
X123472047Y-51086904D01*
X123519666Y-51039285D01*
X123567285Y-50944047D01*
X123567285Y-50753571D01*
X123519666Y-50658333D01*
X141117142Y-52388571D02*
X141450476Y-52388571D01*
X141450476Y-52912380D02*
X141450476Y-51912380D01*
X140974285Y-51912380D01*
X133457476Y-52817142D02*
X133505095Y-52864761D01*
X133647952Y-52912380D01*
X133743190Y-52912380D01*
X133886047Y-52864761D01*
X133981285Y-52769523D01*
X134028904Y-52674285D01*
X134076523Y-52483809D01*
X134076523Y-52340952D01*
X134028904Y-52150476D01*
X133981285Y-52055238D01*
X133886047Y-51960000D01*
X133743190Y-51912380D01*
X133647952Y-51912380D01*
X133505095Y-51960000D01*
X133457476Y-52007619D01*
X156690476Y-51912380D02*
X157166666Y-51912380D01*
X157214285Y-52388571D01*
X157166666Y-52340952D01*
X157071428Y-52293333D01*
X156833333Y-52293333D01*
X156738095Y-52340952D01*
X156690476Y-52388571D01*
X156642857Y-52483809D01*
X156642857Y-52721904D01*
X156690476Y-52817142D01*
X156738095Y-52864761D01*
X156833333Y-52912380D01*
X157071428Y-52912380D01*
X157166666Y-52864761D01*
X157214285Y-52817142D01*
X156357142Y-51912380D02*
X156023809Y-52912380D01*
X155690476Y-51912380D01*
X128798095Y-52626666D02*
X128321904Y-52626666D01*
X128893333Y-52912380D02*
X128560000Y-51912380D01*
X128226666Y-52912380D01*
X136441904Y-52912380D02*
X136441904Y-51912380D01*
X136203809Y-51912380D01*
X136060952Y-51960000D01*
X135965714Y-52055238D01*
X135918095Y-52150476D01*
X135870476Y-52340952D01*
X135870476Y-52483809D01*
X135918095Y-52674285D01*
X135965714Y-52769523D01*
X136060952Y-52864761D01*
X136203809Y-52912380D01*
X136441904Y-52912380D01*
X143538095Y-51960000D02*
X143633333Y-51912380D01*
X143776190Y-51912380D01*
X143919047Y-51960000D01*
X144014285Y-52055238D01*
X144061904Y-52150476D01*
X144109523Y-52340952D01*
X144109523Y-52483809D01*
X144061904Y-52674285D01*
X144014285Y-52769523D01*
X143919047Y-52864761D01*
X143776190Y-52912380D01*
X143680952Y-52912380D01*
X143538095Y-52864761D01*
X143490476Y-52817142D01*
X143490476Y-52483809D01*
X143680952Y-52483809D01*
D11*
X115240000Y-61358142D02*
X113525714Y-61358142D01*
X114382857Y-64358142D02*
X114382857Y-61358142D01*
X112525714Y-64358142D02*
X112525714Y-62358142D01*
X112525714Y-62929571D02*
X112382857Y-62643857D01*
X112240000Y-62501000D01*
X111954285Y-62358142D01*
X111668571Y-62358142D01*
X109525714Y-64215285D02*
X109811428Y-64358142D01*
X110382857Y-64358142D01*
X110668571Y-64215285D01*
X110811428Y-63929571D01*
X110811428Y-62786714D01*
X110668571Y-62501000D01*
X110382857Y-62358142D01*
X109811428Y-62358142D01*
X109525714Y-62501000D01*
X109382857Y-62786714D01*
X109382857Y-63072428D01*
X110811428Y-63358142D01*
X108382857Y-62358142D02*
X107668571Y-64358142D01*
X106954285Y-62358142D01*
X105811428Y-64358142D02*
X105811428Y-62358142D01*
X105811428Y-61358142D02*
X105954285Y-61501000D01*
X105811428Y-61643857D01*
X105668571Y-61501000D01*
X105811428Y-61358142D01*
X105811428Y-61643857D01*
X104811428Y-62358142D02*
X103668571Y-62358142D01*
X104382857Y-61358142D02*
X104382857Y-63929571D01*
X104240000Y-64215285D01*
X103954285Y-64358142D01*
X103668571Y-64358142D01*
X102954285Y-62358142D02*
X101382857Y-62358142D01*
X102954285Y-64358142D01*
X101382857Y-64358142D01*
D10*
X138985085Y-52388571D02*
X138651752Y-52388571D01*
X138508895Y-52912380D02*
X138985085Y-52912380D01*
X138985085Y-51912380D01*
X138508895Y-51912380D01*
X126440619Y-53063095D02*
X126440619Y-52444047D01*
X126059666Y-52777380D01*
X126059666Y-52634523D01*
X126012047Y-52539285D01*
X125964428Y-52491666D01*
X125869190Y-52444047D01*
X125631095Y-52444047D01*
X125535857Y-52491666D01*
X125488238Y-52539285D01*
X125440619Y-52634523D01*
X125440619Y-52920238D01*
X125488238Y-53015476D01*
X125535857Y-53063095D01*
X126440619Y-52158333D02*
X125440619Y-51825000D01*
X126440619Y-51491666D01*
X126440619Y-51253571D02*
X126440619Y-50634523D01*
X126059666Y-50967857D01*
X126059666Y-50825000D01*
X126012047Y-50729761D01*
X125964428Y-50682142D01*
X125869190Y-50634523D01*
X125631095Y-50634523D01*
X125535857Y-50682142D01*
X125488238Y-50729761D01*
X125440619Y-50825000D01*
X125440619Y-51110714D01*
X125488238Y-51205952D01*
X125535857Y-51253571D01*
X178808095Y-123325000D02*
X178903333Y-123277380D01*
X179046190Y-123277380D01*
X179189047Y-123325000D01*
X179284285Y-123420238D01*
X179331904Y-123515476D01*
X179379523Y-123705952D01*
X179379523Y-123848809D01*
X179331904Y-124039285D01*
X179284285Y-124134523D01*
X179189047Y-124229761D01*
X179046190Y-124277380D01*
X178950952Y-124277380D01*
X178808095Y-124229761D01*
X178760476Y-124182142D01*
X178760476Y-123848809D01*
X178950952Y-123848809D01*
X179236666Y-104465380D02*
X179712857Y-104465380D01*
X179712857Y-103465380D01*
X178379523Y-104465380D02*
X178950952Y-104465380D01*
X178665238Y-104465380D02*
X178665238Y-103465380D01*
X178760476Y-103608238D01*
X178855714Y-103703476D01*
X178950952Y-103751095D01*
X148880000Y-52912380D02*
X148880000Y-51912380D01*
M02*
