<?xml version="1.0" encoding="utf-8"?>
<!DOCTYPE svg PUBLIC "-//W3C//DTD SVG 1.1//EN" "http://www.w3.org/Graphics/SVG/1.1/DTD/svg11.dtd">
<svg version="1.1" xmlns="http://www.w3.org/2000/svg" xmlns:xlink="http://www.w3.org/1999/xlink" x="0px" y="0px" viewBox="0 0 1000 1000" enable-background="new 0 0 1000 1000" xml:space="preserve">
<style>
	.stove-svg { fill: #000000; }
	@media (prefers-color-scheme: dark) {
		.stove-svg { fill: #ffffff; }
	}
</style>
<g id="stove-svg" class="stove-svg" >
	<g transform="translate(0.000000,512.000000) scale(0.100000,-0.100000)">
		<path d="M1503.8,4995.6c-13.4-13.4-23-76.5-23-149.2v-128.2l-111-30.6c-214.3-59.3-405.6-239.2-470.7-438.2c-28.7-88-30.6-501.3-30.6-4538.3c0-3430.6,5.7-4448.4,23-4465.7c36.4-36.4,8190.8-32.5,8221.5,3.9c15.3,19.1,21.1,1192,17.2,4509.6l-5.7,4484.8l-51.7,107.2c-93.7,189.4-275.5,329.1-464.9,355.9l-86.1,11.5v126.3c0,74.6-9.6,137.8-23,151.1C8466.3,5028.1,1536.4,5028.1,1503.8,4995.6z M8368.7,4789v-76.5H5001.3H1633.9v76.5v76.5h3367.4h3367.4V4789z M8657.7,4536.4c97.6-28.7,218.1-132,271.7-233.4c40.2-74.6,42.1-101.4,47.8-675.4l5.8-596.9l-290.8-5.8c-252.6-5.7-292.8-9.6-311.9-38.3c-15.3-24.9-15.3-44,0-67c19.1-30.6,59.3-34.4,311.9-40.2l288.9-5.7V-338.7v-3212.4l-288.9-5.7c-252.6-5.7-292.8-9.6-311.9-38.3c-15.3-24.9-15.3-44,0-67c19.1-30.6,59.3-34.4,311.9-40.2l288.9-5.7v-457.3v-459.2H5001.3H1021.7v459.2v459.2l3465,3.8c3277.5,5.7,3466.9,7.6,3487.9,40.2c15.3,23,15.3,42.1,0,67c-21,30.6-210.4,32.5-3487.9,38.3l-3465,3.8v3214.3v3214.3l3465,3.8c3277.5,5.7,3466.9,7.7,3487.9,40.2c15.3,23,15.3,42.1,0,67c-21,30.6-210.4,32.5-3487.9,38.3l-3466.9,3.8l5.7,579.7c5.7,530,9.6,583.6,44,654.4c53.6,107.1,168.4,212.4,283.2,256.4c97.6,38.3,153.1,38.3,3665.9,38.3C7672.3,4559.4,8604.1,4553.6,8657.7,4536.4z"/>
		<path d="M2083.6,4211.2c-160.7-55.5-172.2-61.2-174.1-112.9c-1.9-24.9-15.3-72.7-30.6-103.3c-70.8-141.6-61.2-283.2,30.6-434.3c84.2-137.7,221.9-214.3,384.6-212.4c72.7,0,141.6,13.4,181.8,34.4c36.4,19.1,88,34.4,112.9,36.4c51.7,1.9,59.3,13.4,116.7,189.4c88,264.1-7.6,495.6-248.7,604.6C2347.6,4262.8,2230.9,4260.9,2083.6,4211.2z M2416.5,4061.9c78.4-38.3,141.6-124.4,162.6-218.1c13.4-53.6-17.2-183.7-42.1-183.7c-7.7,0-103.3,89.9-214.3,200.9c-193.2,193.3-197.1,199-151.2,218.1C2246.2,4109.7,2338,4102.1,2416.5,4061.9z M2385.9,3512.8c-80.4-34.4-141.6-30.6-235.3,19.1c-141.6,68.9-208.5,237.3-149.2,367.4l22.9,49.8l206.6-206.6l208.5-206.6L2385.9,3512.8z"/>
		<path d="M3920.3,4211.2c-160.7-55.5-172.2-61.2-174.1-112.9c-1.9-24.9-15.3-72.7-30.6-103.3c-105.2-208.5-19.1-470.7,193.2-589.3c126.3-70.8,294.6-80.4,403.7-23c36.4,19.1,88,34.4,112.9,36.4c51.7,1.9,59.3,13.4,116.7,189.4c70.8,216.2,24.9,398-133.9,533.8C4274.3,4259,4121.2,4280,3920.3,4211.2z M4291.5,4044.7c80.4-57.4,122.4-145.4,124.4-256.4c0-164.5-24.9-158.8-250.6,67c-199,200.9-202.8,204.7-158.8,223.9C4079.1,4109.7,4222.6,4092.5,4291.5,4044.7z M4222.6,3512.8c-74.6-32.5-137.8-28.7-227.7,11.5c-141.6,63.1-214.3,233.4-160.7,367.4l24.9,59.3l208.6-208.6l208.5-206.6L4222.6,3512.8z"/>
		<path d="M5795.4,4222.6c-42.1-17.2-99.5-34.4-128.2-40.2c-59.3-11.5-99.5-49.7-86.1-86.1c3.8-13.4-7.6-55.5-24.9-91.8c-74.6-153.1-67-288.9,26.8-443.9c84.2-137.7,221.9-214.3,384.6-212.4c72.7,0,141.6,13.4,181.8,34.4c36.3,19.1,88,34.4,112.9,36.4c51.6,1.9,59.3,13.4,114.8,183.7c72.7,223.9,45.9,359.7-103.3,507C6135.9,4249.4,5967.6,4289.6,5795.4,4222.6z M6126.3,4048.5c116.7-88,166.5-233.4,118.6-352l-24.9-59.3l-208.6,208.6L5803,4052.3l53.6,24.9C5927.4,4107.8,6065.1,4094.4,6126.3,4048.5z M6067.1,3512.8c-63.1-34.4-143.5-30.6-235.3,15.3c-133.9,63.1-197.1,204.7-158.8,346.3l21.1,78.4l208.5-208.5C6103.4,3543.4,6109.1,3535.8,6067.1,3512.8z"/>
		<path d="M7593.9,4211.2c-160.7-55.5-172.2-61.2-174.1-112.9c-1.9-24.9-15.3-72.7-30.6-103.3c-70.8-141.6-61.2-283.2,30.6-434.3c84.2-137.7,221.9-214.3,384.6-212.4c72.7,0,141.6,13.4,181.8,34.4c36.3,19.1,88,34.4,112.9,36.4c51.6,1.9,59.3,13.4,114.8,183.7c72.7,223.9,45.9,359.7-103.3,507C7963.1,4257.1,7813.9,4287.7,7593.9,4211.2z M7963.1,4048.5c116.7-88,166.5-233.4,118.6-352l-24.9-59.3l-208.5,208.6l-208.6,206.6l53.6,24.9C7764.2,4107.8,7901.9,4094.4,7963.1,4048.5z M7903.8,3512.8c-91.8-51.6-214.3-21-315.7,76.5c-80.4,76.5-109.1,177.9-80.4,285.1l22.9,78.4l208.6-208.5C7940.2,3543.4,7945.9,3535.8,7903.8,3512.8z"/>
		<path d="M2294,2322.7c-287-70.8-516.6-403.7-449.6-654.4c34.4-128.2,174.1-191.3,306.1-139.7c80.4,32.5,133.9,105.2,133.9,179.8c0,55.5,49.7,145.4,86.1,160.7c17.2,5.7,1224.5,11.5,2680.5,11.5c2611.7,0,2648,0,2686.3-38.3c21.1-21,42.1-59.3,47.8-86.1c5.7-26.8,13.4-70.8,19.1-97.6c32.5-153.1,250.6-202.8,371.2-82.3c67,65,82.3,141.6,59.3,265.9c-36.4,189.4-151.2,340.6-331,436.2l-99.5,51.7l-2726.5,3.8C3577.8,2334.2,2326.5,2330.4,2294,2322.7z M7737.4,2165.8c53.6-11.5,132-47.8,176-82.3c179.8-135.8,248.7-466.8,88-426.7c-40.2,11.5-51.7,28.7-61.2,93.8c-17.2,105.2-68.9,187.5-149.2,235.3c-63.1,38.3-97.6,38.3-2751.3,38.3c-2653.8,0-2688.2,0-2751.3-38.3c-80.4-47.8-132-130.1-149.2-235.3c-9.6-65.1-21-82.3-61.2-93.8c-105.2-24.9-120.5,105.2-36.4,279.4c53.6,107.1,158.8,191.3,275.5,223.9C2439.4,2192.6,7586.2,2198.4,7737.4,2165.8z"/>
		<path d="M2301.7,1148c-45.9-24.9-109.1-82.3-141.6-126.3l-57.4-82.3V-721.3v-1660.7l57.4-82.3c32.5-45.9,95.7-101.4,143.5-126.3l86.1-44h2554.3c1762.1,0,2577.2,5.7,2627,21c95.6,26.8,216.2,147.3,243,244.9c13.4,51.7,17.2,589.3,15.3,1691.3l-5.7,1616.7l-57.4,82.3c-30.6,44-95.7,101.4-141.6,126.3l-84.2,44H4963.1H2385.9L2301.7,1148z M4111.6,618C4345.1,386.5,4547.9,197,4565.1,197c36.3,0,91.8,49.8,91.8,82.3c0,11.5-164.5,187.5-367.4,390.3l-367.4,369.3h1794.7c1626.3,0,1800.4-3.8,1848.2-30.6c120.5-72.7,114.8,21,114.8-1720.1c0-1754.5,5.7-1678-124.4-1739.2c-51.7-24.9-143.5-30.6-508.9-30.6h-447.7L5412.7-1295.3C4760.3-642.9,4213.1-109.1,4195.8-109.1c-40.2,0-74.6-38.3-74.6-84.2c0-26.8,376.9-415.2,1123.1-1163.3l1125-1125H4391c-1794.7,0-1980.3,1.9-2030,30.6c-120.5,72.7-114.8-21.1-114.8,1729.6c0,1435,3.8,1597.6,30.6,1643.5c68.9,114.8,70.8,114.8,773,116.7h639L4111.6,618z"/>
		<path d="M4905.7-61.3c-13.4-15.3-19.1-47.8-13.4-70.8c15.3-55.5,780.6-818.9,820.8-818.9c36.3,0,91.8,49.8,91.8,82.3c0,34.4-809.3,836.1-845.7,836.1C4943.9-32.5,4919.1-45.9,4905.7-61.3z"/>
	</g>
</g>
</svg>
