<?xml version="1.0" standalone="no"?>
<!DOCTYPE svg PUBLIC "-//W3C//DTD SVG 20010904//EN"
 "http://www.w3.org/TR/2001/REC-SVG-20010904/DTD/svg10.dtd">
<svg version="1.0" xmlns="http://www.w3.org/2000/svg"
 width="700.000000pt" height="700.000000pt" viewBox="0 0 700.000000 700.000000"
 preserveAspectRatio="xMidYMid meet">
<metadata>
Created by potrace 1.14, written by Peter Selinger 2001-2017
</metadata>
<g transform="translate(0.000000,700.000000) scale(0.100000,-0.100000)"
fill="#000000" stroke="none">
<path d="M1378 6924 c-2 -2 -75 -4 -161 -5 -184 -2 -177 2 -180 -112 -2 -40
-6 -77 -10 -83 -3 -6 -27 -17 -52 -23 -161 -40 -325 -196 -350 -332 -13 -71
-14 -392 -14 -3089 0 -2630 2 -3177 14 -3188 14 -14 416 -17 2755 -16 2460 0
2982 3 2998 18 4 4 8 1419 10 3144 2 2954 1 3139 -15 3177 -73 170 -207 279
-370 300 -16 2 -30 4 -33 4 -3 1 -5 40 -6 87 -1 51 -6 90 -13 97 -6 6 -33 13
-59 15 -63 5 -4509 11 -4514 6z m4419 -104 l62 0 0 -53 -1 -52 -2356 0 -2355
0 -3 52 c-2 51 -2 52 30 55 23 2 4219 1 4623 -2z m197 -224 c92 -6 139 -30
205 -101 80 -87 79 -82 85 -597 l4 -358 -26 -1 c-15 0 -90 -2 -167 -4 -197 -6
-223 -10 -231 -41 -13 -51 22 -60 246 -63 91 -1 167 -5 170 -8 3 -2 5 -1015 6
-2249 l0 -2244 -65 -1 c-182 -1 -322 -9 -341 -19 -38 -20 -21 -70 26 -76 25
-4 272 -13 355 -14 l25 0 0 -320 0 -320 -2785 2 -2786 3 0 318 0 317 30 0 c16
0 1031 3 2255 5 1224 3 2301 7 2394 10 165 4 196 11 196 40 0 28 -31 36 -157
40 -70 3 -1158 7 -2418 11 -1259 3 -2292 8 -2295 10 -10 11 -5 4486 5 4490 5
1 1065 5 2355 8 1290 3 2362 8 2383 9 20 2 55 5 76 5 31 2 41 7 46 23 8 23 -5
41 -32 46 -49 9 -894 14 -2763 18 -1136 2 -2068 4 -2071 4 -7 1 -3 497 5 695
4 101 9 127 31 171 30 63 94 124 167 161 50 25 63 27 218 31 91 3 169 5 174 7
20 5 4609 -2 4680 -8z"/>
<path d="M4135 6392 c-46 -8 -215 -64 -221 -73 -3 -5 -8 -26 -10 -45 -2 -20
-11 -48 -18 -62 -74 -145 -4 -341 148 -420 73 -37 179 -40 276 -6 38 13 76 24
84 24 21 0 42 38 69 128 31 99 32 197 3 255 -61 124 -220 219 -331 199z m153
-145 c52 -37 94 -114 94 -173 0 -45 -18 -104 -31 -104 -10 0 -286 279 -281
283 22 19 55 25 112 23 54 -2 74 -7 106 -29z m-160 -207 c123 -124 140 -146
123 -163 -16 -16 -106 -18 -141 -4 -115 50 -160 137 -136 265 10 51 -3 60 154
-98z"/>
<path d="M1485 6371 c-92 -27 -132 -47 -145 -71 -6 -12 -9 -24 -7 -27 3 -2 -6
-32 -20 -66 -76 -184 26 -392 216 -437 63 -15 157 -9 202 14 18 9 51 19 72 23
36 5 41 11 62 57 57 130 65 247 22 339 -69 147 -237 218 -402 168z m225 -125
c40 -26 83 -89 94 -138 7 -31 -7 -105 -23 -121 -6 -6 -47 27 -126 104 -65 63
-126 126 -137 142 l-20 27 32 13 c43 19 131 5 180 -27z m-150 -210 c77 -76
140 -142 140 -146 0 -14 -89 -32 -125 -26 -38 7 -98 37 -127 63 -30 27 -61
103 -60 146 2 36 22 110 28 104 2 -1 66 -64 144 -141z"/>
<path d="M2815 6384 c-86 -21 -178 -61 -185 -79 -44 -115 -62 -198 -57 -252 7
-72 12 -85 53 -149 81 -123 251 -179 380 -126 27 12 68 26 90 32 l42 10 32 98
c28 84 32 107 28 172 -6 89 -29 142 -93 205 -63 63 -116 88 -200 91 -38 2 -79
1 -90 -2z m140 -115 c79 -22 135 -110 135 -210 0 -62 -11 -77 -45 -59 -34 18
-255 240 -255 256 0 7 6 15 13 17 23 10 112 7 152 -4z m19 -386 c-49 -36 -146
-24 -216 26 -72 51 -103 162 -69 245 l11 28 145 -143 c127 -126 143 -146 129
-156z"/>
<path d="M5305 6359 c-100 -33 -104 -36 -110 -67 -2 -13 -16 -57 -31 -100 -32
-94 -29 -161 10 -244 53 -113 147 -177 271 -185 59 -4 85 1 165 27 52 18 98
37 103 43 4 7 19 50 34 97 50 162 32 259 -67 359 -105 107 -209 126 -375 70z
m227 -89 c66 -19 138 -123 138 -200 0 -28 -21 -100 -29 -100 -4 0 -71 64 -150
142 l-144 142 29 13 c36 15 107 16 156 3z m-1 -391 c-49 -40 -154 -15 -219 52
-59 60 -75 127 -51 214 l11 39 141 -143 141 -143 -23 -19z"/>
<path d="M1566 5029 c-166 -66 -291 -243 -281 -398 5 -68 31 -111 84 -138 44
-23 91 -24 142 -5 33 13 77 66 84 100 27 129 35 136 173 139 199 3 3426 2
3519 -2 51 -2 101 -6 111 -9 25 -8 48 -52 61 -117 18 -87 74 -130 160 -124 97
8 157 83 148 189 -12 157 -107 284 -274 370 -29 15 -194 16 -1955 15 -1871 -1
-1924 -2 -1972 -20z m3778 -93 c100 -7 153 -27 209 -76 71 -62 122 -182 105
-246 -9 -37 -28 -47 -62 -34 -23 8 -46 58 -46 97 0 19 -39 84 -63 105 -35 30
-61 37 -155 44 -115 8 -3444 8 -3591 0 -91 -5 -122 -11 -148 -28 -43 -26 -76
-78 -92 -143 -15 -61 -20 -70 -48 -79 -16 -5 -28 -1 -43 14 -19 19 -21 29 -15
68 18 122 98 223 205 261 24 9 151 14 410 18 206 3 376 6 377 7 6 5 2881 -3
2957 -8z"/>
<path d="M1635 4233 c-52 -28 -104 -73 -135 -118 l-30 -44 0 -1159 0 -1159 26
-39 c36 -53 90 -100 144 -125 l44 -21 1781 5 c979 3 1794 8 1812 11 66 11 145
73 179 144 18 35 19 88 21 1190 l2 1154 -37 50 c-20 29 -62 68 -96 90 l-59 38
-1811 0 c-1641 -1 -1814 -2 -1841 -17z m950 -95 c157 -156 488 -480 539 -525
67 -60 70 -61 96 -48 42 22 44 42 9 84 -17 20 -132 138 -256 264 l-225 227 53
1 c224 4 2284 -1 2371 -6 165 -9 182 -24 195 -175 9 -100 9 -1902 0 -2058 -12
-220 -3 -215 -430 -220 l-317 -4 -574 574 c-821 820 -1096 1088 -1116 1088 -5
0 -18 -10 -29 -21 -18 -20 -19 -25 -6 -48 7 -15 76 -92 152 -171 98 -103 1138
-1153 1399 -1413 5 -5 -617 -7 -1382 -5 l-1391 3 -35 27 c-41 32 -53 68 -59
183 -6 131 -4 2014 3 2088 6 76 26 113 74 136 21 11 83 16 219 20 218 7 703 6
710 -1z"/>
<path d="M3441 3376 c-38 -45 -11 -79 298 -385 242 -239 253 -248 286 -231 33
18 40 45 18 74 -21 30 -471 477 -526 524 -41 35 -59 39 -76 18z"/>
</g>
</svg>
