%TF.GenerationSoftware,KiCad,Pcbnew,6.0.10+dfsg-2*%
%TF.CreationDate,2023-02-01T09:38:30-05:00*%
%TF.ProjectId,ParentsStove,50617265-6e74-4735-9374-6f76652e6b69,rev?*%
%TF.SameCoordinates,Original*%
%TF.FileFunction,Copper,L4,Bot*%
%TF.FilePolarity,Positive*%
%FSLAX46Y46*%
G04 Gerber Fmt 4.6, Leading zero omitted, Abs format (unit mm)*
G04 Created by KiCad (PCBNEW 6.0.10+dfsg-2) date 2023-02-01 09:38:30*
%MOMM*%
%LPD*%
G01*
G04 APERTURE LIST*
G04 Aperture macros list*
%AMRoundRect*
0 Rectangle with rounded corners*
0 $1 Rounding radius*
0 $2 $3 $4 $5 $6 $7 $8 $9 X,Y pos of 4 corners*
0 Add a 4 corners polygon primitive as box body*
4,1,4,$2,$3,$4,$5,$6,$7,$8,$9,$2,$3,0*
0 Add four circle primitives for the rounded corners*
1,1,$1+$1,$2,$3*
1,1,$1+$1,$4,$5*
1,1,$1+$1,$6,$7*
1,1,$1+$1,$8,$9*
0 Add four rect primitives between the rounded corners*
20,1,$1+$1,$2,$3,$4,$5,0*
20,1,$1+$1,$4,$5,$6,$7,0*
20,1,$1+$1,$6,$7,$8,$9,0*
20,1,$1+$1,$8,$9,$2,$3,0*%
G04 Aperture macros list end*
%TA.AperFunction,ComponentPad*%
%ADD10C,0.800000*%
%TD*%
%TA.AperFunction,ComponentPad*%
%ADD11O,1.800000X1.150000*%
%TD*%
%TA.AperFunction,ComponentPad*%
%ADD12O,2.000000X1.450000*%
%TD*%
%TA.AperFunction,ComponentPad*%
%ADD13RoundRect,0.250001X-0.949999X-0.949999X0.949999X-0.949999X0.949999X0.949999X-0.949999X0.949999X0*%
%TD*%
%TA.AperFunction,ComponentPad*%
%ADD14C,2.400000*%
%TD*%
%TA.AperFunction,ComponentPad*%
%ADD15R,1.700000X1.700000*%
%TD*%
%TA.AperFunction,ComponentPad*%
%ADD16O,1.700000X1.700000*%
%TD*%
%TA.AperFunction,ComponentPad*%
%ADD17C,2.000000*%
%TD*%
%TA.AperFunction,ComponentPad*%
%ADD18C,0.900000*%
%TD*%
%TA.AperFunction,ComponentPad*%
%ADD19C,8.600000*%
%TD*%
%TA.AperFunction,ComponentPad*%
%ADD20RoundRect,0.250001X-0.949999X0.949999X-0.949999X-0.949999X0.949999X-0.949999X0.949999X0.949999X0*%
%TD*%
%TA.AperFunction,SMDPad,CuDef*%
%ADD21R,1.300000X0.900000*%
%TD*%
%TA.AperFunction,ComponentPad*%
%ADD22C,2.500000*%
%TD*%
%TA.AperFunction,ViaPad*%
%ADD23C,0.800000*%
%TD*%
%TA.AperFunction,Conductor*%
%ADD24C,0.500000*%
%TD*%
%TA.AperFunction,Conductor*%
%ADD25C,0.250000*%
%TD*%
G04 APERTURE END LIST*
D10*
%TO.P,U5,43,GND*%
%TO.N,GND*%
X140690000Y-91000000D03*
X142290000Y-94000000D03*
X139990000Y-93225000D03*
X142987200Y-93231800D03*
X140690000Y-92525000D03*
X142290000Y-92525000D03*
X141490000Y-91725000D03*
X139990000Y-91725000D03*
X142990000Y-91725000D03*
X141500000Y-93225000D03*
X142190000Y-91000000D03*
X140690000Y-94000000D03*
%TD*%
D11*
%TO.P,J1,6,Shield*%
%TO.N,GND*%
X106850000Y-128200000D03*
D12*
X110650000Y-120600000D03*
D11*
X106850000Y-120450000D03*
D12*
X110650000Y-128050000D03*
%TD*%
D13*
%TO.P,J7,1,Pin_1*%
%TO.N,+5V*%
X119020000Y-117982500D03*
D14*
%TO.P,J7,2,Pin_2*%
%TO.N,GND*%
X122980000Y-117982500D03*
%TD*%
D15*
%TO.P,J6,1,Pin_1*%
%TO.N,+3V3*%
X123400000Y-108834000D03*
D16*
%TO.P,J6,2,Pin_2*%
%TO.N,+5V*%
X125940000Y-108834000D03*
%TO.P,J6,3,Pin_3*%
%TO.N,/SPI2_MISO*%
X123400000Y-106294000D03*
%TO.P,J6,4,Pin_4*%
%TO.N,/SPI2_SCLK*%
X125940000Y-106294000D03*
%TO.P,J6,5,Pin_5*%
%TO.N,/SPI2_MOSI*%
X123400000Y-103754000D03*
%TO.P,J6,6,Pin_6*%
%TO.N,/SPI2_CS0*%
X125940000Y-103754000D03*
%TO.P,J6,7,Pin_7*%
%TO.N,/LCD_BCKL*%
X123400000Y-101214000D03*
%TO.P,J6,8,Pin_8*%
%TO.N,/LCD_RST*%
X125940000Y-101214000D03*
%TO.P,J6,9,Pin_9*%
%TO.N,/LCD_DC*%
X123400000Y-98674000D03*
%TO.P,J6,10,Pin_10*%
%TO.N,GND*%
X125940000Y-98674000D03*
%TD*%
D15*
%TO.P,J3,1,Pin_1*%
%TO.N,/UART_TX*%
X157952000Y-91700000D03*
D16*
%TO.P,J3,2,Pin_2*%
%TO.N,GND*%
X157952000Y-89160000D03*
%TO.P,J3,3,Pin_3*%
%TO.N,/UART_RX*%
X157952000Y-86620000D03*
%TD*%
D17*
%TO.P,SW1,1,1*%
%TO.N,GND*%
X118250000Y-82750000D03*
X124750000Y-82750000D03*
%TO.P,SW1,2,2*%
%TO.N,/BootMode*%
X118250000Y-87250000D03*
X124750000Y-87250000D03*
%TD*%
D18*
%TO.P,H4,1,1*%
%TO.N,GND*%
X110000000Y-81775000D03*
X110000000Y-88225000D03*
X112280419Y-87280419D03*
X113225000Y-85000000D03*
X107719581Y-87280419D03*
X106775000Y-85000000D03*
X112280419Y-82719581D03*
X107719581Y-82719581D03*
D19*
X110000000Y-85000000D03*
%TD*%
D18*
%TO.P,H3,1,1*%
%TO.N,GND*%
X180000000Y-131775000D03*
X177719581Y-137280419D03*
X176775000Y-135000000D03*
D19*
X180000000Y-135000000D03*
D18*
X177719581Y-132719581D03*
X182280419Y-132719581D03*
X183225000Y-135000000D03*
X182280419Y-137280419D03*
X180000000Y-138225000D03*
%TD*%
D15*
%TO.P,J5,1,Pin_1*%
%TO.N,+5V*%
X161500000Y-135000000D03*
D16*
%TO.P,J5,2,Pin_2*%
%TO.N,/Down_Draft_Low*%
X158960000Y-135000000D03*
%TO.P,J5,3,Pin_3*%
%TO.N,/Down_Draft_High*%
X156420000Y-135000000D03*
%TO.P,J5,4,Pin_4*%
%TO.N,/Cooling Fan*%
X153880000Y-135000000D03*
%TO.P,J5,5,Pin_5*%
%TO.N,/Light*%
X151340000Y-135000000D03*
%TO.P,J5,6,Pin_6*%
%TO.N,/Fan_Low*%
X148800000Y-135000000D03*
%TO.P,J5,7,Pin_7*%
%TO.N,/Fan_High*%
X146260000Y-135000000D03*
%TO.P,J5,8,Pin_8*%
%TO.N,/Bake_A*%
X143720000Y-135000000D03*
%TO.P,J5,9,Pin_9*%
%TO.N,/Bake_B*%
X141180000Y-135000000D03*
%TO.P,J5,10,Pin_10*%
%TO.N,/Broil_A*%
X138640000Y-135000000D03*
%TO.P,J5,11,Pin_11*%
%TO.N,/Broil_Convection_B*%
X136100000Y-135000000D03*
%TO.P,J5,12,Pin_12*%
%TO.N,/Convection_A*%
X133560000Y-135000000D03*
%TO.P,J5,13,Pin_13*%
%TO.N,+3V3*%
X131020000Y-135000000D03*
%TO.P,J5,14,Pin_14*%
%TO.N,GND*%
X128480000Y-135000000D03*
%TD*%
D15*
%TO.P,J4,1,Pin_1*%
%TO.N,/SDA*%
X158968000Y-120040000D03*
D16*
%TO.P,J4,2,Pin_2*%
%TO.N,+3V3*%
X158968000Y-117500000D03*
%TO.P,J4,3,Pin_3*%
%TO.N,/SCL*%
X158968000Y-114960000D03*
%TO.P,J4,4,Pin_4*%
%TO.N,GND*%
X158968000Y-112420000D03*
%TD*%
D18*
%TO.P,H5,1,1*%
%TO.N,GND*%
X107719581Y-132719581D03*
X112280419Y-137280419D03*
X106775000Y-135000000D03*
X110000000Y-131775000D03*
X113225000Y-135000000D03*
X110000000Y-138225000D03*
D19*
X110000000Y-135000000D03*
D18*
X107719581Y-137280419D03*
X112280419Y-132719581D03*
%TD*%
D20*
%TO.P,J2,1,Pin_1*%
%TO.N,unconnected-(J2-Pad1)*%
X110140000Y-92356000D03*
D14*
%TO.P,J2,2,Pin_2*%
%TO.N,+3V3*%
X110140000Y-96316000D03*
%TO.P,J2,3,Pin_3*%
%TO.N,/Cancel*%
X110140000Y-100276000D03*
%TO.P,J2,4,Pin_4*%
%TO.N,/Door Unlocked*%
X110140000Y-104236000D03*
%TO.P,J2,5,Pin_5*%
%TO.N,/Door Locked*%
X110140000Y-108196000D03*
%TO.P,J2,6,Pin_6*%
%TO.N,/Door Open*%
X110140000Y-112156000D03*
%TO.P,J2,7,Pin_7*%
%TO.N,+3V3*%
X110140000Y-116116000D03*
%TD*%
D21*
%TO.P,U3,1,GND*%
%TO.N,GND*%
X124380000Y-91880000D03*
%TO.P,U3,2,DI*%
%TO.N,/LED*%
X124380000Y-94020000D03*
%TO.P,U3,3,VDD*%
%TO.N,+3V3*%
X121200000Y-94020000D03*
%TO.P,U3,4,DO*%
%TO.N,unconnected-(U3-Pad4)*%
X121200000Y-91880000D03*
%TD*%
D22*
%TO.P,TC1,1,+*%
%TO.N,Net-(FB1-Pad1)*%
X175950000Y-95500000D03*
%TO.P,TC1,2,-*%
%TO.N,Net-(FB2-Pad1)*%
X168050000Y-95500000D03*
%TD*%
D23*
%TO.N,+3V3*%
X165400000Y-110050000D03*
X119500000Y-94000000D03*
X152750000Y-86000000D03*
X132690000Y-85925000D03*
%TO.N,GND*%
X112000000Y-125625000D03*
X175940000Y-93556000D03*
X183000000Y-80750000D03*
X184000000Y-81750000D03*
X175574000Y-111290000D03*
X173000000Y-111000000D03*
X170000000Y-116000000D03*
X172000000Y-110000000D03*
X166750000Y-102000000D03*
X178250000Y-107500000D03*
X117883750Y-112156000D03*
X164750000Y-114750000D03*
X184000000Y-93750000D03*
X178000000Y-114750000D03*
X177000000Y-111000000D03*
X167750000Y-113750000D03*
X184000000Y-87750000D03*
X179750000Y-119750000D03*
X161000000Y-97750000D03*
X169500000Y-105500000D03*
X117883750Y-100276000D03*
X166750000Y-99000000D03*
X132690000Y-84425000D03*
X166000000Y-111500000D03*
X165000000Y-124000000D03*
X166750000Y-103250000D03*
X177340000Y-94156000D03*
X161000000Y-95750000D03*
X174740000Y-96956000D03*
X161000000Y-99750000D03*
X168487500Y-108850000D03*
X173000000Y-100750000D03*
X179000000Y-80750000D03*
X184000000Y-99750000D03*
X165000000Y-126250000D03*
X184000000Y-113750000D03*
X165000000Y-130500000D03*
X166750000Y-100750000D03*
X161000000Y-107750000D03*
X152815000Y-84425000D03*
X177940000Y-95556000D03*
X170000000Y-80750000D03*
X161750000Y-112750000D03*
X178000000Y-112000000D03*
X126725000Y-123525000D03*
X181250000Y-115250000D03*
X182000000Y-119750000D03*
X184000000Y-119750000D03*
X184000000Y-83750000D03*
X166750000Y-96956000D03*
X166540000Y-94156000D03*
X176000000Y-116000000D03*
X149440000Y-109075000D03*
X184000000Y-111750000D03*
X161000000Y-89750000D03*
X123000000Y-92000000D03*
X161000000Y-83750000D03*
X166000000Y-80750000D03*
X167000000Y-134800000D03*
X177050000Y-98750000D03*
X177000000Y-102000000D03*
X177000000Y-103250000D03*
X128690000Y-84825000D03*
X173250000Y-119750000D03*
X167000000Y-130500000D03*
X169000000Y-119750000D03*
X175750000Y-104000000D03*
X171000000Y-119750000D03*
X163750000Y-111250000D03*
X169500000Y-100750000D03*
X168487500Y-111350000D03*
X167000000Y-119750000D03*
X172000000Y-103000000D03*
X178000000Y-113500000D03*
X162000000Y-80750000D03*
X184000000Y-91750000D03*
X179500000Y-108750000D03*
X175500000Y-119750000D03*
X172500000Y-80750000D03*
X168000000Y-104000000D03*
X177000000Y-80750000D03*
X178000000Y-116000000D03*
X184000000Y-101750000D03*
X175574000Y-110274000D03*
X165000000Y-121750000D03*
X165000000Y-108500000D03*
X175000000Y-80750000D03*
X164000000Y-80750000D03*
X129725000Y-120525000D03*
X161000000Y-93750000D03*
X166000000Y-116000000D03*
X174000000Y-116000000D03*
X177750000Y-119750000D03*
X169940000Y-95556000D03*
X161750000Y-111250000D03*
X171000000Y-111000000D03*
X174500000Y-100750000D03*
X165000000Y-128500000D03*
X167000000Y-132800000D03*
X168000000Y-93556000D03*
X163500000Y-113000000D03*
X181000000Y-80750000D03*
X168000000Y-80750000D03*
X169500000Y-112500000D03*
X173940000Y-95556000D03*
X173000000Y-109000000D03*
X181250000Y-117250000D03*
X180000000Y-118500000D03*
X127725000Y-121525000D03*
X184000000Y-105750000D03*
X161000000Y-87750000D03*
X184000000Y-109750000D03*
X181250000Y-113000000D03*
X161000000Y-103750000D03*
X161000000Y-81750000D03*
X169500000Y-104000000D03*
X174540000Y-94156000D03*
X117883750Y-108196000D03*
X161000000Y-85750000D03*
X112900000Y-124025000D03*
X169250000Y-99000000D03*
X169500000Y-107000000D03*
X172000000Y-113750000D03*
X184000000Y-103750000D03*
X184000000Y-117750000D03*
X167000000Y-138800000D03*
X161000000Y-91750000D03*
X174750000Y-99000000D03*
X172000000Y-116000000D03*
X171000000Y-109000000D03*
X174500000Y-112500000D03*
X184000000Y-89750000D03*
X162750000Y-108750000D03*
X169250000Y-96956000D03*
X161000000Y-105750000D03*
X175000000Y-107500000D03*
X176500000Y-107500000D03*
X117883750Y-104236000D03*
X166140000Y-95556000D03*
X174500000Y-105750000D03*
X165000000Y-119750000D03*
X184000000Y-107750000D03*
X167000000Y-136800000D03*
X168000000Y-116000000D03*
X171000000Y-100750000D03*
X174500000Y-104000000D03*
X169540000Y-94250000D03*
X181000000Y-110500000D03*
X177000000Y-100750000D03*
X184000000Y-97750000D03*
X166938000Y-106718000D03*
X161000000Y-101750000D03*
X184000000Y-85750000D03*
X184000000Y-115750000D03*
X184000000Y-95750000D03*
X177140000Y-96956000D03*
%TO.N,/Door Locked*%
X113640000Y-108196000D03*
%TO.N,/Door Unlocked*%
X113640000Y-104236000D03*
%TO.N,/Door Open*%
X113640000Y-112156000D03*
%TO.N,/Fan_High*%
X152800000Y-102400000D03*
%TO.N,/Fan_Low*%
X153000000Y-101000000D03*
%TO.N,/Down_Draft_High*%
X152800000Y-95000000D03*
%TO.N,/Down_Draft_Low*%
X152800000Y-93400000D03*
%TO.N,/Cooling Fan*%
X152800000Y-96400000D03*
%TO.N,/Cancel*%
X113640000Y-100276000D03*
%TO.N,/SDA*%
X152750000Y-89000000D03*
%TO.N,/SCL*%
X152750000Y-87500000D03*
%TO.N,/Light*%
X153000000Y-99400000D03*
%TO.N,/LED*%
X132500000Y-95000000D03*
%TD*%
D24*
%TO.N,+3V3*%
X120500000Y-89500000D02*
X119500000Y-90500000D01*
X161500000Y-131800000D02*
X163900000Y-131800000D01*
X123400000Y-115100000D02*
X122500000Y-116000000D01*
X124267000Y-115967000D02*
X123400000Y-115100000D01*
X160500000Y-110500000D02*
X160500000Y-117400000D01*
X130033000Y-115967000D02*
X124267000Y-115967000D01*
X119500000Y-106500000D02*
X119500000Y-94000000D01*
D25*
X160500000Y-110500000D02*
X157875000Y-107875000D01*
D24*
X165000000Y-136500000D02*
X164000000Y-137500000D01*
X160500000Y-130800000D02*
X161500000Y-131800000D01*
X110256000Y-116000000D02*
X110140000Y-116116000D01*
X131020000Y-135000000D02*
X131020000Y-116954000D01*
X132690000Y-85925000D02*
X129115000Y-89500000D01*
D25*
X119520000Y-94020000D02*
X119500000Y-94000000D01*
X154250000Y-87500000D02*
X152750000Y-86000000D01*
X157875000Y-107875000D02*
X157875000Y-94625000D01*
D24*
X121834000Y-108834000D02*
X119500000Y-106500000D01*
D25*
X121200000Y-94020000D02*
X119520000Y-94020000D01*
D24*
X160500000Y-117400000D02*
X160500000Y-130800000D01*
X165400000Y-110050000D02*
X165350000Y-110000000D01*
D25*
X154250000Y-91000000D02*
X154250000Y-87500000D01*
D24*
X107500000Y-115000000D02*
X107500000Y-97500000D01*
X119500000Y-90500000D02*
X119500000Y-93000000D01*
X131020000Y-136520000D02*
X131020000Y-135000000D01*
X108684000Y-96316000D02*
X107500000Y-97500000D01*
D25*
X157875000Y-94625000D02*
X154250000Y-91000000D01*
D24*
X160500000Y-117400000D02*
X160400000Y-117500000D01*
X110140000Y-116116000D02*
X108616000Y-116116000D01*
X122500000Y-116000000D02*
X110256000Y-116000000D01*
X123400000Y-108834000D02*
X121834000Y-108834000D01*
X123400000Y-108834000D02*
X123400000Y-112400000D01*
X160400000Y-117500000D02*
X158968000Y-117500000D01*
X129115000Y-89500000D02*
X120500000Y-89500000D01*
X110140000Y-96316000D02*
X108684000Y-96316000D01*
X132000000Y-137500000D02*
X131020000Y-136520000D01*
X165350000Y-110000000D02*
X161000000Y-110000000D01*
X131020000Y-116954000D02*
X130033000Y-115967000D01*
X123400000Y-115100000D02*
X123400000Y-112400000D01*
X163900000Y-131800000D02*
X165000000Y-132900000D01*
X165000000Y-132900000D02*
X165000000Y-136500000D01*
X161000000Y-110000000D02*
X160500000Y-110500000D01*
X119500000Y-94000000D02*
X119500000Y-93000000D01*
X164000000Y-137500000D02*
X132000000Y-137500000D01*
X108616000Y-116116000D02*
X107500000Y-115000000D01*
D25*
%TO.N,GND*%
X123000000Y-92000000D02*
X124260000Y-92000000D01*
X124260000Y-92000000D02*
X124380000Y-91880000D01*
%TO.N,/Door Locked*%
X110140000Y-108196000D02*
X113640000Y-108196000D01*
%TO.N,/Door Unlocked*%
X110140000Y-104236000D02*
X113640000Y-104236000D01*
%TO.N,/Door Open*%
X110140000Y-112156000D02*
X113640000Y-112156000D01*
%TO.N,/Fan_High*%
X153000000Y-128260000D02*
X146260000Y-135000000D01*
X153000000Y-102600000D02*
X153000000Y-128260000D01*
%TO.N,/Fan_Low*%
X153000000Y-101000000D02*
X153600000Y-101600000D01*
X153600000Y-101600000D02*
X153600000Y-130200000D01*
X153600000Y-130200000D02*
X148800000Y-135000000D01*
%TO.N,/Down_Draft_High*%
X155400000Y-133980000D02*
X155400000Y-97600000D01*
X156420000Y-135000000D02*
X155400000Y-133980000D01*
X155400000Y-97600000D02*
X152800000Y-95000000D01*
%TO.N,/Down_Draft_Low*%
X156000000Y-132040000D02*
X156000000Y-96600000D01*
X156000000Y-96600000D02*
X152800000Y-93400000D01*
X158960000Y-135000000D02*
X156000000Y-132040000D01*
%TO.N,/Cooling Fan*%
X152800000Y-96400000D02*
X154800000Y-98400000D01*
X154800000Y-134080000D02*
X153880000Y-135000000D01*
X154800000Y-98400000D02*
X154800000Y-134080000D01*
%TO.N,/Cancel*%
X113640000Y-100276000D02*
X110140000Y-100276000D01*
%TO.N,/SDA*%
X158540000Y-120040000D02*
X156600000Y-118100000D01*
X152750000Y-91500000D02*
X152750000Y-89000000D01*
X156600000Y-95350000D02*
X152750000Y-91500000D01*
X156600000Y-118100000D02*
X156600000Y-95350000D01*
%TO.N,/SCL*%
X153587000Y-91337000D02*
X153587000Y-88337000D01*
X153587000Y-88337000D02*
X152750000Y-87500000D01*
X157200000Y-113200000D02*
X157200000Y-94950000D01*
X157200000Y-94950000D02*
X153587000Y-91337000D01*
X158960000Y-114960000D02*
X157200000Y-113200000D01*
%TO.N,/Light*%
X154200000Y-100600000D02*
X154200000Y-132140000D01*
X154200000Y-132140000D02*
X151340000Y-135000000D01*
X153000000Y-99400000D02*
X154200000Y-100600000D01*
%TO.N,/LED*%
X125360000Y-95000000D02*
X124380000Y-94020000D01*
X132500000Y-95000000D02*
X125360000Y-95000000D01*
%TD*%
%TA.AperFunction,Conductor*%
%TO.N,GND*%
G36*
X184433621Y-80528502D02*
G01*
X184480114Y-80582158D01*
X184491500Y-80634500D01*
X184491500Y-132700412D01*
X184471498Y-132768533D01*
X184417842Y-132815026D01*
X184347568Y-132825130D01*
X184282988Y-132795636D01*
X184254300Y-132759662D01*
X184143936Y-132552535D01*
X184141085Y-132547713D01*
X183909974Y-132193865D01*
X183906692Y-132189297D01*
X183645030Y-131857380D01*
X183641382Y-131853155D01*
X183588103Y-131796715D01*
X183574389Y-131788705D01*
X183573517Y-131788742D01*
X183565438Y-131793772D01*
X183165717Y-132193493D01*
X182280419Y-133078790D01*
X181754332Y-133604878D01*
X180372022Y-134987188D01*
X180364408Y-135001132D01*
X180364539Y-135002965D01*
X180368790Y-135009580D01*
X181754331Y-136395121D01*
X182260492Y-136901283D01*
X182280418Y-136921209D01*
X183165716Y-137806506D01*
X183562142Y-138202932D01*
X183575903Y-138210446D01*
X183585263Y-138203989D01*
X183754244Y-138011303D01*
X183757744Y-138006935D01*
X184007073Y-137665645D01*
X184010168Y-137660987D01*
X184228160Y-137298903D01*
X184230841Y-137293964D01*
X184252204Y-137250067D01*
X184299998Y-137197567D01*
X184368589Y-137179241D01*
X184436199Y-137200907D01*
X184481362Y-137255686D01*
X184491500Y-137305203D01*
X184491500Y-139365500D01*
X184471498Y-139433621D01*
X184417842Y-139480114D01*
X184365500Y-139491500D01*
X182299988Y-139491500D01*
X182231867Y-139471498D01*
X182185374Y-139417842D01*
X182175270Y-139347568D01*
X182204764Y-139282988D01*
X182240156Y-139254612D01*
X182469131Y-139131063D01*
X182473935Y-139128188D01*
X182826563Y-138895231D01*
X182831126Y-138891916D01*
X183161658Y-138628529D01*
X183165873Y-138624852D01*
X183203823Y-138588649D01*
X183211763Y-138574890D01*
X183211713Y-138573843D01*
X183206822Y-138566032D01*
X182806507Y-138165717D01*
X181921210Y-137280419D01*
X181395122Y-136754332D01*
X180012812Y-135372022D01*
X179998868Y-135364408D01*
X179997035Y-135364539D01*
X179990420Y-135368790D01*
X178604879Y-136754331D01*
X177719581Y-137639628D01*
X177193494Y-138165716D01*
X176796736Y-138562474D01*
X176789122Y-138576418D01*
X176789171Y-138577110D01*
X176794617Y-138585274D01*
X176872268Y-138657812D01*
X176876507Y-138661433D01*
X177209802Y-138921363D01*
X177214359Y-138924602D01*
X177569448Y-139153880D01*
X177574267Y-139156696D01*
X177759196Y-139253992D01*
X177810169Y-139303411D01*
X177826332Y-139372543D01*
X177802553Y-139439440D01*
X177746383Y-139482860D01*
X177700529Y-139491500D01*
X160626000Y-139491500D01*
X160557879Y-139471498D01*
X160511386Y-139417842D01*
X160500000Y-139365500D01*
X160500000Y-138384500D01*
X160520002Y-138316379D01*
X160573658Y-138269886D01*
X160626000Y-138258500D01*
X163932930Y-138258500D01*
X163951880Y-138259933D01*
X163966115Y-138262099D01*
X163966119Y-138262099D01*
X163973349Y-138263199D01*
X163980641Y-138262606D01*
X163980644Y-138262606D01*
X164026018Y-138258915D01*
X164036233Y-138258500D01*
X164044293Y-138258500D01*
X164057583Y-138256951D01*
X164072507Y-138255211D01*
X164076882Y-138254778D01*
X164142339Y-138249454D01*
X164142342Y-138249453D01*
X164149637Y-138248860D01*
X164156601Y-138246604D01*
X164162560Y-138245413D01*
X164168415Y-138244029D01*
X164175681Y-138243182D01*
X164244327Y-138218265D01*
X164248455Y-138216848D01*
X164310936Y-138196607D01*
X164310938Y-138196606D01*
X164317899Y-138194351D01*
X164324154Y-138190555D01*
X164329628Y-138188049D01*
X164335058Y-138185330D01*
X164341937Y-138182833D01*
X164402976Y-138142814D01*
X164406680Y-138140477D01*
X164469107Y-138102595D01*
X164477484Y-138095197D01*
X164477508Y-138095224D01*
X164480500Y-138092571D01*
X164483733Y-138089868D01*
X164489852Y-138085856D01*
X164543128Y-138029617D01*
X164545506Y-138027175D01*
X165488911Y-137083770D01*
X165503323Y-137071384D01*
X165514918Y-137062851D01*
X165514923Y-137062846D01*
X165520818Y-137058508D01*
X165525557Y-137052930D01*
X165525560Y-137052927D01*
X165555035Y-137018232D01*
X165561965Y-137010716D01*
X165567661Y-137005020D01*
X165569924Y-137002159D01*
X165569929Y-137002154D01*
X165585293Y-136982734D01*
X165588082Y-136979333D01*
X165630592Y-136929296D01*
X165630594Y-136929294D01*
X165635333Y-136923715D01*
X165638662Y-136917195D01*
X165642028Y-136912148D01*
X165645193Y-136907024D01*
X165649735Y-136901283D01*
X165680637Y-136835164D01*
X165682565Y-136831218D01*
X165712442Y-136772708D01*
X165712443Y-136772706D01*
X165715769Y-136766192D01*
X165717508Y-136759086D01*
X165719609Y-136753436D01*
X165721524Y-136747679D01*
X165724622Y-136741050D01*
X165739491Y-136669565D01*
X165740461Y-136665282D01*
X165757808Y-136594390D01*
X165758500Y-136583236D01*
X165758535Y-136583238D01*
X165758775Y-136579266D01*
X165759152Y-136575045D01*
X165760641Y-136567885D01*
X165758546Y-136490458D01*
X165758500Y-136487050D01*
X165758500Y-134876825D01*
X175188855Y-134876825D01*
X175196600Y-135299410D01*
X175196950Y-135304976D01*
X175242231Y-135725208D01*
X175243078Y-135730746D01*
X175325535Y-136145286D01*
X175326864Y-136150698D01*
X175445852Y-136556289D01*
X175447658Y-136561564D01*
X175602219Y-136954948D01*
X175604501Y-136960072D01*
X175793416Y-137338150D01*
X175796140Y-137343043D01*
X176017917Y-137702833D01*
X176021068Y-137707469D01*
X176273955Y-138046127D01*
X176277488Y-138050444D01*
X176413222Y-138201988D01*
X176426717Y-138210351D01*
X176436128Y-138204662D01*
X176834283Y-137806507D01*
X177719581Y-136921210D01*
X177739507Y-136901284D01*
X178245668Y-136395122D01*
X179627978Y-135012812D01*
X179635592Y-134998868D01*
X179635461Y-134997035D01*
X179631210Y-134990420D01*
X178245669Y-133604879D01*
X177360372Y-132719581D01*
X176834284Y-132193494D01*
X176435561Y-131794771D01*
X176422253Y-131787504D01*
X176412214Y-131794626D01*
X176168223Y-132087994D01*
X176164828Y-132092467D01*
X175924528Y-132440152D01*
X175921549Y-132444902D01*
X175713106Y-132812575D01*
X175710562Y-132817568D01*
X175535629Y-133202312D01*
X175533538Y-133207511D01*
X175393498Y-133606290D01*
X175391877Y-133611659D01*
X175287840Y-134021303D01*
X175286706Y-134026776D01*
X175219496Y-134444054D01*
X175218851Y-134449632D01*
X175189002Y-134871204D01*
X175188855Y-134876825D01*
X165758500Y-134876825D01*
X165758500Y-132967070D01*
X165759933Y-132948120D01*
X165762099Y-132933885D01*
X165762099Y-132933881D01*
X165763199Y-132926651D01*
X165758915Y-132873982D01*
X165758500Y-132863767D01*
X165758500Y-132855707D01*
X165755209Y-132827480D01*
X165754778Y-132823121D01*
X165753920Y-132812575D01*
X165748860Y-132750364D01*
X165746605Y-132743403D01*
X165745418Y-132737463D01*
X165744029Y-132731588D01*
X165743182Y-132724319D01*
X165718264Y-132655670D01*
X165716847Y-132651542D01*
X165696607Y-132589064D01*
X165696606Y-132589062D01*
X165694351Y-132582101D01*
X165690555Y-132575846D01*
X165688049Y-132570372D01*
X165685330Y-132564942D01*
X165682833Y-132558063D01*
X165655104Y-132515769D01*
X165642814Y-132497024D01*
X165640467Y-132493305D01*
X165633950Y-132482565D01*
X165602595Y-132430893D01*
X165595197Y-132422516D01*
X165595224Y-132422492D01*
X165592571Y-132419500D01*
X165589868Y-132416267D01*
X165585856Y-132410148D01*
X165529617Y-132356872D01*
X165527175Y-132354494D01*
X164597137Y-131424456D01*
X176788031Y-131424456D01*
X176794139Y-131434929D01*
X177193493Y-131834283D01*
X177654864Y-132295655D01*
X177719580Y-132360371D01*
X178604878Y-133245668D01*
X179987188Y-134627978D01*
X180001132Y-134635592D01*
X180002965Y-134635461D01*
X180009580Y-134631210D01*
X181395121Y-133245669D01*
X182280419Y-132360372D01*
X182345135Y-132295656D01*
X182806506Y-131834284D01*
X183202754Y-131438036D01*
X183210316Y-131424187D01*
X183203987Y-131414962D01*
X183030928Y-131261582D01*
X183026561Y-131258046D01*
X182686600Y-131006948D01*
X182681947Y-131003821D01*
X182320995Y-130783926D01*
X182316094Y-130781232D01*
X181937027Y-130594297D01*
X181931904Y-130592048D01*
X181537707Y-130439545D01*
X181532417Y-130437765D01*
X181126218Y-130320904D01*
X181120794Y-130319602D01*
X180705822Y-130239316D01*
X180700293Y-130238500D01*
X180279828Y-130195420D01*
X180274247Y-130195098D01*
X179851635Y-130189566D01*
X179846024Y-130189742D01*
X179424593Y-130221800D01*
X179419036Y-130222472D01*
X179002128Y-130291864D01*
X178996631Y-130293032D01*
X178587547Y-130399209D01*
X178582181Y-130400861D01*
X178184153Y-130542983D01*
X178178965Y-130545100D01*
X177795133Y-130722050D01*
X177790164Y-130724614D01*
X177423581Y-130934984D01*
X177418848Y-130937987D01*
X177072420Y-131180109D01*
X177067979Y-131183517D01*
X176796476Y-131411739D01*
X176788031Y-131424456D01*
X164597137Y-131424456D01*
X164483770Y-131311089D01*
X164471384Y-131296677D01*
X164462851Y-131285082D01*
X164462846Y-131285077D01*
X164458508Y-131279182D01*
X164452930Y-131274443D01*
X164452927Y-131274440D01*
X164418232Y-131244965D01*
X164410716Y-131238035D01*
X164405021Y-131232340D01*
X164398880Y-131227482D01*
X164382749Y-131214719D01*
X164379345Y-131211928D01*
X164329297Y-131169409D01*
X164329295Y-131169408D01*
X164323715Y-131164667D01*
X164317199Y-131161339D01*
X164312150Y-131157972D01*
X164307021Y-131154805D01*
X164301284Y-131150266D01*
X164235125Y-131119345D01*
X164231225Y-131117439D01*
X164166192Y-131084231D01*
X164159084Y-131082492D01*
X164153441Y-131080393D01*
X164147678Y-131078476D01*
X164141050Y-131075378D01*
X164069583Y-131060513D01*
X164065299Y-131059543D01*
X163994390Y-131042192D01*
X163988788Y-131041844D01*
X163988785Y-131041844D01*
X163983236Y-131041500D01*
X163983238Y-131041464D01*
X163979245Y-131041225D01*
X163975053Y-131040851D01*
X163967885Y-131039360D01*
X163901675Y-131041151D01*
X163890479Y-131041454D01*
X163887072Y-131041500D01*
X161866371Y-131041500D01*
X161798250Y-131021498D01*
X161777276Y-131004595D01*
X161295405Y-130522724D01*
X161261379Y-130460412D01*
X161258500Y-130433629D01*
X161258500Y-117487941D01*
X161258999Y-117476740D01*
X161259150Y-117475050D01*
X161260640Y-117467885D01*
X161258546Y-117390479D01*
X161258500Y-117387072D01*
X161258500Y-110884500D01*
X161278502Y-110816379D01*
X161332158Y-110769886D01*
X161384500Y-110758500D01*
X164788595Y-110758500D01*
X164856716Y-110778502D01*
X164862656Y-110782564D01*
X164943248Y-110841118D01*
X164949276Y-110843802D01*
X164949278Y-110843803D01*
X165040686Y-110884500D01*
X165117712Y-110918794D01*
X165211113Y-110938647D01*
X165298056Y-110957128D01*
X165298061Y-110957128D01*
X165304513Y-110958500D01*
X165495487Y-110958500D01*
X165501939Y-110957128D01*
X165501944Y-110957128D01*
X165588887Y-110938647D01*
X165682288Y-110918794D01*
X165759314Y-110884500D01*
X165850722Y-110843803D01*
X165850724Y-110843802D01*
X165856752Y-110841118D01*
X165893828Y-110814181D01*
X165970465Y-110758500D01*
X166011253Y-110728866D01*
X166139040Y-110586944D01*
X166234527Y-110421556D01*
X166293542Y-110239928D01*
X166313504Y-110050000D01*
X166293542Y-109860072D01*
X166234527Y-109678444D01*
X166139040Y-109513056D01*
X166034908Y-109397405D01*
X166015675Y-109376045D01*
X166015674Y-109376044D01*
X166011253Y-109371134D01*
X165912157Y-109299136D01*
X165862094Y-109262763D01*
X165862093Y-109262762D01*
X165856752Y-109258882D01*
X165850724Y-109256198D01*
X165850722Y-109256197D01*
X165688319Y-109183891D01*
X165688318Y-109183891D01*
X165682288Y-109181206D01*
X165588887Y-109161353D01*
X165501944Y-109142872D01*
X165501939Y-109142872D01*
X165495487Y-109141500D01*
X165304513Y-109141500D01*
X165298061Y-109142872D01*
X165298056Y-109142872D01*
X165211112Y-109161353D01*
X165117712Y-109181206D01*
X165111682Y-109183891D01*
X165111681Y-109183891D01*
X165006755Y-109230607D01*
X164955506Y-109241500D01*
X161067070Y-109241500D01*
X161048120Y-109240067D01*
X161033885Y-109237901D01*
X161033881Y-109237901D01*
X161026651Y-109236801D01*
X161019359Y-109237394D01*
X161019356Y-109237394D01*
X160973982Y-109241085D01*
X160963767Y-109241500D01*
X160955707Y-109241500D01*
X160952073Y-109241924D01*
X160952067Y-109241924D01*
X160939042Y-109243443D01*
X160927480Y-109244791D01*
X160923132Y-109245221D01*
X160850364Y-109251140D01*
X160843403Y-109253395D01*
X160837463Y-109254582D01*
X160831588Y-109255971D01*
X160824319Y-109256818D01*
X160755670Y-109281736D01*
X160751542Y-109283153D01*
X160689067Y-109303392D01*
X160689065Y-109303393D01*
X160682101Y-109305649D01*
X160677612Y-109308373D01*
X160608191Y-109318424D01*
X160543581Y-109288994D01*
X160505139Y-109229306D01*
X160500000Y-109193689D01*
X160500000Y-95453839D01*
X166287173Y-95453839D01*
X166299713Y-95714908D01*
X166350704Y-95971256D01*
X166439026Y-96217252D01*
X166441242Y-96221376D01*
X166505753Y-96341437D01*
X166562737Y-96447491D01*
X166565532Y-96451234D01*
X166565534Y-96451237D01*
X166716330Y-96653177D01*
X166716335Y-96653183D01*
X166719122Y-96656915D01*
X166722431Y-96660195D01*
X166722436Y-96660201D01*
X166901426Y-96837635D01*
X166904743Y-96840923D01*
X166908505Y-96843681D01*
X166908508Y-96843684D01*
X167111750Y-96992707D01*
X167115524Y-96995474D01*
X167119667Y-96997654D01*
X167119669Y-96997655D01*
X167342684Y-97114989D01*
X167342689Y-97114991D01*
X167346834Y-97117172D01*
X167593590Y-97203344D01*
X167598183Y-97204216D01*
X167845785Y-97251224D01*
X167845788Y-97251224D01*
X167850374Y-97252095D01*
X167980958Y-97257226D01*
X168106875Y-97262174D01*
X168106881Y-97262174D01*
X168111543Y-97262357D01*
X168190977Y-97253657D01*
X168366707Y-97234412D01*
X168366712Y-97234411D01*
X168371360Y-97233902D01*
X168484116Y-97204216D01*
X168619594Y-97168548D01*
X168619596Y-97168547D01*
X168624117Y-97167357D01*
X168864262Y-97064182D01*
X169086519Y-96926646D01*
X169090082Y-96923629D01*
X169090087Y-96923626D01*
X169282439Y-96760787D01*
X169282440Y-96760786D01*
X169286005Y-96757768D01*
X169377729Y-96653177D01*
X169455257Y-96564774D01*
X169455261Y-96564769D01*
X169458339Y-96561259D01*
X169599733Y-96341437D01*
X169707083Y-96103129D01*
X169778030Y-95851572D01*
X169794832Y-95719496D01*
X169810616Y-95595421D01*
X169810616Y-95595417D01*
X169811014Y-95592291D01*
X169813431Y-95500000D01*
X169810001Y-95453839D01*
X174187173Y-95453839D01*
X174199713Y-95714908D01*
X174250704Y-95971256D01*
X174339026Y-96217252D01*
X174341242Y-96221376D01*
X174405753Y-96341437D01*
X174462737Y-96447491D01*
X174465532Y-96451234D01*
X174465534Y-96451237D01*
X174616330Y-96653177D01*
X174616335Y-96653183D01*
X174619122Y-96656915D01*
X174622431Y-96660195D01*
X174622436Y-96660201D01*
X174801426Y-96837635D01*
X174804743Y-96840923D01*
X174808505Y-96843681D01*
X174808508Y-96843684D01*
X175011750Y-96992707D01*
X175015524Y-96995474D01*
X175019667Y-96997654D01*
X175019669Y-96997655D01*
X175242684Y-97114989D01*
X175242689Y-97114991D01*
X175246834Y-97117172D01*
X175493590Y-97203344D01*
X175498183Y-97204216D01*
X175745785Y-97251224D01*
X175745788Y-97251224D01*
X175750374Y-97252095D01*
X175880958Y-97257226D01*
X176006875Y-97262174D01*
X176006881Y-97262174D01*
X176011543Y-97262357D01*
X176090977Y-97253657D01*
X176266707Y-97234412D01*
X176266712Y-97234411D01*
X176271360Y-97233902D01*
X176384116Y-97204216D01*
X176519594Y-97168548D01*
X176519596Y-97168547D01*
X176524117Y-97167357D01*
X176764262Y-97064182D01*
X176986519Y-96926646D01*
X176990082Y-96923629D01*
X176990087Y-96923626D01*
X177182439Y-96760787D01*
X177182440Y-96760786D01*
X177186005Y-96757768D01*
X177277729Y-96653177D01*
X177355257Y-96564774D01*
X177355261Y-96564769D01*
X177358339Y-96561259D01*
X177499733Y-96341437D01*
X177607083Y-96103129D01*
X177678030Y-95851572D01*
X177694832Y-95719496D01*
X177710616Y-95595421D01*
X177710616Y-95595417D01*
X177711014Y-95592291D01*
X177713431Y-95500000D01*
X177694061Y-95239348D01*
X177682725Y-95189248D01*
X177637408Y-94988980D01*
X177636377Y-94984423D01*
X177541647Y-94740823D01*
X177411951Y-94513902D01*
X177250138Y-94308643D01*
X177059763Y-94129557D01*
X176845009Y-93980576D01*
X176840816Y-93978508D01*
X176614781Y-93867040D01*
X176614778Y-93867039D01*
X176610593Y-93864975D01*
X176564449Y-93850204D01*
X176366123Y-93786720D01*
X176361665Y-93785293D01*
X176103693Y-93743279D01*
X175989942Y-93741790D01*
X175847022Y-93739919D01*
X175847019Y-93739919D01*
X175842345Y-93739858D01*
X175583362Y-93775104D01*
X175332433Y-93848243D01*
X175328180Y-93850203D01*
X175328179Y-93850204D01*
X175291659Y-93867040D01*
X175095072Y-93957668D01*
X175056067Y-93983241D01*
X174880404Y-94098410D01*
X174880399Y-94098414D01*
X174876491Y-94100976D01*
X174681494Y-94275018D01*
X174514363Y-94475970D01*
X174378771Y-94699419D01*
X174277697Y-94940455D01*
X174213359Y-95193783D01*
X174187173Y-95453839D01*
X169810001Y-95453839D01*
X169794061Y-95239348D01*
X169782725Y-95189248D01*
X169737408Y-94988980D01*
X169736377Y-94984423D01*
X169641647Y-94740823D01*
X169511951Y-94513902D01*
X169350138Y-94308643D01*
X169159763Y-94129557D01*
X168945009Y-93980576D01*
X168940816Y-93978508D01*
X168714781Y-93867040D01*
X168714778Y-93867039D01*
X168710593Y-93864975D01*
X168664449Y-93850204D01*
X168466123Y-93786720D01*
X168461665Y-93785293D01*
X168203693Y-93743279D01*
X168089942Y-93741790D01*
X167947022Y-93739919D01*
X167947019Y-93739919D01*
X167942345Y-93739858D01*
X167683362Y-93775104D01*
X167432433Y-93848243D01*
X167428180Y-93850203D01*
X167428179Y-93850204D01*
X167391659Y-93867040D01*
X167195072Y-93957668D01*
X167156067Y-93983241D01*
X166980404Y-94098410D01*
X166980399Y-94098414D01*
X166976491Y-94100976D01*
X166781494Y-94275018D01*
X166614363Y-94475970D01*
X166478771Y-94699419D01*
X166377697Y-94940455D01*
X166313359Y-95193783D01*
X166287173Y-95453839D01*
X160500000Y-95453839D01*
X160500000Y-85292277D01*
X170137009Y-85292277D01*
X170162625Y-85560769D01*
X170163710Y-85565203D01*
X170163711Y-85565209D01*
X170225645Y-85818312D01*
X170226731Y-85822750D01*
X170327985Y-86072733D01*
X170464265Y-86305482D01*
X170467118Y-86309049D01*
X170584686Y-86456060D01*
X170632716Y-86516119D01*
X170829809Y-86700234D01*
X171051416Y-86853968D01*
X171055499Y-86855999D01*
X171055502Y-86856001D01*
X171171013Y-86913466D01*
X171292894Y-86974101D01*
X171297228Y-86975522D01*
X171297231Y-86975523D01*
X171544853Y-87056698D01*
X171544859Y-87056699D01*
X171549186Y-87058118D01*
X171553677Y-87058898D01*
X171553678Y-87058898D01*
X171811140Y-87103601D01*
X171811148Y-87103602D01*
X171814921Y-87104257D01*
X171818758Y-87104448D01*
X171898578Y-87108422D01*
X171898586Y-87108422D01*
X171900149Y-87108500D01*
X172068512Y-87108500D01*
X172070780Y-87108335D01*
X172070792Y-87108335D01*
X172201884Y-87098823D01*
X172269004Y-87093953D01*
X172273459Y-87092969D01*
X172273462Y-87092969D01*
X172527912Y-87036791D01*
X172527916Y-87036790D01*
X172532372Y-87035806D01*
X172658480Y-86988028D01*
X172780318Y-86941868D01*
X172780321Y-86941867D01*
X172784588Y-86940250D01*
X173020368Y-86809286D01*
X173234773Y-86645657D01*
X173423312Y-86452792D01*
X173582034Y-86234730D01*
X173665190Y-86076676D01*
X173705490Y-86000079D01*
X173705493Y-86000073D01*
X173707615Y-85996039D01*
X173770378Y-85818312D01*
X173795902Y-85746033D01*
X173795902Y-85746032D01*
X173797425Y-85741720D01*
X173849581Y-85477100D01*
X173858782Y-85292277D01*
X173862764Y-85212292D01*
X173862764Y-85212286D01*
X173862991Y-85207723D01*
X173837375Y-84939231D01*
X173792042Y-84753967D01*
X173774355Y-84681688D01*
X173773269Y-84677250D01*
X173672015Y-84427267D01*
X173535735Y-84194518D01*
X173417928Y-84047208D01*
X173370136Y-83987447D01*
X173370135Y-83987445D01*
X173367284Y-83983881D01*
X173170191Y-83799766D01*
X172948584Y-83646032D01*
X172944501Y-83644001D01*
X172944498Y-83643999D01*
X172779606Y-83561967D01*
X172707106Y-83525899D01*
X172702772Y-83524478D01*
X172702769Y-83524477D01*
X172455147Y-83443302D01*
X172455141Y-83443301D01*
X172450814Y-83441882D01*
X172446322Y-83441102D01*
X172188860Y-83396399D01*
X172188852Y-83396398D01*
X172185079Y-83395743D01*
X172173817Y-83395182D01*
X172101422Y-83391578D01*
X172101414Y-83391578D01*
X172099851Y-83391500D01*
X171931488Y-83391500D01*
X171929220Y-83391665D01*
X171929208Y-83391665D01*
X171798116Y-83401177D01*
X171730996Y-83406047D01*
X171726541Y-83407031D01*
X171726538Y-83407031D01*
X171472088Y-83463209D01*
X171472084Y-83463210D01*
X171467628Y-83464194D01*
X171341520Y-83511972D01*
X171219682Y-83558132D01*
X171219679Y-83558133D01*
X171215412Y-83559750D01*
X170979632Y-83690714D01*
X170765227Y-83854343D01*
X170576688Y-84047208D01*
X170417966Y-84265270D01*
X170415844Y-84269304D01*
X170294510Y-84499921D01*
X170294507Y-84499927D01*
X170292385Y-84503961D01*
X170290865Y-84508266D01*
X170290863Y-84508270D01*
X170204098Y-84753967D01*
X170202575Y-84758280D01*
X170150419Y-85022900D01*
X170150192Y-85027453D01*
X170150192Y-85027456D01*
X170140991Y-85212292D01*
X170137009Y-85292277D01*
X160500000Y-85292277D01*
X160500000Y-80634500D01*
X160520002Y-80566379D01*
X160573658Y-80519886D01*
X160626000Y-80508500D01*
X184365500Y-80508500D01*
X184433621Y-80528502D01*
G37*
%TD.AperFunction*%
%TD*%
M02*
