%TF.GenerationSoftware,KiCad,Pcbnew,6.0.10+dfsg-2*%
%TF.CreationDate,2023-02-01T09:38:31-05:00*%
%TF.ProjectId,ParentsStove,50617265-6e74-4735-9374-6f76652e6b69,rev?*%
%TF.SameCoordinates,Original*%
%TF.FileFunction,Soldermask,Bot*%
%TF.FilePolarity,Negative*%
%FSLAX46Y46*%
G04 Gerber Fmt 4.6, Leading zero omitted, Abs format (unit mm)*
G04 Created by KiCad (PCBNEW 6.0.10+dfsg-2) date 2023-02-01 09:38:31*
%MOMM*%
%LPD*%
G01*
G04 APERTURE LIST*
G04 Aperture macros list*
%AMRoundRect*
0 Rectangle with rounded corners*
0 $1 Rounding radius*
0 $2 $3 $4 $5 $6 $7 $8 $9 X,Y pos of 4 corners*
0 Add a 4 corners polygon primitive as box body*
4,1,4,$2,$3,$4,$5,$6,$7,$8,$9,$2,$3,0*
0 Add four circle primitives for the rounded corners*
1,1,$1+$1,$2,$3*
1,1,$1+$1,$4,$5*
1,1,$1+$1,$6,$7*
1,1,$1+$1,$8,$9*
0 Add four rect primitives between the rounded corners*
20,1,$1+$1,$2,$3,$4,$5,0*
20,1,$1+$1,$4,$5,$6,$7,0*
20,1,$1+$1,$6,$7,$8,$9,0*
20,1,$1+$1,$8,$9,$2,$3,0*%
G04 Aperture macros list end*
%ADD10C,0.800000*%
%ADD11O,0.800000X0.800000*%
%ADD12O,1.800000X1.150000*%
%ADD13O,2.000000X1.450000*%
%ADD14RoundRect,0.250001X-0.949999X-0.949999X0.949999X-0.949999X0.949999X0.949999X-0.949999X0.949999X0*%
%ADD15C,2.400000*%
%ADD16R,1.700000X1.700000*%
%ADD17O,1.700000X1.700000*%
%ADD18C,2.000000*%
%ADD19C,0.900000*%
%ADD20C,8.600000*%
%ADD21RoundRect,0.250001X-0.949999X0.949999X-0.949999X-0.949999X0.949999X-0.949999X0.949999X0.949999X0*%
%ADD22R,1.300000X0.900000*%
%ADD23C,2.700000*%
%ADD24C,2.500000*%
G04 APERTURE END LIST*
D10*
%TO.C,U5*%
X140690000Y-91000000D03*
X142290000Y-94000000D03*
X139990000Y-93225000D03*
X142987200Y-93231800D03*
X140690000Y-92525000D03*
X142290000Y-92525000D03*
X141490000Y-91725000D03*
X139990000Y-91725000D03*
X142990000Y-91725000D03*
X141500000Y-93225000D03*
X142190000Y-91000000D03*
X140690000Y-94000000D03*
%TD*%
D11*
%TO.C,J1*%
X109600000Y-126825000D03*
X109600000Y-121825000D03*
D12*
X106850000Y-128200000D03*
D13*
X110650000Y-120600000D03*
D12*
X106850000Y-120450000D03*
D13*
X110650000Y-128050000D03*
%TD*%
D14*
%TO.C,J7*%
X119020000Y-117982500D03*
D15*
X122980000Y-117982500D03*
%TD*%
D16*
%TO.C,J6*%
X123400000Y-108834000D03*
D17*
X125940000Y-108834000D03*
X123400000Y-106294000D03*
X125940000Y-106294000D03*
X123400000Y-103754000D03*
X125940000Y-103754000D03*
X123400000Y-101214000D03*
X125940000Y-101214000D03*
X123400000Y-98674000D03*
X125940000Y-98674000D03*
%TD*%
D16*
%TO.C,J3*%
X157952000Y-91700000D03*
D17*
X157952000Y-89160000D03*
X157952000Y-86620000D03*
%TD*%
D18*
%TO.C,SW1*%
X118250000Y-82750000D03*
X124750000Y-82750000D03*
X118250000Y-87250000D03*
X124750000Y-87250000D03*
%TD*%
D19*
%TO.C,H4*%
X110000000Y-81775000D03*
X110000000Y-88225000D03*
X112280419Y-87280419D03*
X113225000Y-85000000D03*
X107719581Y-87280419D03*
X106775000Y-85000000D03*
X112280419Y-82719581D03*
X107719581Y-82719581D03*
D20*
X110000000Y-85000000D03*
%TD*%
D19*
%TO.C,H3*%
X180000000Y-131775000D03*
X177719581Y-137280419D03*
X176775000Y-135000000D03*
D20*
X180000000Y-135000000D03*
D19*
X177719581Y-132719581D03*
X182280419Y-132719581D03*
X183225000Y-135000000D03*
X182280419Y-137280419D03*
X180000000Y-138225000D03*
%TD*%
D16*
%TO.C,J5*%
X161500000Y-135000000D03*
D17*
X158960000Y-135000000D03*
X156420000Y-135000000D03*
X153880000Y-135000000D03*
X151340000Y-135000000D03*
X148800000Y-135000000D03*
X146260000Y-135000000D03*
X143720000Y-135000000D03*
X141180000Y-135000000D03*
X138640000Y-135000000D03*
X136100000Y-135000000D03*
X133560000Y-135000000D03*
X131020000Y-135000000D03*
X128480000Y-135000000D03*
%TD*%
D16*
%TO.C,J4*%
X158968000Y-120040000D03*
D17*
X158968000Y-117500000D03*
X158968000Y-114960000D03*
X158968000Y-112420000D03*
%TD*%
D19*
%TO.C,H5*%
X107719581Y-132719581D03*
X112280419Y-137280419D03*
X106775000Y-135000000D03*
X110000000Y-131775000D03*
X113225000Y-135000000D03*
X110000000Y-138225000D03*
D20*
X110000000Y-135000000D03*
D19*
X107719581Y-137280419D03*
X112280419Y-132719581D03*
%TD*%
D21*
%TO.C,J2*%
X110140000Y-92356000D03*
D15*
X110140000Y-96316000D03*
X110140000Y-100276000D03*
X110140000Y-104236000D03*
X110140000Y-108196000D03*
X110140000Y-112156000D03*
X110140000Y-116116000D03*
%TD*%
D22*
%TO.C,U3*%
X124380000Y-91880000D03*
X124380000Y-94020000D03*
X121200000Y-94020000D03*
X121200000Y-91880000D03*
%TD*%
D23*
%TO.C,TC1*%
X172000000Y-85250000D03*
D24*
X175950000Y-95500000D03*
X168050000Y-95500000D03*
%TD*%
M02*
