M48
; DRILL file {KiCad 6.0.10+dfsg-2} date Wed 01 Feb 2023 09:38:33 AM EST
; FORMAT={-:-/ absolute / metric / decimal}
; #@! TF.CreationDate,2023-02-01T09:38:33-05:00
; #@! TF.GenerationSoftware,Kicad,Pcbnew,6.0.10+dfsg-2
; #@! TF.FileFunction,Plated,1,4,PTH
FMAT,2
METRIC
; #@! TA.AperFunction,Plated,PTH,ViaDrill
T1C0.400
; #@! TA.AperFunction,Plated,PTH,ComponentDrill
T2C0.400
; #@! TA.AperFunction,Plated,PTH,ComponentDrill
T3C0.550
; #@! TA.AperFunction,Plated,PTH,ComponentDrill
T4C0.600
; #@! TA.AperFunction,Plated,PTH,ComponentDrill
T5C0.850
; #@! TA.AperFunction,Plated,PTH,ComponentDrill
T6C1.000
; #@! TA.AperFunction,Plated,PTH,ComponentDrill
T7C1.100
; #@! TA.AperFunction,Plated,PTH,ComponentDrill
T8C1.400
; #@! TA.AperFunction,Plated,PTH,ComponentDrill
T9C1.500
; #@! TA.AperFunction,Plated,PTH,ComponentDrill
T10C4.300
%
G90
G05
T1
X112.0Y-125.625
X112.9Y-124.025
X113.64Y-100.276
X113.64Y-104.236
X113.64Y-108.196
X113.64Y-112.156
X117.884Y-100.276
X117.884Y-104.236
X117.884Y-108.196
X117.884Y-112.156
X119.5Y-94.0
X123.0Y-92.0
X126.725Y-123.525
X127.725Y-121.525
X128.69Y-84.825
X129.725Y-120.525
X132.5Y-95.0
X132.69Y-84.425
X132.69Y-85.925
X149.44Y-109.075
X152.75Y-86.0
X152.75Y-87.5
X152.75Y-89.0
X152.8Y-93.4
X152.8Y-95.0
X152.8Y-96.4
X152.8Y-102.4
X152.815Y-84.425
X153.0Y-99.4
X153.0Y-101.0
X161.0Y-81.75
X161.0Y-83.75
X161.0Y-85.75
X161.0Y-87.75
X161.0Y-89.75
X161.0Y-91.75
X161.0Y-93.75
X161.0Y-95.75
X161.0Y-97.75
X161.0Y-99.75
X161.0Y-101.75
X161.0Y-103.75
X161.0Y-105.75
X161.0Y-107.75
X161.75Y-111.25
X161.75Y-112.75
X162.0Y-80.75
X162.75Y-108.75
X163.5Y-113.0
X163.75Y-111.25
X164.0Y-80.75
X164.75Y-114.75
X165.0Y-108.5
X165.0Y-119.75
X165.0Y-121.75
X165.0Y-124.0
X165.0Y-126.25
X165.0Y-128.5
X165.0Y-130.5
X165.4Y-110.05
X166.0Y-80.75
X166.0Y-111.5
X166.0Y-116.0
X166.14Y-95.556
X166.54Y-94.156
X166.75Y-96.956
X166.75Y-99.0
X166.75Y-100.75
X166.75Y-102.0
X166.75Y-103.25
X166.938Y-106.718
X167.0Y-119.75
X167.0Y-130.5
X167.0Y-132.8
X167.0Y-134.8
X167.0Y-136.8
X167.0Y-138.8
X167.75Y-113.75
X168.0Y-80.75
X168.0Y-93.556
X168.0Y-104.0
X168.0Y-116.0
X168.487Y-108.85
X168.487Y-111.35
X169.0Y-119.75
X169.25Y-96.956
X169.25Y-99.0
X169.5Y-100.75
X169.5Y-104.0
X169.5Y-105.5
X169.5Y-107.0
X169.5Y-112.5
X169.54Y-94.25
X169.94Y-95.556
X170.0Y-80.75
X170.0Y-116.0
X171.0Y-100.75
X171.0Y-109.0
X171.0Y-111.0
X171.0Y-119.75
X172.0Y-103.0
X172.0Y-110.0
X172.0Y-113.75
X172.0Y-116.0
X172.5Y-80.75
X173.0Y-100.75
X173.0Y-109.0
X173.0Y-111.0
X173.25Y-119.75
X173.94Y-95.556
X174.0Y-116.0
X174.5Y-100.75
X174.5Y-104.0
X174.5Y-105.75
X174.5Y-112.5
X174.54Y-94.156
X174.74Y-96.956
X174.75Y-99.0
X175.0Y-80.75
X175.0Y-107.5
X175.5Y-119.75
X175.574Y-110.274
X175.574Y-111.29
X175.75Y-104.0
X175.94Y-93.556
X176.0Y-116.0
X176.5Y-107.5
X177.0Y-80.75
X177.0Y-100.75
X177.0Y-102.0
X177.0Y-103.25
X177.0Y-111.0
X177.05Y-98.75
X177.14Y-96.956
X177.34Y-94.156
X177.75Y-119.75
X177.94Y-95.556
X178.0Y-112.0
X178.0Y-113.5
X178.0Y-114.75
X178.0Y-116.0
X178.25Y-107.5
X179.0Y-80.75
X179.5Y-108.75
X179.75Y-119.75
X180.0Y-118.5
X181.0Y-80.75
X181.0Y-110.5
X181.25Y-113.0
X181.25Y-115.25
X181.25Y-117.25
X182.0Y-119.75
X183.0Y-80.75
X184.0Y-81.75
X184.0Y-83.75
X184.0Y-85.75
X184.0Y-87.75
X184.0Y-89.75
X184.0Y-91.75
X184.0Y-93.75
X184.0Y-95.75
X184.0Y-97.75
X184.0Y-99.75
X184.0Y-101.75
X184.0Y-103.75
X184.0Y-105.75
X184.0Y-107.75
X184.0Y-109.75
X184.0Y-111.75
X184.0Y-113.75
X184.0Y-115.75
X184.0Y-117.75
X184.0Y-119.75
T2
X139.99Y-91.725
X139.99Y-93.225
X140.69Y-91.0
X140.69Y-92.525
X140.69Y-94.0
X141.49Y-91.725
X141.5Y-93.225
X142.19Y-91.0
X142.29Y-92.525
X142.29Y-94.0
X142.987Y-93.232
X142.99Y-91.725
T4
X106.775Y-85.0
X106.775Y-135.0
X107.72Y-82.72
X107.72Y-87.28
X107.72Y-132.72
X107.72Y-137.28
X110.0Y-81.775
X110.0Y-88.225
X110.0Y-131.775
X110.0Y-138.225
X112.28Y-82.72
X112.28Y-87.28
X112.28Y-132.72
X112.28Y-137.28
X113.225Y-85.0
X113.225Y-135.0
X176.775Y-135.0
X177.72Y-132.72
X177.72Y-137.28
X180.0Y-131.775
X180.0Y-138.225
X182.28Y-132.72
X182.28Y-137.28
X183.225Y-135.0
T6
X123.4Y-98.674
X123.4Y-101.214
X123.4Y-103.754
X123.4Y-106.294
X123.4Y-108.834
X125.94Y-98.674
X125.94Y-101.214
X125.94Y-103.754
X125.94Y-106.294
X125.94Y-108.834
X128.48Y-135.0
X131.02Y-135.0
X133.56Y-135.0
X136.1Y-135.0
X138.64Y-135.0
X141.18Y-135.0
X143.72Y-135.0
X146.26Y-135.0
X148.8Y-135.0
X151.34Y-135.0
X153.88Y-135.0
X156.42Y-135.0
X157.952Y-86.62
X157.952Y-89.16
X157.952Y-91.7
X158.96Y-135.0
X158.968Y-112.42
X158.968Y-114.96
X158.968Y-117.5
X158.968Y-120.04
X161.5Y-135.0
T7
X118.25Y-82.75
X118.25Y-87.25
X124.75Y-82.75
X124.75Y-87.25
T8
X110.14Y-92.356
X110.14Y-96.316
X110.14Y-100.276
X110.14Y-104.236
X110.14Y-108.196
X110.14Y-112.156
X110.14Y-116.116
X119.02Y-117.983
X122.98Y-117.983
T9
X168.05Y-95.5
X175.95Y-95.5
T10
X110.0Y-85.0
X110.0Y-135.0
X180.0Y-135.0
T3
G00X107.175Y-120.45
M15
G01X106.525Y-120.45
M16
G05
G00X107.175Y-128.2
M15
G01X106.525Y-128.2
M16
G05
T5
G00X110.925Y-120.6
M15
G01X110.375Y-120.6
M16
G05
G00X110.925Y-128.05
M15
G01X110.375Y-128.05
M16
G05
T0
M30
