%TF.GenerationSoftware,KiCad,Pcbnew,6.0.10+dfsg-2*%
%TF.CreationDate,2023-02-01T09:38:31-05:00*%
%TF.ProjectId,ParentsStove,50617265-6e74-4735-9374-6f76652e6b69,rev?*%
%TF.SameCoordinates,Original*%
%TF.FileFunction,Legend,Top*%
%TF.FilePolarity,Positive*%
%FSLAX46Y46*%
G04 Gerber Fmt 4.6, Leading zero omitted, Abs format (unit mm)*
G04 Created by KiCad (PCBNEW 6.0.10+dfsg-2) date 2023-02-01 09:38:31*
%MOMM*%
%LPD*%
G01*
G04 APERTURE LIST*
%ADD10C,0.150000*%
%ADD11C,0.120000*%
G04 APERTURE END LIST*
D10*
X137880952Y-95952380D02*
X137880952Y-96666666D01*
X137833333Y-96809523D01*
X137738095Y-96904761D01*
X137595238Y-96952380D01*
X137500000Y-96952380D01*
X138833333Y-96952380D02*
X138357142Y-96952380D01*
X138357142Y-95952380D01*
X139738095Y-96857142D02*
X139690476Y-96904761D01*
X139547619Y-96952380D01*
X139452380Y-96952380D01*
X139309523Y-96904761D01*
X139214285Y-96809523D01*
X139166666Y-96714285D01*
X139119047Y-96523809D01*
X139119047Y-96380952D01*
X139166666Y-96190476D01*
X139214285Y-96095238D01*
X139309523Y-96000000D01*
X139452380Y-95952380D01*
X139547619Y-95952380D01*
X139690476Y-96000000D01*
X139738095Y-96047619D01*
X140452380Y-95952380D02*
X140452380Y-96666666D01*
X140404761Y-96809523D01*
X140309523Y-96904761D01*
X140166666Y-96952380D01*
X140071428Y-96952380D01*
X141404761Y-96952380D02*
X140928571Y-96952380D01*
X140928571Y-95952380D01*
X142309523Y-96857142D02*
X142261904Y-96904761D01*
X142119047Y-96952380D01*
X142023809Y-96952380D01*
X141880952Y-96904761D01*
X141785714Y-96809523D01*
X141738095Y-96714285D01*
X141690476Y-96523809D01*
X141690476Y-96380952D01*
X141738095Y-96190476D01*
X141785714Y-96095238D01*
X141880952Y-96000000D01*
X142023809Y-95952380D01*
X142119047Y-95952380D01*
X142261904Y-96000000D01*
X142309523Y-96047619D01*
X143023809Y-95952380D02*
X143023809Y-96666666D01*
X142976190Y-96809523D01*
X142880952Y-96904761D01*
X142738095Y-96952380D01*
X142642857Y-96952380D01*
X143976190Y-96952380D02*
X143500000Y-96952380D01*
X143500000Y-95952380D01*
X144880952Y-96857142D02*
X144833333Y-96904761D01*
X144690476Y-96952380D01*
X144595238Y-96952380D01*
X144452380Y-96904761D01*
X144357142Y-96809523D01*
X144309523Y-96714285D01*
X144261904Y-96523809D01*
X144261904Y-96380952D01*
X144309523Y-96190476D01*
X144357142Y-96095238D01*
X144452380Y-96000000D01*
X144595238Y-95952380D01*
X144690476Y-95952380D01*
X144833333Y-96000000D01*
X144880952Y-96047619D01*
X145595238Y-95952380D02*
X145595238Y-96666666D01*
X145547619Y-96809523D01*
X145452380Y-96904761D01*
X145309523Y-96952380D01*
X145214285Y-96952380D01*
X146547619Y-96952380D02*
X146071428Y-96952380D01*
X146071428Y-95952380D01*
X147452380Y-96857142D02*
X147404761Y-96904761D01*
X147261904Y-96952380D01*
X147166666Y-96952380D01*
X147023809Y-96904761D01*
X146928571Y-96809523D01*
X146880952Y-96714285D01*
X146833333Y-96523809D01*
X146833333Y-96380952D01*
X146880952Y-96190476D01*
X146928571Y-96095238D01*
X147023809Y-96000000D01*
X147166666Y-95952380D01*
X147261904Y-95952380D01*
X147404761Y-96000000D01*
X147452380Y-96047619D01*
X139092380Y-132920190D02*
X138092380Y-132920190D01*
X138092380Y-132253523D02*
X138092380Y-132063047D01*
X138140000Y-131967809D01*
X138235238Y-131872571D01*
X138425714Y-131824952D01*
X138759047Y-131824952D01*
X138949523Y-131872571D01*
X139044761Y-131967809D01*
X139092380Y-132063047D01*
X139092380Y-132253523D01*
X139044761Y-132348761D01*
X138949523Y-132444000D01*
X138759047Y-132491619D01*
X138425714Y-132491619D01*
X138235238Y-132444000D01*
X138140000Y-132348761D01*
X138092380Y-132253523D01*
X138092380Y-131491619D02*
X138092380Y-130872571D01*
X138473333Y-131205904D01*
X138473333Y-131063047D01*
X138520952Y-130967809D01*
X138568571Y-130920190D01*
X138663809Y-130872571D01*
X138901904Y-130872571D01*
X138997142Y-130920190D01*
X139044761Y-130967809D01*
X139092380Y-131063047D01*
X139092380Y-131348761D01*
X139044761Y-131444000D01*
X138997142Y-131491619D01*
X138092380Y-130539238D02*
X138092380Y-129920190D01*
X138473333Y-130253523D01*
X138473333Y-130110666D01*
X138520952Y-130015428D01*
X138568571Y-129967809D01*
X138663809Y-129920190D01*
X138901904Y-129920190D01*
X138997142Y-129967809D01*
X139044761Y-130015428D01*
X139092380Y-130110666D01*
X139092380Y-130396380D01*
X139044761Y-130491619D01*
X138997142Y-130539238D01*
X153775023Y-115412380D02*
X153775023Y-114412380D01*
X154441690Y-114412380D02*
X154632166Y-114412380D01*
X154727404Y-114460000D01*
X154822642Y-114555238D01*
X154870261Y-114745714D01*
X154870261Y-115079047D01*
X154822642Y-115269523D01*
X154727404Y-115364761D01*
X154632166Y-115412380D01*
X154441690Y-115412380D01*
X154346452Y-115364761D01*
X154251214Y-115269523D01*
X154203595Y-115079047D01*
X154203595Y-114745714D01*
X154251214Y-114555238D01*
X154346452Y-114460000D01*
X154441690Y-114412380D01*
X155727404Y-114745714D02*
X155727404Y-115412380D01*
X155489309Y-114364761D02*
X155251214Y-115079047D01*
X155870261Y-115079047D01*
X156679785Y-114412380D02*
X156489309Y-114412380D01*
X156394071Y-114460000D01*
X156346452Y-114507619D01*
X156251214Y-114650476D01*
X156203595Y-114840952D01*
X156203595Y-115221904D01*
X156251214Y-115317142D01*
X156298833Y-115364761D01*
X156394071Y-115412380D01*
X156584547Y-115412380D01*
X156679785Y-115364761D01*
X156727404Y-115317142D01*
X156775023Y-115221904D01*
X156775023Y-114983809D01*
X156727404Y-114888571D01*
X156679785Y-114840952D01*
X156584547Y-114793333D01*
X156394071Y-114793333D01*
X156298833Y-114840952D01*
X156251214Y-114888571D01*
X156203595Y-114983809D01*
X149252380Y-132920190D02*
X148252380Y-132920190D01*
X148252380Y-132253523D02*
X148252380Y-132063047D01*
X148300000Y-131967809D01*
X148395238Y-131872571D01*
X148585714Y-131824952D01*
X148919047Y-131824952D01*
X149109523Y-131872571D01*
X149204761Y-131967809D01*
X149252380Y-132063047D01*
X149252380Y-132253523D01*
X149204761Y-132348761D01*
X149109523Y-132444000D01*
X148919047Y-132491619D01*
X148585714Y-132491619D01*
X148395238Y-132444000D01*
X148300000Y-132348761D01*
X148252380Y-132253523D01*
X148252380Y-131491619D02*
X148252380Y-130872571D01*
X148633333Y-131205904D01*
X148633333Y-131063047D01*
X148680952Y-130967809D01*
X148728571Y-130920190D01*
X148823809Y-130872571D01*
X149061904Y-130872571D01*
X149157142Y-130920190D01*
X149204761Y-130967809D01*
X149252380Y-131063047D01*
X149252380Y-131348761D01*
X149204761Y-131444000D01*
X149157142Y-131491619D01*
X148252380Y-130539238D02*
X148252380Y-129872571D01*
X149252380Y-130301142D01*
X128180595Y-104206380D02*
X128180595Y-103206380D01*
X128847261Y-103206380D02*
X129037738Y-103206380D01*
X129132976Y-103254000D01*
X129228214Y-103349238D01*
X129275833Y-103539714D01*
X129275833Y-103873047D01*
X129228214Y-104063523D01*
X129132976Y-104158761D01*
X129037738Y-104206380D01*
X128847261Y-104206380D01*
X128752023Y-104158761D01*
X128656785Y-104063523D01*
X128609166Y-103873047D01*
X128609166Y-103539714D01*
X128656785Y-103349238D01*
X128752023Y-103254000D01*
X128847261Y-103206380D01*
X130228214Y-104206380D02*
X129656785Y-104206380D01*
X129942500Y-104206380D02*
X129942500Y-103206380D01*
X129847261Y-103349238D01*
X129752023Y-103444476D01*
X129656785Y-103492095D01*
X130847261Y-103206380D02*
X130942500Y-103206380D01*
X131037738Y-103254000D01*
X131085357Y-103301619D01*
X131132976Y-103396857D01*
X131180595Y-103587333D01*
X131180595Y-103825428D01*
X131132976Y-104015904D01*
X131085357Y-104111142D01*
X131037738Y-104158761D01*
X130942500Y-104206380D01*
X130847261Y-104206380D01*
X130752023Y-104158761D01*
X130704404Y-104111142D01*
X130656785Y-104015904D01*
X130609166Y-103825428D01*
X130609166Y-103587333D01*
X130656785Y-103396857D01*
X130704404Y-103301619D01*
X130752023Y-103254000D01*
X130847261Y-103206380D01*
X115559523Y-117452380D02*
X115083333Y-117452380D01*
X115035714Y-117928571D01*
X115083333Y-117880952D01*
X115178571Y-117833333D01*
X115416666Y-117833333D01*
X115511904Y-117880952D01*
X115559523Y-117928571D01*
X115607142Y-118023809D01*
X115607142Y-118261904D01*
X115559523Y-118357142D01*
X115511904Y-118404761D01*
X115416666Y-118452380D01*
X115178571Y-118452380D01*
X115083333Y-118404761D01*
X115035714Y-118357142D01*
X115892857Y-117452380D02*
X116226190Y-118452380D01*
X116559523Y-117452380D01*
X167669047Y-92071428D02*
X168430952Y-92071428D01*
X118207023Y-106746380D02*
X118207023Y-105746380D01*
X118873690Y-105746380D02*
X119064166Y-105746380D01*
X119159404Y-105794000D01*
X119254642Y-105889238D01*
X119302261Y-106079714D01*
X119302261Y-106413047D01*
X119254642Y-106603523D01*
X119159404Y-106698761D01*
X119064166Y-106746380D01*
X118873690Y-106746380D01*
X118778452Y-106698761D01*
X118683214Y-106603523D01*
X118635595Y-106413047D01*
X118635595Y-106079714D01*
X118683214Y-105889238D01*
X118778452Y-105794000D01*
X118873690Y-105746380D01*
X120254642Y-106746380D02*
X119683214Y-106746380D01*
X119968928Y-106746380D02*
X119968928Y-105746380D01*
X119873690Y-105889238D01*
X119778452Y-105984476D01*
X119683214Y-106032095D01*
X120587976Y-105746380D02*
X121207023Y-105746380D01*
X120873690Y-106127333D01*
X121016547Y-106127333D01*
X121111785Y-106174952D01*
X121159404Y-106222571D01*
X121207023Y-106317809D01*
X121207023Y-106555904D01*
X121159404Y-106651142D01*
X121111785Y-106698761D01*
X121016547Y-106746380D01*
X120730833Y-106746380D01*
X120635595Y-106698761D01*
X120587976Y-106651142D01*
X154473309Y-91152380D02*
X155044738Y-91152380D01*
X154759023Y-92152380D02*
X154759023Y-91152380D01*
X155282833Y-92152380D02*
X155806642Y-91485714D01*
X155282833Y-91485714D02*
X155806642Y-92152380D01*
X118135238Y-80684571D02*
X118278095Y-80732190D01*
X118325714Y-80779809D01*
X118373333Y-80875047D01*
X118373333Y-81017904D01*
X118325714Y-81113142D01*
X118278095Y-81160761D01*
X118182857Y-81208380D01*
X117801904Y-81208380D01*
X117801904Y-80208380D01*
X118135238Y-80208380D01*
X118230476Y-80256000D01*
X118278095Y-80303619D01*
X118325714Y-80398857D01*
X118325714Y-80494095D01*
X118278095Y-80589333D01*
X118230476Y-80636952D01*
X118135238Y-80684571D01*
X117801904Y-80684571D01*
X118944761Y-81208380D02*
X118849523Y-81160761D01*
X118801904Y-81113142D01*
X118754285Y-81017904D01*
X118754285Y-80732190D01*
X118801904Y-80636952D01*
X118849523Y-80589333D01*
X118944761Y-80541714D01*
X119087619Y-80541714D01*
X119182857Y-80589333D01*
X119230476Y-80636952D01*
X119278095Y-80732190D01*
X119278095Y-81017904D01*
X119230476Y-81113142D01*
X119182857Y-81160761D01*
X119087619Y-81208380D01*
X118944761Y-81208380D01*
X119849523Y-81208380D02*
X119754285Y-81160761D01*
X119706666Y-81113142D01*
X119659047Y-81017904D01*
X119659047Y-80732190D01*
X119706666Y-80636952D01*
X119754285Y-80589333D01*
X119849523Y-80541714D01*
X119992380Y-80541714D01*
X120087619Y-80589333D01*
X120135238Y-80636952D01*
X120182857Y-80732190D01*
X120182857Y-81017904D01*
X120135238Y-81113142D01*
X120087619Y-81160761D01*
X119992380Y-81208380D01*
X119849523Y-81208380D01*
X120468571Y-80541714D02*
X120849523Y-80541714D01*
X120611428Y-80208380D02*
X120611428Y-81065523D01*
X120659047Y-81160761D01*
X120754285Y-81208380D01*
X120849523Y-81208380D01*
X121944761Y-81208380D02*
X121944761Y-80208380D01*
X122278095Y-80922666D01*
X122611428Y-80208380D01*
X122611428Y-81208380D01*
X123230476Y-81208380D02*
X123135238Y-81160761D01*
X123087619Y-81113142D01*
X123040000Y-81017904D01*
X123040000Y-80732190D01*
X123087619Y-80636952D01*
X123135238Y-80589333D01*
X123230476Y-80541714D01*
X123373333Y-80541714D01*
X123468571Y-80589333D01*
X123516190Y-80636952D01*
X123563809Y-80732190D01*
X123563809Y-81017904D01*
X123516190Y-81113142D01*
X123468571Y-81160761D01*
X123373333Y-81208380D01*
X123230476Y-81208380D01*
X124420952Y-81208380D02*
X124420952Y-80208380D01*
X124420952Y-81160761D02*
X124325714Y-81208380D01*
X124135238Y-81208380D01*
X124040000Y-81160761D01*
X123992380Y-81113142D01*
X123944761Y-81017904D01*
X123944761Y-80732190D01*
X123992380Y-80636952D01*
X124040000Y-80589333D01*
X124135238Y-80541714D01*
X124325714Y-80541714D01*
X124420952Y-80589333D01*
X125278095Y-81160761D02*
X125182857Y-81208380D01*
X124992380Y-81208380D01*
X124897142Y-81160761D01*
X124849523Y-81065523D01*
X124849523Y-80684571D01*
X124897142Y-80589333D01*
X124992380Y-80541714D01*
X125182857Y-80541714D01*
X125278095Y-80589333D01*
X125325714Y-80684571D01*
X125325714Y-80779809D01*
X124849523Y-80875047D01*
X146712380Y-132920190D02*
X145712380Y-132920190D01*
X145712380Y-132253523D02*
X145712380Y-132063047D01*
X145760000Y-131967809D01*
X145855238Y-131872571D01*
X146045714Y-131824952D01*
X146379047Y-131824952D01*
X146569523Y-131872571D01*
X146664761Y-131967809D01*
X146712380Y-132063047D01*
X146712380Y-132253523D01*
X146664761Y-132348761D01*
X146569523Y-132444000D01*
X146379047Y-132491619D01*
X146045714Y-132491619D01*
X145855238Y-132444000D01*
X145760000Y-132348761D01*
X145712380Y-132253523D01*
X145712380Y-131491619D02*
X145712380Y-130872571D01*
X146093333Y-131205904D01*
X146093333Y-131063047D01*
X146140952Y-130967809D01*
X146188571Y-130920190D01*
X146283809Y-130872571D01*
X146521904Y-130872571D01*
X146617142Y-130920190D01*
X146664761Y-130967809D01*
X146712380Y-131063047D01*
X146712380Y-131348761D01*
X146664761Y-131444000D01*
X146617142Y-131491619D01*
X145712380Y-130015428D02*
X145712380Y-130205904D01*
X145760000Y-130301142D01*
X145807619Y-130348761D01*
X145950476Y-130444000D01*
X146140952Y-130491619D01*
X146521904Y-130491619D01*
X146617142Y-130444000D01*
X146664761Y-130396380D01*
X146712380Y-130301142D01*
X146712380Y-130110666D01*
X146664761Y-130015428D01*
X146617142Y-129967809D01*
X146521904Y-129920190D01*
X146283809Y-129920190D01*
X146188571Y-129967809D01*
X146140952Y-130015428D01*
X146093333Y-130110666D01*
X146093333Y-130301142D01*
X146140952Y-130396380D01*
X146188571Y-130444000D01*
X146283809Y-130491619D01*
X154949500Y-87072380D02*
X154616166Y-86596190D01*
X154378071Y-87072380D02*
X154378071Y-86072380D01*
X154759023Y-86072380D01*
X154854261Y-86120000D01*
X154901880Y-86167619D01*
X154949500Y-86262857D01*
X154949500Y-86405714D01*
X154901880Y-86500952D01*
X154854261Y-86548571D01*
X154759023Y-86596190D01*
X154378071Y-86596190D01*
X155282833Y-87072380D02*
X155806642Y-86405714D01*
X155282833Y-86405714D02*
X155806642Y-87072380D01*
X154917880Y-111920000D02*
X154822642Y-111872380D01*
X154679785Y-111872380D01*
X154536928Y-111920000D01*
X154441690Y-112015238D01*
X154394071Y-112110476D01*
X154346452Y-112300952D01*
X154346452Y-112443809D01*
X154394071Y-112634285D01*
X154441690Y-112729523D01*
X154536928Y-112824761D01*
X154679785Y-112872380D01*
X154775023Y-112872380D01*
X154917880Y-112824761D01*
X154965500Y-112777142D01*
X154965500Y-112443809D01*
X154775023Y-112443809D01*
X155394071Y-112205714D02*
X155394071Y-112872380D01*
X155394071Y-112300952D02*
X155441690Y-112253333D01*
X155536928Y-112205714D01*
X155679785Y-112205714D01*
X155775023Y-112253333D01*
X155822642Y-112348571D01*
X155822642Y-112872380D01*
X156727404Y-112872380D02*
X156727404Y-111872380D01*
X156727404Y-112824761D02*
X156632166Y-112872380D01*
X156441690Y-112872380D01*
X156346452Y-112824761D01*
X156298833Y-112777142D01*
X156251214Y-112681904D01*
X156251214Y-112396190D01*
X156298833Y-112300952D01*
X156346452Y-112253333D01*
X156441690Y-112205714D01*
X156632166Y-112205714D01*
X156727404Y-112253333D01*
X144202380Y-132920190D02*
X143202380Y-132920190D01*
X143202380Y-132253523D02*
X143202380Y-132063047D01*
X143250000Y-131967809D01*
X143345238Y-131872571D01*
X143535714Y-131824952D01*
X143869047Y-131824952D01*
X144059523Y-131872571D01*
X144154761Y-131967809D01*
X144202380Y-132063047D01*
X144202380Y-132253523D01*
X144154761Y-132348761D01*
X144059523Y-132444000D01*
X143869047Y-132491619D01*
X143535714Y-132491619D01*
X143345238Y-132444000D01*
X143250000Y-132348761D01*
X143202380Y-132253523D01*
X143202380Y-131491619D02*
X143202380Y-130872571D01*
X143583333Y-131205904D01*
X143583333Y-131063047D01*
X143630952Y-130967809D01*
X143678571Y-130920190D01*
X143773809Y-130872571D01*
X144011904Y-130872571D01*
X144107142Y-130920190D01*
X144154761Y-130967809D01*
X144202380Y-131063047D01*
X144202380Y-131348761D01*
X144154761Y-131444000D01*
X144107142Y-131491619D01*
X143202380Y-129967809D02*
X143202380Y-130444000D01*
X143678571Y-130491619D01*
X143630952Y-130444000D01*
X143583333Y-130348761D01*
X143583333Y-130110666D01*
X143630952Y-130015428D01*
X143678571Y-129967809D01*
X143773809Y-129920190D01*
X144011904Y-129920190D01*
X144107142Y-129967809D01*
X144154761Y-130015428D01*
X144202380Y-130110666D01*
X144202380Y-130348761D01*
X144154761Y-130444000D01*
X144107142Y-130491619D01*
X151792380Y-132920190D02*
X150792380Y-132920190D01*
X150792380Y-132253523D02*
X150792380Y-132063047D01*
X150840000Y-131967809D01*
X150935238Y-131872571D01*
X151125714Y-131824952D01*
X151459047Y-131824952D01*
X151649523Y-131872571D01*
X151744761Y-131967809D01*
X151792380Y-132063047D01*
X151792380Y-132253523D01*
X151744761Y-132348761D01*
X151649523Y-132444000D01*
X151459047Y-132491619D01*
X151125714Y-132491619D01*
X150935238Y-132444000D01*
X150840000Y-132348761D01*
X150792380Y-132253523D01*
X150792380Y-131491619D02*
X150792380Y-130872571D01*
X151173333Y-131205904D01*
X151173333Y-131063047D01*
X151220952Y-130967809D01*
X151268571Y-130920190D01*
X151363809Y-130872571D01*
X151601904Y-130872571D01*
X151697142Y-130920190D01*
X151744761Y-130967809D01*
X151792380Y-131063047D01*
X151792380Y-131348761D01*
X151744761Y-131444000D01*
X151697142Y-131491619D01*
X151220952Y-130301142D02*
X151173333Y-130396380D01*
X151125714Y-130444000D01*
X151030476Y-130491619D01*
X150982857Y-130491619D01*
X150887619Y-130444000D01*
X150840000Y-130396380D01*
X150792380Y-130301142D01*
X150792380Y-130110666D01*
X150840000Y-130015428D01*
X150887619Y-129967809D01*
X150982857Y-129920190D01*
X151030476Y-129920190D01*
X151125714Y-129967809D01*
X151173333Y-130015428D01*
X151220952Y-130110666D01*
X151220952Y-130301142D01*
X151268571Y-130396380D01*
X151316190Y-130444000D01*
X151411428Y-130491619D01*
X151601904Y-130491619D01*
X151697142Y-130444000D01*
X151744761Y-130396380D01*
X151792380Y-130301142D01*
X151792380Y-130110666D01*
X151744761Y-130015428D01*
X151697142Y-129967809D01*
X151601904Y-129920190D01*
X151411428Y-129920190D01*
X151316190Y-129967809D01*
X151268571Y-130015428D01*
X151220952Y-130110666D01*
X160952380Y-131634476D02*
X160952380Y-132110666D01*
X161428571Y-132158285D01*
X161380952Y-132110666D01*
X161333333Y-132015428D01*
X161333333Y-131777333D01*
X161380952Y-131682095D01*
X161428571Y-131634476D01*
X161523809Y-131586857D01*
X161761904Y-131586857D01*
X161857142Y-131634476D01*
X161904761Y-131682095D01*
X161952380Y-131777333D01*
X161952380Y-132015428D01*
X161904761Y-132110666D01*
X161857142Y-132158285D01*
X160952380Y-131301142D02*
X161952380Y-130967809D01*
X160952380Y-130634476D01*
X136552380Y-132920190D02*
X135552380Y-132920190D01*
X135552380Y-132253523D02*
X135552380Y-132063047D01*
X135600000Y-131967809D01*
X135695238Y-131872571D01*
X135885714Y-131824952D01*
X136219047Y-131824952D01*
X136409523Y-131872571D01*
X136504761Y-131967809D01*
X136552380Y-132063047D01*
X136552380Y-132253523D01*
X136504761Y-132348761D01*
X136409523Y-132444000D01*
X136219047Y-132491619D01*
X135885714Y-132491619D01*
X135695238Y-132444000D01*
X135600000Y-132348761D01*
X135552380Y-132253523D01*
X135647619Y-131444000D02*
X135600000Y-131396380D01*
X135552380Y-131301142D01*
X135552380Y-131063047D01*
X135600000Y-130967809D01*
X135647619Y-130920190D01*
X135742857Y-130872571D01*
X135838095Y-130872571D01*
X135980952Y-130920190D01*
X136552380Y-131491619D01*
X136552380Y-130872571D01*
X135552380Y-130015428D02*
X135552380Y-130205904D01*
X135600000Y-130301142D01*
X135647619Y-130348761D01*
X135790476Y-130444000D01*
X135980952Y-130491619D01*
X136361904Y-130491619D01*
X136457142Y-130444000D01*
X136504761Y-130396380D01*
X136552380Y-130301142D01*
X136552380Y-130110666D01*
X136504761Y-130015428D01*
X136457142Y-129967809D01*
X136361904Y-129920190D01*
X136123809Y-129920190D01*
X136028571Y-129967809D01*
X135980952Y-130015428D01*
X135933333Y-130110666D01*
X135933333Y-130301142D01*
X135980952Y-130396380D01*
X136028571Y-130444000D01*
X136123809Y-130491619D01*
X154332380Y-132976190D02*
X153332380Y-132976190D01*
X153332380Y-132309523D02*
X153332380Y-132119047D01*
X153380000Y-132023809D01*
X153475238Y-131928571D01*
X153665714Y-131880952D01*
X153999047Y-131880952D01*
X154189523Y-131928571D01*
X154284761Y-132023809D01*
X154332380Y-132119047D01*
X154332380Y-132309523D01*
X154284761Y-132404761D01*
X154189523Y-132500000D01*
X153999047Y-132547619D01*
X153665714Y-132547619D01*
X153475238Y-132500000D01*
X153380000Y-132404761D01*
X153332380Y-132309523D01*
X153665714Y-131023809D02*
X154332380Y-131023809D01*
X153284761Y-131261904D02*
X153999047Y-131500000D01*
X153999047Y-130880952D01*
X153332380Y-130309523D02*
X153332380Y-130214285D01*
X153380000Y-130119047D01*
X153427619Y-130071428D01*
X153522857Y-130023809D01*
X153713333Y-129976190D01*
X153951428Y-129976190D01*
X154141904Y-130023809D01*
X154237142Y-130071428D01*
X154284761Y-130119047D01*
X154332380Y-130214285D01*
X154332380Y-130309523D01*
X154284761Y-130404761D01*
X154237142Y-130452380D01*
X154141904Y-130500000D01*
X153951428Y-130547619D01*
X153713333Y-130547619D01*
X153522857Y-130500000D01*
X153427619Y-130452380D01*
X153380000Y-130404761D01*
X153332380Y-130309523D01*
X128180595Y-101666380D02*
X128180595Y-100666380D01*
X128847261Y-100666380D02*
X129037738Y-100666380D01*
X129132976Y-100714000D01*
X129228214Y-100809238D01*
X129275833Y-100999714D01*
X129275833Y-101333047D01*
X129228214Y-101523523D01*
X129132976Y-101618761D01*
X129037738Y-101666380D01*
X128847261Y-101666380D01*
X128752023Y-101618761D01*
X128656785Y-101523523D01*
X128609166Y-101333047D01*
X128609166Y-100999714D01*
X128656785Y-100809238D01*
X128752023Y-100714000D01*
X128847261Y-100666380D01*
X129847261Y-101094952D02*
X129752023Y-101047333D01*
X129704404Y-100999714D01*
X129656785Y-100904476D01*
X129656785Y-100856857D01*
X129704404Y-100761619D01*
X129752023Y-100714000D01*
X129847261Y-100666380D01*
X130037738Y-100666380D01*
X130132976Y-100714000D01*
X130180595Y-100761619D01*
X130228214Y-100856857D01*
X130228214Y-100904476D01*
X130180595Y-100999714D01*
X130132976Y-101047333D01*
X130037738Y-101094952D01*
X129847261Y-101094952D01*
X129752023Y-101142571D01*
X129704404Y-101190190D01*
X129656785Y-101285428D01*
X129656785Y-101475904D01*
X129704404Y-101571142D01*
X129752023Y-101618761D01*
X129847261Y-101666380D01*
X130037738Y-101666380D01*
X130132976Y-101618761D01*
X130180595Y-101571142D01*
X130228214Y-101475904D01*
X130228214Y-101285428D01*
X130180595Y-101190190D01*
X130132976Y-101142571D01*
X130037738Y-101094952D01*
X175559047Y-92071428D02*
X176320952Y-92071428D01*
X175940000Y-92452380D02*
X175940000Y-91690476D01*
X130472380Y-132682095D02*
X130472380Y-132063047D01*
X130853333Y-132396380D01*
X130853333Y-132253523D01*
X130900952Y-132158285D01*
X130948571Y-132110666D01*
X131043809Y-132063047D01*
X131281904Y-132063047D01*
X131377142Y-132110666D01*
X131424761Y-132158285D01*
X131472380Y-132253523D01*
X131472380Y-132539238D01*
X131424761Y-132634476D01*
X131377142Y-132682095D01*
X130472380Y-131777333D02*
X131472380Y-131444000D01*
X130472380Y-131110666D01*
X130472380Y-130872571D02*
X130472380Y-130253523D01*
X130853333Y-130586857D01*
X130853333Y-130444000D01*
X130900952Y-130348761D01*
X130948571Y-130301142D01*
X131043809Y-130253523D01*
X131281904Y-130253523D01*
X131377142Y-130301142D01*
X131424761Y-130348761D01*
X131472380Y-130444000D01*
X131472380Y-130729714D01*
X131424761Y-130824952D01*
X131377142Y-130872571D01*
X153901880Y-88660000D02*
X153806642Y-88612380D01*
X153663785Y-88612380D01*
X153520928Y-88660000D01*
X153425690Y-88755238D01*
X153378071Y-88850476D01*
X153330452Y-89040952D01*
X153330452Y-89183809D01*
X153378071Y-89374285D01*
X153425690Y-89469523D01*
X153520928Y-89564761D01*
X153663785Y-89612380D01*
X153759023Y-89612380D01*
X153901880Y-89564761D01*
X153949500Y-89517142D01*
X153949500Y-89183809D01*
X153759023Y-89183809D01*
X154378071Y-88945714D02*
X154378071Y-89612380D01*
X154378071Y-89040952D02*
X154425690Y-88993333D01*
X154520928Y-88945714D01*
X154663785Y-88945714D01*
X154759023Y-88993333D01*
X154806642Y-89088571D01*
X154806642Y-89612380D01*
X155711404Y-89612380D02*
X155711404Y-88612380D01*
X155711404Y-89564761D02*
X155616166Y-89612380D01*
X155425690Y-89612380D01*
X155330452Y-89564761D01*
X155282833Y-89517142D01*
X155235214Y-89421904D01*
X155235214Y-89136190D01*
X155282833Y-89040952D01*
X155330452Y-88993333D01*
X155425690Y-88945714D01*
X155616166Y-88945714D01*
X155711404Y-88993333D01*
X153775023Y-120492380D02*
X153775023Y-119492380D01*
X154441690Y-119492380D02*
X154632166Y-119492380D01*
X154727404Y-119540000D01*
X154822642Y-119635238D01*
X154870261Y-119825714D01*
X154870261Y-120159047D01*
X154822642Y-120349523D01*
X154727404Y-120444761D01*
X154632166Y-120492380D01*
X154441690Y-120492380D01*
X154346452Y-120444761D01*
X154251214Y-120349523D01*
X154203595Y-120159047D01*
X154203595Y-119825714D01*
X154251214Y-119635238D01*
X154346452Y-119540000D01*
X154441690Y-119492380D01*
X155727404Y-119825714D02*
X155727404Y-120492380D01*
X155489309Y-119444761D02*
X155251214Y-120159047D01*
X155870261Y-120159047D01*
X156727404Y-119492380D02*
X156251214Y-119492380D01*
X156203595Y-119968571D01*
X156251214Y-119920952D01*
X156346452Y-119873333D01*
X156584547Y-119873333D01*
X156679785Y-119920952D01*
X156727404Y-119968571D01*
X156775023Y-120063809D01*
X156775023Y-120301904D01*
X156727404Y-120397142D01*
X156679785Y-120444761D01*
X156584547Y-120492380D01*
X156346452Y-120492380D01*
X156251214Y-120444761D01*
X156203595Y-120397142D01*
X119159404Y-101666380D02*
X119159404Y-100666380D01*
X119826071Y-100666380D02*
X120016547Y-100666380D01*
X120111785Y-100714000D01*
X120207023Y-100809238D01*
X120254642Y-100999714D01*
X120254642Y-101333047D01*
X120207023Y-101523523D01*
X120111785Y-101618761D01*
X120016547Y-101666380D01*
X119826071Y-101666380D01*
X119730833Y-101618761D01*
X119635595Y-101523523D01*
X119587976Y-101333047D01*
X119587976Y-100999714D01*
X119635595Y-100809238D01*
X119730833Y-100714000D01*
X119826071Y-100666380D01*
X120730833Y-101666380D02*
X120921309Y-101666380D01*
X121016547Y-101618761D01*
X121064166Y-101571142D01*
X121159404Y-101428285D01*
X121207023Y-101237809D01*
X121207023Y-100856857D01*
X121159404Y-100761619D01*
X121111785Y-100714000D01*
X121016547Y-100666380D01*
X120826071Y-100666380D01*
X120730833Y-100714000D01*
X120683214Y-100761619D01*
X120635595Y-100856857D01*
X120635595Y-101094952D01*
X120683214Y-101190190D01*
X120730833Y-101237809D01*
X120826071Y-101285428D01*
X121016547Y-101285428D01*
X121111785Y-101237809D01*
X121159404Y-101190190D01*
X121207023Y-101094952D01*
X126107142Y-117500000D02*
X126011904Y-117452380D01*
X125869047Y-117452380D01*
X125726190Y-117500000D01*
X125630952Y-117595238D01*
X125583333Y-117690476D01*
X125535714Y-117880952D01*
X125535714Y-118023809D01*
X125583333Y-118214285D01*
X125630952Y-118309523D01*
X125726190Y-118404761D01*
X125869047Y-118452380D01*
X125964285Y-118452380D01*
X126107142Y-118404761D01*
X126154761Y-118357142D01*
X126154761Y-118023809D01*
X125964285Y-118023809D01*
X126583333Y-117785714D02*
X126583333Y-118452380D01*
X126583333Y-117880952D02*
X126630952Y-117833333D01*
X126726190Y-117785714D01*
X126869047Y-117785714D01*
X126964285Y-117833333D01*
X127011904Y-117928571D01*
X127011904Y-118452380D01*
X127916666Y-118452380D02*
X127916666Y-117452380D01*
X127916666Y-118404761D02*
X127821428Y-118452380D01*
X127630952Y-118452380D01*
X127535714Y-118404761D01*
X127488095Y-118357142D01*
X127440476Y-118261904D01*
X127440476Y-117976190D01*
X127488095Y-117880952D01*
X127535714Y-117833333D01*
X127630952Y-117785714D01*
X127821428Y-117785714D01*
X127916666Y-117833333D01*
X134012380Y-132920190D02*
X133012380Y-132920190D01*
X133012380Y-132253523D02*
X133012380Y-132063047D01*
X133060000Y-131967809D01*
X133155238Y-131872571D01*
X133345714Y-131824952D01*
X133679047Y-131824952D01*
X133869523Y-131872571D01*
X133964761Y-131967809D01*
X134012380Y-132063047D01*
X134012380Y-132253523D01*
X133964761Y-132348761D01*
X133869523Y-132444000D01*
X133679047Y-132491619D01*
X133345714Y-132491619D01*
X133155238Y-132444000D01*
X133060000Y-132348761D01*
X133012380Y-132253523D01*
X133107619Y-131444000D02*
X133060000Y-131396380D01*
X133012380Y-131301142D01*
X133012380Y-131063047D01*
X133060000Y-130967809D01*
X133107619Y-130920190D01*
X133202857Y-130872571D01*
X133298095Y-130872571D01*
X133440952Y-130920190D01*
X134012380Y-131491619D01*
X134012380Y-130872571D01*
X134012380Y-129920190D02*
X134012380Y-130491619D01*
X134012380Y-130205904D02*
X133012380Y-130205904D01*
X133155238Y-130301142D01*
X133250476Y-130396380D01*
X133298095Y-130491619D01*
X118207023Y-104206380D02*
X118207023Y-103206380D01*
X118873690Y-103206380D02*
X119064166Y-103206380D01*
X119159404Y-103254000D01*
X119254642Y-103349238D01*
X119302261Y-103539714D01*
X119302261Y-103873047D01*
X119254642Y-104063523D01*
X119159404Y-104158761D01*
X119064166Y-104206380D01*
X118873690Y-104206380D01*
X118778452Y-104158761D01*
X118683214Y-104063523D01*
X118635595Y-103873047D01*
X118635595Y-103539714D01*
X118683214Y-103349238D01*
X118778452Y-103254000D01*
X118873690Y-103206380D01*
X120254642Y-104206380D02*
X119683214Y-104206380D01*
X119968928Y-104206380D02*
X119968928Y-103206380D01*
X119873690Y-103349238D01*
X119778452Y-103444476D01*
X119683214Y-103492095D01*
X121207023Y-104206380D02*
X120635595Y-104206380D01*
X120921309Y-104206380D02*
X120921309Y-103206380D01*
X120826071Y-103349238D01*
X120730833Y-103444476D01*
X120635595Y-103492095D01*
X118778452Y-108286380D02*
X119397500Y-108286380D01*
X119064166Y-108667333D01*
X119207023Y-108667333D01*
X119302261Y-108714952D01*
X119349880Y-108762571D01*
X119397500Y-108857809D01*
X119397500Y-109095904D01*
X119349880Y-109191142D01*
X119302261Y-109238761D01*
X119207023Y-109286380D01*
X118921309Y-109286380D01*
X118826071Y-109238761D01*
X118778452Y-109191142D01*
X119683214Y-108286380D02*
X120016547Y-109286380D01*
X120349880Y-108286380D01*
X120587976Y-108286380D02*
X121207023Y-108286380D01*
X120873690Y-108667333D01*
X121016547Y-108667333D01*
X121111785Y-108714952D01*
X121159404Y-108762571D01*
X121207023Y-108857809D01*
X121207023Y-109095904D01*
X121159404Y-109191142D01*
X121111785Y-109238761D01*
X121016547Y-109286380D01*
X120730833Y-109286380D01*
X120635595Y-109238761D01*
X120587976Y-109191142D01*
X128656785Y-108316380D02*
X128180595Y-108316380D01*
X128132976Y-108792571D01*
X128180595Y-108744952D01*
X128275833Y-108697333D01*
X128513928Y-108697333D01*
X128609166Y-108744952D01*
X128656785Y-108792571D01*
X128704404Y-108887809D01*
X128704404Y-109125904D01*
X128656785Y-109221142D01*
X128609166Y-109268761D01*
X128513928Y-109316380D01*
X128275833Y-109316380D01*
X128180595Y-109268761D01*
X128132976Y-109221142D01*
X128990119Y-108316380D02*
X129323452Y-109316380D01*
X129656785Y-108316380D01*
X128180595Y-106746380D02*
X128180595Y-105746380D01*
X128847261Y-105746380D02*
X129037738Y-105746380D01*
X129132976Y-105794000D01*
X129228214Y-105889238D01*
X129275833Y-106079714D01*
X129275833Y-106413047D01*
X129228214Y-106603523D01*
X129132976Y-106698761D01*
X129037738Y-106746380D01*
X128847261Y-106746380D01*
X128752023Y-106698761D01*
X128656785Y-106603523D01*
X128609166Y-106413047D01*
X128609166Y-106079714D01*
X128656785Y-105889238D01*
X128752023Y-105794000D01*
X128847261Y-105746380D01*
X130228214Y-106746380D02*
X129656785Y-106746380D01*
X129942500Y-106746380D02*
X129942500Y-105746380D01*
X129847261Y-105889238D01*
X129752023Y-105984476D01*
X129656785Y-106032095D01*
X130609166Y-105841619D02*
X130656785Y-105794000D01*
X130752023Y-105746380D01*
X130990119Y-105746380D01*
X131085357Y-105794000D01*
X131132976Y-105841619D01*
X131180595Y-105936857D01*
X131180595Y-106032095D01*
X131132976Y-106174952D01*
X130561547Y-106746380D01*
X131180595Y-106746380D01*
X156872380Y-132920190D02*
X155872380Y-132920190D01*
X155872380Y-132253523D02*
X155872380Y-132063047D01*
X155920000Y-131967809D01*
X156015238Y-131872571D01*
X156205714Y-131824952D01*
X156539047Y-131824952D01*
X156729523Y-131872571D01*
X156824761Y-131967809D01*
X156872380Y-132063047D01*
X156872380Y-132253523D01*
X156824761Y-132348761D01*
X156729523Y-132444000D01*
X156539047Y-132491619D01*
X156205714Y-132491619D01*
X156015238Y-132444000D01*
X155920000Y-132348761D01*
X155872380Y-132253523D01*
X156205714Y-130967809D02*
X156872380Y-130967809D01*
X155824761Y-131205904D02*
X156539047Y-131444000D01*
X156539047Y-130824952D01*
X156872380Y-129920190D02*
X156872380Y-130491619D01*
X156872380Y-130205904D02*
X155872380Y-130205904D01*
X156015238Y-130301142D01*
X156110476Y-130396380D01*
X156158095Y-130491619D01*
X141632380Y-132920190D02*
X140632380Y-132920190D01*
X140632380Y-132253523D02*
X140632380Y-132063047D01*
X140680000Y-131967809D01*
X140775238Y-131872571D01*
X140965714Y-131824952D01*
X141299047Y-131824952D01*
X141489523Y-131872571D01*
X141584761Y-131967809D01*
X141632380Y-132063047D01*
X141632380Y-132253523D01*
X141584761Y-132348761D01*
X141489523Y-132444000D01*
X141299047Y-132491619D01*
X140965714Y-132491619D01*
X140775238Y-132444000D01*
X140680000Y-132348761D01*
X140632380Y-132253523D01*
X140632380Y-131491619D02*
X140632380Y-130872571D01*
X141013333Y-131205904D01*
X141013333Y-131063047D01*
X141060952Y-130967809D01*
X141108571Y-130920190D01*
X141203809Y-130872571D01*
X141441904Y-130872571D01*
X141537142Y-130920190D01*
X141584761Y-130967809D01*
X141632380Y-131063047D01*
X141632380Y-131348761D01*
X141584761Y-131444000D01*
X141537142Y-131491619D01*
X140965714Y-130015428D02*
X141632380Y-130015428D01*
X140584761Y-130253523D02*
X141299047Y-130491619D01*
X141299047Y-129872571D01*
X154346452Y-116952380D02*
X154965500Y-116952380D01*
X154632166Y-117333333D01*
X154775023Y-117333333D01*
X154870261Y-117380952D01*
X154917880Y-117428571D01*
X154965500Y-117523809D01*
X154965500Y-117761904D01*
X154917880Y-117857142D01*
X154870261Y-117904761D01*
X154775023Y-117952380D01*
X154489309Y-117952380D01*
X154394071Y-117904761D01*
X154346452Y-117857142D01*
X155251214Y-116952380D02*
X155584547Y-117952380D01*
X155917880Y-116952380D01*
X156155976Y-116952380D02*
X156775023Y-116952380D01*
X156441690Y-117333333D01*
X156584547Y-117333333D01*
X156679785Y-117380952D01*
X156727404Y-117428571D01*
X156775023Y-117523809D01*
X156775023Y-117761904D01*
X156727404Y-117857142D01*
X156679785Y-117904761D01*
X156584547Y-117952380D01*
X156298833Y-117952380D01*
X156203595Y-117904761D01*
X156155976Y-117857142D01*
X119159404Y-99126380D02*
X119159404Y-98126380D01*
X119826071Y-98126380D02*
X120016547Y-98126380D01*
X120111785Y-98174000D01*
X120207023Y-98269238D01*
X120254642Y-98459714D01*
X120254642Y-98793047D01*
X120207023Y-98983523D01*
X120111785Y-99078761D01*
X120016547Y-99126380D01*
X119826071Y-99126380D01*
X119730833Y-99078761D01*
X119635595Y-98983523D01*
X119587976Y-98793047D01*
X119587976Y-98459714D01*
X119635595Y-98269238D01*
X119730833Y-98174000D01*
X119826071Y-98126380D01*
X120587976Y-98126380D02*
X121254642Y-98126380D01*
X120826071Y-99126380D01*
X159412380Y-132920190D02*
X158412380Y-132920190D01*
X158412380Y-132253523D02*
X158412380Y-132063047D01*
X158460000Y-131967809D01*
X158555238Y-131872571D01*
X158745714Y-131824952D01*
X159079047Y-131824952D01*
X159269523Y-131872571D01*
X159364761Y-131967809D01*
X159412380Y-132063047D01*
X159412380Y-132253523D01*
X159364761Y-132348761D01*
X159269523Y-132444000D01*
X159079047Y-132491619D01*
X158745714Y-132491619D01*
X158555238Y-132444000D01*
X158460000Y-132348761D01*
X158412380Y-132253523D01*
X158745714Y-130967809D02*
X159412380Y-130967809D01*
X158364761Y-131205904D02*
X159079047Y-131444000D01*
X159079047Y-130824952D01*
X158507619Y-130491619D02*
X158460000Y-130444000D01*
X158412380Y-130348761D01*
X158412380Y-130110666D01*
X158460000Y-130015428D01*
X158507619Y-129967809D01*
X158602857Y-129920190D01*
X158698095Y-129920190D01*
X158840952Y-129967809D01*
X159412380Y-130539238D01*
X159412380Y-129920190D01*
X127980000Y-132086857D02*
X127932380Y-132182095D01*
X127932380Y-132324952D01*
X127980000Y-132467809D01*
X128075238Y-132563047D01*
X128170476Y-132610666D01*
X128360952Y-132658285D01*
X128503809Y-132658285D01*
X128694285Y-132610666D01*
X128789523Y-132563047D01*
X128884761Y-132467809D01*
X128932380Y-132324952D01*
X128932380Y-132229714D01*
X128884761Y-132086857D01*
X128837142Y-132039238D01*
X128503809Y-132039238D01*
X128503809Y-132229714D01*
X128265714Y-131610666D02*
X128932380Y-131610666D01*
X128360952Y-131610666D02*
X128313333Y-131563047D01*
X128265714Y-131467809D01*
X128265714Y-131324952D01*
X128313333Y-131229714D01*
X128408571Y-131182095D01*
X128932380Y-131182095D01*
X128932380Y-130277333D02*
X127932380Y-130277333D01*
X128884761Y-130277333D02*
X128932380Y-130372571D01*
X128932380Y-130563047D01*
X128884761Y-130658285D01*
X128837142Y-130705904D01*
X128741904Y-130753523D01*
X128456190Y-130753523D01*
X128360952Y-130705904D01*
X128313333Y-130658285D01*
X128265714Y-130563047D01*
X128265714Y-130372571D01*
X128313333Y-130277333D01*
X128704404Y-98174000D02*
X128609166Y-98126380D01*
X128466309Y-98126380D01*
X128323452Y-98174000D01*
X128228214Y-98269238D01*
X128180595Y-98364476D01*
X128132976Y-98554952D01*
X128132976Y-98697809D01*
X128180595Y-98888285D01*
X128228214Y-98983523D01*
X128323452Y-99078761D01*
X128466309Y-99126380D01*
X128561547Y-99126380D01*
X128704404Y-99078761D01*
X128752023Y-99031142D01*
X128752023Y-98697809D01*
X128561547Y-98697809D01*
X129180595Y-98459714D02*
X129180595Y-99126380D01*
X129180595Y-98554952D02*
X129228214Y-98507333D01*
X129323452Y-98459714D01*
X129466309Y-98459714D01*
X129561547Y-98507333D01*
X129609166Y-98602571D01*
X129609166Y-99126380D01*
X130513928Y-99126380D02*
X130513928Y-98126380D01*
X130513928Y-99078761D02*
X130418690Y-99126380D01*
X130228214Y-99126380D01*
X130132976Y-99078761D01*
X130085357Y-99031142D01*
X130037738Y-98935904D01*
X130037738Y-98650190D01*
X130085357Y-98554952D01*
X130132976Y-98507333D01*
X130228214Y-98459714D01*
X130418690Y-98459714D01*
X130513928Y-98507333D01*
%TO.C,U5*%
X141678095Y-87027380D02*
X141678095Y-87836904D01*
X141725714Y-87932142D01*
X141773333Y-87979761D01*
X141868571Y-88027380D01*
X142059047Y-88027380D01*
X142154285Y-87979761D01*
X142201904Y-87932142D01*
X142249523Y-87836904D01*
X142249523Y-87027380D01*
X143201904Y-87027380D02*
X142725714Y-87027380D01*
X142678095Y-87503571D01*
X142725714Y-87455952D01*
X142820952Y-87408333D01*
X143059047Y-87408333D01*
X143154285Y-87455952D01*
X143201904Y-87503571D01*
X143249523Y-87598809D01*
X143249523Y-87836904D01*
X143201904Y-87932142D01*
X143154285Y-87979761D01*
X143059047Y-88027380D01*
X142820952Y-88027380D01*
X142725714Y-87979761D01*
X142678095Y-87932142D01*
X135475714Y-84870380D02*
X134904285Y-84870380D01*
X135190000Y-84870380D02*
X135190000Y-83870380D01*
X135094761Y-84013238D01*
X134999523Y-84108476D01*
X134904285Y-84156095D01*
X148678095Y-109872619D02*
X148725714Y-109825000D01*
X148820952Y-109777380D01*
X149059047Y-109777380D01*
X149154285Y-109825000D01*
X149201904Y-109872619D01*
X149249523Y-109967857D01*
X149249523Y-110063095D01*
X149201904Y-110205952D01*
X148630476Y-110777380D01*
X149249523Y-110777380D01*
X150106666Y-109777380D02*
X149916190Y-109777380D01*
X149820952Y-109825000D01*
X149773333Y-109872619D01*
X149678095Y-110015476D01*
X149630476Y-110205952D01*
X149630476Y-110586904D01*
X149678095Y-110682142D01*
X149725714Y-110729761D01*
X149820952Y-110777380D01*
X150011428Y-110777380D01*
X150106666Y-110729761D01*
X150154285Y-110682142D01*
X150201904Y-110586904D01*
X150201904Y-110348809D01*
X150154285Y-110253571D01*
X150106666Y-110205952D01*
X150011428Y-110158333D01*
X149820952Y-110158333D01*
X149725714Y-110205952D01*
X149678095Y-110253571D01*
X149630476Y-110348809D01*
X138058095Y-81122666D02*
X138534285Y-81122666D01*
X137962857Y-81408380D02*
X138296190Y-80408380D01*
X138629523Y-81408380D01*
X138962857Y-81408380D02*
X138962857Y-80408380D01*
X139534285Y-81408380D01*
X139534285Y-80408380D01*
X139867619Y-80408380D02*
X140439047Y-80408380D01*
X140153333Y-81408380D02*
X140153333Y-80408380D01*
X140772380Y-80884571D02*
X141105714Y-80884571D01*
X141248571Y-81408380D02*
X140772380Y-81408380D01*
X140772380Y-80408380D01*
X141248571Y-80408380D01*
X141677142Y-81408380D02*
X141677142Y-80408380D01*
X142248571Y-81408380D01*
X142248571Y-80408380D01*
X142724761Y-81408380D02*
X142724761Y-80408380D01*
X143296190Y-81408380D01*
X143296190Y-80408380D01*
X143724761Y-81122666D02*
X144200952Y-81122666D01*
X143629523Y-81408380D02*
X143962857Y-80408380D01*
X144296190Y-81408380D01*
X145343809Y-81122666D02*
X145820000Y-81122666D01*
X145248571Y-81408380D02*
X145581904Y-80408380D01*
X145915238Y-81408380D01*
X146820000Y-81408380D02*
X146486666Y-80932190D01*
X146248571Y-81408380D02*
X146248571Y-80408380D01*
X146629523Y-80408380D01*
X146724761Y-80456000D01*
X146772380Y-80503619D01*
X146820000Y-80598857D01*
X146820000Y-80741714D01*
X146772380Y-80836952D01*
X146724761Y-80884571D01*
X146629523Y-80932190D01*
X146248571Y-80932190D01*
X147248571Y-80884571D02*
X147581904Y-80884571D01*
X147724761Y-81408380D02*
X147248571Y-81408380D01*
X147248571Y-80408380D01*
X147724761Y-80408380D01*
X148105714Y-81122666D02*
X148581904Y-81122666D01*
X148010476Y-81408380D02*
X148343809Y-80408380D01*
X148677142Y-81408380D01*
X154154285Y-84110714D02*
X154154285Y-84777380D01*
X153916190Y-83729761D02*
X153678095Y-84444047D01*
X154297142Y-84444047D01*
X154630476Y-83872619D02*
X154678095Y-83825000D01*
X154773333Y-83777380D01*
X155011428Y-83777380D01*
X155106666Y-83825000D01*
X155154285Y-83872619D01*
X155201904Y-83967857D01*
X155201904Y-84063095D01*
X155154285Y-84205952D01*
X154582857Y-84777380D01*
X155201904Y-84777380D01*
X135735523Y-110027380D02*
X135164095Y-110027380D01*
X135449809Y-110027380D02*
X135449809Y-109027380D01*
X135354571Y-109170238D01*
X135259333Y-109265476D01*
X135164095Y-109313095D01*
X136068857Y-109027380D02*
X136735523Y-109027380D01*
X136306952Y-110027380D01*
%TO.C,J1*%
X111752380Y-124658333D02*
X112466666Y-124658333D01*
X112609523Y-124705952D01*
X112704761Y-124801190D01*
X112752380Y-124944047D01*
X112752380Y-125039285D01*
X112752380Y-123658333D02*
X112752380Y-124229761D01*
X112752380Y-123944047D02*
X111752380Y-123944047D01*
X111895238Y-124039285D01*
X111990476Y-124134523D01*
X112038095Y-124229761D01*
%TO.C,U4*%
X114338095Y-120777380D02*
X114338095Y-121586904D01*
X114385714Y-121682142D01*
X114433333Y-121729761D01*
X114528571Y-121777380D01*
X114719047Y-121777380D01*
X114814285Y-121729761D01*
X114861904Y-121682142D01*
X114909523Y-121586904D01*
X114909523Y-120777380D01*
X115814285Y-121110714D02*
X115814285Y-121777380D01*
X115576190Y-120729761D02*
X115338095Y-121444047D01*
X115957142Y-121444047D01*
%TO.C,C2*%
X165827142Y-109216666D02*
X165874761Y-109264285D01*
X165922380Y-109407142D01*
X165922380Y-109502380D01*
X165874761Y-109645238D01*
X165779523Y-109740476D01*
X165684285Y-109788095D01*
X165493809Y-109835714D01*
X165350952Y-109835714D01*
X165160476Y-109788095D01*
X165065238Y-109740476D01*
X164970000Y-109645238D01*
X164922380Y-109502380D01*
X164922380Y-109407142D01*
X164970000Y-109264285D01*
X165017619Y-109216666D01*
X165017619Y-108835714D02*
X164970000Y-108788095D01*
X164922380Y-108692857D01*
X164922380Y-108454761D01*
X164970000Y-108359523D01*
X165017619Y-108311904D01*
X165112857Y-108264285D01*
X165208095Y-108264285D01*
X165350952Y-108311904D01*
X165922380Y-108883333D01*
X165922380Y-108264285D01*
%TO.C,R2*%
X164192380Y-116122666D02*
X163716190Y-116456000D01*
X164192380Y-116694095D02*
X163192380Y-116694095D01*
X163192380Y-116313142D01*
X163240000Y-116217904D01*
X163287619Y-116170285D01*
X163382857Y-116122666D01*
X163525714Y-116122666D01*
X163620952Y-116170285D01*
X163668571Y-116217904D01*
X163716190Y-116313142D01*
X163716190Y-116694095D01*
X163287619Y-115741714D02*
X163240000Y-115694095D01*
X163192380Y-115598857D01*
X163192380Y-115360761D01*
X163240000Y-115265523D01*
X163287619Y-115217904D01*
X163382857Y-115170285D01*
X163478095Y-115170285D01*
X163620952Y-115217904D01*
X164192380Y-115789333D01*
X164192380Y-115170285D01*
%TO.C,R4*%
X115773333Y-103258380D02*
X115440000Y-102782190D01*
X115201904Y-103258380D02*
X115201904Y-102258380D01*
X115582857Y-102258380D01*
X115678095Y-102306000D01*
X115725714Y-102353619D01*
X115773333Y-102448857D01*
X115773333Y-102591714D01*
X115725714Y-102686952D01*
X115678095Y-102734571D01*
X115582857Y-102782190D01*
X115201904Y-102782190D01*
X116630476Y-102591714D02*
X116630476Y-103258380D01*
X116392380Y-102210761D02*
X116154285Y-102925047D01*
X116773333Y-102925047D01*
%TO.C,C13*%
X132047142Y-88842857D02*
X132094761Y-88890476D01*
X132142380Y-89033333D01*
X132142380Y-89128571D01*
X132094761Y-89271428D01*
X131999523Y-89366666D01*
X131904285Y-89414285D01*
X131713809Y-89461904D01*
X131570952Y-89461904D01*
X131380476Y-89414285D01*
X131285238Y-89366666D01*
X131190000Y-89271428D01*
X131142380Y-89128571D01*
X131142380Y-89033333D01*
X131190000Y-88890476D01*
X131237619Y-88842857D01*
X132142380Y-87890476D02*
X132142380Y-88461904D01*
X132142380Y-88176190D02*
X131142380Y-88176190D01*
X131285238Y-88271428D01*
X131380476Y-88366666D01*
X131428095Y-88461904D01*
X131142380Y-87557142D02*
X131142380Y-86938095D01*
X131523333Y-87271428D01*
X131523333Y-87128571D01*
X131570952Y-87033333D01*
X131618571Y-86985714D01*
X131713809Y-86938095D01*
X131951904Y-86938095D01*
X132047142Y-86985714D01*
X132094761Y-87033333D01*
X132142380Y-87128571D01*
X132142380Y-87414285D01*
X132094761Y-87509523D01*
X132047142Y-87557142D01*
%TO.C,U1*%
X175252380Y-110761904D02*
X176061904Y-110761904D01*
X176157142Y-110714285D01*
X176204761Y-110666666D01*
X176252380Y-110571428D01*
X176252380Y-110380952D01*
X176204761Y-110285714D01*
X176157142Y-110238095D01*
X176061904Y-110190476D01*
X175252380Y-110190476D01*
X176252380Y-109190476D02*
X176252380Y-109761904D01*
X176252380Y-109476190D02*
X175252380Y-109476190D01*
X175395238Y-109571428D01*
X175490476Y-109666666D01*
X175538095Y-109761904D01*
%TO.C,J7*%
X122666666Y-122202380D02*
X122666666Y-122916666D01*
X122619047Y-123059523D01*
X122523809Y-123154761D01*
X122380952Y-123202380D01*
X122285714Y-123202380D01*
X123047619Y-122202380D02*
X123714285Y-122202380D01*
X123285714Y-123202380D01*
%TO.C,FB1*%
X173666666Y-100928571D02*
X173333333Y-100928571D01*
X173333333Y-101452380D02*
X173333333Y-100452380D01*
X173809523Y-100452380D01*
X174523809Y-100928571D02*
X174666666Y-100976190D01*
X174714285Y-101023809D01*
X174761904Y-101119047D01*
X174761904Y-101261904D01*
X174714285Y-101357142D01*
X174666666Y-101404761D01*
X174571428Y-101452380D01*
X174190476Y-101452380D01*
X174190476Y-100452380D01*
X174523809Y-100452380D01*
X174619047Y-100500000D01*
X174666666Y-100547619D01*
X174714285Y-100642857D01*
X174714285Y-100738095D01*
X174666666Y-100833333D01*
X174619047Y-100880952D01*
X174523809Y-100928571D01*
X174190476Y-100928571D01*
X175714285Y-101452380D02*
X175142857Y-101452380D01*
X175428571Y-101452380D02*
X175428571Y-100452380D01*
X175333333Y-100595238D01*
X175238095Y-100690476D01*
X175142857Y-100738095D01*
%TO.C,C11*%
X125652142Y-126167857D02*
X125699761Y-126215476D01*
X125747380Y-126358333D01*
X125747380Y-126453571D01*
X125699761Y-126596428D01*
X125604523Y-126691666D01*
X125509285Y-126739285D01*
X125318809Y-126786904D01*
X125175952Y-126786904D01*
X124985476Y-126739285D01*
X124890238Y-126691666D01*
X124795000Y-126596428D01*
X124747380Y-126453571D01*
X124747380Y-126358333D01*
X124795000Y-126215476D01*
X124842619Y-126167857D01*
X125747380Y-125215476D02*
X125747380Y-125786904D01*
X125747380Y-125501190D02*
X124747380Y-125501190D01*
X124890238Y-125596428D01*
X124985476Y-125691666D01*
X125033095Y-125786904D01*
X125747380Y-124263095D02*
X125747380Y-124834523D01*
X125747380Y-124548809D02*
X124747380Y-124548809D01*
X124890238Y-124644047D01*
X124985476Y-124739285D01*
X125033095Y-124834523D01*
%TO.C,R1*%
X164192380Y-120522666D02*
X163716190Y-120856000D01*
X164192380Y-121094095D02*
X163192380Y-121094095D01*
X163192380Y-120713142D01*
X163240000Y-120617904D01*
X163287619Y-120570285D01*
X163382857Y-120522666D01*
X163525714Y-120522666D01*
X163620952Y-120570285D01*
X163668571Y-120617904D01*
X163716190Y-120713142D01*
X163716190Y-121094095D01*
X164192380Y-119570285D02*
X164192380Y-120141714D01*
X164192380Y-119856000D02*
X163192380Y-119856000D01*
X163335238Y-119951238D01*
X163430476Y-120046476D01*
X163478095Y-120141714D01*
%TO.C,R6*%
X115773333Y-111178380D02*
X115440000Y-110702190D01*
X115201904Y-111178380D02*
X115201904Y-110178380D01*
X115582857Y-110178380D01*
X115678095Y-110226000D01*
X115725714Y-110273619D01*
X115773333Y-110368857D01*
X115773333Y-110511714D01*
X115725714Y-110606952D01*
X115678095Y-110654571D01*
X115582857Y-110702190D01*
X115201904Y-110702190D01*
X116630476Y-110178380D02*
X116440000Y-110178380D01*
X116344761Y-110226000D01*
X116297142Y-110273619D01*
X116201904Y-110416476D01*
X116154285Y-110606952D01*
X116154285Y-110987904D01*
X116201904Y-111083142D01*
X116249523Y-111130761D01*
X116344761Y-111178380D01*
X116535238Y-111178380D01*
X116630476Y-111130761D01*
X116678095Y-111083142D01*
X116725714Y-110987904D01*
X116725714Y-110749809D01*
X116678095Y-110654571D01*
X116630476Y-110606952D01*
X116535238Y-110559333D01*
X116344761Y-110559333D01*
X116249523Y-110606952D01*
X116201904Y-110654571D01*
X116154285Y-110749809D01*
%TO.C,R5*%
X115773333Y-107218380D02*
X115440000Y-106742190D01*
X115201904Y-107218380D02*
X115201904Y-106218380D01*
X115582857Y-106218380D01*
X115678095Y-106266000D01*
X115725714Y-106313619D01*
X115773333Y-106408857D01*
X115773333Y-106551714D01*
X115725714Y-106646952D01*
X115678095Y-106694571D01*
X115582857Y-106742190D01*
X115201904Y-106742190D01*
X116678095Y-106218380D02*
X116201904Y-106218380D01*
X116154285Y-106694571D01*
X116201904Y-106646952D01*
X116297142Y-106599333D01*
X116535238Y-106599333D01*
X116630476Y-106646952D01*
X116678095Y-106694571D01*
X116725714Y-106789809D01*
X116725714Y-107027904D01*
X116678095Y-107123142D01*
X116630476Y-107170761D01*
X116535238Y-107218380D01*
X116297142Y-107218380D01*
X116201904Y-107170761D01*
X116154285Y-107123142D01*
%TO.C,FB2*%
X168666666Y-100878571D02*
X168333333Y-100878571D01*
X168333333Y-101402380D02*
X168333333Y-100402380D01*
X168809523Y-100402380D01*
X169523809Y-100878571D02*
X169666666Y-100926190D01*
X169714285Y-100973809D01*
X169761904Y-101069047D01*
X169761904Y-101211904D01*
X169714285Y-101307142D01*
X169666666Y-101354761D01*
X169571428Y-101402380D01*
X169190476Y-101402380D01*
X169190476Y-100402380D01*
X169523809Y-100402380D01*
X169619047Y-100450000D01*
X169666666Y-100497619D01*
X169714285Y-100592857D01*
X169714285Y-100688095D01*
X169666666Y-100783333D01*
X169619047Y-100830952D01*
X169523809Y-100878571D01*
X169190476Y-100878571D01*
X170142857Y-100497619D02*
X170190476Y-100450000D01*
X170285714Y-100402380D01*
X170523809Y-100402380D01*
X170619047Y-100450000D01*
X170666666Y-100497619D01*
X170714285Y-100592857D01*
X170714285Y-100688095D01*
X170666666Y-100830952D01*
X170095238Y-101402380D01*
X170714285Y-101402380D01*
%TO.C,R3*%
X115773333Y-99298380D02*
X115440000Y-98822190D01*
X115201904Y-99298380D02*
X115201904Y-98298380D01*
X115582857Y-98298380D01*
X115678095Y-98346000D01*
X115725714Y-98393619D01*
X115773333Y-98488857D01*
X115773333Y-98631714D01*
X115725714Y-98726952D01*
X115678095Y-98774571D01*
X115582857Y-98822190D01*
X115201904Y-98822190D01*
X116106666Y-98298380D02*
X116725714Y-98298380D01*
X116392380Y-98679333D01*
X116535238Y-98679333D01*
X116630476Y-98726952D01*
X116678095Y-98774571D01*
X116725714Y-98869809D01*
X116725714Y-99107904D01*
X116678095Y-99203142D01*
X116630476Y-99250761D01*
X116535238Y-99298380D01*
X116249523Y-99298380D01*
X116154285Y-99250761D01*
X116106666Y-99203142D01*
%TO.C,C3*%
X120427142Y-93166666D02*
X120474761Y-93214285D01*
X120522380Y-93357142D01*
X120522380Y-93452380D01*
X120474761Y-93595238D01*
X120379523Y-93690476D01*
X120284285Y-93738095D01*
X120093809Y-93785714D01*
X119950952Y-93785714D01*
X119760476Y-93738095D01*
X119665238Y-93690476D01*
X119570000Y-93595238D01*
X119522380Y-93452380D01*
X119522380Y-93357142D01*
X119570000Y-93214285D01*
X119617619Y-93166666D01*
X119522380Y-92833333D02*
X119522380Y-92214285D01*
X119903333Y-92547619D01*
X119903333Y-92404761D01*
X119950952Y-92309523D01*
X119998571Y-92261904D01*
X120093809Y-92214285D01*
X120331904Y-92214285D01*
X120427142Y-92261904D01*
X120474761Y-92309523D01*
X120522380Y-92404761D01*
X120522380Y-92690476D01*
X120474761Y-92785714D01*
X120427142Y-92833333D01*
%TO.C,J6*%
X123066666Y-110826380D02*
X123066666Y-111540666D01*
X123019047Y-111683523D01*
X122923809Y-111778761D01*
X122780952Y-111826380D01*
X122685714Y-111826380D01*
X123971428Y-110826380D02*
X123780952Y-110826380D01*
X123685714Y-110874000D01*
X123638095Y-110921619D01*
X123542857Y-111064476D01*
X123495238Y-111254952D01*
X123495238Y-111635904D01*
X123542857Y-111731142D01*
X123590476Y-111778761D01*
X123685714Y-111826380D01*
X123876190Y-111826380D01*
X123971428Y-111778761D01*
X124019047Y-111731142D01*
X124066666Y-111635904D01*
X124066666Y-111397809D01*
X124019047Y-111302571D01*
X123971428Y-111254952D01*
X123876190Y-111207333D01*
X123685714Y-111207333D01*
X123590476Y-111254952D01*
X123542857Y-111302571D01*
X123495238Y-111397809D01*
%TO.C,J3*%
X157618666Y-93482380D02*
X157618666Y-94196666D01*
X157571047Y-94339523D01*
X157475809Y-94434761D01*
X157332952Y-94482380D01*
X157237714Y-94482380D01*
X157999619Y-93482380D02*
X158618666Y-93482380D01*
X158285333Y-93863333D01*
X158428190Y-93863333D01*
X158523428Y-93910952D01*
X158571047Y-93958571D01*
X158618666Y-94053809D01*
X158618666Y-94291904D01*
X158571047Y-94387142D01*
X158523428Y-94434761D01*
X158428190Y-94482380D01*
X158142476Y-94482380D01*
X158047238Y-94434761D01*
X157999619Y-94387142D01*
%TO.C,SW1*%
X120166666Y-85404761D02*
X120309523Y-85452380D01*
X120547619Y-85452380D01*
X120642857Y-85404761D01*
X120690476Y-85357142D01*
X120738095Y-85261904D01*
X120738095Y-85166666D01*
X120690476Y-85071428D01*
X120642857Y-85023809D01*
X120547619Y-84976190D01*
X120357142Y-84928571D01*
X120261904Y-84880952D01*
X120214285Y-84833333D01*
X120166666Y-84738095D01*
X120166666Y-84642857D01*
X120214285Y-84547619D01*
X120261904Y-84500000D01*
X120357142Y-84452380D01*
X120595238Y-84452380D01*
X120738095Y-84500000D01*
X121071428Y-84452380D02*
X121309523Y-85452380D01*
X121500000Y-84738095D01*
X121690476Y-85452380D01*
X121928571Y-84452380D01*
X122833333Y-85452380D02*
X122261904Y-85452380D01*
X122547619Y-85452380D02*
X122547619Y-84452380D01*
X122452380Y-84595238D01*
X122357142Y-84690476D01*
X122261904Y-84738095D01*
%TO.C,TP1*%
X168452380Y-118671904D02*
X168452380Y-118100476D01*
X169452380Y-118386190D02*
X168452380Y-118386190D01*
X169452380Y-117767142D02*
X168452380Y-117767142D01*
X168452380Y-117386190D01*
X168500000Y-117290952D01*
X168547619Y-117243333D01*
X168642857Y-117195714D01*
X168785714Y-117195714D01*
X168880952Y-117243333D01*
X168928571Y-117290952D01*
X168976190Y-117386190D01*
X168976190Y-117767142D01*
X169452380Y-116243333D02*
X169452380Y-116814761D01*
X169452380Y-116529047D02*
X168452380Y-116529047D01*
X168595238Y-116624285D01*
X168690476Y-116719523D01*
X168738095Y-116814761D01*
%TO.C,C1*%
X171833333Y-106787142D02*
X171785714Y-106834761D01*
X171642857Y-106882380D01*
X171547619Y-106882380D01*
X171404761Y-106834761D01*
X171309523Y-106739523D01*
X171261904Y-106644285D01*
X171214285Y-106453809D01*
X171214285Y-106310952D01*
X171261904Y-106120476D01*
X171309523Y-106025238D01*
X171404761Y-105930000D01*
X171547619Y-105882380D01*
X171642857Y-105882380D01*
X171785714Y-105930000D01*
X171833333Y-105977619D01*
X172785714Y-106882380D02*
X172214285Y-106882380D01*
X172500000Y-106882380D02*
X172500000Y-105882380D01*
X172404761Y-106025238D01*
X172309523Y-106120476D01*
X172214285Y-106168095D01*
%TO.C,J5*%
X161166666Y-137500380D02*
X161166666Y-138214666D01*
X161119047Y-138357523D01*
X161023809Y-138452761D01*
X160880952Y-138500380D01*
X160785714Y-138500380D01*
X162119047Y-137500380D02*
X161642857Y-137500380D01*
X161595238Y-137976571D01*
X161642857Y-137928952D01*
X161738095Y-137881333D01*
X161976190Y-137881333D01*
X162071428Y-137928952D01*
X162119047Y-137976571D01*
X162166666Y-138071809D01*
X162166666Y-138309904D01*
X162119047Y-138405142D01*
X162071428Y-138452761D01*
X161976190Y-138500380D01*
X161738095Y-138500380D01*
X161642857Y-138452761D01*
X161595238Y-138405142D01*
%TO.C,J4*%
X158634666Y-121822380D02*
X158634666Y-122536666D01*
X158587047Y-122679523D01*
X158491809Y-122774761D01*
X158348952Y-122822380D01*
X158253714Y-122822380D01*
X159539428Y-122155714D02*
X159539428Y-122822380D01*
X159301333Y-121774761D02*
X159063238Y-122489047D01*
X159682285Y-122489047D01*
%TO.C,TP2*%
X170452380Y-118671904D02*
X170452380Y-118100476D01*
X171452380Y-118386190D02*
X170452380Y-118386190D01*
X171452380Y-117767142D02*
X170452380Y-117767142D01*
X170452380Y-117386190D01*
X170500000Y-117290952D01*
X170547619Y-117243333D01*
X170642857Y-117195714D01*
X170785714Y-117195714D01*
X170880952Y-117243333D01*
X170928571Y-117290952D01*
X170976190Y-117386190D01*
X170976190Y-117767142D01*
X170547619Y-116814761D02*
X170500000Y-116767142D01*
X170452380Y-116671904D01*
X170452380Y-116433809D01*
X170500000Y-116338571D01*
X170547619Y-116290952D01*
X170642857Y-116243333D01*
X170738095Y-116243333D01*
X170880952Y-116290952D01*
X171452380Y-116862380D01*
X171452380Y-116243333D01*
%TO.C,C12*%
X130047142Y-88892857D02*
X130094761Y-88940476D01*
X130142380Y-89083333D01*
X130142380Y-89178571D01*
X130094761Y-89321428D01*
X129999523Y-89416666D01*
X129904285Y-89464285D01*
X129713809Y-89511904D01*
X129570952Y-89511904D01*
X129380476Y-89464285D01*
X129285238Y-89416666D01*
X129190000Y-89321428D01*
X129142380Y-89178571D01*
X129142380Y-89083333D01*
X129190000Y-88940476D01*
X129237619Y-88892857D01*
X130142380Y-87940476D02*
X130142380Y-88511904D01*
X130142380Y-88226190D02*
X129142380Y-88226190D01*
X129285238Y-88321428D01*
X129380476Y-88416666D01*
X129428095Y-88511904D01*
X129237619Y-87559523D02*
X129190000Y-87511904D01*
X129142380Y-87416666D01*
X129142380Y-87178571D01*
X129190000Y-87083333D01*
X129237619Y-87035714D01*
X129332857Y-86988095D01*
X129428095Y-86988095D01*
X129570952Y-87035714D01*
X130142380Y-87607142D01*
X130142380Y-86988095D01*
%TO.C,U2*%
X134988095Y-119202380D02*
X134988095Y-120011904D01*
X135035714Y-120107142D01*
X135083333Y-120154761D01*
X135178571Y-120202380D01*
X135369047Y-120202380D01*
X135464285Y-120154761D01*
X135511904Y-120107142D01*
X135559523Y-120011904D01*
X135559523Y-119202380D01*
X135988095Y-119297619D02*
X136035714Y-119250000D01*
X136130952Y-119202380D01*
X136369047Y-119202380D01*
X136464285Y-119250000D01*
X136511904Y-119297619D01*
X136559523Y-119392857D01*
X136559523Y-119488095D01*
X136511904Y-119630952D01*
X135940476Y-120202380D01*
X136559523Y-120202380D01*
%TO.C,TP3*%
X172452380Y-118671904D02*
X172452380Y-118100476D01*
X173452380Y-118386190D02*
X172452380Y-118386190D01*
X173452380Y-117767142D02*
X172452380Y-117767142D01*
X172452380Y-117386190D01*
X172500000Y-117290952D01*
X172547619Y-117243333D01*
X172642857Y-117195714D01*
X172785714Y-117195714D01*
X172880952Y-117243333D01*
X172928571Y-117290952D01*
X172976190Y-117386190D01*
X172976190Y-117767142D01*
X172452380Y-116862380D02*
X172452380Y-116243333D01*
X172833333Y-116576666D01*
X172833333Y-116433809D01*
X172880952Y-116338571D01*
X172928571Y-116290952D01*
X173023809Y-116243333D01*
X173261904Y-116243333D01*
X173357142Y-116290952D01*
X173404761Y-116338571D01*
X173452380Y-116433809D01*
X173452380Y-116719523D01*
X173404761Y-116814761D01*
X173357142Y-116862380D01*
%TO.C,TP4*%
X174452380Y-118671904D02*
X174452380Y-118100476D01*
X175452380Y-118386190D02*
X174452380Y-118386190D01*
X175452380Y-117767142D02*
X174452380Y-117767142D01*
X174452380Y-117386190D01*
X174500000Y-117290952D01*
X174547619Y-117243333D01*
X174642857Y-117195714D01*
X174785714Y-117195714D01*
X174880952Y-117243333D01*
X174928571Y-117290952D01*
X174976190Y-117386190D01*
X174976190Y-117767142D01*
X174785714Y-116338571D02*
X175452380Y-116338571D01*
X174404761Y-116576666D02*
X175119047Y-116814761D01*
X175119047Y-116195714D01*
%TO.C,J2*%
X114416666Y-91828380D02*
X114416666Y-92542666D01*
X114369047Y-92685523D01*
X114273809Y-92780761D01*
X114130952Y-92828380D01*
X114035714Y-92828380D01*
X114845238Y-91923619D02*
X114892857Y-91876000D01*
X114988095Y-91828380D01*
X115226190Y-91828380D01*
X115321428Y-91876000D01*
X115369047Y-91923619D01*
X115416666Y-92018857D01*
X115416666Y-92114095D01*
X115369047Y-92256952D01*
X114797619Y-92828380D01*
X115416666Y-92828380D01*
D11*
%TO.C,U5*%
X133640000Y-108575000D02*
X133640000Y-107925000D01*
X151640000Y-76925000D02*
X133640000Y-76925000D01*
X151640000Y-83675000D02*
X151640000Y-76925000D01*
X133640000Y-108575000D02*
X151640000Y-108575000D01*
X133640000Y-76925000D02*
X133640000Y-83675000D01*
X151640000Y-107675000D02*
X151640000Y-108575000D01*
X151640000Y-83235000D02*
X133640000Y-83255000D01*
D10*
%TO.C,J1*%
X111625000Y-123250000D02*
X111625000Y-122525000D01*
X105650000Y-120175000D02*
X105500000Y-120175000D01*
X105050000Y-128175000D02*
X105500000Y-128175000D01*
X105500000Y-120475000D02*
X105050000Y-120475000D01*
X111200000Y-122525000D02*
X111200000Y-121525000D01*
X105500000Y-120175000D02*
X105500000Y-120475000D01*
X108050000Y-128475000D02*
X109450000Y-128475000D01*
X111625000Y-122525000D02*
X111200000Y-122525000D01*
X105500000Y-128175000D02*
X105500000Y-128475000D01*
X105500000Y-128475000D02*
X105650000Y-128475000D01*
X109450000Y-120175000D02*
X108050000Y-120175000D01*
X111200000Y-126125000D02*
X111200000Y-127125000D01*
D11*
%TO.C,U4*%
X115100000Y-125560000D02*
X114300000Y-125560000D01*
X115100000Y-122440000D02*
X115900000Y-122440000D01*
X115100000Y-125560000D02*
X115900000Y-125560000D01*
X115100000Y-122440000D02*
X113300000Y-122440000D01*
%TO.C,C2*%
X167410000Y-109190580D02*
X167410000Y-108909420D01*
X166390000Y-109190580D02*
X166390000Y-108909420D01*
%TO.C,R2*%
X161620500Y-115474758D02*
X161620500Y-115000242D01*
X162665500Y-115474758D02*
X162665500Y-115000242D01*
%TO.C,R4*%
X115702742Y-103713500D02*
X116177258Y-103713500D01*
X115702742Y-104758500D02*
X116177258Y-104758500D01*
%TO.C,C13*%
X131180000Y-85340580D02*
X131180000Y-85059420D01*
X132200000Y-85340580D02*
X132200000Y-85059420D01*
%TO.C,U1*%
X174610000Y-108290000D02*
X174610000Y-107390000D01*
X169390000Y-108290000D02*
X169390000Y-107390000D01*
X174610000Y-111710000D02*
X174610000Y-112610000D01*
X169390000Y-112610000D02*
X170290000Y-112610000D01*
X174610000Y-112610000D02*
X173710000Y-112610000D01*
X169390000Y-107390000D02*
X170290000Y-107390000D01*
X169390000Y-111710000D02*
X169390000Y-112610000D01*
%TO.C,J7*%
X124760000Y-121292500D02*
X121000000Y-121292500D01*
X124760000Y-114672500D02*
X124760000Y-121292500D01*
X119520000Y-122682500D02*
X118520000Y-122682500D01*
X119020000Y-121682500D02*
X119520000Y-122682500D01*
X121000000Y-114672500D02*
X117240000Y-114672500D01*
X121000000Y-114672500D02*
X124760000Y-114672500D01*
X117240000Y-121292500D02*
X121000000Y-121292500D01*
X117240000Y-114672500D02*
X117240000Y-121292500D01*
X118520000Y-122682500D02*
X119020000Y-121682500D01*
%TO.C,FB1*%
X174899622Y-101940000D02*
X174100378Y-101940000D01*
X174899622Y-103060000D02*
X174100378Y-103060000D01*
%TO.C,C11*%
X127235000Y-125665580D02*
X127235000Y-125384420D01*
X126215000Y-125665580D02*
X126215000Y-125384420D01*
%TO.C,R1*%
X162665500Y-119525242D02*
X162665500Y-119999758D01*
X161620500Y-119525242D02*
X161620500Y-119999758D01*
%TO.C,R6*%
X115702742Y-112678500D02*
X116177258Y-112678500D01*
X115702742Y-111633500D02*
X116177258Y-111633500D01*
%TO.C,R5*%
X115702742Y-108718500D02*
X116177258Y-108718500D01*
X115702742Y-107673500D02*
X116177258Y-107673500D01*
%TO.C,FB2*%
X169100378Y-103060000D02*
X169899622Y-103060000D01*
X169100378Y-101940000D02*
X169899622Y-101940000D01*
%TO.C,R3*%
X115702742Y-100798500D02*
X116177258Y-100798500D01*
X115702742Y-99753500D02*
X116177258Y-99753500D01*
%TO.C,C3*%
X122010000Y-93140580D02*
X122010000Y-92859420D01*
X120990000Y-93140580D02*
X120990000Y-92859420D01*
%TO.C,J6*%
X127270000Y-110164000D02*
X124670000Y-110164000D01*
X127270000Y-97344000D02*
X122070000Y-97344000D01*
X122070000Y-107564000D02*
X122070000Y-97344000D01*
X127270000Y-110164000D02*
X127270000Y-97344000D01*
X124670000Y-107564000D02*
X122070000Y-107564000D01*
X123400000Y-110164000D02*
X122070000Y-110164000D01*
X124670000Y-110164000D02*
X124670000Y-107564000D01*
X122070000Y-110164000D02*
X122070000Y-108834000D01*
%TO.C,J3*%
X159282000Y-90430000D02*
X159282000Y-85290000D01*
X159282000Y-85290000D02*
X156622000Y-85290000D01*
X159282000Y-91700000D02*
X159282000Y-93030000D01*
X159282000Y-90430000D02*
X156622000Y-90430000D01*
X156622000Y-90430000D02*
X156622000Y-85290000D01*
X159282000Y-93030000D02*
X157952000Y-93030000D01*
%TO.C,SW1*%
X118000000Y-84250000D02*
X118000000Y-85750000D01*
X125000000Y-85750000D02*
X125000000Y-84250000D01*
X119250000Y-88250000D02*
X123750000Y-88250000D01*
X123750000Y-81750000D02*
X119250000Y-81750000D01*
%TO.C,TP1*%
X169700000Y-114910000D02*
G75*
G03*
X169700000Y-114910000I-700000J0D01*
G01*
%TO.C,C1*%
X172140580Y-105510000D02*
X171859420Y-105510000D01*
X172140580Y-104490000D02*
X171859420Y-104490000D01*
%TO.C,J5*%
X127150000Y-133670000D02*
X127150000Y-136330000D01*
X160230000Y-133670000D02*
X127150000Y-133670000D01*
X160230000Y-136330000D02*
X127150000Y-136330000D01*
X160230000Y-133670000D02*
X160230000Y-136330000D01*
X161500000Y-133670000D02*
X162830000Y-133670000D01*
X162830000Y-133670000D02*
X162830000Y-135000000D01*
%TO.C,J4*%
X160298000Y-118770000D02*
X157638000Y-118770000D01*
X160298000Y-121370000D02*
X158968000Y-121370000D01*
X160298000Y-118770000D02*
X160298000Y-111090000D01*
X160298000Y-111090000D02*
X157638000Y-111090000D01*
X157638000Y-118770000D02*
X157638000Y-111090000D01*
X160298000Y-120040000D02*
X160298000Y-121370000D01*
%TO.C,TP2*%
X171700000Y-114910000D02*
G75*
G03*
X171700000Y-114910000I-700000J0D01*
G01*
%TO.C,C12*%
X130200000Y-85340580D02*
X130200000Y-85059420D01*
X129180000Y-85340580D02*
X129180000Y-85059420D01*
%TO.C,U2*%
X132755000Y-120575000D02*
X131255000Y-120575000D01*
X131255000Y-120845000D02*
X128425000Y-120845000D01*
X131255000Y-120575000D02*
X131255000Y-120845000D01*
X131255000Y-127475000D02*
X131255000Y-127205000D01*
X131255000Y-127205000D02*
X130155000Y-127205000D01*
X132755000Y-127475000D02*
X131255000Y-127475000D01*
%TO.C,TP3*%
X173700000Y-114910000D02*
G75*
G03*
X173700000Y-114910000I-700000J0D01*
G01*
%TO.C,TP4*%
X175700000Y-114910000D02*
G75*
G03*
X175700000Y-114910000I-700000J0D01*
G01*
%TO.C,J2*%
X113450000Y-117896000D02*
X106830000Y-117896000D01*
X113450000Y-90576000D02*
X106830000Y-90576000D01*
X105440000Y-92856000D02*
X105440000Y-91856000D01*
X113450000Y-104236000D02*
X113450000Y-117896000D01*
X106830000Y-117896000D02*
X106830000Y-104236000D01*
X106830000Y-90576000D02*
X106830000Y-104236000D01*
X105440000Y-91856000D02*
X106440000Y-92356000D01*
X113450000Y-104236000D02*
X113450000Y-90576000D01*
X106440000Y-92356000D02*
X105440000Y-92856000D01*
%TD*%
M02*
