%TF.GenerationSoftware,KiCad,Pcbnew,6.0.10+dfsg-2*%
%TF.CreationDate,2023-02-01T09:38:31-05:00*%
%TF.ProjectId,ParentsStove,50617265-6e74-4735-9374-6f76652e6b69,rev?*%
%TF.SameCoordinates,Original*%
%TF.FileFunction,Legend,Bot*%
%TF.FilePolarity,Positive*%
%FSLAX46Y46*%
G04 Gerber Fmt 4.6, Leading zero omitted, Abs format (unit mm)*
G04 Created by KiCad (PCBNEW 6.0.10+dfsg-2) date 2023-02-01 09:38:31*
%MOMM*%
%LPD*%
G01*
G04 APERTURE LIST*
%ADD10C,0.150000*%
%ADD11C,0.400000*%
%ADD12C,0.100000*%
%ADD13C,0.120000*%
%ADD14C,0.010000*%
G04 APERTURE END LIST*
D10*
X183607142Y-127563619D02*
X183559523Y-127516000D01*
X183464285Y-127468380D01*
X183226190Y-127468380D01*
X183130952Y-127516000D01*
X183083333Y-127563619D01*
X183035714Y-127658857D01*
X183035714Y-127754095D01*
X183083333Y-127896952D01*
X183654761Y-128468380D01*
X183035714Y-128468380D01*
X182416666Y-127468380D02*
X182321428Y-127468380D01*
X182226190Y-127516000D01*
X182178571Y-127563619D01*
X182130952Y-127658857D01*
X182083333Y-127849333D01*
X182083333Y-128087428D01*
X182130952Y-128277904D01*
X182178571Y-128373142D01*
X182226190Y-128420761D01*
X182321428Y-128468380D01*
X182416666Y-128468380D01*
X182511904Y-128420761D01*
X182559523Y-128373142D01*
X182607142Y-128277904D01*
X182654761Y-128087428D01*
X182654761Y-127849333D01*
X182607142Y-127658857D01*
X182559523Y-127563619D01*
X182511904Y-127516000D01*
X182416666Y-127468380D01*
X181702380Y-127563619D02*
X181654761Y-127516000D01*
X181559523Y-127468380D01*
X181321428Y-127468380D01*
X181226190Y-127516000D01*
X181178571Y-127563619D01*
X181130952Y-127658857D01*
X181130952Y-127754095D01*
X181178571Y-127896952D01*
X181750000Y-128468380D01*
X181130952Y-128468380D01*
X180797619Y-127468380D02*
X180178571Y-127468380D01*
X180511904Y-127849333D01*
X180369047Y-127849333D01*
X180273809Y-127896952D01*
X180226190Y-127944571D01*
X180178571Y-128039809D01*
X180178571Y-128277904D01*
X180226190Y-128373142D01*
X180273809Y-128420761D01*
X180369047Y-128468380D01*
X180654761Y-128468380D01*
X180750000Y-128420761D01*
X180797619Y-128373142D01*
X179750000Y-128087428D02*
X178988095Y-128087428D01*
X178321428Y-127468380D02*
X178226190Y-127468380D01*
X178130952Y-127516000D01*
X178083333Y-127563619D01*
X178035714Y-127658857D01*
X177988095Y-127849333D01*
X177988095Y-128087428D01*
X178035714Y-128277904D01*
X178083333Y-128373142D01*
X178130952Y-128420761D01*
X178226190Y-128468380D01*
X178321428Y-128468380D01*
X178416666Y-128420761D01*
X178464285Y-128373142D01*
X178511904Y-128277904D01*
X178559523Y-128087428D01*
X178559523Y-127849333D01*
X178511904Y-127658857D01*
X178464285Y-127563619D01*
X178416666Y-127516000D01*
X178321428Y-127468380D01*
X177035714Y-128468380D02*
X177607142Y-128468380D01*
X177321428Y-128468380D02*
X177321428Y-127468380D01*
X177416666Y-127611238D01*
X177511904Y-127706476D01*
X177607142Y-127754095D01*
X176607142Y-128087428D02*
X175845238Y-128087428D01*
X175178571Y-127468380D02*
X175083333Y-127468380D01*
X174988095Y-127516000D01*
X174940476Y-127563619D01*
X174892857Y-127658857D01*
X174845238Y-127849333D01*
X174845238Y-128087428D01*
X174892857Y-128277904D01*
X174940476Y-128373142D01*
X174988095Y-128420761D01*
X175083333Y-128468380D01*
X175178571Y-128468380D01*
X175273809Y-128420761D01*
X175321428Y-128373142D01*
X175369047Y-128277904D01*
X175416666Y-128087428D01*
X175416666Y-127849333D01*
X175369047Y-127658857D01*
X175321428Y-127563619D01*
X175273809Y-127516000D01*
X175178571Y-127468380D01*
X174511904Y-127468380D02*
X173845238Y-127468380D01*
X174273809Y-128468380D01*
X120683214Y-99126380D02*
X121159404Y-99126380D01*
X121159404Y-98126380D01*
X120587976Y-99221619D02*
X119826071Y-99221619D01*
X119587976Y-99126380D02*
X119587976Y-98126380D01*
X119349880Y-98126380D01*
X119207023Y-98174000D01*
X119111785Y-98269238D01*
X119064166Y-98364476D01*
X119016547Y-98554952D01*
X119016547Y-98697809D01*
X119064166Y-98888285D01*
X119111785Y-98983523D01*
X119207023Y-99078761D01*
X119349880Y-99126380D01*
X119587976Y-99126380D01*
X118016547Y-99031142D02*
X118064166Y-99078761D01*
X118207023Y-99126380D01*
X118302261Y-99126380D01*
X118445119Y-99078761D01*
X118540357Y-98983523D01*
X118587976Y-98888285D01*
X118635595Y-98697809D01*
X118635595Y-98554952D01*
X118587976Y-98364476D01*
X118540357Y-98269238D01*
X118445119Y-98174000D01*
X118302261Y-98126380D01*
X118207023Y-98126380D01*
X118064166Y-98174000D01*
X118016547Y-98221619D01*
X129942500Y-106651142D02*
X129990119Y-106698761D01*
X130132976Y-106746380D01*
X130228214Y-106746380D01*
X130371071Y-106698761D01*
X130466309Y-106603523D01*
X130513928Y-106508285D01*
X130561547Y-106317809D01*
X130561547Y-106174952D01*
X130513928Y-105984476D01*
X130466309Y-105889238D01*
X130371071Y-105794000D01*
X130228214Y-105746380D01*
X130132976Y-105746380D01*
X129990119Y-105794000D01*
X129942500Y-105841619D01*
X129037738Y-106746380D02*
X129513928Y-106746380D01*
X129513928Y-105746380D01*
X128704404Y-106746380D02*
X128704404Y-105746380D01*
X128132976Y-106746380D02*
X128561547Y-106174952D01*
X128132976Y-105746380D02*
X128704404Y-106317809D01*
X130037738Y-104111142D02*
X130085357Y-104158761D01*
X130228214Y-104206380D01*
X130323452Y-104206380D01*
X130466309Y-104158761D01*
X130561547Y-104063523D01*
X130609166Y-103968285D01*
X130656785Y-103777809D01*
X130656785Y-103634952D01*
X130609166Y-103444476D01*
X130561547Y-103349238D01*
X130466309Y-103254000D01*
X130323452Y-103206380D01*
X130228214Y-103206380D01*
X130085357Y-103254000D01*
X130037738Y-103301619D01*
X129656785Y-104158761D02*
X129513928Y-104206380D01*
X129275833Y-104206380D01*
X129180595Y-104158761D01*
X129132976Y-104111142D01*
X129085357Y-104015904D01*
X129085357Y-103920666D01*
X129132976Y-103825428D01*
X129180595Y-103777809D01*
X129275833Y-103730190D01*
X129466309Y-103682571D01*
X129561547Y-103634952D01*
X129609166Y-103587333D01*
X129656785Y-103492095D01*
X129656785Y-103396857D01*
X129609166Y-103301619D01*
X129561547Y-103254000D01*
X129466309Y-103206380D01*
X129228214Y-103206380D01*
X129085357Y-103254000D01*
X128466309Y-103206380D02*
X128371071Y-103206380D01*
X128275833Y-103254000D01*
X128228214Y-103301619D01*
X128180595Y-103396857D01*
X128132976Y-103587333D01*
X128132976Y-103825428D01*
X128180595Y-104015904D01*
X128228214Y-104111142D01*
X128275833Y-104158761D01*
X128371071Y-104206380D01*
X128466309Y-104206380D01*
X128561547Y-104158761D01*
X128609166Y-104111142D01*
X128656785Y-104015904D01*
X128704404Y-103825428D01*
X128704404Y-103587333D01*
X128656785Y-103396857D01*
X128609166Y-103301619D01*
X128561547Y-103254000D01*
X128466309Y-103206380D01*
X107919642Y-95768380D02*
X107300595Y-95768380D01*
X107633928Y-96149333D01*
X107491071Y-96149333D01*
X107395833Y-96196952D01*
X107348214Y-96244571D01*
X107300595Y-96339809D01*
X107300595Y-96577904D01*
X107348214Y-96673142D01*
X107395833Y-96720761D01*
X107491071Y-96768380D01*
X107776785Y-96768380D01*
X107872023Y-96720761D01*
X107919642Y-96673142D01*
X107014880Y-95768380D02*
X106681547Y-96768380D01*
X106348214Y-95768380D01*
X106110119Y-95768380D02*
X105491071Y-95768380D01*
X105824404Y-96149333D01*
X105681547Y-96149333D01*
X105586309Y-96196952D01*
X105538690Y-96244571D01*
X105491071Y-96339809D01*
X105491071Y-96577904D01*
X105538690Y-96673142D01*
X105586309Y-96720761D01*
X105681547Y-96768380D01*
X105967261Y-96768380D01*
X106062500Y-96720761D01*
X106110119Y-96673142D01*
X107824404Y-108648380D02*
X107824404Y-107648380D01*
X107157738Y-107648380D02*
X106967261Y-107648380D01*
X106872023Y-107696000D01*
X106776785Y-107791238D01*
X106729166Y-107981714D01*
X106729166Y-108315047D01*
X106776785Y-108505523D01*
X106872023Y-108600761D01*
X106967261Y-108648380D01*
X107157738Y-108648380D01*
X107252976Y-108600761D01*
X107348214Y-108505523D01*
X107395833Y-108315047D01*
X107395833Y-107981714D01*
X107348214Y-107791238D01*
X107252976Y-107696000D01*
X107157738Y-107648380D01*
X106395833Y-107648380D02*
X105776785Y-107648380D01*
X106110119Y-108029333D01*
X105967261Y-108029333D01*
X105872023Y-108076952D01*
X105824404Y-108124571D01*
X105776785Y-108219809D01*
X105776785Y-108457904D01*
X105824404Y-108553142D01*
X105872023Y-108600761D01*
X105967261Y-108648380D01*
X106252976Y-108648380D01*
X106348214Y-108600761D01*
X106395833Y-108553142D01*
X107919642Y-115568380D02*
X107300595Y-115568380D01*
X107633928Y-115949333D01*
X107491071Y-115949333D01*
X107395833Y-115996952D01*
X107348214Y-116044571D01*
X107300595Y-116139809D01*
X107300595Y-116377904D01*
X107348214Y-116473142D01*
X107395833Y-116520761D01*
X107491071Y-116568380D01*
X107776785Y-116568380D01*
X107872023Y-116520761D01*
X107919642Y-116473142D01*
X107014880Y-115568380D02*
X106681547Y-116568380D01*
X106348214Y-115568380D01*
X106110119Y-115568380D02*
X105491071Y-115568380D01*
X105824404Y-115949333D01*
X105681547Y-115949333D01*
X105586309Y-115996952D01*
X105538690Y-116044571D01*
X105491071Y-116139809D01*
X105491071Y-116377904D01*
X105538690Y-116473142D01*
X105586309Y-116520761D01*
X105681547Y-116568380D01*
X105967261Y-116568380D01*
X106062500Y-116520761D01*
X106110119Y-116473142D01*
X121159404Y-106746380D02*
X121159404Y-105746380D01*
X120826071Y-106460666D01*
X120492738Y-105746380D01*
X120492738Y-106746380D01*
X120016547Y-106746380D02*
X120016547Y-105746380D01*
X119587976Y-106698761D02*
X119445119Y-106746380D01*
X119207023Y-106746380D01*
X119111785Y-106698761D01*
X119064166Y-106651142D01*
X119016547Y-106555904D01*
X119016547Y-106460666D01*
X119064166Y-106365428D01*
X119111785Y-106317809D01*
X119207023Y-106270190D01*
X119397500Y-106222571D01*
X119492738Y-106174952D01*
X119540357Y-106127333D01*
X119587976Y-106032095D01*
X119587976Y-105936857D01*
X119540357Y-105841619D01*
X119492738Y-105794000D01*
X119397500Y-105746380D01*
X119159404Y-105746380D01*
X119016547Y-105794000D01*
X118397500Y-105746380D02*
X118207023Y-105746380D01*
X118111785Y-105794000D01*
X118016547Y-105889238D01*
X117968928Y-106079714D01*
X117968928Y-106413047D01*
X118016547Y-106603523D01*
X118111785Y-106698761D01*
X118207023Y-106746380D01*
X118397500Y-106746380D01*
X118492738Y-106698761D01*
X118587976Y-106603523D01*
X118635595Y-106413047D01*
X118635595Y-106079714D01*
X118587976Y-105889238D01*
X118492738Y-105794000D01*
X118397500Y-105746380D01*
X155947261Y-91288380D02*
X155375833Y-91288380D01*
X155661547Y-92288380D02*
X155661547Y-91288380D01*
X155137738Y-92288380D02*
X154613928Y-91621714D01*
X155137738Y-91621714D02*
X154613928Y-92288380D01*
X155232976Y-87208380D02*
X155566309Y-86732190D01*
X155804404Y-87208380D02*
X155804404Y-86208380D01*
X155423452Y-86208380D01*
X155328214Y-86256000D01*
X155280595Y-86303619D01*
X155232976Y-86398857D01*
X155232976Y-86541714D01*
X155280595Y-86636952D01*
X155328214Y-86684571D01*
X155423452Y-86732190D01*
X155804404Y-86732190D01*
X154899642Y-87208380D02*
X154375833Y-86541714D01*
X154899642Y-86541714D02*
X154375833Y-87208380D01*
X156203595Y-111920000D02*
X156298833Y-111872380D01*
X156441690Y-111872380D01*
X156584547Y-111920000D01*
X156679785Y-112015238D01*
X156727404Y-112110476D01*
X156775023Y-112300952D01*
X156775023Y-112443809D01*
X156727404Y-112634285D01*
X156679785Y-112729523D01*
X156584547Y-112824761D01*
X156441690Y-112872380D01*
X156346452Y-112872380D01*
X156203595Y-112824761D01*
X156155976Y-112777142D01*
X156155976Y-112443809D01*
X156346452Y-112443809D01*
X155727404Y-112205714D02*
X155727404Y-112872380D01*
X155727404Y-112300952D02*
X155679785Y-112253333D01*
X155584547Y-112205714D01*
X155441690Y-112205714D01*
X155346452Y-112253333D01*
X155298833Y-112348571D01*
X155298833Y-112872380D01*
X154394071Y-112872380D02*
X154394071Y-111872380D01*
X154394071Y-112824761D02*
X154489309Y-112872380D01*
X154679785Y-112872380D01*
X154775023Y-112824761D01*
X154822642Y-112777142D01*
X154870261Y-112681904D01*
X154870261Y-112396190D01*
X154822642Y-112300952D01*
X154775023Y-112253333D01*
X154679785Y-112205714D01*
X154489309Y-112205714D01*
X154394071Y-112253333D01*
X156822642Y-116952380D02*
X156203595Y-116952380D01*
X156536928Y-117333333D01*
X156394071Y-117333333D01*
X156298833Y-117380952D01*
X156251214Y-117428571D01*
X156203595Y-117523809D01*
X156203595Y-117761904D01*
X156251214Y-117857142D01*
X156298833Y-117904761D01*
X156394071Y-117952380D01*
X156679785Y-117952380D01*
X156775023Y-117904761D01*
X156822642Y-117857142D01*
X155917880Y-116952380D02*
X155584547Y-117952380D01*
X155251214Y-116952380D01*
X155013119Y-116952380D02*
X154394071Y-116952380D01*
X154727404Y-117333333D01*
X154584547Y-117333333D01*
X154489309Y-117380952D01*
X154441690Y-117428571D01*
X154394071Y-117523809D01*
X154394071Y-117761904D01*
X154441690Y-117857142D01*
X154489309Y-117904761D01*
X154584547Y-117952380D01*
X154870261Y-117952380D01*
X154965500Y-117904761D01*
X155013119Y-117857142D01*
X121254642Y-108286380D02*
X120635595Y-108286380D01*
X120968928Y-108667333D01*
X120826071Y-108667333D01*
X120730833Y-108714952D01*
X120683214Y-108762571D01*
X120635595Y-108857809D01*
X120635595Y-109095904D01*
X120683214Y-109191142D01*
X120730833Y-109238761D01*
X120826071Y-109286380D01*
X121111785Y-109286380D01*
X121207023Y-109238761D01*
X121254642Y-109191142D01*
X120349880Y-108286380D02*
X120016547Y-109286380D01*
X119683214Y-108286380D01*
X119445119Y-108286380D02*
X118826071Y-108286380D01*
X119159404Y-108667333D01*
X119016547Y-108667333D01*
X118921309Y-108714952D01*
X118873690Y-108762571D01*
X118826071Y-108857809D01*
X118826071Y-109095904D01*
X118873690Y-109191142D01*
X118921309Y-109238761D01*
X119016547Y-109286380D01*
X119302261Y-109286380D01*
X119397500Y-109238761D01*
X119445119Y-109191142D01*
X129037738Y-108286380D02*
X129513928Y-108286380D01*
X129561547Y-108762571D01*
X129513928Y-108714952D01*
X129418690Y-108667333D01*
X129180595Y-108667333D01*
X129085357Y-108714952D01*
X129037738Y-108762571D01*
X128990119Y-108857809D01*
X128990119Y-109095904D01*
X129037738Y-109191142D01*
X129085357Y-109238761D01*
X129180595Y-109286380D01*
X129418690Y-109286380D01*
X129513928Y-109238761D01*
X129561547Y-109191142D01*
X128704404Y-108286380D02*
X128371071Y-109286380D01*
X128037738Y-108286380D01*
X131513928Y-101666380D02*
X131990119Y-101666380D01*
X131990119Y-100666380D01*
X131418690Y-101761619D02*
X130656785Y-101761619D01*
X129847261Y-101666380D02*
X130180595Y-101190190D01*
X130418690Y-101666380D02*
X130418690Y-100666380D01*
X130037738Y-100666380D01*
X129942500Y-100714000D01*
X129894880Y-100761619D01*
X129847261Y-100856857D01*
X129847261Y-100999714D01*
X129894880Y-101094952D01*
X129942500Y-101142571D01*
X130037738Y-101190190D01*
X130418690Y-101190190D01*
X129466309Y-101618761D02*
X129323452Y-101666380D01*
X129085357Y-101666380D01*
X128990119Y-101618761D01*
X128942500Y-101571142D01*
X128894880Y-101475904D01*
X128894880Y-101380666D01*
X128942500Y-101285428D01*
X128990119Y-101237809D01*
X129085357Y-101190190D01*
X129275833Y-101142571D01*
X129371071Y-101094952D01*
X129418690Y-101047333D01*
X129466309Y-100952095D01*
X129466309Y-100856857D01*
X129418690Y-100761619D01*
X129371071Y-100714000D01*
X129275833Y-100666380D01*
X129037738Y-100666380D01*
X128894880Y-100714000D01*
X128609166Y-100666380D02*
X128037738Y-100666380D01*
X128323452Y-101666380D02*
X128323452Y-100666380D01*
X107824404Y-100728380D02*
X107824404Y-99728380D01*
X107157738Y-99728380D02*
X106967261Y-99728380D01*
X106872023Y-99776000D01*
X106776785Y-99871238D01*
X106729166Y-100061714D01*
X106729166Y-100395047D01*
X106776785Y-100585523D01*
X106872023Y-100680761D01*
X106967261Y-100728380D01*
X107157738Y-100728380D01*
X107252976Y-100680761D01*
X107348214Y-100585523D01*
X107395833Y-100395047D01*
X107395833Y-100061714D01*
X107348214Y-99871238D01*
X107252976Y-99776000D01*
X107157738Y-99728380D01*
X105776785Y-100728380D02*
X106348214Y-100728380D01*
X106062500Y-100728380D02*
X106062500Y-99728380D01*
X106157738Y-99871238D01*
X106252976Y-99966476D01*
X106348214Y-100014095D01*
X156775023Y-120444761D02*
X156632166Y-120492380D01*
X156394071Y-120492380D01*
X156298833Y-120444761D01*
X156251214Y-120397142D01*
X156203595Y-120301904D01*
X156203595Y-120206666D01*
X156251214Y-120111428D01*
X156298833Y-120063809D01*
X156394071Y-120016190D01*
X156584547Y-119968571D01*
X156679785Y-119920952D01*
X156727404Y-119873333D01*
X156775023Y-119778095D01*
X156775023Y-119682857D01*
X156727404Y-119587619D01*
X156679785Y-119540000D01*
X156584547Y-119492380D01*
X156346452Y-119492380D01*
X156203595Y-119540000D01*
X155775023Y-120492380D02*
X155775023Y-119492380D01*
X155536928Y-119492380D01*
X155394071Y-119540000D01*
X155298833Y-119635238D01*
X155251214Y-119730476D01*
X155203595Y-119920952D01*
X155203595Y-120063809D01*
X155251214Y-120254285D01*
X155298833Y-120349523D01*
X155394071Y-120444761D01*
X155536928Y-120492380D01*
X155775023Y-120492380D01*
X154822642Y-120206666D02*
X154346452Y-120206666D01*
X154917880Y-120492380D02*
X154584547Y-119492380D01*
X154251214Y-120492380D01*
X120683214Y-101666380D02*
X121159404Y-101666380D01*
X121159404Y-100666380D01*
X120587976Y-101761619D02*
X119826071Y-101761619D01*
X119254642Y-101142571D02*
X119111785Y-101190190D01*
X119064166Y-101237809D01*
X119016547Y-101333047D01*
X119016547Y-101475904D01*
X119064166Y-101571142D01*
X119111785Y-101618761D01*
X119207023Y-101666380D01*
X119587976Y-101666380D01*
X119587976Y-100666380D01*
X119254642Y-100666380D01*
X119159404Y-100714000D01*
X119111785Y-100761619D01*
X119064166Y-100856857D01*
X119064166Y-100952095D01*
X119111785Y-101047333D01*
X119159404Y-101094952D01*
X119254642Y-101142571D01*
X119587976Y-101142571D01*
X118016547Y-101571142D02*
X118064166Y-101618761D01*
X118207023Y-101666380D01*
X118302261Y-101666380D01*
X118445119Y-101618761D01*
X118540357Y-101523523D01*
X118587976Y-101428285D01*
X118635595Y-101237809D01*
X118635595Y-101094952D01*
X118587976Y-100904476D01*
X118540357Y-100809238D01*
X118445119Y-100714000D01*
X118302261Y-100666380D01*
X118207023Y-100666380D01*
X118064166Y-100714000D01*
X118016547Y-100761619D01*
X117587976Y-101666380D02*
X117587976Y-100666380D01*
X117016547Y-101666380D02*
X117445119Y-101094952D01*
X117016547Y-100666380D02*
X117587976Y-101237809D01*
X116111785Y-101666380D02*
X116587976Y-101666380D01*
X116587976Y-100666380D01*
D11*
X184250000Y-122309142D02*
X182535714Y-122309142D01*
X183392857Y-125309142D02*
X183392857Y-122309142D01*
X181535714Y-125309142D02*
X181535714Y-123309142D01*
X181535714Y-123880571D02*
X181392857Y-123594857D01*
X181250000Y-123452000D01*
X180964285Y-123309142D01*
X180678571Y-123309142D01*
X178535714Y-125166285D02*
X178821428Y-125309142D01*
X179392857Y-125309142D01*
X179678571Y-125166285D01*
X179821428Y-124880571D01*
X179821428Y-123737714D01*
X179678571Y-123452000D01*
X179392857Y-123309142D01*
X178821428Y-123309142D01*
X178535714Y-123452000D01*
X178392857Y-123737714D01*
X178392857Y-124023428D01*
X179821428Y-124309142D01*
X177392857Y-123309142D02*
X176678571Y-125309142D01*
X175964285Y-123309142D01*
X174821428Y-125309142D02*
X174821428Y-123309142D01*
X174821428Y-122309142D02*
X174964285Y-122452000D01*
X174821428Y-122594857D01*
X174678571Y-122452000D01*
X174821428Y-122309142D01*
X174821428Y-122594857D01*
X173821428Y-123309142D02*
X172678571Y-123309142D01*
X173392857Y-122309142D02*
X173392857Y-124880571D01*
X173250000Y-125166285D01*
X172964285Y-125309142D01*
X172678571Y-125309142D01*
X171964285Y-123309142D02*
X170392857Y-123309142D01*
X171964285Y-125309142D01*
X170392857Y-125309142D01*
D10*
X124944761Y-80684571D02*
X124801904Y-80732190D01*
X124754285Y-80779809D01*
X124706666Y-80875047D01*
X124706666Y-81017904D01*
X124754285Y-81113142D01*
X124801904Y-81160761D01*
X124897142Y-81208380D01*
X125278095Y-81208380D01*
X125278095Y-80208380D01*
X124944761Y-80208380D01*
X124849523Y-80256000D01*
X124801904Y-80303619D01*
X124754285Y-80398857D01*
X124754285Y-80494095D01*
X124801904Y-80589333D01*
X124849523Y-80636952D01*
X124944761Y-80684571D01*
X125278095Y-80684571D01*
X124135238Y-81208380D02*
X124230476Y-81160761D01*
X124278095Y-81113142D01*
X124325714Y-81017904D01*
X124325714Y-80732190D01*
X124278095Y-80636952D01*
X124230476Y-80589333D01*
X124135238Y-80541714D01*
X123992380Y-80541714D01*
X123897142Y-80589333D01*
X123849523Y-80636952D01*
X123801904Y-80732190D01*
X123801904Y-81017904D01*
X123849523Y-81113142D01*
X123897142Y-81160761D01*
X123992380Y-81208380D01*
X124135238Y-81208380D01*
X123230476Y-81208380D02*
X123325714Y-81160761D01*
X123373333Y-81113142D01*
X123420952Y-81017904D01*
X123420952Y-80732190D01*
X123373333Y-80636952D01*
X123325714Y-80589333D01*
X123230476Y-80541714D01*
X123087619Y-80541714D01*
X122992380Y-80589333D01*
X122944761Y-80636952D01*
X122897142Y-80732190D01*
X122897142Y-81017904D01*
X122944761Y-81113142D01*
X122992380Y-81160761D01*
X123087619Y-81208380D01*
X123230476Y-81208380D01*
X122611428Y-80541714D02*
X122230476Y-80541714D01*
X122468571Y-80208380D02*
X122468571Y-81065523D01*
X122420952Y-81160761D01*
X122325714Y-81208380D01*
X122230476Y-81208380D01*
X121135238Y-81208380D02*
X121135238Y-80208380D01*
X120801904Y-80922666D01*
X120468571Y-80208380D01*
X120468571Y-81208380D01*
X119849523Y-81208380D02*
X119944761Y-81160761D01*
X119992380Y-81113142D01*
X120040000Y-81017904D01*
X120040000Y-80732190D01*
X119992380Y-80636952D01*
X119944761Y-80589333D01*
X119849523Y-80541714D01*
X119706666Y-80541714D01*
X119611428Y-80589333D01*
X119563809Y-80636952D01*
X119516190Y-80732190D01*
X119516190Y-81017904D01*
X119563809Y-81113142D01*
X119611428Y-81160761D01*
X119706666Y-81208380D01*
X119849523Y-81208380D01*
X118659047Y-81208380D02*
X118659047Y-80208380D01*
X118659047Y-81160761D02*
X118754285Y-81208380D01*
X118944761Y-81208380D01*
X119040000Y-81160761D01*
X119087619Y-81113142D01*
X119135238Y-81017904D01*
X119135238Y-80732190D01*
X119087619Y-80636952D01*
X119040000Y-80589333D01*
X118944761Y-80541714D01*
X118754285Y-80541714D01*
X118659047Y-80589333D01*
X117801904Y-81160761D02*
X117897142Y-81208380D01*
X118087619Y-81208380D01*
X118182857Y-81160761D01*
X118230476Y-81065523D01*
X118230476Y-80684571D01*
X118182857Y-80589333D01*
X118087619Y-80541714D01*
X117897142Y-80541714D01*
X117801904Y-80589333D01*
X117754285Y-80684571D01*
X117754285Y-80779809D01*
X118230476Y-80875047D01*
X129990119Y-98174000D02*
X130085357Y-98126380D01*
X130228214Y-98126380D01*
X130371071Y-98174000D01*
X130466309Y-98269238D01*
X130513928Y-98364476D01*
X130561547Y-98554952D01*
X130561547Y-98697809D01*
X130513928Y-98888285D01*
X130466309Y-98983523D01*
X130371071Y-99078761D01*
X130228214Y-99126380D01*
X130132976Y-99126380D01*
X129990119Y-99078761D01*
X129942500Y-99031142D01*
X129942500Y-98697809D01*
X130132976Y-98697809D01*
X129513928Y-98459714D02*
X129513928Y-99126380D01*
X129513928Y-98554952D02*
X129466309Y-98507333D01*
X129371071Y-98459714D01*
X129228214Y-98459714D01*
X129132976Y-98507333D01*
X129085357Y-98602571D01*
X129085357Y-99126380D01*
X128180595Y-99126380D02*
X128180595Y-98126380D01*
X128180595Y-99078761D02*
X128275833Y-99126380D01*
X128466309Y-99126380D01*
X128561547Y-99078761D01*
X128609166Y-99031142D01*
X128656785Y-98935904D01*
X128656785Y-98650190D01*
X128609166Y-98554952D01*
X128561547Y-98507333D01*
X128466309Y-98459714D01*
X128275833Y-98459714D01*
X128180595Y-98507333D01*
X155280595Y-88796000D02*
X155375833Y-88748380D01*
X155518690Y-88748380D01*
X155661547Y-88796000D01*
X155756785Y-88891238D01*
X155804404Y-88986476D01*
X155852023Y-89176952D01*
X155852023Y-89319809D01*
X155804404Y-89510285D01*
X155756785Y-89605523D01*
X155661547Y-89700761D01*
X155518690Y-89748380D01*
X155423452Y-89748380D01*
X155280595Y-89700761D01*
X155232976Y-89653142D01*
X155232976Y-89319809D01*
X155423452Y-89319809D01*
X154804404Y-89081714D02*
X154804404Y-89748380D01*
X154804404Y-89176952D02*
X154756785Y-89129333D01*
X154661547Y-89081714D01*
X154518690Y-89081714D01*
X154423452Y-89129333D01*
X154375833Y-89224571D01*
X154375833Y-89748380D01*
X153471071Y-89748380D02*
X153471071Y-88748380D01*
X153471071Y-89700761D02*
X153566309Y-89748380D01*
X153756785Y-89748380D01*
X153852023Y-89700761D01*
X153899642Y-89653142D01*
X153947261Y-89557904D01*
X153947261Y-89272190D01*
X153899642Y-89176952D01*
X153852023Y-89129333D01*
X153756785Y-89081714D01*
X153566309Y-89081714D01*
X153471071Y-89129333D01*
X107824404Y-112608380D02*
X107824404Y-111608380D01*
X107157738Y-111608380D02*
X106967261Y-111608380D01*
X106872023Y-111656000D01*
X106776785Y-111751238D01*
X106729166Y-111941714D01*
X106729166Y-112275047D01*
X106776785Y-112465523D01*
X106872023Y-112560761D01*
X106967261Y-112608380D01*
X107157738Y-112608380D01*
X107252976Y-112560761D01*
X107348214Y-112465523D01*
X107395833Y-112275047D01*
X107395833Y-111941714D01*
X107348214Y-111751238D01*
X107252976Y-111656000D01*
X107157738Y-111608380D01*
X105872023Y-111941714D02*
X105872023Y-112608380D01*
X106110119Y-111560761D02*
X106348214Y-112275047D01*
X105729166Y-112275047D01*
X121159404Y-104206380D02*
X121159404Y-103206380D01*
X120826071Y-103920666D01*
X120492738Y-103206380D01*
X120492738Y-104206380D01*
X119826071Y-103206380D02*
X119635595Y-103206380D01*
X119540357Y-103254000D01*
X119445119Y-103349238D01*
X119397500Y-103539714D01*
X119397500Y-103873047D01*
X119445119Y-104063523D01*
X119540357Y-104158761D01*
X119635595Y-104206380D01*
X119826071Y-104206380D01*
X119921309Y-104158761D01*
X120016547Y-104063523D01*
X120064166Y-103873047D01*
X120064166Y-103539714D01*
X120016547Y-103349238D01*
X119921309Y-103254000D01*
X119826071Y-103206380D01*
X119016547Y-104158761D02*
X118873690Y-104206380D01*
X118635595Y-104206380D01*
X118540357Y-104158761D01*
X118492738Y-104111142D01*
X118445119Y-104015904D01*
X118445119Y-103920666D01*
X118492738Y-103825428D01*
X118540357Y-103777809D01*
X118635595Y-103730190D01*
X118826071Y-103682571D01*
X118921309Y-103634952D01*
X118968928Y-103587333D01*
X119016547Y-103492095D01*
X119016547Y-103396857D01*
X118968928Y-103301619D01*
X118921309Y-103254000D01*
X118826071Y-103206380D01*
X118587976Y-103206380D01*
X118445119Y-103254000D01*
X118016547Y-104206380D02*
X118016547Y-103206380D01*
X156775023Y-115364761D02*
X156632166Y-115412380D01*
X156394071Y-115412380D01*
X156298833Y-115364761D01*
X156251214Y-115317142D01*
X156203595Y-115221904D01*
X156203595Y-115126666D01*
X156251214Y-115031428D01*
X156298833Y-114983809D01*
X156394071Y-114936190D01*
X156584547Y-114888571D01*
X156679785Y-114840952D01*
X156727404Y-114793333D01*
X156775023Y-114698095D01*
X156775023Y-114602857D01*
X156727404Y-114507619D01*
X156679785Y-114460000D01*
X156584547Y-114412380D01*
X156346452Y-114412380D01*
X156203595Y-114460000D01*
X155203595Y-115317142D02*
X155251214Y-115364761D01*
X155394071Y-115412380D01*
X155489309Y-115412380D01*
X155632166Y-115364761D01*
X155727404Y-115269523D01*
X155775023Y-115174285D01*
X155822642Y-114983809D01*
X155822642Y-114840952D01*
X155775023Y-114650476D01*
X155727404Y-114555238D01*
X155632166Y-114460000D01*
X155489309Y-114412380D01*
X155394071Y-114412380D01*
X155251214Y-114460000D01*
X155203595Y-114507619D01*
X154298833Y-115412380D02*
X154775023Y-115412380D01*
X154775023Y-114412380D01*
X107824404Y-104688380D02*
X107824404Y-103688380D01*
X107157738Y-103688380D02*
X106967261Y-103688380D01*
X106872023Y-103736000D01*
X106776785Y-103831238D01*
X106729166Y-104021714D01*
X106729166Y-104355047D01*
X106776785Y-104545523D01*
X106872023Y-104640761D01*
X106967261Y-104688380D01*
X107157738Y-104688380D01*
X107252976Y-104640761D01*
X107348214Y-104545523D01*
X107395833Y-104355047D01*
X107395833Y-104021714D01*
X107348214Y-103831238D01*
X107252976Y-103736000D01*
X107157738Y-103688380D01*
X106348214Y-103783619D02*
X106300595Y-103736000D01*
X106205357Y-103688380D01*
X105967261Y-103688380D01*
X105872023Y-103736000D01*
X105824404Y-103783619D01*
X105776785Y-103878857D01*
X105776785Y-103974095D01*
X105824404Y-104116952D01*
X106395833Y-104688380D01*
X105776785Y-104688380D01*
%TO.C,U3*%
X128251904Y-92402380D02*
X128251904Y-93211904D01*
X128204285Y-93307142D01*
X128156666Y-93354761D01*
X128061428Y-93402380D01*
X127870952Y-93402380D01*
X127775714Y-93354761D01*
X127728095Y-93307142D01*
X127680476Y-93211904D01*
X127680476Y-92402380D01*
X127299523Y-92402380D02*
X126680476Y-92402380D01*
X127013809Y-92783333D01*
X126870952Y-92783333D01*
X126775714Y-92830952D01*
X126728095Y-92878571D01*
X126680476Y-92973809D01*
X126680476Y-93211904D01*
X126728095Y-93307142D01*
X126775714Y-93354761D01*
X126870952Y-93402380D01*
X127156666Y-93402380D01*
X127251904Y-93354761D01*
X127299523Y-93307142D01*
%TO.C,TC1*%
X173261904Y-81552380D02*
X172690476Y-81552380D01*
X172976190Y-82552380D02*
X172976190Y-81552380D01*
X171785714Y-82457142D02*
X171833333Y-82504761D01*
X171976190Y-82552380D01*
X172071428Y-82552380D01*
X172214285Y-82504761D01*
X172309523Y-82409523D01*
X172357142Y-82314285D01*
X172404761Y-82123809D01*
X172404761Y-81980952D01*
X172357142Y-81790476D01*
X172309523Y-81695238D01*
X172214285Y-81600000D01*
X172071428Y-81552380D01*
X171976190Y-81552380D01*
X171833333Y-81600000D01*
X171785714Y-81647619D01*
X170833333Y-82552380D02*
X171404761Y-82552380D01*
X171119047Y-82552380D02*
X171119047Y-81552380D01*
X171214285Y-81695238D01*
X171309523Y-81790476D01*
X171404761Y-81838095D01*
X176320952Y-92071428D02*
X175559047Y-92071428D01*
X175940000Y-92452380D02*
X175940000Y-91690476D01*
X168430952Y-92071428D02*
X167669047Y-92071428D01*
D12*
%TO.C,U3*%
X125990000Y-91750000D02*
X125990000Y-91750000D01*
X121990000Y-91200000D02*
X123590000Y-91200000D01*
X121990000Y-94700000D02*
X123590000Y-94700000D01*
X126090000Y-91750000D02*
X126090000Y-91750000D01*
X125990000Y-91750000D02*
G75*
G03*
X126090000Y-91750000I50000J0D01*
G01*
X126090000Y-91750000D02*
G75*
G03*
X125990000Y-91750000I-50000J0D01*
G01*
D13*
%TO.C,TC1*%
X180300000Y-79250000D02*
X163700000Y-79250000D01*
X163700000Y-79250000D02*
X163700000Y-99750000D01*
X163700000Y-99750000D02*
X180300000Y-99750000D01*
X180300000Y-99750000D02*
X180300000Y-79250000D01*
%TO.C,PS1*%
G36*
X136481782Y-129279791D02*
G01*
X136465211Y-129502690D01*
X136436582Y-129707867D01*
X136394611Y-129907445D01*
X136338016Y-130113548D01*
X136252194Y-130359904D01*
X136094570Y-130692472D01*
X135901222Y-130990351D01*
X135675108Y-131250726D01*
X135419186Y-131470780D01*
X135136413Y-131647700D01*
X134829747Y-131778669D01*
X134502147Y-131860873D01*
X134498205Y-131861532D01*
X134258789Y-131884569D01*
X133995734Y-131881494D01*
X133727793Y-131854204D01*
X133473726Y-131804595D01*
X133252287Y-131734561D01*
X133157769Y-131691943D01*
X133034669Y-131627167D01*
X132908175Y-131553080D01*
X132791487Y-131477837D01*
X132697803Y-131409591D01*
X132640323Y-131356498D01*
X132627128Y-131341922D01*
X132611397Y-131336827D01*
X132600883Y-131362122D01*
X132593135Y-131425873D01*
X132585699Y-131536142D01*
X132572044Y-131765914D01*
X131526024Y-131773068D01*
X130480004Y-131780221D01*
X130552381Y-131656720D01*
X130556695Y-131649418D01*
X130577742Y-131615141D01*
X130596835Y-131584604D01*
X130614077Y-131555156D01*
X130629572Y-131524143D01*
X130643421Y-131488912D01*
X130655728Y-131446811D01*
X130666595Y-131395187D01*
X130676125Y-131331386D01*
X130684420Y-131252756D01*
X130691584Y-131156644D01*
X130697720Y-131040398D01*
X130702929Y-130901363D01*
X130707315Y-130736887D01*
X130710980Y-130544318D01*
X130714028Y-130321002D01*
X130716486Y-130071805D01*
X132708603Y-130071805D01*
X132845162Y-130161376D01*
X132897677Y-130193643D01*
X133017925Y-130258102D01*
X133131936Y-130309433D01*
X133181866Y-130326813D01*
X133340739Y-130361510D01*
X133541613Y-130379228D01*
X133643758Y-130382915D01*
X133738573Y-130382077D01*
X133809153Y-130372607D01*
X133872460Y-130351909D01*
X133945454Y-130317385D01*
X134085734Y-130224906D01*
X134207262Y-130094086D01*
X134304542Y-129925502D01*
X134378497Y-129716510D01*
X134430054Y-129464467D01*
X134460138Y-129166732D01*
X134469675Y-128820662D01*
X134469211Y-128741984D01*
X134455500Y-128377441D01*
X134422207Y-128060239D01*
X134368523Y-127787031D01*
X134293636Y-127554471D01*
X134196738Y-127359211D01*
X134077019Y-127197906D01*
X134027351Y-127148676D01*
X133873423Y-127046113D01*
X133692727Y-126983701D01*
X133493091Y-126961796D01*
X133282342Y-126980751D01*
X133068308Y-127040923D01*
X132858818Y-127142665D01*
X132708603Y-127232706D01*
X132708603Y-130071805D01*
X130716486Y-130071805D01*
X130716560Y-130064286D01*
X130718680Y-129771519D01*
X130720491Y-129440045D01*
X130722094Y-129067214D01*
X130723594Y-128650371D01*
X130725092Y-128186864D01*
X130726692Y-127674041D01*
X130728495Y-127109247D01*
X130742151Y-122944193D01*
X131827796Y-122937052D01*
X131906746Y-122936571D01*
X132139033Y-122935618D01*
X132351494Y-122935424D01*
X132538331Y-122935951D01*
X132693743Y-122937158D01*
X132811931Y-122939006D01*
X132887097Y-122941455D01*
X132913441Y-122944466D01*
X132910071Y-122954008D01*
X132884929Y-122999245D01*
X132843287Y-123065031D01*
X132839133Y-123071321D01*
X132806846Y-123122115D01*
X132779775Y-123171536D01*
X132757461Y-123224674D01*
X132739445Y-123286620D01*
X132725267Y-123362465D01*
X132714469Y-123457299D01*
X132706591Y-123576212D01*
X132701175Y-123724296D01*
X132697762Y-123906641D01*
X132695892Y-124128337D01*
X132695106Y-124394476D01*
X132694947Y-124710147D01*
X132695233Y-124956607D01*
X132696109Y-125198574D01*
X132697512Y-125417973D01*
X132699379Y-125609462D01*
X132701645Y-125767698D01*
X132704247Y-125887339D01*
X132707121Y-125963041D01*
X132710204Y-125989462D01*
X132720147Y-125985361D01*
X132763856Y-125956484D01*
X132826279Y-125909058D01*
X132916776Y-125845280D01*
X133086805Y-125751307D01*
X133281143Y-125667482D01*
X133481648Y-125602295D01*
X133650108Y-125569055D01*
X133859916Y-125547866D01*
X134086986Y-125540525D01*
X134313795Y-125547041D01*
X134522822Y-125567422D01*
X134696541Y-125601678D01*
X134873426Y-125659382D01*
X135168513Y-125799268D01*
X135441741Y-125985237D01*
X135688070Y-126213007D01*
X135902460Y-126478296D01*
X136079869Y-126776822D01*
X136123913Y-126868363D01*
X136247339Y-127177137D01*
X136343836Y-127512257D01*
X136414622Y-127879628D01*
X136460918Y-128285158D01*
X136483942Y-128734756D01*
X136485011Y-128820662D01*
X136487577Y-129027045D01*
X136481782Y-129279791D01*
G37*
D14*
X136481782Y-129279791D02*
X136465211Y-129502690D01*
X136436582Y-129707867D01*
X136394611Y-129907445D01*
X136338016Y-130113548D01*
X136252194Y-130359904D01*
X136094570Y-130692472D01*
X135901222Y-130990351D01*
X135675108Y-131250726D01*
X135419186Y-131470780D01*
X135136413Y-131647700D01*
X134829747Y-131778669D01*
X134502147Y-131860873D01*
X134498205Y-131861532D01*
X134258789Y-131884569D01*
X133995734Y-131881494D01*
X133727793Y-131854204D01*
X133473726Y-131804595D01*
X133252287Y-131734561D01*
X133157769Y-131691943D01*
X133034669Y-131627167D01*
X132908175Y-131553080D01*
X132791487Y-131477837D01*
X132697803Y-131409591D01*
X132640323Y-131356498D01*
X132627128Y-131341922D01*
X132611397Y-131336827D01*
X132600883Y-131362122D01*
X132593135Y-131425873D01*
X132585699Y-131536142D01*
X132572044Y-131765914D01*
X131526024Y-131773068D01*
X130480004Y-131780221D01*
X130552381Y-131656720D01*
X130556695Y-131649418D01*
X130577742Y-131615141D01*
X130596835Y-131584604D01*
X130614077Y-131555156D01*
X130629572Y-131524143D01*
X130643421Y-131488912D01*
X130655728Y-131446811D01*
X130666595Y-131395187D01*
X130676125Y-131331386D01*
X130684420Y-131252756D01*
X130691584Y-131156644D01*
X130697720Y-131040398D01*
X130702929Y-130901363D01*
X130707315Y-130736887D01*
X130710980Y-130544318D01*
X130714028Y-130321002D01*
X130716486Y-130071805D01*
X132708603Y-130071805D01*
X132845162Y-130161376D01*
X132897677Y-130193643D01*
X133017925Y-130258102D01*
X133131936Y-130309433D01*
X133181866Y-130326813D01*
X133340739Y-130361510D01*
X133541613Y-130379228D01*
X133643758Y-130382915D01*
X133738573Y-130382077D01*
X133809153Y-130372607D01*
X133872460Y-130351909D01*
X133945454Y-130317385D01*
X134085734Y-130224906D01*
X134207262Y-130094086D01*
X134304542Y-129925502D01*
X134378497Y-129716510D01*
X134430054Y-129464467D01*
X134460138Y-129166732D01*
X134469675Y-128820662D01*
X134469211Y-128741984D01*
X134455500Y-128377441D01*
X134422207Y-128060239D01*
X134368523Y-127787031D01*
X134293636Y-127554471D01*
X134196738Y-127359211D01*
X134077019Y-127197906D01*
X134027351Y-127148676D01*
X133873423Y-127046113D01*
X133692727Y-126983701D01*
X133493091Y-126961796D01*
X133282342Y-126980751D01*
X133068308Y-127040923D01*
X132858818Y-127142665D01*
X132708603Y-127232706D01*
X132708603Y-130071805D01*
X130716486Y-130071805D01*
X130716560Y-130064286D01*
X130718680Y-129771519D01*
X130720491Y-129440045D01*
X130722094Y-129067214D01*
X130723594Y-128650371D01*
X130725092Y-128186864D01*
X130726692Y-127674041D01*
X130728495Y-127109247D01*
X130742151Y-122944193D01*
X131827796Y-122937052D01*
X131906746Y-122936571D01*
X132139033Y-122935618D01*
X132351494Y-122935424D01*
X132538331Y-122935951D01*
X132693743Y-122937158D01*
X132811931Y-122939006D01*
X132887097Y-122941455D01*
X132913441Y-122944466D01*
X132910071Y-122954008D01*
X132884929Y-122999245D01*
X132843287Y-123065031D01*
X132839133Y-123071321D01*
X132806846Y-123122115D01*
X132779775Y-123171536D01*
X132757461Y-123224674D01*
X132739445Y-123286620D01*
X132725267Y-123362465D01*
X132714469Y-123457299D01*
X132706591Y-123576212D01*
X132701175Y-123724296D01*
X132697762Y-123906641D01*
X132695892Y-124128337D01*
X132695106Y-124394476D01*
X132694947Y-124710147D01*
X132695233Y-124956607D01*
X132696109Y-125198574D01*
X132697512Y-125417973D01*
X132699379Y-125609462D01*
X132701645Y-125767698D01*
X132704247Y-125887339D01*
X132707121Y-125963041D01*
X132710204Y-125989462D01*
X132720147Y-125985361D01*
X132763856Y-125956484D01*
X132826279Y-125909058D01*
X132916776Y-125845280D01*
X133086805Y-125751307D01*
X133281143Y-125667482D01*
X133481648Y-125602295D01*
X133650108Y-125569055D01*
X133859916Y-125547866D01*
X134086986Y-125540525D01*
X134313795Y-125547041D01*
X134522822Y-125567422D01*
X134696541Y-125601678D01*
X134873426Y-125659382D01*
X135168513Y-125799268D01*
X135441741Y-125985237D01*
X135688070Y-126213007D01*
X135902460Y-126478296D01*
X136079869Y-126776822D01*
X136123913Y-126868363D01*
X136247339Y-127177137D01*
X136343836Y-127512257D01*
X136414622Y-127879628D01*
X136460918Y-128285158D01*
X136483942Y-128734756D01*
X136485011Y-128820662D01*
X136487577Y-129027045D01*
X136481782Y-129279791D01*
G36*
X160980735Y-132045348D02*
G01*
X160977245Y-132227789D01*
X160973005Y-132383135D01*
X160967945Y-132513644D01*
X160961994Y-132621574D01*
X160955080Y-132709185D01*
X160947133Y-132778733D01*
X160938080Y-132832479D01*
X160927852Y-132872679D01*
X160916377Y-132901594D01*
X160903584Y-132921480D01*
X160889402Y-132934597D01*
X160873760Y-132943203D01*
X160856587Y-132949557D01*
X160837812Y-132955916D01*
X160817363Y-132964540D01*
X160805857Y-132968862D01*
X160784752Y-132973581D01*
X160753391Y-132977905D01*
X160709558Y-132981851D01*
X160651034Y-132985436D01*
X160575600Y-132988678D01*
X160481037Y-132991594D01*
X160365127Y-132994201D01*
X160225652Y-132996516D01*
X160060394Y-132998557D01*
X159867133Y-133000341D01*
X159643652Y-133001886D01*
X159387732Y-133003209D01*
X159097154Y-133004327D01*
X158769700Y-133005258D01*
X158403151Y-133006018D01*
X157995290Y-133006626D01*
X157543897Y-133007098D01*
X157046755Y-133007453D01*
X156501644Y-133007706D01*
X155906347Y-133007876D01*
X155258644Y-133007980D01*
X155053389Y-133008000D01*
X154419743Y-133008013D01*
X153837856Y-133007934D01*
X153305535Y-133007745D01*
X152820588Y-133007432D01*
X152380822Y-133006979D01*
X151984047Y-133006369D01*
X151628068Y-133005587D01*
X151310694Y-133004617D01*
X151029734Y-133003443D01*
X150782993Y-133002049D01*
X150568281Y-133000419D01*
X150383406Y-132998537D01*
X150226174Y-132996387D01*
X150094394Y-132993954D01*
X149985873Y-132991221D01*
X149898420Y-132988173D01*
X149829842Y-132984793D01*
X149777946Y-132981066D01*
X149740541Y-132976976D01*
X149715434Y-132972506D01*
X149700434Y-132967642D01*
X149695661Y-132965477D01*
X149676123Y-132958366D01*
X149658206Y-132953173D01*
X149641837Y-132947636D01*
X149626943Y-132939493D01*
X149613453Y-132926484D01*
X149601293Y-132906346D01*
X149590390Y-132876818D01*
X149580673Y-132835638D01*
X149572068Y-132780544D01*
X149564502Y-132709275D01*
X149557904Y-132619569D01*
X149552200Y-132509164D01*
X149547318Y-132375800D01*
X149543185Y-132217213D01*
X149539729Y-132031143D01*
X149536876Y-131815328D01*
X149535940Y-131715391D01*
X150256153Y-131715391D01*
X150256943Y-131724961D01*
X150271430Y-131732717D01*
X150304162Y-131738849D01*
X150359685Y-131743546D01*
X150442548Y-131747000D01*
X150557298Y-131749400D01*
X150708482Y-131750935D01*
X150900647Y-131751797D01*
X151138341Y-131752174D01*
X151426111Y-131752258D01*
X152631548Y-131752258D01*
X152427742Y-131383548D01*
X152427742Y-126030430D01*
X152631548Y-125661720D01*
X150476871Y-125661720D01*
X150469081Y-128495322D01*
X150461291Y-131328925D01*
X150384908Y-131492055D01*
X150344637Y-131572910D01*
X150299036Y-131653907D01*
X150264599Y-131703721D01*
X150264513Y-131703817D01*
X150256153Y-131715391D01*
X149535940Y-131715391D01*
X149534555Y-131567506D01*
X149532693Y-131285415D01*
X149531216Y-130966795D01*
X149530053Y-130609382D01*
X149529131Y-130210917D01*
X149528376Y-129769136D01*
X149527717Y-129281778D01*
X149527081Y-128746582D01*
X149526395Y-128161287D01*
X149525587Y-127523629D01*
X149525482Y-127446433D01*
X149524581Y-126812817D01*
X149523719Y-126231298D01*
X149522960Y-125699614D01*
X149522368Y-125215502D01*
X149522007Y-124776700D01*
X149521940Y-124380946D01*
X149522232Y-124025975D01*
X149522947Y-123709527D01*
X149524147Y-123429337D01*
X149525897Y-123183144D01*
X149528260Y-122968684D01*
X149531302Y-122783696D01*
X149535084Y-122625916D01*
X149539671Y-122493082D01*
X149545127Y-122382930D01*
X149551516Y-122293199D01*
X149558901Y-122221626D01*
X149567346Y-122165947D01*
X149576915Y-122123901D01*
X149587672Y-122093225D01*
X149599681Y-122071655D01*
X149613005Y-122056930D01*
X149627708Y-122046787D01*
X149643855Y-122038962D01*
X149661508Y-122031194D01*
X149680731Y-122021219D01*
X149686356Y-122018040D01*
X149771470Y-121987273D01*
X149864645Y-121974628D01*
X149969678Y-121974632D01*
X149971428Y-122213606D01*
X149971872Y-122241106D01*
X150005256Y-122520643D01*
X150090284Y-122783661D01*
X150225773Y-123027376D01*
X150410543Y-123249001D01*
X150509696Y-123339393D01*
X150730469Y-123489217D01*
X150971353Y-123593697D01*
X151225333Y-123652776D01*
X151485393Y-123666399D01*
X151744517Y-123634510D01*
X151995690Y-123557052D01*
X152202166Y-123449462D01*
X153115998Y-123449462D01*
X153236171Y-123535921D01*
X153337805Y-123617180D01*
X153481016Y-123749720D01*
X153643452Y-123915830D01*
X153818963Y-124109180D01*
X154001398Y-124323441D01*
X154048379Y-124380738D01*
X154128366Y-124479010D01*
X154232921Y-124607939D01*
X154358579Y-124763221D01*
X154501877Y-124940554D01*
X154659350Y-125135633D01*
X154827536Y-125344157D01*
X155002969Y-125561821D01*
X155083435Y-125661720D01*
X155182187Y-125784323D01*
X155361726Y-126007359D01*
X155538121Y-126226627D01*
X155707909Y-126437822D01*
X155867626Y-126636643D01*
X156013808Y-126818784D01*
X156142992Y-126979945D01*
X156251713Y-127115820D01*
X156336508Y-127222108D01*
X156393913Y-127294504D01*
X156420464Y-127328706D01*
X156422655Y-127341559D01*
X156415366Y-127366004D01*
X156396477Y-127404463D01*
X156364103Y-127459662D01*
X156316357Y-127534331D01*
X156251355Y-127631196D01*
X156167212Y-127752986D01*
X156062041Y-127902430D01*
X155933957Y-128082254D01*
X155781075Y-128295187D01*
X155601508Y-128543957D01*
X155393372Y-128831292D01*
X155154782Y-129159920D01*
X154964675Y-129421504D01*
X154732740Y-129740397D01*
X154528722Y-130020446D01*
X154350251Y-130264760D01*
X154194952Y-130476446D01*
X154060454Y-130658614D01*
X153944383Y-130814370D01*
X153844367Y-130946823D01*
X153758034Y-131059081D01*
X153683011Y-131154251D01*
X153616925Y-131235443D01*
X153557404Y-131305764D01*
X153502076Y-131368322D01*
X153448566Y-131426225D01*
X153394504Y-131482582D01*
X153337516Y-131540500D01*
X153127505Y-131752258D01*
X154539236Y-131752315D01*
X155950968Y-131752372D01*
X155942097Y-131581274D01*
X155941667Y-131572677D01*
X155939983Y-131504277D01*
X155943175Y-131438742D01*
X155953378Y-131372480D01*
X155972728Y-131301903D01*
X156003359Y-131223420D01*
X156047407Y-131133441D01*
X156107007Y-131028378D01*
X156184295Y-130904640D01*
X156281405Y-130758637D01*
X156400473Y-130586780D01*
X156543635Y-130385478D01*
X156713025Y-130151143D01*
X156910779Y-129880183D01*
X157139033Y-129569010D01*
X157944732Y-128472123D01*
X157951830Y-129743932D01*
X157952459Y-129862566D01*
X157953569Y-130182112D01*
X157953064Y-130453907D01*
X157950352Y-130683095D01*
X157944837Y-130874820D01*
X157935926Y-131034225D01*
X157923025Y-131166453D01*
X157905540Y-131276648D01*
X157882877Y-131369953D01*
X157854441Y-131451512D01*
X157819640Y-131526469D01*
X157777878Y-131599968D01*
X157728561Y-131677150D01*
X157678987Y-131752258D01*
X160255361Y-131752258D01*
X160188811Y-131663494D01*
X160178389Y-131649452D01*
X160095064Y-131520750D01*
X160037624Y-131390647D01*
X159999905Y-131241568D01*
X159975745Y-131055941D01*
X159975082Y-131047849D01*
X159971576Y-130971283D01*
X159968410Y-130843535D01*
X159965599Y-130667527D01*
X159963156Y-130446177D01*
X159961094Y-130182404D01*
X159959429Y-129879127D01*
X159958172Y-129539265D01*
X159957338Y-129165738D01*
X159956941Y-128761464D01*
X159956994Y-128329362D01*
X159957512Y-127872353D01*
X159958508Y-127393354D01*
X159959562Y-126963691D01*
X159960690Y-126495994D01*
X159961801Y-126077543D01*
X159963033Y-125705409D01*
X159964527Y-125376658D01*
X159966422Y-125088359D01*
X159968857Y-124837581D01*
X159971971Y-124621393D01*
X159975904Y-124436861D01*
X159980796Y-124281055D01*
X159986786Y-124151043D01*
X159994013Y-124043894D01*
X160002616Y-123956675D01*
X160012736Y-123886455D01*
X160024511Y-123830303D01*
X160038081Y-123785286D01*
X160053586Y-123748474D01*
X160071164Y-123716933D01*
X160090955Y-123687734D01*
X160113099Y-123657944D01*
X160137735Y-123624631D01*
X160161564Y-123591248D01*
X160207620Y-123525243D01*
X160235208Y-123483602D01*
X160235874Y-123481858D01*
X160226241Y-123473983D01*
X160192248Y-123467413D01*
X160130111Y-123462045D01*
X160036048Y-123457780D01*
X159906276Y-123454517D01*
X159737014Y-123452154D01*
X159524477Y-123450591D01*
X159264885Y-123449728D01*
X158954453Y-123449462D01*
X157653102Y-123449462D01*
X157721687Y-123530972D01*
X157761437Y-123586954D01*
X157827602Y-123718950D01*
X157885584Y-123883117D01*
X157929838Y-124065220D01*
X157932659Y-124082508D01*
X157941051Y-124173644D01*
X157947407Y-124314493D01*
X157951742Y-124506030D01*
X157954074Y-124749230D01*
X157954420Y-125045069D01*
X157952796Y-125394522D01*
X157944732Y-126561195D01*
X157111721Y-125507783D01*
X157087862Y-125477609D01*
X156876618Y-125210185D01*
X156696273Y-124981160D01*
X156543955Y-124786642D01*
X156416796Y-124622735D01*
X156311923Y-124485547D01*
X156226469Y-124371181D01*
X156157561Y-124275746D01*
X156102331Y-124195345D01*
X156057909Y-124126086D01*
X156021423Y-124064074D01*
X155990004Y-124005416D01*
X155960782Y-123946216D01*
X155915828Y-123841426D01*
X155886788Y-123730883D01*
X155879064Y-123611646D01*
X155879840Y-123449462D01*
X153115998Y-123449462D01*
X152202166Y-123449462D01*
X152231895Y-123433971D01*
X152446118Y-123265210D01*
X152505670Y-123205714D01*
X152681686Y-122985424D01*
X152806584Y-122746359D01*
X152881032Y-122486976D01*
X152905699Y-122205734D01*
X152905699Y-121974623D01*
X156826303Y-121974623D01*
X157071244Y-121974613D01*
X157597446Y-121974541D01*
X158072794Y-121974490D01*
X158499918Y-121974561D01*
X158881445Y-121974860D01*
X159220004Y-121975491D01*
X159518224Y-121976556D01*
X159778733Y-121978161D01*
X160004161Y-121980409D01*
X160197135Y-121983404D01*
X160360284Y-121987250D01*
X160496238Y-121992050D01*
X160607624Y-121997910D01*
X160697071Y-122004932D01*
X160767208Y-122013221D01*
X160820663Y-122022880D01*
X160860065Y-122034014D01*
X160888043Y-122046726D01*
X160907226Y-122061121D01*
X160920241Y-122077301D01*
X160929718Y-122095372D01*
X160938285Y-122115437D01*
X160948570Y-122137600D01*
X160948755Y-122137962D01*
X160953749Y-122152470D01*
X160958330Y-122176764D01*
X160962515Y-122213084D01*
X160966321Y-122263674D01*
X160969767Y-122330775D01*
X160972869Y-122416629D01*
X160975645Y-122523478D01*
X160978113Y-122653564D01*
X160980288Y-122809128D01*
X160982190Y-122992413D01*
X160983836Y-123205661D01*
X160985242Y-123451113D01*
X160986426Y-123731012D01*
X160987406Y-124047599D01*
X160988198Y-124403116D01*
X160988822Y-124799805D01*
X160989292Y-125239909D01*
X160989628Y-125725668D01*
X160989847Y-126259325D01*
X160989965Y-126843122D01*
X160990000Y-127479301D01*
X160990002Y-127604279D01*
X160990062Y-128233828D01*
X160990156Y-128811438D01*
X160990211Y-129339368D01*
X160990156Y-129819877D01*
X160989922Y-130255223D01*
X160989435Y-130647664D01*
X160988625Y-130999459D01*
X160987421Y-131312867D01*
X160985752Y-131590145D01*
X160984283Y-131752258D01*
X160983547Y-131833553D01*
X160980735Y-132045348D01*
G37*
X160980735Y-132045348D02*
X160977245Y-132227789D01*
X160973005Y-132383135D01*
X160967945Y-132513644D01*
X160961994Y-132621574D01*
X160955080Y-132709185D01*
X160947133Y-132778733D01*
X160938080Y-132832479D01*
X160927852Y-132872679D01*
X160916377Y-132901594D01*
X160903584Y-132921480D01*
X160889402Y-132934597D01*
X160873760Y-132943203D01*
X160856587Y-132949557D01*
X160837812Y-132955916D01*
X160817363Y-132964540D01*
X160805857Y-132968862D01*
X160784752Y-132973581D01*
X160753391Y-132977905D01*
X160709558Y-132981851D01*
X160651034Y-132985436D01*
X160575600Y-132988678D01*
X160481037Y-132991594D01*
X160365127Y-132994201D01*
X160225652Y-132996516D01*
X160060394Y-132998557D01*
X159867133Y-133000341D01*
X159643652Y-133001886D01*
X159387732Y-133003209D01*
X159097154Y-133004327D01*
X158769700Y-133005258D01*
X158403151Y-133006018D01*
X157995290Y-133006626D01*
X157543897Y-133007098D01*
X157046755Y-133007453D01*
X156501644Y-133007706D01*
X155906347Y-133007876D01*
X155258644Y-133007980D01*
X155053389Y-133008000D01*
X154419743Y-133008013D01*
X153837856Y-133007934D01*
X153305535Y-133007745D01*
X152820588Y-133007432D01*
X152380822Y-133006979D01*
X151984047Y-133006369D01*
X151628068Y-133005587D01*
X151310694Y-133004617D01*
X151029734Y-133003443D01*
X150782993Y-133002049D01*
X150568281Y-133000419D01*
X150383406Y-132998537D01*
X150226174Y-132996387D01*
X150094394Y-132993954D01*
X149985873Y-132991221D01*
X149898420Y-132988173D01*
X149829842Y-132984793D01*
X149777946Y-132981066D01*
X149740541Y-132976976D01*
X149715434Y-132972506D01*
X149700434Y-132967642D01*
X149695661Y-132965477D01*
X149676123Y-132958366D01*
X149658206Y-132953173D01*
X149641837Y-132947636D01*
X149626943Y-132939493D01*
X149613453Y-132926484D01*
X149601293Y-132906346D01*
X149590390Y-132876818D01*
X149580673Y-132835638D01*
X149572068Y-132780544D01*
X149564502Y-132709275D01*
X149557904Y-132619569D01*
X149552200Y-132509164D01*
X149547318Y-132375800D01*
X149543185Y-132217213D01*
X149539729Y-132031143D01*
X149536876Y-131815328D01*
X149535940Y-131715391D01*
X150256153Y-131715391D01*
X150256943Y-131724961D01*
X150271430Y-131732717D01*
X150304162Y-131738849D01*
X150359685Y-131743546D01*
X150442548Y-131747000D01*
X150557298Y-131749400D01*
X150708482Y-131750935D01*
X150900647Y-131751797D01*
X151138341Y-131752174D01*
X151426111Y-131752258D01*
X152631548Y-131752258D01*
X152427742Y-131383548D01*
X152427742Y-126030430D01*
X152631548Y-125661720D01*
X150476871Y-125661720D01*
X150469081Y-128495322D01*
X150461291Y-131328925D01*
X150384908Y-131492055D01*
X150344637Y-131572910D01*
X150299036Y-131653907D01*
X150264599Y-131703721D01*
X150264513Y-131703817D01*
X150256153Y-131715391D01*
X149535940Y-131715391D01*
X149534555Y-131567506D01*
X149532693Y-131285415D01*
X149531216Y-130966795D01*
X149530053Y-130609382D01*
X149529131Y-130210917D01*
X149528376Y-129769136D01*
X149527717Y-129281778D01*
X149527081Y-128746582D01*
X149526395Y-128161287D01*
X149525587Y-127523629D01*
X149525482Y-127446433D01*
X149524581Y-126812817D01*
X149523719Y-126231298D01*
X149522960Y-125699614D01*
X149522368Y-125215502D01*
X149522007Y-124776700D01*
X149521940Y-124380946D01*
X149522232Y-124025975D01*
X149522947Y-123709527D01*
X149524147Y-123429337D01*
X149525897Y-123183144D01*
X149528260Y-122968684D01*
X149531302Y-122783696D01*
X149535084Y-122625916D01*
X149539671Y-122493082D01*
X149545127Y-122382930D01*
X149551516Y-122293199D01*
X149558901Y-122221626D01*
X149567346Y-122165947D01*
X149576915Y-122123901D01*
X149587672Y-122093225D01*
X149599681Y-122071655D01*
X149613005Y-122056930D01*
X149627708Y-122046787D01*
X149643855Y-122038962D01*
X149661508Y-122031194D01*
X149680731Y-122021219D01*
X149686356Y-122018040D01*
X149771470Y-121987273D01*
X149864645Y-121974628D01*
X149969678Y-121974632D01*
X149971428Y-122213606D01*
X149971872Y-122241106D01*
X150005256Y-122520643D01*
X150090284Y-122783661D01*
X150225773Y-123027376D01*
X150410543Y-123249001D01*
X150509696Y-123339393D01*
X150730469Y-123489217D01*
X150971353Y-123593697D01*
X151225333Y-123652776D01*
X151485393Y-123666399D01*
X151744517Y-123634510D01*
X151995690Y-123557052D01*
X152202166Y-123449462D01*
X153115998Y-123449462D01*
X153236171Y-123535921D01*
X153337805Y-123617180D01*
X153481016Y-123749720D01*
X153643452Y-123915830D01*
X153818963Y-124109180D01*
X154001398Y-124323441D01*
X154048379Y-124380738D01*
X154128366Y-124479010D01*
X154232921Y-124607939D01*
X154358579Y-124763221D01*
X154501877Y-124940554D01*
X154659350Y-125135633D01*
X154827536Y-125344157D01*
X155002969Y-125561821D01*
X155083435Y-125661720D01*
X155182187Y-125784323D01*
X155361726Y-126007359D01*
X155538121Y-126226627D01*
X155707909Y-126437822D01*
X155867626Y-126636643D01*
X156013808Y-126818784D01*
X156142992Y-126979945D01*
X156251713Y-127115820D01*
X156336508Y-127222108D01*
X156393913Y-127294504D01*
X156420464Y-127328706D01*
X156422655Y-127341559D01*
X156415366Y-127366004D01*
X156396477Y-127404463D01*
X156364103Y-127459662D01*
X156316357Y-127534331D01*
X156251355Y-127631196D01*
X156167212Y-127752986D01*
X156062041Y-127902430D01*
X155933957Y-128082254D01*
X155781075Y-128295187D01*
X155601508Y-128543957D01*
X155393372Y-128831292D01*
X155154782Y-129159920D01*
X154964675Y-129421504D01*
X154732740Y-129740397D01*
X154528722Y-130020446D01*
X154350251Y-130264760D01*
X154194952Y-130476446D01*
X154060454Y-130658614D01*
X153944383Y-130814370D01*
X153844367Y-130946823D01*
X153758034Y-131059081D01*
X153683011Y-131154251D01*
X153616925Y-131235443D01*
X153557404Y-131305764D01*
X153502076Y-131368322D01*
X153448566Y-131426225D01*
X153394504Y-131482582D01*
X153337516Y-131540500D01*
X153127505Y-131752258D01*
X154539236Y-131752315D01*
X155950968Y-131752372D01*
X155942097Y-131581274D01*
X155941667Y-131572677D01*
X155939983Y-131504277D01*
X155943175Y-131438742D01*
X155953378Y-131372480D01*
X155972728Y-131301903D01*
X156003359Y-131223420D01*
X156047407Y-131133441D01*
X156107007Y-131028378D01*
X156184295Y-130904640D01*
X156281405Y-130758637D01*
X156400473Y-130586780D01*
X156543635Y-130385478D01*
X156713025Y-130151143D01*
X156910779Y-129880183D01*
X157139033Y-129569010D01*
X157944732Y-128472123D01*
X157951830Y-129743932D01*
X157952459Y-129862566D01*
X157953569Y-130182112D01*
X157953064Y-130453907D01*
X157950352Y-130683095D01*
X157944837Y-130874820D01*
X157935926Y-131034225D01*
X157923025Y-131166453D01*
X157905540Y-131276648D01*
X157882877Y-131369953D01*
X157854441Y-131451512D01*
X157819640Y-131526469D01*
X157777878Y-131599968D01*
X157728561Y-131677150D01*
X157678987Y-131752258D01*
X160255361Y-131752258D01*
X160188811Y-131663494D01*
X160178389Y-131649452D01*
X160095064Y-131520750D01*
X160037624Y-131390647D01*
X159999905Y-131241568D01*
X159975745Y-131055941D01*
X159975082Y-131047849D01*
X159971576Y-130971283D01*
X159968410Y-130843535D01*
X159965599Y-130667527D01*
X159963156Y-130446177D01*
X159961094Y-130182404D01*
X159959429Y-129879127D01*
X159958172Y-129539265D01*
X159957338Y-129165738D01*
X159956941Y-128761464D01*
X159956994Y-128329362D01*
X159957512Y-127872353D01*
X159958508Y-127393354D01*
X159959562Y-126963691D01*
X159960690Y-126495994D01*
X159961801Y-126077543D01*
X159963033Y-125705409D01*
X159964527Y-125376658D01*
X159966422Y-125088359D01*
X159968857Y-124837581D01*
X159971971Y-124621393D01*
X159975904Y-124436861D01*
X159980796Y-124281055D01*
X159986786Y-124151043D01*
X159994013Y-124043894D01*
X160002616Y-123956675D01*
X160012736Y-123886455D01*
X160024511Y-123830303D01*
X160038081Y-123785286D01*
X160053586Y-123748474D01*
X160071164Y-123716933D01*
X160090955Y-123687734D01*
X160113099Y-123657944D01*
X160137735Y-123624631D01*
X160161564Y-123591248D01*
X160207620Y-123525243D01*
X160235208Y-123483602D01*
X160235874Y-123481858D01*
X160226241Y-123473983D01*
X160192248Y-123467413D01*
X160130111Y-123462045D01*
X160036048Y-123457780D01*
X159906276Y-123454517D01*
X159737014Y-123452154D01*
X159524477Y-123450591D01*
X159264885Y-123449728D01*
X158954453Y-123449462D01*
X157653102Y-123449462D01*
X157721687Y-123530972D01*
X157761437Y-123586954D01*
X157827602Y-123718950D01*
X157885584Y-123883117D01*
X157929838Y-124065220D01*
X157932659Y-124082508D01*
X157941051Y-124173644D01*
X157947407Y-124314493D01*
X157951742Y-124506030D01*
X157954074Y-124749230D01*
X157954420Y-125045069D01*
X157952796Y-125394522D01*
X157944732Y-126561195D01*
X157111721Y-125507783D01*
X157087862Y-125477609D01*
X156876618Y-125210185D01*
X156696273Y-124981160D01*
X156543955Y-124786642D01*
X156416796Y-124622735D01*
X156311923Y-124485547D01*
X156226469Y-124371181D01*
X156157561Y-124275746D01*
X156102331Y-124195345D01*
X156057909Y-124126086D01*
X156021423Y-124064074D01*
X155990004Y-124005416D01*
X155960782Y-123946216D01*
X155915828Y-123841426D01*
X155886788Y-123730883D01*
X155879064Y-123611646D01*
X155879840Y-123449462D01*
X153115998Y-123449462D01*
X152202166Y-123449462D01*
X152231895Y-123433971D01*
X152446118Y-123265210D01*
X152505670Y-123205714D01*
X152681686Y-122985424D01*
X152806584Y-122746359D01*
X152881032Y-122486976D01*
X152905699Y-122205734D01*
X152905699Y-121974623D01*
X156826303Y-121974623D01*
X157071244Y-121974613D01*
X157597446Y-121974541D01*
X158072794Y-121974490D01*
X158499918Y-121974561D01*
X158881445Y-121974860D01*
X159220004Y-121975491D01*
X159518224Y-121976556D01*
X159778733Y-121978161D01*
X160004161Y-121980409D01*
X160197135Y-121983404D01*
X160360284Y-121987250D01*
X160496238Y-121992050D01*
X160607624Y-121997910D01*
X160697071Y-122004932D01*
X160767208Y-122013221D01*
X160820663Y-122022880D01*
X160860065Y-122034014D01*
X160888043Y-122046726D01*
X160907226Y-122061121D01*
X160920241Y-122077301D01*
X160929718Y-122095372D01*
X160938285Y-122115437D01*
X160948570Y-122137600D01*
X160948755Y-122137962D01*
X160953749Y-122152470D01*
X160958330Y-122176764D01*
X160962515Y-122213084D01*
X160966321Y-122263674D01*
X160969767Y-122330775D01*
X160972869Y-122416629D01*
X160975645Y-122523478D01*
X160978113Y-122653564D01*
X160980288Y-122809128D01*
X160982190Y-122992413D01*
X160983836Y-123205661D01*
X160985242Y-123451113D01*
X160986426Y-123731012D01*
X160987406Y-124047599D01*
X160988198Y-124403116D01*
X160988822Y-124799805D01*
X160989292Y-125239909D01*
X160989628Y-125725668D01*
X160989847Y-126259325D01*
X160989965Y-126843122D01*
X160990000Y-127479301D01*
X160990002Y-127604279D01*
X160990062Y-128233828D01*
X160990156Y-128811438D01*
X160990211Y-129339368D01*
X160990156Y-129819877D01*
X160989922Y-130255223D01*
X160989435Y-130647664D01*
X160988625Y-130999459D01*
X160987421Y-131312867D01*
X160985752Y-131590145D01*
X160984283Y-131752258D01*
X160983547Y-131833553D01*
X160980735Y-132045348D01*
G36*
X142648687Y-130106678D02*
G01*
X142622177Y-130311576D01*
X142582175Y-130482258D01*
X142518347Y-130657864D01*
X142370394Y-130947261D01*
X142181279Y-131201876D01*
X141952961Y-131419974D01*
X141687397Y-131599819D01*
X141386546Y-131739676D01*
X141052366Y-131837811D01*
X140916096Y-131859945D01*
X140721368Y-131875327D01*
X140509296Y-131878787D01*
X140297603Y-131870602D01*
X140104009Y-131851051D01*
X139946237Y-131820414D01*
X139866957Y-131796293D01*
X139686900Y-131725706D01*
X139503867Y-131636089D01*
X139336743Y-131537160D01*
X139204411Y-131438638D01*
X139202785Y-131437216D01*
X139130269Y-131375731D01*
X139074477Y-131331950D01*
X139047368Y-131315269D01*
X139044404Y-131319251D01*
X139037698Y-131362271D01*
X139033037Y-131442507D01*
X139031291Y-131547419D01*
X139031291Y-131779570D01*
X138007097Y-131779570D01*
X137979833Y-131779565D01*
X137751168Y-131779165D01*
X137541300Y-131778170D01*
X137356200Y-131776653D01*
X137201839Y-131774689D01*
X137084189Y-131772351D01*
X137009220Y-131769715D01*
X136982904Y-131766854D01*
X136983517Y-131764354D01*
X137000734Y-131727448D01*
X137036825Y-131658111D01*
X137085323Y-131568843D01*
X137187742Y-131383548D01*
X137202760Y-129554155D01*
X139140538Y-129554155D01*
X139141300Y-129698692D01*
X139144991Y-129850560D01*
X139152222Y-129960333D01*
X139163519Y-130035157D01*
X139179409Y-130082181D01*
X139199849Y-130115760D01*
X139276825Y-130207295D01*
X139379963Y-130302589D01*
X139493005Y-130387496D01*
X139599694Y-130447869D01*
X139658888Y-130470021D01*
X139795186Y-130499514D01*
X139973202Y-130514593D01*
X140160887Y-130512309D01*
X140339115Y-130481294D01*
X140487880Y-130417221D01*
X140616589Y-130317203D01*
X140652796Y-130280208D01*
X140747065Y-130154042D01*
X140798070Y-130018053D01*
X140813388Y-129854420D01*
X140809238Y-129767972D01*
X140768199Y-129590010D01*
X140681986Y-129437262D01*
X140549027Y-129308010D01*
X140367754Y-129200535D01*
X140136598Y-129113118D01*
X140043409Y-129090177D01*
X139930593Y-129074469D01*
X139788614Y-129065746D01*
X139604839Y-129062813D01*
X139574986Y-129062815D01*
X139437500Y-129064493D01*
X139319400Y-129068550D01*
X139232430Y-129074453D01*
X139188334Y-129081670D01*
X139183260Y-129084013D01*
X139166854Y-129098726D01*
X139155235Y-129128292D01*
X139147598Y-129180666D01*
X139143140Y-129263799D01*
X139141054Y-129385644D01*
X139140538Y-129554155D01*
X137202760Y-129554155D01*
X137203549Y-129458064D01*
X137205898Y-129177618D01*
X137209185Y-128819947D01*
X137212635Y-128509437D01*
X137216527Y-128241698D01*
X137221139Y-128012336D01*
X137226752Y-127816962D01*
X137233642Y-127651183D01*
X137242089Y-127510609D01*
X137252373Y-127390847D01*
X137264770Y-127287508D01*
X137279561Y-127196199D01*
X137297023Y-127112529D01*
X137317436Y-127032107D01*
X137341079Y-126950541D01*
X137368229Y-126863441D01*
X137475189Y-126590384D01*
X137621666Y-126338022D01*
X137804084Y-126121962D01*
X138024112Y-125941072D01*
X138283420Y-125794222D01*
X138583679Y-125680283D01*
X138926558Y-125598122D01*
X139313728Y-125546611D01*
X139449049Y-125536368D01*
X139676951Y-125528878D01*
X139902838Y-125535623D01*
X140137285Y-125557738D01*
X140390868Y-125596362D01*
X140674162Y-125652631D01*
X140997742Y-125727683D01*
X141072537Y-125745842D01*
X141260367Y-125790528D01*
X141438392Y-125831673D01*
X141595817Y-125866847D01*
X141721846Y-125893619D01*
X141805681Y-125909559D01*
X141999103Y-125941328D01*
X141727176Y-126600395D01*
X141659158Y-126764949D01*
X141592243Y-126926190D01*
X141534830Y-127063855D01*
X141489738Y-127171210D01*
X141459785Y-127241518D01*
X141447789Y-127268043D01*
X141445903Y-127268423D01*
X141411142Y-127256580D01*
X141342789Y-127226231D01*
X141253176Y-127182778D01*
X141066918Y-127098155D01*
X140810615Y-127005629D01*
X140548290Y-126934772D01*
X140290200Y-126887363D01*
X140046606Y-126865183D01*
X139827765Y-126870010D01*
X139643936Y-126903624D01*
X139515636Y-126956960D01*
X139369927Y-127066262D01*
X139257759Y-127214543D01*
X139182343Y-127397243D01*
X139146891Y-127609798D01*
X139134406Y-127805699D01*
X139786128Y-127807483D01*
X140005913Y-127809326D01*
X140249011Y-127815871D01*
X140456683Y-127828224D01*
X140639671Y-127847585D01*
X140808718Y-127875155D01*
X140974566Y-127912136D01*
X141147957Y-127959727D01*
X141407393Y-128050314D01*
X141712543Y-128199492D01*
X141980352Y-128382221D01*
X142208177Y-128595932D01*
X142393377Y-128838054D01*
X142533310Y-129106017D01*
X142625336Y-129397252D01*
X142639748Y-129475689D01*
X142658224Y-129669834D01*
X142660550Y-129854420D01*
X142660953Y-129886464D01*
X142648687Y-130106678D01*
G37*
X142648687Y-130106678D02*
X142622177Y-130311576D01*
X142582175Y-130482258D01*
X142518347Y-130657864D01*
X142370394Y-130947261D01*
X142181279Y-131201876D01*
X141952961Y-131419974D01*
X141687397Y-131599819D01*
X141386546Y-131739676D01*
X141052366Y-131837811D01*
X140916096Y-131859945D01*
X140721368Y-131875327D01*
X140509296Y-131878787D01*
X140297603Y-131870602D01*
X140104009Y-131851051D01*
X139946237Y-131820414D01*
X139866957Y-131796293D01*
X139686900Y-131725706D01*
X139503867Y-131636089D01*
X139336743Y-131537160D01*
X139204411Y-131438638D01*
X139202785Y-131437216D01*
X139130269Y-131375731D01*
X139074477Y-131331950D01*
X139047368Y-131315269D01*
X139044404Y-131319251D01*
X139037698Y-131362271D01*
X139033037Y-131442507D01*
X139031291Y-131547419D01*
X139031291Y-131779570D01*
X138007097Y-131779570D01*
X137979833Y-131779565D01*
X137751168Y-131779165D01*
X137541300Y-131778170D01*
X137356200Y-131776653D01*
X137201839Y-131774689D01*
X137084189Y-131772351D01*
X137009220Y-131769715D01*
X136982904Y-131766854D01*
X136983517Y-131764354D01*
X137000734Y-131727448D01*
X137036825Y-131658111D01*
X137085323Y-131568843D01*
X137187742Y-131383548D01*
X137202760Y-129554155D01*
X139140538Y-129554155D01*
X139141300Y-129698692D01*
X139144991Y-129850560D01*
X139152222Y-129960333D01*
X139163519Y-130035157D01*
X139179409Y-130082181D01*
X139199849Y-130115760D01*
X139276825Y-130207295D01*
X139379963Y-130302589D01*
X139493005Y-130387496D01*
X139599694Y-130447869D01*
X139658888Y-130470021D01*
X139795186Y-130499514D01*
X139973202Y-130514593D01*
X140160887Y-130512309D01*
X140339115Y-130481294D01*
X140487880Y-130417221D01*
X140616589Y-130317203D01*
X140652796Y-130280208D01*
X140747065Y-130154042D01*
X140798070Y-130018053D01*
X140813388Y-129854420D01*
X140809238Y-129767972D01*
X140768199Y-129590010D01*
X140681986Y-129437262D01*
X140549027Y-129308010D01*
X140367754Y-129200535D01*
X140136598Y-129113118D01*
X140043409Y-129090177D01*
X139930593Y-129074469D01*
X139788614Y-129065746D01*
X139604839Y-129062813D01*
X139574986Y-129062815D01*
X139437500Y-129064493D01*
X139319400Y-129068550D01*
X139232430Y-129074453D01*
X139188334Y-129081670D01*
X139183260Y-129084013D01*
X139166854Y-129098726D01*
X139155235Y-129128292D01*
X139147598Y-129180666D01*
X139143140Y-129263799D01*
X139141054Y-129385644D01*
X139140538Y-129554155D01*
X137202760Y-129554155D01*
X137203549Y-129458064D01*
X137205898Y-129177618D01*
X137209185Y-128819947D01*
X137212635Y-128509437D01*
X137216527Y-128241698D01*
X137221139Y-128012336D01*
X137226752Y-127816962D01*
X137233642Y-127651183D01*
X137242089Y-127510609D01*
X137252373Y-127390847D01*
X137264770Y-127287508D01*
X137279561Y-127196199D01*
X137297023Y-127112529D01*
X137317436Y-127032107D01*
X137341079Y-126950541D01*
X137368229Y-126863441D01*
X137475189Y-126590384D01*
X137621666Y-126338022D01*
X137804084Y-126121962D01*
X138024112Y-125941072D01*
X138283420Y-125794222D01*
X138583679Y-125680283D01*
X138926558Y-125598122D01*
X139313728Y-125546611D01*
X139449049Y-125536368D01*
X139676951Y-125528878D01*
X139902838Y-125535623D01*
X140137285Y-125557738D01*
X140390868Y-125596362D01*
X140674162Y-125652631D01*
X140997742Y-125727683D01*
X141072537Y-125745842D01*
X141260367Y-125790528D01*
X141438392Y-125831673D01*
X141595817Y-125866847D01*
X141721846Y-125893619D01*
X141805681Y-125909559D01*
X141999103Y-125941328D01*
X141727176Y-126600395D01*
X141659158Y-126764949D01*
X141592243Y-126926190D01*
X141534830Y-127063855D01*
X141489738Y-127171210D01*
X141459785Y-127241518D01*
X141447789Y-127268043D01*
X141445903Y-127268423D01*
X141411142Y-127256580D01*
X141342789Y-127226231D01*
X141253176Y-127182778D01*
X141066918Y-127098155D01*
X140810615Y-127005629D01*
X140548290Y-126934772D01*
X140290200Y-126887363D01*
X140046606Y-126865183D01*
X139827765Y-126870010D01*
X139643936Y-126903624D01*
X139515636Y-126956960D01*
X139369927Y-127066262D01*
X139257759Y-127214543D01*
X139182343Y-127397243D01*
X139146891Y-127609798D01*
X139134406Y-127805699D01*
X139786128Y-127807483D01*
X140005913Y-127809326D01*
X140249011Y-127815871D01*
X140456683Y-127828224D01*
X140639671Y-127847585D01*
X140808718Y-127875155D01*
X140974566Y-127912136D01*
X141147957Y-127959727D01*
X141407393Y-128050314D01*
X141712543Y-128199492D01*
X141980352Y-128382221D01*
X142208177Y-128595932D01*
X142393377Y-128838054D01*
X142533310Y-129106017D01*
X142625336Y-129397252D01*
X142639748Y-129475689D01*
X142658224Y-129669834D01*
X142660550Y-129854420D01*
X142660953Y-129886464D01*
X142648687Y-130106678D01*
G36*
X151600400Y-121085134D02*
G01*
X151810313Y-121136566D01*
X152009287Y-121228876D01*
X152191052Y-121362080D01*
X152349338Y-121536190D01*
X152477873Y-121751223D01*
X152512333Y-121826974D01*
X152540250Y-121903753D01*
X152555914Y-121980509D01*
X152562780Y-122075448D01*
X152564302Y-122206774D01*
X152563382Y-122316080D01*
X152557839Y-122416535D01*
X152544249Y-122494910D01*
X152519217Y-122569205D01*
X152479352Y-122657419D01*
X152467820Y-122680927D01*
X152331515Y-122896183D01*
X152160081Y-123073290D01*
X151958385Y-123208091D01*
X151731291Y-123296430D01*
X151614767Y-123321082D01*
X151378375Y-123332617D01*
X151149414Y-123295292D01*
X150934598Y-123212933D01*
X150740642Y-123089367D01*
X150574258Y-122928422D01*
X150442162Y-122733924D01*
X150351067Y-122509699D01*
X150317738Y-122326205D01*
X150314735Y-122123711D01*
X150341842Y-121926743D01*
X150397768Y-121756129D01*
X150462387Y-121634151D01*
X150606243Y-121440625D01*
X150776785Y-121287889D01*
X150967742Y-121175957D01*
X151172844Y-121104844D01*
X151385821Y-121074565D01*
X151600400Y-121085134D01*
G37*
X151600400Y-121085134D02*
X151810313Y-121136566D01*
X152009287Y-121228876D01*
X152191052Y-121362080D01*
X152349338Y-121536190D01*
X152477873Y-121751223D01*
X152512333Y-121826974D01*
X152540250Y-121903753D01*
X152555914Y-121980509D01*
X152562780Y-122075448D01*
X152564302Y-122206774D01*
X152563382Y-122316080D01*
X152557839Y-122416535D01*
X152544249Y-122494910D01*
X152519217Y-122569205D01*
X152479352Y-122657419D01*
X152467820Y-122680927D01*
X152331515Y-122896183D01*
X152160081Y-123073290D01*
X151958385Y-123208091D01*
X151731291Y-123296430D01*
X151614767Y-123321082D01*
X151378375Y-123332617D01*
X151149414Y-123295292D01*
X150934598Y-123212933D01*
X150740642Y-123089367D01*
X150574258Y-122928422D01*
X150442162Y-122733924D01*
X150351067Y-122509699D01*
X150317738Y-122326205D01*
X150314735Y-122123711D01*
X150341842Y-121926743D01*
X150397768Y-121756129D01*
X150462387Y-121634151D01*
X150606243Y-121440625D01*
X150776785Y-121287889D01*
X150967742Y-121175957D01*
X151172844Y-121104844D01*
X151385821Y-121074565D01*
X151600400Y-121085134D01*
G36*
X145409535Y-123335960D02*
G01*
X145776552Y-123369653D01*
X146117511Y-123437603D01*
X146445096Y-123542670D01*
X146771987Y-123687714D01*
X147095574Y-123872904D01*
X147442846Y-124125366D01*
X147764885Y-124417260D01*
X148054598Y-124741360D01*
X148304894Y-125090440D01*
X148508683Y-125457275D01*
X148527181Y-125496518D01*
X148682097Y-125875304D01*
X148799811Y-126268905D01*
X148881844Y-126684842D01*
X148929717Y-127130634D01*
X148944951Y-127613799D01*
X148926428Y-128113267D01*
X148867636Y-128605146D01*
X148767662Y-129065600D01*
X148625611Y-129497895D01*
X148440589Y-129905298D01*
X148211701Y-130291075D01*
X147996700Y-130585805D01*
X147699828Y-130917424D01*
X147376252Y-131201466D01*
X147026112Y-131437839D01*
X146649551Y-131626449D01*
X146246709Y-131767205D01*
X145817730Y-131860012D01*
X145812834Y-131860735D01*
X145730223Y-131867984D01*
X145605557Y-131873360D01*
X145450367Y-131876614D01*
X145276177Y-131877494D01*
X145094517Y-131875749D01*
X144967199Y-131873192D01*
X144778297Y-131867270D01*
X144626927Y-131858791D01*
X144502168Y-131846851D01*
X144393105Y-131830546D01*
X144288818Y-131808969D01*
X144171487Y-131781086D01*
X144049074Y-131749333D01*
X143938364Y-131716023D01*
X143829309Y-131677253D01*
X143711861Y-131629122D01*
X143575973Y-131567729D01*
X143411596Y-131489172D01*
X143208683Y-131389549D01*
X142647474Y-131112201D01*
X143096967Y-130373896D01*
X143155814Y-130277265D01*
X143261538Y-130103800D01*
X143356167Y-129948721D01*
X143436243Y-129817685D01*
X143498308Y-129716348D01*
X143538903Y-129650367D01*
X143554570Y-129625398D01*
X143558928Y-129626144D01*
X143594030Y-129650579D01*
X143655699Y-129701291D01*
X143734191Y-129770412D01*
X143873980Y-129889837D01*
X144123534Y-130066436D01*
X144365660Y-130189547D01*
X144540627Y-130251026D01*
X144836571Y-130313857D01*
X145127344Y-130324994D01*
X145408730Y-130285195D01*
X145676512Y-130195220D01*
X145926475Y-130055828D01*
X146154400Y-129867775D01*
X146281226Y-129729268D01*
X146459897Y-129473078D01*
X146606505Y-129175783D01*
X146721749Y-128835860D01*
X146806333Y-128451786D01*
X146810170Y-128427943D01*
X146827899Y-128273402D01*
X146841097Y-128081389D01*
X146849657Y-127865022D01*
X146853473Y-127637422D01*
X146852437Y-127411709D01*
X146846444Y-127201004D01*
X146835386Y-127018426D01*
X146819155Y-126877097D01*
X146756946Y-126556955D01*
X146652271Y-126182987D01*
X146520625Y-125855584D01*
X146362184Y-125574999D01*
X146177124Y-125341485D01*
X145965622Y-125155296D01*
X145727853Y-125016685D01*
X145463993Y-124925905D01*
X145405452Y-124914638D01*
X145258744Y-124899926D01*
X145087293Y-124895124D01*
X144910307Y-124899967D01*
X144746993Y-124914193D01*
X144616560Y-124937537D01*
X144399274Y-125011868D01*
X144147118Y-125147568D01*
X143922594Y-125326147D01*
X143882966Y-125363765D01*
X143811161Y-125430320D01*
X143760412Y-125475117D01*
X143739795Y-125490018D01*
X143734719Y-125482891D01*
X143703475Y-125437890D01*
X143647031Y-125356178D01*
X143569117Y-125243168D01*
X143473461Y-125104270D01*
X143363794Y-124944895D01*
X143243845Y-124770453D01*
X142753226Y-124056714D01*
X142862827Y-124023876D01*
X142874264Y-124020155D01*
X142948713Y-123990599D01*
X143056049Y-123942939D01*
X143183676Y-123882910D01*
X143318999Y-123816243D01*
X143377966Y-123786767D01*
X143705404Y-123634593D01*
X144007200Y-123516917D01*
X144294961Y-123430729D01*
X144580294Y-123373019D01*
X144874807Y-123340777D01*
X145190108Y-123330992D01*
X145409535Y-123335960D01*
G37*
X145409535Y-123335960D02*
X145776552Y-123369653D01*
X146117511Y-123437603D01*
X146445096Y-123542670D01*
X146771987Y-123687714D01*
X147095574Y-123872904D01*
X147442846Y-124125366D01*
X147764885Y-124417260D01*
X148054598Y-124741360D01*
X148304894Y-125090440D01*
X148508683Y-125457275D01*
X148527181Y-125496518D01*
X148682097Y-125875304D01*
X148799811Y-126268905D01*
X148881844Y-126684842D01*
X148929717Y-127130634D01*
X148944951Y-127613799D01*
X148926428Y-128113267D01*
X148867636Y-128605146D01*
X148767662Y-129065600D01*
X148625611Y-129497895D01*
X148440589Y-129905298D01*
X148211701Y-130291075D01*
X147996700Y-130585805D01*
X147699828Y-130917424D01*
X147376252Y-131201466D01*
X147026112Y-131437839D01*
X146649551Y-131626449D01*
X146246709Y-131767205D01*
X145817730Y-131860012D01*
X145812834Y-131860735D01*
X145730223Y-131867984D01*
X145605557Y-131873360D01*
X145450367Y-131876614D01*
X145276177Y-131877494D01*
X145094517Y-131875749D01*
X144967199Y-131873192D01*
X144778297Y-131867270D01*
X144626927Y-131858791D01*
X144502168Y-131846851D01*
X144393105Y-131830546D01*
X144288818Y-131808969D01*
X144171487Y-131781086D01*
X144049074Y-131749333D01*
X143938364Y-131716023D01*
X143829309Y-131677253D01*
X143711861Y-131629122D01*
X143575973Y-131567729D01*
X143411596Y-131489172D01*
X143208683Y-131389549D01*
X142647474Y-131112201D01*
X143096967Y-130373896D01*
X143155814Y-130277265D01*
X143261538Y-130103800D01*
X143356167Y-129948721D01*
X143436243Y-129817685D01*
X143498308Y-129716348D01*
X143538903Y-129650367D01*
X143554570Y-129625398D01*
X143558928Y-129626144D01*
X143594030Y-129650579D01*
X143655699Y-129701291D01*
X143734191Y-129770412D01*
X143873980Y-129889837D01*
X144123534Y-130066436D01*
X144365660Y-130189547D01*
X144540627Y-130251026D01*
X144836571Y-130313857D01*
X145127344Y-130324994D01*
X145408730Y-130285195D01*
X145676512Y-130195220D01*
X145926475Y-130055828D01*
X146154400Y-129867775D01*
X146281226Y-129729268D01*
X146459897Y-129473078D01*
X146606505Y-129175783D01*
X146721749Y-128835860D01*
X146806333Y-128451786D01*
X146810170Y-128427943D01*
X146827899Y-128273402D01*
X146841097Y-128081389D01*
X146849657Y-127865022D01*
X146853473Y-127637422D01*
X146852437Y-127411709D01*
X146846444Y-127201004D01*
X146835386Y-127018426D01*
X146819155Y-126877097D01*
X146756946Y-126556955D01*
X146652271Y-126182987D01*
X146520625Y-125855584D01*
X146362184Y-125574999D01*
X146177124Y-125341485D01*
X145965622Y-125155296D01*
X145727853Y-125016685D01*
X145463993Y-124925905D01*
X145405452Y-124914638D01*
X145258744Y-124899926D01*
X145087293Y-124895124D01*
X144910307Y-124899967D01*
X144746993Y-124914193D01*
X144616560Y-124937537D01*
X144399274Y-125011868D01*
X144147118Y-125147568D01*
X143922594Y-125326147D01*
X143882966Y-125363765D01*
X143811161Y-125430320D01*
X143760412Y-125475117D01*
X143739795Y-125490018D01*
X143734719Y-125482891D01*
X143703475Y-125437890D01*
X143647031Y-125356178D01*
X143569117Y-125243168D01*
X143473461Y-125104270D01*
X143363794Y-124944895D01*
X143243845Y-124770453D01*
X142753226Y-124056714D01*
X142862827Y-124023876D01*
X142874264Y-124020155D01*
X142948713Y-123990599D01*
X143056049Y-123942939D01*
X143183676Y-123882910D01*
X143318999Y-123816243D01*
X143377966Y-123786767D01*
X143705404Y-123634593D01*
X144007200Y-123516917D01*
X144294961Y-123430729D01*
X144580294Y-123373019D01*
X144874807Y-123340777D01*
X145190108Y-123330992D01*
X145409535Y-123335960D01*
%TD*%
M02*
