%TF.GenerationSoftware,KiCad,Pcbnew,6.0.10+dfsg-2*%
%TF.CreationDate,2023-02-01T09:38:32-05:00*%
%TF.ProjectId,ParentsStove,50617265-6e74-4735-9374-6f76652e6b69,rev?*%
%TF.SameCoordinates,Original*%
%TF.FileFunction,Drillmap*%
%TF.FilePolarity,Positive*%
%FSLAX45Y45*%
G04 Gerber Fmt 4.5, Leading zero omitted, Abs format (unit mm)*
G04 Created by KiCad (PCBNEW 6.0.10+dfsg-2) date 2023-02-01 09:38:32*
%MOMM*%
%LPD*%
G01*
G04 APERTURE LIST*
%ADD10C,0.100000*%
%ADD11C,0.200000*%
%ADD12C,0.080000*%
%ADD13C,0.270000*%
G04 APERTURE END LIST*
D10*
X18500000Y-8000000D02*
X18500000Y-14000000D01*
X10500000Y-8000000D02*
X18500000Y-8000000D01*
X10500000Y-14000000D02*
X10500000Y-8000000D01*
X18500000Y-14000000D02*
X10500000Y-14000000D01*
D11*
D12*
X10920000Y-12142500D02*
X11000000Y-12222500D01*
X11000000Y-12142500D02*
X10920000Y-12222500D01*
X10920000Y-12642500D02*
X11000000Y-12722500D01*
X11000000Y-12642500D02*
X10920000Y-12722500D01*
D13*
X17335000Y-8525000D02*
G75*
G03*
X17335000Y-8525000I-135000J0D01*
G01*
D11*
X10752619Y-14315476D02*
X10752619Y-14115476D01*
X10800238Y-14115476D01*
X10828810Y-14125000D01*
X10847857Y-14144048D01*
X10857381Y-14163095D01*
X10866905Y-14201190D01*
X10866905Y-14229762D01*
X10857381Y-14267857D01*
X10847857Y-14286905D01*
X10828810Y-14305952D01*
X10800238Y-14315476D01*
X10752619Y-14315476D01*
X10952619Y-14315476D02*
X10952619Y-14182143D01*
X10952619Y-14220238D02*
X10962143Y-14201190D01*
X10971667Y-14191667D01*
X10990714Y-14182143D01*
X11009762Y-14182143D01*
X11076429Y-14315476D02*
X11076429Y-14182143D01*
X11076429Y-14115476D02*
X11066905Y-14125000D01*
X11076429Y-14134524D01*
X11085952Y-14125000D01*
X11076429Y-14115476D01*
X11076429Y-14134524D01*
X11200238Y-14315476D02*
X11181190Y-14305952D01*
X11171667Y-14286905D01*
X11171667Y-14115476D01*
X11305000Y-14315476D02*
X11285952Y-14305952D01*
X11276428Y-14286905D01*
X11276428Y-14115476D01*
X11533571Y-14315476D02*
X11533571Y-14115476D01*
X11600238Y-14258333D01*
X11666905Y-14115476D01*
X11666905Y-14315476D01*
X11847857Y-14315476D02*
X11847857Y-14210714D01*
X11838333Y-14191667D01*
X11819286Y-14182143D01*
X11781190Y-14182143D01*
X11762143Y-14191667D01*
X11847857Y-14305952D02*
X11828809Y-14315476D01*
X11781190Y-14315476D01*
X11762143Y-14305952D01*
X11752619Y-14286905D01*
X11752619Y-14267857D01*
X11762143Y-14248809D01*
X11781190Y-14239286D01*
X11828809Y-14239286D01*
X11847857Y-14229762D01*
X11943095Y-14182143D02*
X11943095Y-14382143D01*
X11943095Y-14191667D02*
X11962143Y-14182143D01*
X12000238Y-14182143D01*
X12019286Y-14191667D01*
X12028809Y-14201190D01*
X12038333Y-14220238D01*
X12038333Y-14277381D01*
X12028809Y-14296428D01*
X12019286Y-14305952D01*
X12000238Y-14315476D01*
X11962143Y-14315476D01*
X11943095Y-14305952D01*
X12124048Y-14296428D02*
X12133571Y-14305952D01*
X12124048Y-14315476D01*
X12114524Y-14305952D01*
X12124048Y-14296428D01*
X12124048Y-14315476D01*
X12124048Y-14191667D02*
X12133571Y-14201190D01*
X12124048Y-14210714D01*
X12114524Y-14201190D01*
X12124048Y-14191667D01*
X12124048Y-14210714D01*
D12*
X10415000Y-14605000D02*
X10495000Y-14685000D01*
X10495000Y-14605000D02*
X10415000Y-14685000D01*
D11*
X10790714Y-14535476D02*
X10809762Y-14535476D01*
X10828810Y-14545000D01*
X10838333Y-14554524D01*
X10847857Y-14573571D01*
X10857381Y-14611667D01*
X10857381Y-14659286D01*
X10847857Y-14697381D01*
X10838333Y-14716428D01*
X10828810Y-14725952D01*
X10809762Y-14735476D01*
X10790714Y-14735476D01*
X10771667Y-14725952D01*
X10762143Y-14716428D01*
X10752619Y-14697381D01*
X10743095Y-14659286D01*
X10743095Y-14611667D01*
X10752619Y-14573571D01*
X10762143Y-14554524D01*
X10771667Y-14545000D01*
X10790714Y-14535476D01*
X10943095Y-14716428D02*
X10952619Y-14725952D01*
X10943095Y-14735476D01*
X10933571Y-14725952D01*
X10943095Y-14716428D01*
X10943095Y-14735476D01*
X11066905Y-14621190D02*
X11047857Y-14611667D01*
X11038333Y-14602143D01*
X11028810Y-14583095D01*
X11028810Y-14573571D01*
X11038333Y-14554524D01*
X11047857Y-14545000D01*
X11066905Y-14535476D01*
X11105000Y-14535476D01*
X11124048Y-14545000D01*
X11133571Y-14554524D01*
X11143095Y-14573571D01*
X11143095Y-14583095D01*
X11133571Y-14602143D01*
X11124048Y-14611667D01*
X11105000Y-14621190D01*
X11066905Y-14621190D01*
X11047857Y-14630714D01*
X11038333Y-14640238D01*
X11028810Y-14659286D01*
X11028810Y-14697381D01*
X11038333Y-14716428D01*
X11047857Y-14725952D01*
X11066905Y-14735476D01*
X11105000Y-14735476D01*
X11124048Y-14725952D01*
X11133571Y-14716428D01*
X11143095Y-14697381D01*
X11143095Y-14659286D01*
X11133571Y-14640238D01*
X11124048Y-14630714D01*
X11105000Y-14621190D01*
X11266905Y-14535476D02*
X11285952Y-14535476D01*
X11305000Y-14545000D01*
X11314524Y-14554524D01*
X11324048Y-14573571D01*
X11333571Y-14611667D01*
X11333571Y-14659286D01*
X11324048Y-14697381D01*
X11314524Y-14716428D01*
X11305000Y-14725952D01*
X11285952Y-14735476D01*
X11266905Y-14735476D01*
X11247857Y-14725952D01*
X11238333Y-14716428D01*
X11228809Y-14697381D01*
X11219286Y-14659286D01*
X11219286Y-14611667D01*
X11228809Y-14573571D01*
X11238333Y-14554524D01*
X11247857Y-14545000D01*
X11266905Y-14535476D01*
X11457381Y-14535476D02*
X11476428Y-14535476D01*
X11495476Y-14545000D01*
X11505000Y-14554524D01*
X11514524Y-14573571D01*
X11524048Y-14611667D01*
X11524048Y-14659286D01*
X11514524Y-14697381D01*
X11505000Y-14716428D01*
X11495476Y-14725952D01*
X11476428Y-14735476D01*
X11457381Y-14735476D01*
X11438333Y-14725952D01*
X11428809Y-14716428D01*
X11419286Y-14697381D01*
X11409762Y-14659286D01*
X11409762Y-14611667D01*
X11419286Y-14573571D01*
X11428809Y-14554524D01*
X11438333Y-14545000D01*
X11457381Y-14535476D01*
X11609762Y-14735476D02*
X11609762Y-14602143D01*
X11609762Y-14621190D02*
X11619286Y-14611667D01*
X11638333Y-14602143D01*
X11666905Y-14602143D01*
X11685952Y-14611667D01*
X11695476Y-14630714D01*
X11695476Y-14735476D01*
X11695476Y-14630714D02*
X11705000Y-14611667D01*
X11724048Y-14602143D01*
X11752619Y-14602143D01*
X11771667Y-14611667D01*
X11781190Y-14630714D01*
X11781190Y-14735476D01*
X11876428Y-14735476D02*
X11876428Y-14602143D01*
X11876428Y-14621190D02*
X11885952Y-14611667D01*
X11905000Y-14602143D01*
X11933571Y-14602143D01*
X11952619Y-14611667D01*
X11962143Y-14630714D01*
X11962143Y-14735476D01*
X11962143Y-14630714D02*
X11971667Y-14611667D01*
X11990714Y-14602143D01*
X12019286Y-14602143D01*
X12038333Y-14611667D01*
X12047857Y-14630714D01*
X12047857Y-14735476D01*
X12438333Y-14525952D02*
X12266905Y-14783095D01*
X12695476Y-14535476D02*
X12714524Y-14535476D01*
X12733571Y-14545000D01*
X12743095Y-14554524D01*
X12752619Y-14573571D01*
X12762143Y-14611667D01*
X12762143Y-14659286D01*
X12752619Y-14697381D01*
X12743095Y-14716428D01*
X12733571Y-14725952D01*
X12714524Y-14735476D01*
X12695476Y-14735476D01*
X12676428Y-14725952D01*
X12666905Y-14716428D01*
X12657381Y-14697381D01*
X12647857Y-14659286D01*
X12647857Y-14611667D01*
X12657381Y-14573571D01*
X12666905Y-14554524D01*
X12676428Y-14545000D01*
X12695476Y-14535476D01*
X12847857Y-14716428D02*
X12857381Y-14725952D01*
X12847857Y-14735476D01*
X12838333Y-14725952D01*
X12847857Y-14716428D01*
X12847857Y-14735476D01*
X12981190Y-14535476D02*
X13000238Y-14535476D01*
X13019286Y-14545000D01*
X13028809Y-14554524D01*
X13038333Y-14573571D01*
X13047857Y-14611667D01*
X13047857Y-14659286D01*
X13038333Y-14697381D01*
X13028809Y-14716428D01*
X13019286Y-14725952D01*
X13000238Y-14735476D01*
X12981190Y-14735476D01*
X12962143Y-14725952D01*
X12952619Y-14716428D01*
X12943095Y-14697381D01*
X12933571Y-14659286D01*
X12933571Y-14611667D01*
X12943095Y-14573571D01*
X12952619Y-14554524D01*
X12962143Y-14545000D01*
X12981190Y-14535476D01*
X13114524Y-14535476D02*
X13238333Y-14535476D01*
X13171667Y-14611667D01*
X13200238Y-14611667D01*
X13219286Y-14621190D01*
X13228809Y-14630714D01*
X13238333Y-14649762D01*
X13238333Y-14697381D01*
X13228809Y-14716428D01*
X13219286Y-14725952D01*
X13200238Y-14735476D01*
X13143095Y-14735476D01*
X13124048Y-14725952D01*
X13114524Y-14716428D01*
X13428809Y-14735476D02*
X13314524Y-14735476D01*
X13371667Y-14735476D02*
X13371667Y-14535476D01*
X13352619Y-14564048D01*
X13333571Y-14583095D01*
X13314524Y-14592619D01*
X13609762Y-14535476D02*
X13514524Y-14535476D01*
X13505000Y-14630714D01*
X13514524Y-14621190D01*
X13533571Y-14611667D01*
X13581190Y-14611667D01*
X13600238Y-14621190D01*
X13609762Y-14630714D01*
X13619286Y-14649762D01*
X13619286Y-14697381D01*
X13609762Y-14716428D01*
X13600238Y-14725952D01*
X13581190Y-14735476D01*
X13533571Y-14735476D01*
X13514524Y-14725952D01*
X13505000Y-14716428D01*
X13695476Y-14535476D02*
X13695476Y-14573571D01*
X13771667Y-14535476D02*
X13771667Y-14573571D01*
X14066905Y-14811667D02*
X14057381Y-14802143D01*
X14038333Y-14773571D01*
X14028809Y-14754524D01*
X14019286Y-14725952D01*
X14009762Y-14678333D01*
X14009762Y-14640238D01*
X14019286Y-14592619D01*
X14028809Y-14564048D01*
X14038333Y-14545000D01*
X14057381Y-14516428D01*
X14066905Y-14506905D01*
X14133571Y-14554524D02*
X14143095Y-14545000D01*
X14162143Y-14535476D01*
X14209762Y-14535476D01*
X14228809Y-14545000D01*
X14238333Y-14554524D01*
X14247857Y-14573571D01*
X14247857Y-14592619D01*
X14238333Y-14621190D01*
X14124048Y-14735476D01*
X14247857Y-14735476D01*
X14485952Y-14735476D02*
X14485952Y-14535476D01*
X14571667Y-14735476D02*
X14571667Y-14630714D01*
X14562143Y-14611667D01*
X14543095Y-14602143D01*
X14514524Y-14602143D01*
X14495476Y-14611667D01*
X14485952Y-14621190D01*
X14695476Y-14735476D02*
X14676428Y-14725952D01*
X14666905Y-14716428D01*
X14657381Y-14697381D01*
X14657381Y-14640238D01*
X14666905Y-14621190D01*
X14676428Y-14611667D01*
X14695476Y-14602143D01*
X14724048Y-14602143D01*
X14743095Y-14611667D01*
X14752619Y-14621190D01*
X14762143Y-14640238D01*
X14762143Y-14697381D01*
X14752619Y-14716428D01*
X14743095Y-14725952D01*
X14724048Y-14735476D01*
X14695476Y-14735476D01*
X14876428Y-14735476D02*
X14857381Y-14725952D01*
X14847857Y-14706905D01*
X14847857Y-14535476D01*
X15028809Y-14725952D02*
X15009762Y-14735476D01*
X14971667Y-14735476D01*
X14952619Y-14725952D01*
X14943095Y-14706905D01*
X14943095Y-14630714D01*
X14952619Y-14611667D01*
X14971667Y-14602143D01*
X15009762Y-14602143D01*
X15028809Y-14611667D01*
X15038333Y-14630714D01*
X15038333Y-14649762D01*
X14943095Y-14668809D01*
X15114524Y-14725952D02*
X15133571Y-14735476D01*
X15171667Y-14735476D01*
X15190714Y-14725952D01*
X15200238Y-14706905D01*
X15200238Y-14697381D01*
X15190714Y-14678333D01*
X15171667Y-14668809D01*
X15143095Y-14668809D01*
X15124048Y-14659286D01*
X15114524Y-14640238D01*
X15114524Y-14630714D01*
X15124048Y-14611667D01*
X15143095Y-14602143D01*
X15171667Y-14602143D01*
X15190714Y-14611667D01*
X15266905Y-14811667D02*
X15276428Y-14802143D01*
X15295476Y-14773571D01*
X15305000Y-14754524D01*
X15314524Y-14725952D01*
X15324048Y-14678333D01*
X15324048Y-14640238D01*
X15314524Y-14592619D01*
X15305000Y-14564048D01*
X15295476Y-14545000D01*
X15276428Y-14516428D01*
X15266905Y-14506905D01*
X15628809Y-14811667D02*
X15619286Y-14802143D01*
X15600238Y-14773571D01*
X15590714Y-14754524D01*
X15581190Y-14725952D01*
X15571667Y-14678333D01*
X15571667Y-14640238D01*
X15581190Y-14592619D01*
X15590714Y-14564048D01*
X15600238Y-14545000D01*
X15619286Y-14516428D01*
X15628809Y-14506905D01*
X15705000Y-14602143D02*
X15705000Y-14735476D01*
X15705000Y-14621190D02*
X15714524Y-14611667D01*
X15733571Y-14602143D01*
X15762143Y-14602143D01*
X15781190Y-14611667D01*
X15790714Y-14630714D01*
X15790714Y-14735476D01*
X15914524Y-14735476D02*
X15895476Y-14725952D01*
X15885952Y-14716428D01*
X15876428Y-14697381D01*
X15876428Y-14640238D01*
X15885952Y-14621190D01*
X15895476Y-14611667D01*
X15914524Y-14602143D01*
X15943095Y-14602143D01*
X15962143Y-14611667D01*
X15971667Y-14621190D01*
X15981190Y-14640238D01*
X15981190Y-14697381D01*
X15971667Y-14716428D01*
X15962143Y-14725952D01*
X15943095Y-14735476D01*
X15914524Y-14735476D01*
X16038333Y-14602143D02*
X16114524Y-14602143D01*
X16066905Y-14535476D02*
X16066905Y-14706905D01*
X16076428Y-14725952D01*
X16095476Y-14735476D01*
X16114524Y-14735476D01*
X16333571Y-14602143D02*
X16333571Y-14802143D01*
X16333571Y-14611667D02*
X16352619Y-14602143D01*
X16390714Y-14602143D01*
X16409762Y-14611667D01*
X16419286Y-14621190D01*
X16428809Y-14640238D01*
X16428809Y-14697381D01*
X16419286Y-14716428D01*
X16409762Y-14725952D01*
X16390714Y-14735476D01*
X16352619Y-14735476D01*
X16333571Y-14725952D01*
X16543095Y-14735476D02*
X16524048Y-14725952D01*
X16514524Y-14706905D01*
X16514524Y-14535476D01*
X16705000Y-14735476D02*
X16705000Y-14630714D01*
X16695476Y-14611667D01*
X16676428Y-14602143D01*
X16638333Y-14602143D01*
X16619286Y-14611667D01*
X16705000Y-14725952D02*
X16685952Y-14735476D01*
X16638333Y-14735476D01*
X16619286Y-14725952D01*
X16609762Y-14706905D01*
X16609762Y-14687857D01*
X16619286Y-14668809D01*
X16638333Y-14659286D01*
X16685952Y-14659286D01*
X16705000Y-14649762D01*
X16771667Y-14602143D02*
X16847857Y-14602143D01*
X16800238Y-14535476D02*
X16800238Y-14706905D01*
X16809762Y-14725952D01*
X16828810Y-14735476D01*
X16847857Y-14735476D01*
X16990714Y-14725952D02*
X16971667Y-14735476D01*
X16933571Y-14735476D01*
X16914524Y-14725952D01*
X16905000Y-14706905D01*
X16905000Y-14630714D01*
X16914524Y-14611667D01*
X16933571Y-14602143D01*
X16971667Y-14602143D01*
X16990714Y-14611667D01*
X17000238Y-14630714D01*
X17000238Y-14649762D01*
X16905000Y-14668809D01*
X17171667Y-14735476D02*
X17171667Y-14535476D01*
X17171667Y-14725952D02*
X17152619Y-14735476D01*
X17114524Y-14735476D01*
X17095476Y-14725952D01*
X17085952Y-14716428D01*
X17076429Y-14697381D01*
X17076429Y-14640238D01*
X17085952Y-14621190D01*
X17095476Y-14611667D01*
X17114524Y-14602143D01*
X17152619Y-14602143D01*
X17171667Y-14611667D01*
X17247857Y-14811667D02*
X17257381Y-14802143D01*
X17276429Y-14773571D01*
X17285952Y-14754524D01*
X17295476Y-14725952D01*
X17305000Y-14678333D01*
X17305000Y-14640238D01*
X17295476Y-14592619D01*
X17285952Y-14564048D01*
X17276429Y-14545000D01*
X17257381Y-14516428D01*
X17247857Y-14506905D01*
X10495000Y-14909000D02*
G75*
G03*
X10495000Y-14909000I-100000J0D01*
G01*
X10743095Y-14818524D02*
X10752619Y-14809000D01*
X10771667Y-14799476D01*
X10819286Y-14799476D01*
X10838333Y-14809000D01*
X10847857Y-14818524D01*
X10857381Y-14837571D01*
X10857381Y-14856619D01*
X10847857Y-14885190D01*
X10733571Y-14999476D01*
X10857381Y-14999476D01*
X10943095Y-14980428D02*
X10952619Y-14989952D01*
X10943095Y-14999476D01*
X10933571Y-14989952D01*
X10943095Y-14980428D01*
X10943095Y-14999476D01*
X11019286Y-14799476D02*
X11152619Y-14799476D01*
X11066905Y-14999476D01*
X11266905Y-14799476D02*
X11285952Y-14799476D01*
X11305000Y-14809000D01*
X11314524Y-14818524D01*
X11324048Y-14837571D01*
X11333571Y-14875667D01*
X11333571Y-14923286D01*
X11324048Y-14961381D01*
X11314524Y-14980428D01*
X11305000Y-14989952D01*
X11285952Y-14999476D01*
X11266905Y-14999476D01*
X11247857Y-14989952D01*
X11238333Y-14980428D01*
X11228809Y-14961381D01*
X11219286Y-14923286D01*
X11219286Y-14875667D01*
X11228809Y-14837571D01*
X11238333Y-14818524D01*
X11247857Y-14809000D01*
X11266905Y-14799476D01*
X11457381Y-14799476D02*
X11476428Y-14799476D01*
X11495476Y-14809000D01*
X11505000Y-14818524D01*
X11514524Y-14837571D01*
X11524048Y-14875667D01*
X11524048Y-14923286D01*
X11514524Y-14961381D01*
X11505000Y-14980428D01*
X11495476Y-14989952D01*
X11476428Y-14999476D01*
X11457381Y-14999476D01*
X11438333Y-14989952D01*
X11428809Y-14980428D01*
X11419286Y-14961381D01*
X11409762Y-14923286D01*
X11409762Y-14875667D01*
X11419286Y-14837571D01*
X11428809Y-14818524D01*
X11438333Y-14809000D01*
X11457381Y-14799476D01*
X11609762Y-14999476D02*
X11609762Y-14866143D01*
X11609762Y-14885190D02*
X11619286Y-14875667D01*
X11638333Y-14866143D01*
X11666905Y-14866143D01*
X11685952Y-14875667D01*
X11695476Y-14894714D01*
X11695476Y-14999476D01*
X11695476Y-14894714D02*
X11705000Y-14875667D01*
X11724048Y-14866143D01*
X11752619Y-14866143D01*
X11771667Y-14875667D01*
X11781190Y-14894714D01*
X11781190Y-14999476D01*
X11876428Y-14999476D02*
X11876428Y-14866143D01*
X11876428Y-14885190D02*
X11885952Y-14875667D01*
X11905000Y-14866143D01*
X11933571Y-14866143D01*
X11952619Y-14875667D01*
X11962143Y-14894714D01*
X11962143Y-14999476D01*
X11962143Y-14894714D02*
X11971667Y-14875667D01*
X11990714Y-14866143D01*
X12019286Y-14866143D01*
X12038333Y-14875667D01*
X12047857Y-14894714D01*
X12047857Y-14999476D01*
X12438333Y-14789952D02*
X12266905Y-15047095D01*
X12695476Y-14799476D02*
X12714524Y-14799476D01*
X12733571Y-14809000D01*
X12743095Y-14818524D01*
X12752619Y-14837571D01*
X12762143Y-14875667D01*
X12762143Y-14923286D01*
X12752619Y-14961381D01*
X12743095Y-14980428D01*
X12733571Y-14989952D01*
X12714524Y-14999476D01*
X12695476Y-14999476D01*
X12676428Y-14989952D01*
X12666905Y-14980428D01*
X12657381Y-14961381D01*
X12647857Y-14923286D01*
X12647857Y-14875667D01*
X12657381Y-14837571D01*
X12666905Y-14818524D01*
X12676428Y-14809000D01*
X12695476Y-14799476D01*
X12847857Y-14980428D02*
X12857381Y-14989952D01*
X12847857Y-14999476D01*
X12838333Y-14989952D01*
X12847857Y-14980428D01*
X12847857Y-14999476D01*
X13047857Y-14999476D02*
X12933571Y-14999476D01*
X12990714Y-14999476D02*
X12990714Y-14799476D01*
X12971667Y-14828048D01*
X12952619Y-14847095D01*
X12933571Y-14856619D01*
X13171667Y-14799476D02*
X13190714Y-14799476D01*
X13209762Y-14809000D01*
X13219286Y-14818524D01*
X13228809Y-14837571D01*
X13238333Y-14875667D01*
X13238333Y-14923286D01*
X13228809Y-14961381D01*
X13219286Y-14980428D01*
X13209762Y-14989952D01*
X13190714Y-14999476D01*
X13171667Y-14999476D01*
X13152619Y-14989952D01*
X13143095Y-14980428D01*
X13133571Y-14961381D01*
X13124048Y-14923286D01*
X13124048Y-14875667D01*
X13133571Y-14837571D01*
X13143095Y-14818524D01*
X13152619Y-14809000D01*
X13171667Y-14799476D01*
X13409762Y-14799476D02*
X13371667Y-14799476D01*
X13352619Y-14809000D01*
X13343095Y-14818524D01*
X13324048Y-14847095D01*
X13314524Y-14885190D01*
X13314524Y-14961381D01*
X13324048Y-14980428D01*
X13333571Y-14989952D01*
X13352619Y-14999476D01*
X13390714Y-14999476D01*
X13409762Y-14989952D01*
X13419286Y-14980428D01*
X13428809Y-14961381D01*
X13428809Y-14913762D01*
X13419286Y-14894714D01*
X13409762Y-14885190D01*
X13390714Y-14875667D01*
X13352619Y-14875667D01*
X13333571Y-14885190D01*
X13324048Y-14894714D01*
X13314524Y-14913762D01*
X13495476Y-14799476D02*
X13619286Y-14799476D01*
X13552619Y-14875667D01*
X13581190Y-14875667D01*
X13600238Y-14885190D01*
X13609762Y-14894714D01*
X13619286Y-14913762D01*
X13619286Y-14961381D01*
X13609762Y-14980428D01*
X13600238Y-14989952D01*
X13581190Y-14999476D01*
X13524048Y-14999476D01*
X13505000Y-14989952D01*
X13495476Y-14980428D01*
X13695476Y-14799476D02*
X13695476Y-14837571D01*
X13771667Y-14799476D02*
X13771667Y-14837571D01*
X14066905Y-15075667D02*
X14057381Y-15066143D01*
X14038333Y-15037571D01*
X14028809Y-15018524D01*
X14019286Y-14989952D01*
X14009762Y-14942333D01*
X14009762Y-14904238D01*
X14019286Y-14856619D01*
X14028809Y-14828048D01*
X14038333Y-14809000D01*
X14057381Y-14780428D01*
X14066905Y-14770905D01*
X14247857Y-14999476D02*
X14133571Y-14999476D01*
X14190714Y-14999476D02*
X14190714Y-14799476D01*
X14171667Y-14828048D01*
X14152619Y-14847095D01*
X14133571Y-14856619D01*
X14485952Y-14999476D02*
X14485952Y-14799476D01*
X14571667Y-14999476D02*
X14571667Y-14894714D01*
X14562143Y-14875667D01*
X14543095Y-14866143D01*
X14514524Y-14866143D01*
X14495476Y-14875667D01*
X14485952Y-14885190D01*
X14695476Y-14999476D02*
X14676428Y-14989952D01*
X14666905Y-14980428D01*
X14657381Y-14961381D01*
X14657381Y-14904238D01*
X14666905Y-14885190D01*
X14676428Y-14875667D01*
X14695476Y-14866143D01*
X14724048Y-14866143D01*
X14743095Y-14875667D01*
X14752619Y-14885190D01*
X14762143Y-14904238D01*
X14762143Y-14961381D01*
X14752619Y-14980428D01*
X14743095Y-14989952D01*
X14724048Y-14999476D01*
X14695476Y-14999476D01*
X14876428Y-14999476D02*
X14857381Y-14989952D01*
X14847857Y-14970905D01*
X14847857Y-14799476D01*
X15028809Y-14989952D02*
X15009762Y-14999476D01*
X14971667Y-14999476D01*
X14952619Y-14989952D01*
X14943095Y-14970905D01*
X14943095Y-14894714D01*
X14952619Y-14875667D01*
X14971667Y-14866143D01*
X15009762Y-14866143D01*
X15028809Y-14875667D01*
X15038333Y-14894714D01*
X15038333Y-14913762D01*
X14943095Y-14932809D01*
X15105000Y-15075667D02*
X15114524Y-15066143D01*
X15133571Y-15037571D01*
X15143095Y-15018524D01*
X15152619Y-14989952D01*
X15162143Y-14942333D01*
X15162143Y-14904238D01*
X15152619Y-14856619D01*
X15143095Y-14828048D01*
X15133571Y-14809000D01*
X15114524Y-14780428D01*
X15105000Y-14770905D01*
X15466905Y-15075667D02*
X15457381Y-15066143D01*
X15438333Y-15037571D01*
X15428809Y-15018524D01*
X15419286Y-14989952D01*
X15409762Y-14942333D01*
X15409762Y-14904238D01*
X15419286Y-14856619D01*
X15428809Y-14828048D01*
X15438333Y-14809000D01*
X15457381Y-14780428D01*
X15466905Y-14770905D01*
X15543095Y-14866143D02*
X15543095Y-14999476D01*
X15543095Y-14885190D02*
X15552619Y-14875667D01*
X15571667Y-14866143D01*
X15600238Y-14866143D01*
X15619286Y-14875667D01*
X15628809Y-14894714D01*
X15628809Y-14999476D01*
X15752619Y-14999476D02*
X15733571Y-14989952D01*
X15724048Y-14980428D01*
X15714524Y-14961381D01*
X15714524Y-14904238D01*
X15724048Y-14885190D01*
X15733571Y-14875667D01*
X15752619Y-14866143D01*
X15781190Y-14866143D01*
X15800238Y-14875667D01*
X15809762Y-14885190D01*
X15819286Y-14904238D01*
X15819286Y-14961381D01*
X15809762Y-14980428D01*
X15800238Y-14989952D01*
X15781190Y-14999476D01*
X15752619Y-14999476D01*
X15876428Y-14866143D02*
X15952619Y-14866143D01*
X15905000Y-14799476D02*
X15905000Y-14970905D01*
X15914524Y-14989952D01*
X15933571Y-14999476D01*
X15952619Y-14999476D01*
X16171667Y-14866143D02*
X16171667Y-15066143D01*
X16171667Y-14875667D02*
X16190714Y-14866143D01*
X16228809Y-14866143D01*
X16247857Y-14875667D01*
X16257381Y-14885190D01*
X16266905Y-14904238D01*
X16266905Y-14961381D01*
X16257381Y-14980428D01*
X16247857Y-14989952D01*
X16228809Y-14999476D01*
X16190714Y-14999476D01*
X16171667Y-14989952D01*
X16381190Y-14999476D02*
X16362143Y-14989952D01*
X16352619Y-14970905D01*
X16352619Y-14799476D01*
X16543095Y-14999476D02*
X16543095Y-14894714D01*
X16533571Y-14875667D01*
X16514524Y-14866143D01*
X16476428Y-14866143D01*
X16457381Y-14875667D01*
X16543095Y-14989952D02*
X16524048Y-14999476D01*
X16476428Y-14999476D01*
X16457381Y-14989952D01*
X16447857Y-14970905D01*
X16447857Y-14951857D01*
X16457381Y-14932809D01*
X16476428Y-14923286D01*
X16524048Y-14923286D01*
X16543095Y-14913762D01*
X16609762Y-14866143D02*
X16685952Y-14866143D01*
X16638333Y-14799476D02*
X16638333Y-14970905D01*
X16647857Y-14989952D01*
X16666905Y-14999476D01*
X16685952Y-14999476D01*
X16828810Y-14989952D02*
X16809762Y-14999476D01*
X16771667Y-14999476D01*
X16752619Y-14989952D01*
X16743095Y-14970905D01*
X16743095Y-14894714D01*
X16752619Y-14875667D01*
X16771667Y-14866143D01*
X16809762Y-14866143D01*
X16828810Y-14875667D01*
X16838333Y-14894714D01*
X16838333Y-14913762D01*
X16743095Y-14932809D01*
X17009762Y-14999476D02*
X17009762Y-14799476D01*
X17009762Y-14989952D02*
X16990714Y-14999476D01*
X16952619Y-14999476D01*
X16933571Y-14989952D01*
X16924048Y-14980428D01*
X16914524Y-14961381D01*
X16914524Y-14904238D01*
X16924048Y-14885190D01*
X16933571Y-14875667D01*
X16952619Y-14866143D01*
X16990714Y-14866143D01*
X17009762Y-14875667D01*
X17085952Y-15075667D02*
X17095476Y-15066143D01*
X17114524Y-15037571D01*
X17124048Y-15018524D01*
X17133571Y-14989952D01*
X17143095Y-14942333D01*
X17143095Y-14904238D01*
X17133571Y-14856619D01*
X17124048Y-14828048D01*
X17114524Y-14809000D01*
X17095476Y-14780428D01*
X17085952Y-14770905D01*
M02*
