%TF.GenerationSoftware,KiCad,Pcbnew,6.0.10+dfsg-2*%
%TF.CreationDate,2023-02-01T09:38:30-05:00*%
%TF.ProjectId,ParentsStove,50617265-6e74-4735-9374-6f76652e6b69,rev?*%
%TF.SameCoordinates,Original*%
%TF.FileFunction,Paste,Top*%
%TF.FilePolarity,Positive*%
%FSLAX46Y46*%
G04 Gerber Fmt 4.6, Leading zero omitted, Abs format (unit mm)*
G04 Created by KiCad (PCBNEW 6.0.10+dfsg-2) date 2023-02-01 09:38:30*
%MOMM*%
%LPD*%
G01*
G04 APERTURE LIST*
G04 Aperture macros list*
%AMRoundRect*
0 Rectangle with rounded corners*
0 $1 Rounding radius*
0 $2 $3 $4 $5 $6 $7 $8 $9 X,Y pos of 4 corners*
0 Add a 4 corners polygon primitive as box body*
4,1,4,$2,$3,$4,$5,$6,$7,$8,$9,$2,$3,0*
0 Add four circle primitives for the rounded corners*
1,1,$1+$1,$2,$3*
1,1,$1+$1,$4,$5*
1,1,$1+$1,$6,$7*
1,1,$1+$1,$8,$9*
0 Add four rect primitives between the rounded corners*
20,1,$1+$1,$2,$3,$4,$5,0*
20,1,$1+$1,$4,$5,$6,$7,0*
20,1,$1+$1,$6,$7,$8,$9,0*
20,1,$1+$1,$8,$9,$2,$3,0*%
G04 Aperture macros list end*
%ADD10RoundRect,0.071100X-0.678900X-0.378900X0.678900X-0.378900X0.678900X0.378900X-0.678900X0.378900X0*%
%ADD11RoundRect,0.071100X0.378900X-0.678900X0.378900X0.678900X-0.378900X0.678900X-0.378900X-0.678900X0*%
%ADD12RoundRect,0.071100X0.678900X0.378900X-0.678900X0.378900X-0.678900X-0.378900X0.678900X-0.378900X0*%
%ADD13RoundRect,0.086900X0.463100X0.463100X-0.463100X0.463100X-0.463100X-0.463100X0.463100X-0.463100X0*%
%ADD14R,1.300000X0.450000*%
%ADD15RoundRect,0.150000X-0.512500X-0.150000X0.512500X-0.150000X0.512500X0.150000X-0.512500X0.150000X0*%
%ADD16RoundRect,0.225000X0.250000X-0.225000X0.250000X0.225000X-0.250000X0.225000X-0.250000X-0.225000X0*%
%ADD17RoundRect,0.200000X0.275000X-0.200000X0.275000X0.200000X-0.275000X0.200000X-0.275000X-0.200000X0*%
%ADD18RoundRect,0.200000X-0.200000X-0.275000X0.200000X-0.275000X0.200000X0.275000X-0.200000X0.275000X0*%
%ADD19RoundRect,0.250000X-0.425000X0.425000X-0.425000X-0.425000X0.425000X-0.425000X0.425000X0.425000X0*%
%ADD20RoundRect,0.075000X-0.075000X0.325000X-0.075000X-0.325000X0.075000X-0.325000X0.075000X0.325000X0*%
%ADD21RoundRect,0.075000X-0.325000X0.075000X-0.325000X-0.075000X0.325000X-0.075000X0.325000X0.075000X0*%
%ADD22RoundRect,0.218750X0.218750X0.381250X-0.218750X0.381250X-0.218750X-0.381250X0.218750X-0.381250X0*%
%ADD23RoundRect,0.200000X-0.275000X0.200000X-0.275000X-0.200000X0.275000X-0.200000X0.275000X0.200000X0*%
%ADD24RoundRect,0.218750X-0.218750X-0.381250X0.218750X-0.381250X0.218750X0.381250X-0.218750X0.381250X0*%
%ADD25RoundRect,0.225000X0.225000X0.250000X-0.225000X0.250000X-0.225000X-0.250000X0.225000X-0.250000X0*%
%ADD26R,3.050000X2.750000*%
%ADD27R,2.200000X1.200000*%
G04 APERTURE END LIST*
D10*
%TO.C,U5*%
X133890000Y-84425000D03*
X133890000Y-85925000D03*
X133890000Y-87425000D03*
X133890000Y-88925000D03*
X133890000Y-90425000D03*
X133890000Y-91925000D03*
X133890000Y-93425000D03*
X133890000Y-94925000D03*
X133890000Y-96425000D03*
X133890000Y-97925000D03*
X133890000Y-99425000D03*
X133890000Y-100925000D03*
X133890000Y-102425000D03*
X133890000Y-103925000D03*
X133890000Y-105425000D03*
X133890000Y-106925000D03*
D11*
X135890000Y-107675000D03*
X137390000Y-107675000D03*
X138890000Y-107675000D03*
X140390000Y-107675000D03*
X141890000Y-107675000D03*
X143390000Y-107675000D03*
X144890000Y-107675000D03*
X146390000Y-107675000D03*
X147890000Y-107675000D03*
X149390000Y-107675000D03*
D12*
X151390000Y-106925000D03*
X151390000Y-105425000D03*
X151390000Y-103925000D03*
X151390000Y-102425000D03*
X151390000Y-100925000D03*
X151390000Y-99425000D03*
X151390000Y-97925000D03*
X151390000Y-96425000D03*
X151390000Y-94925000D03*
X151390000Y-93425000D03*
X151390000Y-91925000D03*
X151390000Y-90425000D03*
X151390000Y-88925000D03*
X151390000Y-87425000D03*
X151390000Y-85925000D03*
X151390000Y-84425000D03*
D13*
X140000000Y-91000000D03*
X140000000Y-92500000D03*
X141500000Y-94000000D03*
X143000000Y-91000000D03*
X140000000Y-94000000D03*
X141500000Y-91000000D03*
X143000000Y-92500000D03*
X143000000Y-94000000D03*
X141500000Y-92500000D03*
%TD*%
D14*
%TO.C,J1*%
X110700000Y-123025000D03*
X110700000Y-123675000D03*
X110700000Y-124325000D03*
X110700000Y-124975000D03*
X110700000Y-125625000D03*
%TD*%
D15*
%TO.C,U4*%
X113962500Y-123050000D03*
X113962500Y-124000000D03*
X113962500Y-124950000D03*
X116237500Y-124950000D03*
X116237500Y-124000000D03*
X116237500Y-123050000D03*
%TD*%
D16*
%TO.C,C2*%
X166900000Y-109825000D03*
X166900000Y-108275000D03*
%TD*%
D17*
%TO.C,R2*%
X162143000Y-116062500D03*
X162143000Y-114412500D03*
%TD*%
D18*
%TO.C,R4*%
X115115000Y-104236000D03*
X116765000Y-104236000D03*
%TD*%
D16*
%TO.C,C13*%
X131690000Y-85975000D03*
X131690000Y-84425000D03*
%TD*%
D19*
%TO.C,U1*%
X171160000Y-109160000D03*
X171160000Y-110840000D03*
X172840000Y-110840000D03*
X172840000Y-109160000D03*
D20*
X173300000Y-107550000D03*
X172650000Y-107550000D03*
X172000000Y-107550000D03*
X171350000Y-107550000D03*
X170700000Y-107550000D03*
D21*
X169550000Y-108700000D03*
X169550000Y-109350000D03*
X169550000Y-110000000D03*
X169550000Y-110650000D03*
X169550000Y-111300000D03*
D20*
X170700000Y-112450000D03*
X171350000Y-112450000D03*
X172000000Y-112450000D03*
X172650000Y-112450000D03*
X173300000Y-112450000D03*
D21*
X174450000Y-111300000D03*
X174450000Y-110650000D03*
X174450000Y-110000000D03*
X174450000Y-109350000D03*
X174450000Y-108700000D03*
%TD*%
D22*
%TO.C,FB1*%
X175562500Y-102500000D03*
X173437500Y-102500000D03*
%TD*%
D16*
%TO.C,C11*%
X126725000Y-126300000D03*
X126725000Y-124750000D03*
%TD*%
D23*
%TO.C,R1*%
X162143000Y-118937500D03*
X162143000Y-120587500D03*
%TD*%
D18*
%TO.C,R6*%
X115115000Y-112156000D03*
X116765000Y-112156000D03*
%TD*%
%TO.C,R5*%
X115115000Y-108196000D03*
X116765000Y-108196000D03*
%TD*%
D24*
%TO.C,FB2*%
X168437500Y-102500000D03*
X170562500Y-102500000D03*
%TD*%
D18*
%TO.C,R3*%
X115115000Y-100276000D03*
X116765000Y-100276000D03*
%TD*%
D16*
%TO.C,C3*%
X121500000Y-93775000D03*
X121500000Y-92225000D03*
%TD*%
D25*
%TO.C,C1*%
X172775000Y-105000000D03*
X171225000Y-105000000D03*
%TD*%
D16*
%TO.C,C12*%
X129690000Y-85975000D03*
X129690000Y-84425000D03*
%TD*%
D26*
%TO.C,U2*%
X134150000Y-122500000D03*
X137500000Y-125550000D03*
X134150000Y-125550000D03*
X137500000Y-122500000D03*
D27*
X129525000Y-121745000D03*
X129525000Y-126305000D03*
%TD*%
M02*
